M48
;Layer_Color=9474304
;FILE_FORMAT=4:3
METRIC,LZ
;TYPE=PLATED
T1F00S00C0.300
%
T01
X000565Y00011
X00065
Y0002
X000565
X000814Y0006745
X000824Y0007692
X000912Y0006964
X00099Y00074
X001095Y0007
X00117
X001245
X00132Y000705
X0013825Y000755
X00137Y00092
X00116Y00098
X00117Y001125
X00117Y001235
X0014445Y00123
X001647Y00107
X00175Y001075
X00162Y00058
X001533Y0005737
X001545Y00014
X0014405Y0002005
X00136Y00008
X00125Y00016
X001095Y0004
X0018075Y000096
X002038Y0002
X002195Y0000801
X002325Y0002
X0024
X002475
Y00029
X0024
X002325
X00207Y000533
X002337Y00099
X00241Y00092
X0025279Y0010625
X0024Y0012293
X0006222Y00123
Y00098
X00024Y0010145
X000155
X00007
Y0009245
X000155
X00024
Y0008345
Y0007445
X00048Y0002
Y00011
M30
