M48
;Layer_Color=9474304
;FILE_FORMAT=4:3
METRIC,LZ
;TYPE=PLATED
T1F00S00C0.300
;TYPE=NON_PLATED
T2F00S00C2.000
%
T01
X-00015Y00047
X-0000386Y00043
X-0000112Y00066
X-0001141Y00071
X-00023Y00088
X-00042Y00092
X-00017Y00118
X-00006Y0011352
X-0000653Y00147
X-00016Y0014308
X00007Y00136
X00047Y00126
X0003943Y0011752
X00041Y00169
X0004985Y00161
X00059Y0016517
X00067Y00161
X00092Y0016315
X00104Y0016315
X0009956Y0017599
X00124Y00187
X00133Y00195
X00159Y00193
X00172Y00172
X0016753Y00153
X0016Y0014579
X00149Y00143
X00123Y0015744
X00108Y00123
Y001085
X0010821Y00099
X0011394Y00104
X0011404Y00113
X0009414Y00112
X0009756Y00105
Y00097
X0008983Y0009589
Y00104
X001174Y00083
X00125Y00086
X00128Y00066
X00116Y00051
X00147Y00048
X00164Y00047
X00158Y00068
X00172Y000895
X00192Y0009366
X00161Y00113
X00193Y00167
X00022Y0019
X-00012Y00192
X-00023Y00172
X-00032Y00163
X-00041Y0016798
X00021Y0006742
X0003865Y00045
X00043Y0003
X00045Y00019
X00048Y0001
X00102
X00092Y00024
X0010065Y00211
X00108Y0022
X00088Y00235
X00064
X00048Y002495
X00045Y0020918
X00007Y00205
X-0001451Y00212
X00102Y002495
X00165Y00213
T02
X0002021Y0003397
X0013038Y0003397
X0018547Y0012939
X-0003488Y0012939
X0002021Y0022481
X0013039Y0022481
M30
