G04*
G04 #@! TF.GenerationSoftware,Altium Limited,Altium Designer,22.7.1 (60)*
G04*
G04 Layer_Color=32896*
%FSLAX43Y43*%
%MOMM*%
G71*
G04*
G04 #@! TF.SameCoordinates,4746692A-FCE4-4093-9A7F-7E88C9008C25*
G04*
G04*
G04 #@! TF.FilePolarity,Positive*
G04*
G01*
G75*
%ADD10C,0.200*%
%ADD14C,0.150*%
G36*
X23352Y4975D02*
X23141D01*
Y5280D01*
X22100D01*
Y5488D01*
X23141D01*
Y5791D01*
X23352D01*
Y4975D01*
D02*
G37*
G36*
X22504Y4871D02*
X22541Y4867D01*
X22574Y4862D01*
X22602Y4855D01*
X22624Y4847D01*
X22641Y4842D01*
X22652Y4838D01*
X22656Y4836D01*
X22683Y4821D01*
X22709Y4805D01*
X22731Y4786D01*
X22750Y4769D01*
X22765Y4753D01*
X22774Y4740D01*
X22781Y4732D01*
X22783Y4729D01*
X22793Y4716D01*
X22802Y4699D01*
X22820Y4664D01*
X22835Y4627D01*
X22850Y4590D01*
X22863Y4556D01*
X22867Y4542D01*
X22872Y4529D01*
X22876Y4518D01*
X22878Y4510D01*
X22880Y4505D01*
Y4503D01*
X22887Y4477D01*
X22894Y4453D01*
X22902Y4431D01*
X22909Y4412D01*
X22917Y4393D01*
X22922Y4379D01*
X22930Y4366D01*
X22935Y4353D01*
X22944Y4334D01*
X22952Y4323D01*
X22955Y4316D01*
X22957Y4314D01*
X22970Y4301D01*
X22985Y4290D01*
X22998Y4282D01*
X23011Y4279D01*
X23024Y4275D01*
X23033Y4273D01*
X23039D01*
X23041D01*
X23059Y4275D01*
X23076Y4281D01*
X23091Y4288D01*
X23104Y4295D01*
X23115Y4303D01*
X23122Y4310D01*
X23126Y4316D01*
X23128Y4318D01*
X23139Y4336D01*
X23148Y4358D01*
X23154Y4379D01*
X23159Y4399D01*
X23161Y4418D01*
X23163Y4434D01*
Y4447D01*
X23161Y4477D01*
X23157Y4503D01*
X23150Y4525D01*
X23142Y4543D01*
X23135Y4558D01*
X23128Y4569D01*
X23124Y4575D01*
X23122Y4577D01*
X23104Y4593D01*
X23083Y4606D01*
X23059Y4616D01*
X23037Y4625D01*
X23015Y4630D01*
X22998Y4634D01*
X22991Y4636D01*
X22985Y4638D01*
X22983D01*
X22981D01*
X22993Y4845D01*
X23026Y4843D01*
X23057Y4838D01*
X23085Y4832D01*
X23113Y4825D01*
X23137Y4818D01*
X23161Y4808D01*
X23181Y4797D01*
X23200Y4788D01*
X23217Y4779D01*
X23231Y4769D01*
X23244Y4760D01*
X23254Y4753D01*
X23261Y4745D01*
X23268Y4740D01*
X23270Y4738D01*
X23272Y4736D01*
X23291Y4716D01*
X23305Y4695D01*
X23318Y4671D01*
X23330Y4649D01*
X23348Y4601D01*
X23359Y4556D01*
X23365Y4534D01*
X23367Y4516D01*
X23368Y4497D01*
X23370Y4482D01*
X23372Y4469D01*
Y4453D01*
X23370Y4410D01*
X23365Y4369D01*
X23359Y4336D01*
X23352Y4306D01*
X23342Y4282D01*
X23337Y4264D01*
X23331Y4253D01*
X23330Y4251D01*
Y4249D01*
X23313Y4219D01*
X23292Y4195D01*
X23272Y4173D01*
X23252Y4155D01*
X23233Y4140D01*
X23218Y4131D01*
X23209Y4123D01*
X23207Y4121D01*
X23205D01*
X23174Y4106D01*
X23142Y4095D01*
X23111Y4086D01*
X23083Y4081D01*
X23059Y4077D01*
X23039Y4075D01*
X23031D01*
X23026D01*
X23024D01*
X23022D01*
X22991Y4077D01*
X22959Y4081D01*
X22931Y4086D01*
X22907Y4094D01*
X22887Y4099D01*
X22870Y4105D01*
X22861Y4108D01*
X22857Y4110D01*
X22830Y4125D01*
X22805Y4142D01*
X22785Y4158D01*
X22768Y4173D01*
X22754Y4188D01*
X22744Y4199D01*
X22737Y4206D01*
X22735Y4208D01*
X22718Y4234D01*
X22702Y4264D01*
X22687Y4297D01*
X22674Y4329D01*
X22663Y4358D01*
X22659Y4369D01*
X22656Y4381D01*
X22652Y4390D01*
X22650Y4397D01*
X22648Y4401D01*
Y4403D01*
X22641Y4429D01*
X22633Y4453D01*
X22626Y4475D01*
X22618Y4493D01*
X22613Y4512D01*
X22607Y4527D01*
X22604Y4540D01*
X22600Y4551D01*
X22593Y4568D01*
X22587Y4581D01*
X22585Y4586D01*
X22583Y4588D01*
X22576Y4601D01*
X22568Y4614D01*
X22559Y4623D01*
X22552Y4630D01*
X22541Y4642D01*
X22537Y4645D01*
X22535D01*
X22524Y4653D01*
X22511Y4656D01*
X22489Y4664D01*
X22478D01*
X22470Y4666D01*
X22465D01*
X22463D01*
X22437Y4664D01*
X22413Y4656D01*
X22393Y4649D01*
X22374Y4638D01*
X22361Y4629D01*
X22350Y4619D01*
X22343Y4612D01*
X22341Y4610D01*
X22324Y4588D01*
X22313Y4564D01*
X22304Y4540D01*
X22298Y4518D01*
X22294Y4495D01*
X22293Y4479D01*
Y4464D01*
X22294Y4431D01*
X22304Y4399D01*
X22315Y4373D01*
X22330Y4349D01*
X22348Y4327D01*
X22368Y4308D01*
X22391Y4293D01*
X22413Y4281D01*
X22435Y4269D01*
X22457Y4260D01*
X22478Y4253D01*
X22496Y4247D01*
X22511Y4243D01*
X22522Y4242D01*
X22531Y4240D01*
X22533D01*
X22509Y4038D01*
X22470Y4044D01*
X22433Y4049D01*
X22400Y4058D01*
X22367Y4068D01*
X22337Y4081D01*
X22309Y4094D01*
X22285Y4106D01*
X22261Y4121D01*
X22239Y4138D01*
X22219Y4155D01*
X22185Y4190D01*
X22156Y4227D01*
X22133Y4264D01*
X22115Y4301D01*
X22102Y4336D01*
X22093Y4369D01*
X22087Y4399D01*
X22083Y4423D01*
X22080Y4442D01*
Y4458D01*
X22081Y4497D01*
X22085Y4532D01*
X22089Y4566D01*
X22096Y4597D01*
X22106Y4625D01*
X22115Y4651D01*
X22124Y4675D01*
X22135Y4695D01*
X22144Y4712D01*
X22154Y4729D01*
X22163Y4742D01*
X22172Y4753D01*
X22180Y4760D01*
X22183Y4766D01*
X22187Y4769D01*
X22189Y4771D01*
X22211Y4790D01*
X22233Y4805D01*
X22256Y4819D01*
X22278Y4830D01*
X22324Y4849D01*
X22368Y4860D01*
X22387Y4864D01*
X22406Y4867D01*
X22422Y4869D01*
X22435Y4871D01*
X22448Y4873D01*
X22456D01*
X22461D01*
X22463D01*
X22504Y4871D01*
D02*
G37*
G36*
X23352Y3142D02*
X23141D01*
Y3447D01*
X22100D01*
Y3655D01*
X23141D01*
Y3958D01*
X23352D01*
Y3142D01*
D02*
G37*
G36*
X22781Y8669D02*
X22835Y8665D01*
X22885Y8657D01*
X22931Y8648D01*
X22974Y8639D01*
X23013Y8626D01*
X23048Y8615D01*
X23081Y8602D01*
X23109Y8589D01*
X23133Y8576D01*
X23155Y8563D01*
X23172Y8554D01*
X23187Y8544D01*
X23196Y8537D01*
X23202Y8533D01*
X23204Y8532D01*
X23233Y8504D01*
X23259Y8476D01*
X23281Y8446D01*
X23302Y8417D01*
X23317Y8387D01*
X23331Y8357D01*
X23342Y8328D01*
X23352Y8300D01*
X23357Y8274D01*
X23363Y8250D01*
X23367Y8228D01*
X23370Y8209D01*
Y8195D01*
X23372Y8182D01*
Y8172D01*
X23368Y8117D01*
X23361Y8067D01*
X23350Y8022D01*
X23337Y7983D01*
X23330Y7969D01*
X23322Y7954D01*
X23317Y7941D01*
X23311Y7930D01*
X23307Y7922D01*
X23304Y7917D01*
X23300Y7913D01*
Y7911D01*
X23270Y7874D01*
X23237Y7839D01*
X23202Y7811D01*
X23167Y7785D01*
X23135Y7765D01*
X23120Y7758D01*
X23109Y7752D01*
X23098Y7746D01*
X23091Y7743D01*
X23087Y7739D01*
X23085D01*
X23057Y7728D01*
X23028Y7717D01*
X22967Y7702D01*
X22905Y7691D01*
X22846Y7682D01*
X22820Y7680D01*
X22794Y7678D01*
X22772Y7676D01*
X22754D01*
X22739Y7674D01*
X22726D01*
X22718D01*
X22717D01*
X22661Y7676D01*
X22607Y7680D01*
X22557Y7687D01*
X22511Y7696D01*
X22468Y7708D01*
X22430Y7720D01*
X22393Y7733D01*
X22359Y7748D01*
X22331Y7761D01*
X22306Y7774D01*
X22283Y7787D01*
X22265Y7798D01*
X22252Y7808D01*
X22241Y7815D01*
X22235Y7819D01*
X22233Y7820D01*
X22206Y7846D01*
X22183Y7872D01*
X22163Y7902D01*
X22144Y7930D01*
X22130Y7959D01*
X22117Y7989D01*
X22107Y8017D01*
X22098Y8045D01*
X22093Y8070D01*
X22087Y8095D01*
X22085Y8117D01*
X22081Y8135D01*
Y8150D01*
X22080Y8163D01*
Y8172D01*
X22081Y8213D01*
X22087Y8250D01*
X22094Y8287D01*
X22104Y8320D01*
X22117Y8352D01*
X22130Y8380D01*
X22143Y8406D01*
X22157Y8430D01*
X22172Y8452D01*
X22185Y8470D01*
X22200Y8485D01*
X22211Y8498D01*
X22220Y8509D01*
X22228Y8517D01*
X22233Y8520D01*
X22235Y8522D01*
X22270Y8548D01*
X22307Y8570D01*
X22346Y8591D01*
X22387Y8607D01*
X22428Y8622D01*
X22468Y8635D01*
X22507Y8644D01*
X22546Y8652D01*
X22583Y8657D01*
X22617Y8663D01*
X22648Y8667D01*
X22674Y8669D01*
X22696Y8670D01*
X22713D01*
X22722D01*
X22726D01*
X22781Y8669D01*
D02*
G37*
G36*
X23352Y7311D02*
X22100D01*
Y7519D01*
X23352D01*
Y7311D01*
D02*
G37*
G36*
X22778Y7141D02*
X22835Y7137D01*
X22863Y7135D01*
X22887Y7132D01*
X22909Y7128D01*
X22930Y7126D01*
X22948Y7122D01*
X22965Y7119D01*
X22980Y7115D01*
X22991Y7113D01*
X23000Y7111D01*
X23007Y7109D01*
X23011Y7108D01*
X23013D01*
X23057Y7093D01*
X23096Y7078D01*
X23130Y7061D01*
X23157Y7045D01*
X23181Y7032D01*
X23198Y7021D01*
X23207Y7013D01*
X23211Y7009D01*
X23237Y6985D01*
X23259Y6963D01*
X23278Y6939D01*
X23292Y6919D01*
X23304Y6900D01*
X23313Y6887D01*
X23317Y6878D01*
X23318Y6874D01*
X23330Y6845D01*
X23337Y6809D01*
X23344Y6774D01*
X23348Y6739D01*
X23350Y6708D01*
Y6695D01*
X23352Y6684D01*
Y6282D01*
X22100D01*
Y6671D01*
X22102Y6715D01*
X22106Y6756D01*
X22111Y6791D01*
X22119Y6821D01*
X22124Y6845D01*
X22130Y6861D01*
X22133Y6872D01*
X22135Y6876D01*
X22150Y6906D01*
X22167Y6932D01*
X22183Y6954D01*
X22200Y6974D01*
X22215Y6989D01*
X22228Y7002D01*
X22235Y7009D01*
X22239Y7011D01*
X22267Y7032D01*
X22298Y7050D01*
X22330Y7067D01*
X22361Y7080D01*
X22387Y7091D01*
X22409Y7098D01*
X22418Y7102D01*
X22424Y7104D01*
X22428Y7106D01*
X22430D01*
X22476Y7119D01*
X22524Y7128D01*
X22572Y7134D01*
X22617Y7139D01*
X22637D01*
X22656Y7141D01*
X22672D01*
X22685Y7143D01*
X22696D01*
X22705D01*
X22711D01*
X22713D01*
X22778Y7141D01*
D02*
G37*
G36*
X22867Y11671D02*
X23352Y12057D01*
Y11777D01*
X22793Y11357D01*
X23352D01*
Y11149D01*
X22100D01*
Y11357D01*
X22478D01*
X22687Y11525D01*
X22100Y11805D01*
Y12075D01*
X22867Y11671D01*
D02*
G37*
G36*
X22311Y10481D02*
X23342D01*
Y10273D01*
X22100D01*
Y10996D01*
X22311D01*
Y10481D01*
D02*
G37*
G36*
X22563Y9890D02*
X22513Y9879D01*
X22472Y9864D01*
X22437Y9851D01*
X22409Y9836D01*
X22387Y9823D01*
X22372Y9812D01*
X22363Y9805D01*
X22359Y9803D01*
X22339Y9781D01*
X22322Y9757D01*
X22311Y9733D01*
X22304Y9711D01*
X22300Y9692D01*
X22298Y9675D01*
X22296Y9666D01*
Y9662D01*
X22298Y9642D01*
X22300Y9623D01*
X22311Y9586D01*
X22328Y9557D01*
X22346Y9531D01*
X22363Y9509D01*
X22380Y9494D01*
X22391Y9485D01*
X22393Y9481D01*
X22394D01*
X22415Y9470D01*
X22437Y9459D01*
X22463Y9449D01*
X22489Y9442D01*
X22544Y9429D01*
X22600Y9422D01*
X22626Y9418D01*
X22650Y9416D01*
X22672Y9414D01*
X22691D01*
X22707Y9412D01*
X22718D01*
X22728D01*
X22730D01*
X22770D01*
X22809Y9416D01*
X22844Y9420D01*
X22876Y9424D01*
X22905Y9429D01*
X22933Y9435D01*
X22957Y9440D01*
X22978Y9448D01*
X22996Y9455D01*
X23013Y9461D01*
X23026Y9466D01*
X23037Y9472D01*
X23044Y9477D01*
X23052Y9479D01*
X23054Y9483D01*
X23055D01*
X23074Y9498D01*
X23089Y9512D01*
X23102Y9527D01*
X23113Y9542D01*
X23131Y9573D01*
X23142Y9603D01*
X23150Y9629D01*
X23154Y9649D01*
X23155Y9657D01*
Y9668D01*
X23154Y9698D01*
X23146Y9723D01*
X23139Y9746D01*
X23128Y9766D01*
X23118Y9783D01*
X23109Y9796D01*
X23102Y9803D01*
X23100Y9805D01*
X23078Y9825D01*
X23054Y9842D01*
X23028Y9857D01*
X23002Y9868D01*
X22980Y9875D01*
X22961Y9881D01*
X22954Y9883D01*
X22948D01*
X22946Y9885D01*
X22944D01*
X23004Y10090D01*
X23033Y10083D01*
X23061Y10073D01*
X23087Y10064D01*
X23113Y10055D01*
X23135Y10044D01*
X23155Y10035D01*
X23172Y10023D01*
X23189Y10014D01*
X23204Y10005D01*
X23217Y9996D01*
X23228Y9988D01*
X23237Y9981D01*
X23242Y9975D01*
X23248Y9972D01*
X23252Y9970D01*
Y9968D01*
X23272Y9946D01*
X23291Y9922D01*
X23307Y9898D01*
X23322Y9873D01*
X23333Y9849D01*
X23342Y9825D01*
X23357Y9779D01*
X23363Y9759D01*
X23367Y9740D01*
X23368Y9723D01*
X23370Y9709D01*
X23372Y9696D01*
Y9679D01*
X23370Y9640D01*
X23365Y9603D01*
X23357Y9570D01*
X23348Y9536D01*
X23335Y9507D01*
X23322Y9479D01*
X23307Y9453D01*
X23294Y9431D01*
X23280Y9411D01*
X23265Y9392D01*
X23252Y9377D01*
X23239Y9364D01*
X23230Y9355D01*
X23222Y9348D01*
X23217Y9344D01*
X23215Y9342D01*
X23180Y9316D01*
X23141Y9294D01*
X23102Y9275D01*
X23061Y9259D01*
X23018Y9244D01*
X22978Y9233D01*
X22937Y9224D01*
X22896Y9216D01*
X22859Y9211D01*
X22826Y9205D01*
X22794Y9201D01*
X22767Y9199D01*
X22746D01*
X22730Y9198D01*
X22718D01*
X22717D01*
X22715D01*
X22659Y9199D01*
X22607Y9203D01*
X22557Y9211D01*
X22511Y9220D01*
X22468Y9231D01*
X22430Y9242D01*
X22393Y9255D01*
X22361Y9270D01*
X22331Y9283D01*
X22306Y9296D01*
X22283Y9307D01*
X22267Y9318D01*
X22252Y9327D01*
X22241Y9335D01*
X22235Y9338D01*
X22233Y9340D01*
X22206Y9364D01*
X22183Y9390D01*
X22163Y9416D01*
X22144Y9444D01*
X22130Y9472D01*
X22117Y9498D01*
X22107Y9524D01*
X22098Y9549D01*
X22093Y9573D01*
X22087Y9596D01*
X22085Y9616D01*
X22081Y9633D01*
Y9648D01*
X22080Y9657D01*
Y9666D01*
X22081Y9696D01*
X22083Y9723D01*
X22094Y9775D01*
X22109Y9822D01*
X22119Y9842D01*
X22128Y9861D01*
X22137Y9877D01*
X22146Y9892D01*
X22154Y9905D01*
X22161Y9914D01*
X22167Y9923D01*
X22172Y9929D01*
X22174Y9933D01*
X22176Y9935D01*
X22196Y9955D01*
X22217Y9973D01*
X22265Y10005D01*
X22317Y10033D01*
X22367Y10055D01*
X22391Y10064D01*
X22413Y10072D01*
X22433Y10077D01*
X22450Y10083D01*
X22465Y10086D01*
X22476Y10090D01*
X22483Y10092D01*
X22485D01*
X22563Y9890D01*
D02*
G37*
G36*
X21752Y11502D02*
X21541D01*
Y11807D01*
X20500D01*
Y12015D01*
X21541D01*
Y12318D01*
X21752D01*
Y11502D01*
D02*
G37*
G36*
X20963Y11196D02*
X20913Y11185D01*
X20872Y11170D01*
X20837Y11157D01*
X20809Y11142D01*
X20787Y11129D01*
X20772Y11118D01*
X20763Y11111D01*
X20759Y11109D01*
X20739Y11087D01*
X20722Y11063D01*
X20711Y11039D01*
X20704Y11017D01*
X20700Y10998D01*
X20698Y10981D01*
X20696Y10972D01*
Y10968D01*
X20698Y10948D01*
X20700Y10929D01*
X20711Y10892D01*
X20728Y10863D01*
X20746Y10837D01*
X20763Y10815D01*
X20780Y10800D01*
X20791Y10791D01*
X20793Y10787D01*
X20794D01*
X20815Y10776D01*
X20837Y10765D01*
X20863Y10755D01*
X20889Y10748D01*
X20944Y10735D01*
X21000Y10728D01*
X21026Y10724D01*
X21050Y10722D01*
X21072Y10720D01*
X21091D01*
X21107Y10718D01*
X21118D01*
X21128D01*
X21130D01*
X21170D01*
X21209Y10722D01*
X21244Y10726D01*
X21276Y10729D01*
X21305Y10735D01*
X21333Y10741D01*
X21357Y10746D01*
X21378Y10754D01*
X21396Y10761D01*
X21413Y10767D01*
X21426Y10772D01*
X21437Y10778D01*
X21444Y10783D01*
X21452Y10785D01*
X21454Y10789D01*
X21455D01*
X21474Y10804D01*
X21489Y10818D01*
X21502Y10833D01*
X21513Y10848D01*
X21531Y10879D01*
X21542Y10909D01*
X21550Y10935D01*
X21554Y10955D01*
X21555Y10963D01*
Y10974D01*
X21554Y11004D01*
X21546Y11029D01*
X21539Y11052D01*
X21528Y11072D01*
X21518Y11089D01*
X21509Y11102D01*
X21502Y11109D01*
X21500Y11111D01*
X21478Y11131D01*
X21454Y11148D01*
X21428Y11163D01*
X21402Y11174D01*
X21380Y11181D01*
X21361Y11187D01*
X21354Y11189D01*
X21348D01*
X21346Y11191D01*
X21344D01*
X21404Y11396D01*
X21433Y11389D01*
X21461Y11379D01*
X21487Y11370D01*
X21513Y11361D01*
X21535Y11350D01*
X21555Y11341D01*
X21572Y11329D01*
X21589Y11320D01*
X21604Y11311D01*
X21617Y11302D01*
X21628Y11294D01*
X21637Y11287D01*
X21642Y11281D01*
X21648Y11278D01*
X21652Y11276D01*
Y11274D01*
X21672Y11252D01*
X21691Y11228D01*
X21707Y11204D01*
X21722Y11179D01*
X21733Y11155D01*
X21742Y11131D01*
X21757Y11085D01*
X21763Y11065D01*
X21767Y11046D01*
X21768Y11029D01*
X21770Y11015D01*
X21772Y11002D01*
Y10985D01*
X21770Y10946D01*
X21765Y10909D01*
X21757Y10876D01*
X21748Y10842D01*
X21735Y10813D01*
X21722Y10785D01*
X21707Y10759D01*
X21694Y10737D01*
X21680Y10717D01*
X21665Y10698D01*
X21652Y10683D01*
X21639Y10670D01*
X21630Y10661D01*
X21622Y10654D01*
X21617Y10650D01*
X21615Y10648D01*
X21580Y10622D01*
X21541Y10600D01*
X21502Y10581D01*
X21461Y10565D01*
X21418Y10550D01*
X21378Y10539D01*
X21337Y10530D01*
X21296Y10522D01*
X21259Y10517D01*
X21226Y10511D01*
X21194Y10507D01*
X21167Y10505D01*
X21146D01*
X21130Y10504D01*
X21118D01*
X21117D01*
X21115D01*
X21059Y10505D01*
X21007Y10509D01*
X20957Y10517D01*
X20911Y10526D01*
X20868Y10537D01*
X20830Y10548D01*
X20793Y10561D01*
X20761Y10576D01*
X20731Y10589D01*
X20706Y10602D01*
X20683Y10613D01*
X20667Y10624D01*
X20652Y10633D01*
X20641Y10641D01*
X20635Y10644D01*
X20633Y10646D01*
X20606Y10670D01*
X20583Y10696D01*
X20563Y10722D01*
X20544Y10750D01*
X20530Y10778D01*
X20517Y10804D01*
X20507Y10829D01*
X20498Y10855D01*
X20493Y10879D01*
X20487Y10902D01*
X20485Y10922D01*
X20481Y10939D01*
Y10954D01*
X20480Y10963D01*
Y10972D01*
X20481Y11002D01*
X20483Y11029D01*
X20494Y11081D01*
X20509Y11128D01*
X20519Y11148D01*
X20528Y11166D01*
X20537Y11183D01*
X20546Y11198D01*
X20554Y11211D01*
X20561Y11220D01*
X20567Y11229D01*
X20572Y11235D01*
X20574Y11239D01*
X20576Y11241D01*
X20596Y11261D01*
X20617Y11279D01*
X20665Y11311D01*
X20717Y11339D01*
X20767Y11361D01*
X20791Y11370D01*
X20813Y11378D01*
X20833Y11383D01*
X20850Y11389D01*
X20865Y11392D01*
X20876Y11396D01*
X20883Y11398D01*
X20885D01*
X20963Y11196D01*
D02*
G37*
G36*
X21752Y10018D02*
Y9798D01*
X20500Y9400D01*
Y9620D01*
X20783Y9704D01*
Y10118D01*
X20500Y10207D01*
Y10431D01*
X21752Y10018D01*
D02*
G37*
G36*
X5441Y8475D02*
X5320Y8454D01*
X5310Y8467D01*
X5300Y8477D01*
X5290Y8487D01*
X5280Y8494D01*
X5260Y8506D01*
X5242Y8515D01*
X5226Y8519D01*
X5215Y8522D01*
X5207Y8523D01*
X5204D01*
X5186Y8522D01*
X5170Y8516D01*
X5155Y8509D01*
X5143Y8502D01*
X5133Y8494D01*
X5126Y8487D01*
X5122Y8481D01*
X5121Y8480D01*
X5109Y8461D01*
X5101Y8441D01*
X5095Y8419D01*
X5091Y8398D01*
X5088Y8378D01*
X5087Y8363D01*
Y8356D01*
Y8351D01*
Y8348D01*
Y8347D01*
X5088Y8315D01*
X5093Y8285D01*
X5098Y8261D01*
X5104Y8241D01*
X5109Y8227D01*
X5115Y8216D01*
X5119Y8210D01*
X5121Y8207D01*
X5133Y8192D01*
X5146Y8182D01*
X5160Y8174D01*
X5173Y8168D01*
X5183Y8165D01*
X5191Y8164D01*
X5198Y8162D01*
X5200D01*
X5214Y8164D01*
X5226Y8168D01*
X5239Y8174D01*
X5249Y8181D01*
X5257Y8186D01*
X5265Y8192D01*
X5269Y8196D01*
X5270Y8198D01*
X5281Y8212D01*
X5290Y8229D01*
X5297Y8244D01*
X5301Y8260D01*
X5304Y8274D01*
X5307Y8286D01*
X5308Y8293D01*
Y8296D01*
X5458Y8277D01*
X5451Y8233D01*
X5445Y8212D01*
X5439Y8193D01*
X5432Y8176D01*
X5425Y8161D01*
X5418Y8145D01*
X5411Y8133D01*
X5404Y8122D01*
X5397Y8112D01*
X5391Y8103D01*
X5386Y8096D01*
X5382Y8090D01*
X5377Y8086D01*
X5376Y8085D01*
X5374Y8083D01*
X5360Y8072D01*
X5346Y8061D01*
X5318Y8044D01*
X5288Y8033D01*
X5262Y8024D01*
X5238Y8020D01*
X5226Y8017D01*
X5218D01*
X5211Y8016D01*
X5201D01*
X5177Y8017D01*
X5156Y8020D01*
X5135Y8026D01*
X5117Y8033D01*
X5098Y8040D01*
X5083Y8048D01*
X5067Y8058D01*
X5054Y8068D01*
X5043Y8078D01*
X5032Y8088D01*
X5023Y8096D01*
X5016Y8103D01*
X5011Y8110D01*
X5007Y8116D01*
X5005Y8119D01*
X5004Y8120D01*
X4991Y8140D01*
X4980Y8161D01*
X4971Y8181D01*
X4963Y8200D01*
X4950Y8240D01*
X4942Y8275D01*
X4939Y8292D01*
X4937Y8306D01*
X4935Y8319D01*
Y8330D01*
X4933Y8339D01*
Y8346D01*
Y8350D01*
Y8351D01*
X4935Y8379D01*
X4936Y8406D01*
X4940Y8430D01*
X4946Y8454D01*
X4952Y8475D01*
X4959Y8496D01*
X4967Y8515D01*
X4974Y8532D01*
X4981Y8546D01*
X4990Y8559D01*
X4997Y8570D01*
X5002Y8580D01*
X5008Y8587D01*
X5011Y8592D01*
X5014Y8595D01*
X5015Y8597D01*
X5028Y8609D01*
X5040Y8621D01*
X5053Y8630D01*
X5067Y8639D01*
X5094Y8652D01*
X5118Y8661D01*
X5140Y8666D01*
X5149Y8667D01*
X5157Y8668D01*
X5164Y8670D01*
X5173D01*
X5193Y8668D01*
X5211Y8664D01*
X5228Y8660D01*
X5243Y8654D01*
X5257Y8647D01*
X5267Y8643D01*
X5273Y8639D01*
X5276Y8637D01*
X5250Y8801D01*
X4969D01*
Y8972D01*
X5365D01*
X5441Y8475D01*
D02*
G37*
G36*
X6215Y8031D02*
X6057D01*
Y8429D01*
X6006D01*
X5991Y8427D01*
X5976Y8426D01*
X5965Y8423D01*
X5957Y8422D01*
X5951Y8419D01*
X5948Y8418D01*
X5947D01*
X5937Y8413D01*
X5929Y8406D01*
X5914Y8394D01*
X5909Y8388D01*
X5905Y8382D01*
X5902Y8379D01*
X5900Y8378D01*
X5896Y8372D01*
X5890Y8364D01*
X5883Y8356D01*
X5878Y8346D01*
X5864Y8322D01*
X5850Y8298D01*
X5837Y8275D01*
X5831Y8265D01*
X5826Y8257D01*
X5821Y8250D01*
X5819Y8244D01*
X5816Y8240D01*
Y8238D01*
X5703Y8031D01*
X5513D01*
X5609Y8216D01*
X5618Y8236D01*
X5628Y8255D01*
X5638Y8272D01*
X5647Y8288D01*
X5655Y8302D01*
X5662Y8315D01*
X5675Y8336D01*
X5685Y8351D01*
X5693Y8363D01*
X5697Y8370D01*
X5699Y8371D01*
X5711Y8387D01*
X5726Y8402D01*
X5740Y8416D01*
X5752Y8427D01*
X5764Y8437D01*
X5773Y8444D01*
X5779Y8450D01*
X5782Y8451D01*
X5747Y8460D01*
X5717Y8471D01*
X5690Y8485D01*
X5669Y8501D01*
X5652Y8513D01*
X5640Y8525D01*
X5632Y8533D01*
X5630Y8535D01*
Y8536D01*
X5611Y8564D01*
X5597Y8594D01*
X5587Y8623D01*
X5582Y8652D01*
X5577Y8677D01*
X5576Y8688D01*
Y8698D01*
X5575Y8705D01*
Y8712D01*
Y8715D01*
Y8716D01*
X5576Y8749D01*
X5580Y8777D01*
X5586Y8804D01*
X5592Y8826D01*
X5599Y8843D01*
X5604Y8857D01*
X5609Y8866D01*
X5610Y8869D01*
X5624Y8891D01*
X5640Y8910D01*
X5654Y8925D01*
X5668Y8936D01*
X5680Y8946D01*
X5690Y8953D01*
X5697Y8956D01*
X5700Y8957D01*
X5711Y8962D01*
X5724Y8966D01*
X5752Y8973D01*
X5782Y8977D01*
X5812Y8981D01*
X5838Y8983D01*
X5851D01*
X5861Y8984D01*
X6215D01*
Y8031D01*
D02*
G37*
G36*
X21376Y912D02*
X21402Y906D01*
X21426Y898D01*
X21446Y889D01*
X21461Y880D01*
X21473Y871D01*
X21480Y865D01*
X21482Y864D01*
X21483Y863D01*
X21492Y853D01*
X21501Y841D01*
X21516Y816D01*
X21528Y790D01*
X21538Y763D01*
X21545Y739D01*
X21548Y730D01*
X21550Y720D01*
X21551Y713D01*
X21552Y707D01*
X21554Y703D01*
Y702D01*
X21436Y678D01*
X21433Y697D01*
X21430Y713D01*
X21425Y727D01*
X21420Y738D01*
X21415Y746D01*
X21412Y754D01*
X21409Y757D01*
X21408Y758D01*
X21399Y768D01*
X21389Y774D01*
X21379Y779D01*
X21371Y782D01*
X21364Y785D01*
X21357Y786D01*
X21352D01*
X21340Y785D01*
X21329Y782D01*
X21319Y779D01*
X21312Y774D01*
X21306Y769D01*
X21301Y766D01*
X21299Y763D01*
X21298Y762D01*
X21291Y752D01*
X21286Y742D01*
X21281Y731D01*
X21279Y721D01*
X21277Y712D01*
X21276Y704D01*
Y700D01*
Y697D01*
X21277Y679D01*
X21281Y663D01*
X21286Y650D01*
X21291Y639D01*
X21295Y631D01*
X21300Y624D01*
X21304Y620D01*
X21305Y619D01*
X21317Y611D01*
X21329Y603D01*
X21342Y600D01*
X21355Y596D01*
X21366Y595D01*
X21376Y594D01*
X21384D01*
X21397Y466D01*
X21385Y470D01*
X21375Y474D01*
X21364Y476D01*
X21355Y477D01*
X21349Y478D01*
X21340D01*
X21327Y477D01*
X21315Y474D01*
X21304Y468D01*
X21294Y462D01*
X21287Y454D01*
X21281Y450D01*
X21277Y445D01*
X21276Y444D01*
X21268Y430D01*
X21260Y415D01*
X21256Y399D01*
X21253Y385D01*
X21251Y372D01*
X21250Y361D01*
Y354D01*
Y352D01*
Y351D01*
X21251Y328D01*
X21254Y309D01*
X21258Y291D01*
X21263Y278D01*
X21269Y266D01*
X21272Y259D01*
X21276Y253D01*
X21277Y251D01*
X21288Y239D01*
X21299Y231D01*
X21311Y225D01*
X21322Y221D01*
X21330Y219D01*
X21337Y217D01*
X21345D01*
X21358Y218D01*
X21370Y221D01*
X21381Y226D01*
X21389Y232D01*
X21396Y237D01*
X21402Y242D01*
X21406Y245D01*
X21407Y247D01*
X21415Y259D01*
X21423Y273D01*
X21429Y287D01*
X21432Y302D01*
X21436Y315D01*
X21437Y325D01*
X21438Y332D01*
Y333D01*
Y334D01*
X21562Y316D01*
X21556Y278D01*
X21548Y245D01*
X21542Y230D01*
X21536Y217D01*
X21530Y203D01*
X21524Y193D01*
X21518Y182D01*
X21512Y173D01*
X21507Y166D01*
X21502Y159D01*
X21498Y154D01*
X21495Y150D01*
X21494Y149D01*
X21492Y148D01*
X21480Y137D01*
X21468Y128D01*
X21456Y119D01*
X21443Y113D01*
X21418Y101D01*
X21395Y94D01*
X21375Y90D01*
X21365Y89D01*
X21358Y88D01*
X21352Y87D01*
X21343D01*
X21327Y88D01*
X21311Y90D01*
X21295Y94D01*
X21280Y98D01*
X21253Y110D01*
X21230Y123D01*
X21211Y136D01*
X21204Y142D01*
X21198Y148D01*
X21193Y152D01*
X21188Y155D01*
X21187Y158D01*
X21186Y159D01*
X21174Y173D01*
X21163Y188D01*
X21155Y203D01*
X21148Y219D01*
X21136Y249D01*
X21127Y278D01*
X21125Y292D01*
X21122Y304D01*
X21121Y315D01*
X21120Y325D01*
X21119Y332D01*
Y338D01*
Y341D01*
Y343D01*
X21120Y370D01*
X21125Y396D01*
X21130Y417D01*
X21137Y435D01*
X21143Y450D01*
X21149Y460D01*
X21154Y468D01*
X21155Y470D01*
X21169Y488D01*
X21184Y502D01*
X21198Y513D01*
X21212Y523D01*
X21226Y529D01*
X21235Y533D01*
X21242Y535D01*
X21244Y536D01*
X21245D01*
X21228Y548D01*
X21214Y561D01*
X21200Y575D01*
X21191Y585D01*
X21182Y596D01*
X21178Y603D01*
X21174Y608D01*
X21173Y611D01*
X21164Y627D01*
X21158Y644D01*
X21154Y660D01*
X21151Y675D01*
X21149Y687D01*
X21148Y698D01*
Y704D01*
Y707D01*
Y721D01*
X21150Y736D01*
X21156Y762D01*
X21164Y786D01*
X21174Y808D01*
X21185Y826D01*
X21190Y833D01*
X21193Y839D01*
X21197Y844D01*
X21199Y847D01*
X21200Y848D01*
X21202Y850D01*
X21212Y862D01*
X21223Y871D01*
X21235Y880D01*
X21247Y887D01*
X21271Y899D01*
X21294Y906D01*
X21316Y911D01*
X21324Y912D01*
X21331Y913D01*
X21339Y915D01*
X21361D01*
X21376Y912D01*
D02*
G37*
G36*
X22200Y100D02*
X22065D01*
Y439D01*
X22022D01*
X22009Y438D01*
X21997Y436D01*
X21987Y434D01*
X21980Y433D01*
X21975Y430D01*
X21973Y429D01*
X21972D01*
X21963Y426D01*
X21956Y420D01*
X21944Y409D01*
X21939Y404D01*
X21936Y399D01*
X21933Y397D01*
X21932Y396D01*
X21928Y391D01*
X21924Y384D01*
X21918Y376D01*
X21913Y368D01*
X21901Y347D01*
X21889Y327D01*
X21878Y308D01*
X21873Y299D01*
X21868Y292D01*
X21865Y286D01*
X21862Y281D01*
X21860Y278D01*
Y277D01*
X21764Y100D01*
X21602D01*
X21683Y257D01*
X21692Y274D01*
X21700Y291D01*
X21709Y305D01*
X21716Y319D01*
X21723Y331D01*
X21729Y341D01*
X21740Y360D01*
X21748Y373D01*
X21755Y382D01*
X21759Y388D01*
X21760Y390D01*
X21771Y403D01*
X21783Y416D01*
X21795Y428D01*
X21806Y438D01*
X21816Y446D01*
X21824Y452D01*
X21829Y457D01*
X21831Y458D01*
X21801Y465D01*
X21776Y475D01*
X21753Y487D01*
X21735Y500D01*
X21721Y511D01*
X21710Y521D01*
X21704Y528D01*
X21701Y529D01*
Y530D01*
X21686Y554D01*
X21674Y579D01*
X21665Y605D01*
X21661Y629D01*
X21657Y650D01*
X21656Y660D01*
Y668D01*
X21655Y674D01*
Y680D01*
Y683D01*
Y684D01*
X21656Y712D01*
X21659Y736D01*
X21664Y758D01*
X21669Y778D01*
X21675Y792D01*
X21680Y804D01*
X21683Y811D01*
X21685Y814D01*
X21697Y833D01*
X21710Y848D01*
X21722Y862D01*
X21734Y871D01*
X21745Y880D01*
X21753Y886D01*
X21759Y888D01*
X21761Y889D01*
X21771Y893D01*
X21782Y897D01*
X21806Y903D01*
X21831Y906D01*
X21856Y910D01*
X21879Y911D01*
X21890D01*
X21898Y912D01*
X22200D01*
Y100D01*
D02*
G37*
G36*
X9803Y6748D02*
X9772Y6737D01*
X9744Y6722D01*
X9719Y6707D01*
X9698Y6691D01*
X9679Y6677D01*
X9665Y6666D01*
X9657Y6658D01*
X9655Y6656D01*
X9654Y6655D01*
X9632Y6629D01*
X9613Y6605D01*
X9598Y6584D01*
X9585Y6565D01*
X9577Y6548D01*
X9569Y6536D01*
X9567Y6528D01*
X9565Y6527D01*
Y6525D01*
X9399D01*
X9417Y6565D01*
X9438Y6603D01*
X9462Y6635D01*
X9485Y6663D01*
X9495Y6676D01*
X9505Y6687D01*
X9514Y6697D01*
X9522Y6704D01*
X9529Y6711D01*
X9533Y6715D01*
X9536Y6718D01*
X9537Y6720D01*
X8848D01*
Y6870D01*
X9803D01*
Y6748D01*
D02*
G37*
G36*
X9032Y6338D02*
X9052Y6328D01*
X9072Y6318D01*
X9089Y6308D01*
X9104Y6300D01*
X9118Y6291D01*
X9131Y6284D01*
X9152Y6271D01*
X9168Y6261D01*
X9179Y6253D01*
X9186Y6249D01*
X9187Y6247D01*
X9203Y6235D01*
X9218Y6221D01*
X9233Y6207D01*
X9244Y6194D01*
X9254Y6183D01*
X9261Y6173D01*
X9266Y6167D01*
X9268Y6164D01*
X9276Y6199D01*
X9288Y6229D01*
X9302Y6256D01*
X9317Y6277D01*
X9330Y6294D01*
X9341Y6307D01*
X9350Y6314D01*
X9351Y6316D01*
X9352D01*
X9381Y6335D01*
X9410Y6349D01*
X9440Y6359D01*
X9468Y6364D01*
X9493Y6369D01*
X9505Y6370D01*
X9514D01*
X9522Y6371D01*
X9529D01*
X9531D01*
X9533D01*
X9565Y6370D01*
X9593Y6366D01*
X9620Y6360D01*
X9643Y6355D01*
X9660Y6347D01*
X9674Y6342D01*
X9682Y6338D01*
X9685Y6336D01*
X9708Y6322D01*
X9726Y6307D01*
X9741Y6292D01*
X9753Y6278D01*
X9763Y6266D01*
X9770Y6256D01*
X9772Y6249D01*
X9774Y6246D01*
X9778Y6235D01*
X9782Y6222D01*
X9789Y6194D01*
X9794Y6164D01*
X9798Y6135D01*
X9799Y6108D01*
Y6095D01*
X9801Y6085D01*
Y5731D01*
X8848D01*
Y5889D01*
X9245D01*
Y5940D01*
X9244Y5956D01*
X9242Y5970D01*
X9240Y5981D01*
X9238Y5989D01*
X9235Y5995D01*
X9234Y5998D01*
Y5999D01*
X9230Y6009D01*
X9223Y6018D01*
X9210Y6032D01*
X9204Y6037D01*
X9199Y6042D01*
X9196Y6044D01*
X9194Y6046D01*
X9189Y6050D01*
X9180Y6056D01*
X9172Y6063D01*
X9162Y6068D01*
X9138Y6082D01*
X9114Y6097D01*
X9092Y6109D01*
X9082Y6115D01*
X9073Y6121D01*
X9066Y6125D01*
X9061Y6128D01*
X9056Y6130D01*
X9055D01*
X8848Y6243D01*
Y6433D01*
X9032Y6338D01*
D02*
G37*
G36*
X12330Y9025D02*
X12344Y8997D01*
X12359Y8971D01*
X12375Y8950D01*
X12389Y8932D01*
X12400Y8918D01*
X12409Y8909D01*
X12410Y8908D01*
X12411Y8906D01*
X12437Y8884D01*
X12461Y8865D01*
X12482Y8850D01*
X12502Y8837D01*
X12519Y8829D01*
X12530Y8822D01*
X12538Y8819D01*
X12540Y8818D01*
X12541D01*
Y8651D01*
X12502Y8670D01*
X12464Y8691D01*
X12431Y8715D01*
X12403Y8737D01*
X12390Y8747D01*
X12379Y8757D01*
X12369Y8767D01*
X12362Y8774D01*
X12355Y8781D01*
X12351Y8785D01*
X12348Y8788D01*
X12347Y8789D01*
Y8100D01*
X12196D01*
Y9056D01*
X12318D01*
X12330Y9025D01*
D02*
G37*
G36*
X13080Y9066D02*
X13118Y9060D01*
X13152Y9050D01*
X13181Y9040D01*
X13194Y9035D01*
X13205Y9030D01*
X13215Y9025D01*
X13222Y9021D01*
X13229Y9018D01*
X13233Y9015D01*
X13236Y9012D01*
X13238D01*
X13267Y8990D01*
X13294Y8963D01*
X13316Y8936D01*
X13336Y8908D01*
X13352Y8884D01*
X13359Y8874D01*
X13363Y8864D01*
X13367Y8857D01*
X13370Y8851D01*
X13373Y8847D01*
Y8846D01*
X13390Y8802D01*
X13402Y8757D01*
X13412Y8712D01*
X13418Y8670D01*
X13421Y8650D01*
X13422Y8633D01*
X13424Y8616D01*
Y8603D01*
X13425Y8592D01*
Y8584D01*
Y8578D01*
Y8576D01*
X13422Y8521D01*
X13417Y8471D01*
X13414Y8447D01*
X13409Y8426D01*
X13404Y8404D01*
X13400Y8386D01*
X13395Y8369D01*
X13390Y8354D01*
X13386Y8341D01*
X13383Y8330D01*
X13378Y8321D01*
X13377Y8316D01*
X13374Y8311D01*
Y8310D01*
X13353Y8271D01*
X13331Y8237D01*
X13307Y8207D01*
X13284Y8183D01*
X13264Y8165D01*
X13247Y8152D01*
X13242Y8147D01*
X13238Y8144D01*
X13235Y8142D01*
X13233Y8141D01*
X13199Y8123D01*
X13164Y8108D01*
X13129Y8099D01*
X13098Y8092D01*
X13084Y8089D01*
X13070Y8087D01*
X13058Y8086D01*
X13049D01*
X13040Y8084D01*
X13029D01*
X12994Y8086D01*
X12960Y8092D01*
X12927Y8099D01*
X12899Y8106D01*
X12875Y8114D01*
X12865Y8117D01*
X12855Y8120D01*
X12850Y8123D01*
X12844Y8125D01*
X12841Y8127D01*
X12840D01*
X12806Y8144D01*
X12777Y8162D01*
X12753Y8179D01*
X12731Y8196D01*
X12715Y8210D01*
X12703Y8221D01*
X12696Y8228D01*
X12693Y8231D01*
Y8610D01*
X13033D01*
Y8450D01*
X12853D01*
Y8330D01*
X12868Y8316D01*
X12884Y8304D01*
X12899Y8295D01*
X12912Y8286D01*
X12925Y8279D01*
X12934Y8275D01*
X12940Y8272D01*
X12943Y8271D01*
X12961Y8264D01*
X12978Y8258D01*
X12995Y8255D01*
X13009Y8252D01*
X13020Y8251D01*
X13029Y8249D01*
X13037D01*
X13056Y8251D01*
X13073Y8252D01*
X13104Y8261D01*
X13132Y8273D01*
X13154Y8287D01*
X13171Y8302D01*
X13184Y8314D01*
X13192Y8323D01*
X13194Y8324D01*
X13195Y8326D01*
X13206Y8344D01*
X13216Y8362D01*
X13233Y8404D01*
X13245Y8448D01*
X13253Y8490D01*
X13256Y8509D01*
X13257Y8527D01*
X13260Y8544D01*
Y8558D01*
X13261Y8569D01*
Y8579D01*
Y8585D01*
Y8586D01*
X13260Y8616D01*
X13259Y8643D01*
X13256Y8668D01*
X13252Y8692D01*
X13247Y8713D01*
X13242Y8733D01*
X13236Y8750D01*
X13230Y8765D01*
X13225Y8779D01*
X13219Y8792D01*
X13214Y8802D01*
X13209Y8810D01*
X13205Y8816D01*
X13202Y8820D01*
X13199Y8823D01*
Y8825D01*
X13187Y8839D01*
X13174Y8851D01*
X13161Y8861D01*
X13147Y8870D01*
X13120Y8884D01*
X13094Y8894D01*
X13071Y8899D01*
X13061Y8901D01*
X13053Y8902D01*
X13046Y8904D01*
X13036D01*
X13012Y8902D01*
X12991Y8898D01*
X12972Y8891D01*
X12956Y8884D01*
X12943Y8877D01*
X12933Y8870D01*
X12926Y8865D01*
X12925Y8864D01*
X12909Y8849D01*
X12895Y8830D01*
X12884Y8810D01*
X12875Y8794D01*
X12868Y8777D01*
X12864Y8764D01*
X12861Y8754D01*
X12860Y8753D01*
Y8751D01*
X12703Y8787D01*
X12709Y8812D01*
X12715Y8836D01*
X12723Y8857D01*
X12731Y8878D01*
X12740Y8896D01*
X12750Y8913D01*
X12758Y8929D01*
X12768Y8943D01*
X12777Y8956D01*
X12785Y8967D01*
X12793Y8975D01*
X12799Y8984D01*
X12805Y8990D01*
X12809Y8994D01*
X12812Y8995D01*
X12813Y8997D01*
X12829Y9009D01*
X12847Y9021D01*
X12865Y9030D01*
X12884Y9039D01*
X12920Y9052D01*
X12957Y9060D01*
X12972Y9063D01*
X12988Y9064D01*
X13002Y9066D01*
X13013Y9067D01*
X13023Y9068D01*
X13037D01*
X13080Y9066D01*
D02*
G37*
G36*
X14984Y10354D02*
X15006Y10352D01*
X15026Y10344D01*
X15046Y10337D01*
X15081Y10319D01*
X15096Y10309D01*
X15110Y10298D01*
X15123Y10287D01*
X15134Y10277D01*
X15144Y10267D01*
X15153Y10259D01*
X15158Y10251D01*
X15163Y10246D01*
X15165Y10242D01*
X15167Y10240D01*
X15181Y10218D01*
X15192Y10191D01*
X15204Y10163D01*
X15212Y10133D01*
X15226Y10071D01*
X15236Y10009D01*
X15239Y9979D01*
X15242Y9953D01*
X15243Y9929D01*
X15244Y9906D01*
X15246Y9889D01*
Y9875D01*
Y9867D01*
Y9865D01*
Y9864D01*
X15244Y9817D01*
X15243Y9774D01*
X15239Y9734D01*
X15235Y9697D01*
X15227Y9664D01*
X15222Y9634D01*
X15215Y9606D01*
X15208Y9582D01*
X15201Y9561D01*
X15194Y9544D01*
X15187Y9528D01*
X15181Y9516D01*
X15177Y9507D01*
X15173Y9500D01*
X15171Y9496D01*
X15170Y9494D01*
X15154Y9475D01*
X15139Y9458D01*
X15123Y9444D01*
X15106Y9431D01*
X15091Y9420D01*
X15074Y9411D01*
X15058Y9404D01*
X15043Y9399D01*
X15016Y9390D01*
X15005Y9387D01*
X14995Y9386D01*
X14986D01*
X14981Y9384D01*
X14975D01*
X14955Y9386D01*
X14937Y9389D01*
X14919Y9393D01*
X14902Y9397D01*
X14871Y9411D01*
X14845Y9427D01*
X14824Y9442D01*
X14816Y9449D01*
X14809Y9456D01*
X14803Y9461D01*
X14799Y9465D01*
X14798Y9468D01*
X14796Y9469D01*
X14783Y9486D01*
X14772Y9504D01*
X14762Y9523D01*
X14754Y9542D01*
X14741Y9582D01*
X14731Y9618D01*
X14728Y9637D01*
X14727Y9652D01*
X14726Y9668D01*
X14724Y9681D01*
X14723Y9690D01*
Y9697D01*
Y9703D01*
Y9704D01*
X14724Y9730D01*
X14726Y9755D01*
X14728Y9778D01*
X14734Y9800D01*
X14738Y9820D01*
X14744Y9838D01*
X14751Y9855D01*
X14757Y9871D01*
X14764Y9885D01*
X14769Y9898D01*
X14776Y9907D01*
X14781Y9916D01*
X14785Y9923D01*
X14789Y9927D01*
X14790Y9930D01*
X14792Y9931D01*
X14805Y9947D01*
X14819Y9960D01*
X14831Y9971D01*
X14845Y9981D01*
X14858Y9989D01*
X14872Y9996D01*
X14896Y10006D01*
X14919Y10013D01*
X14927Y10015D01*
X14936Y10016D01*
X14943Y10017D01*
X14951D01*
X14967Y10016D01*
X14981Y10015D01*
X14995Y10010D01*
X15006Y10008D01*
X15015Y10003D01*
X15023Y9999D01*
X15027Y9998D01*
X15029Y9996D01*
X15041Y9988D01*
X15053Y9978D01*
X15063Y9968D01*
X15072Y9958D01*
X15079Y9950D01*
X15085Y9943D01*
X15089Y9937D01*
X15091Y9936D01*
X15089Y9965D01*
X15087Y9992D01*
X15084Y10016D01*
X15081Y10037D01*
X15078Y10057D01*
X15074Y10075D01*
X15071Y10091D01*
X15067Y10105D01*
X15064Y10116D01*
X15061Y10126D01*
X15057Y10134D01*
X15056Y10140D01*
X15053Y10146D01*
X15051Y10149D01*
X15050Y10151D01*
X15037Y10170D01*
X15023Y10182D01*
X15010Y10192D01*
X14998Y10198D01*
X14986Y10202D01*
X14978Y10204D01*
X14971Y10205D01*
X14970D01*
X14957Y10204D01*
X14944Y10201D01*
X14934Y10195D01*
X14924Y10188D01*
X14909Y10171D01*
X14899Y10153D01*
X14891Y10133D01*
X14886Y10116D01*
X14885Y10109D01*
X14884Y10103D01*
Y10101D01*
Y10099D01*
X14738Y10119D01*
X14747Y10161D01*
X14757Y10196D01*
X14769Y10227D01*
X14782Y10253D01*
X14795Y10271D01*
X14805Y10285D01*
X14812Y10294D01*
X14814Y10297D01*
X14837Y10316D01*
X14862Y10330D01*
X14886Y10342D01*
X14910Y10349D01*
X14930Y10353D01*
X14947Y10354D01*
X14953Y10356D01*
X14961D01*
X14984Y10354D01*
D02*
G37*
G36*
X16000Y9400D02*
X15842D01*
Y9798D01*
X15791D01*
X15776Y9796D01*
X15762Y9795D01*
X15750Y9792D01*
X15742Y9790D01*
X15736Y9788D01*
X15734Y9786D01*
X15732D01*
X15722Y9782D01*
X15714Y9775D01*
X15700Y9762D01*
X15694Y9757D01*
X15690Y9751D01*
X15687Y9748D01*
X15686Y9747D01*
X15681Y9741D01*
X15676Y9733D01*
X15669Y9724D01*
X15663Y9714D01*
X15649Y9690D01*
X15635Y9666D01*
X15622Y9644D01*
X15617Y9634D01*
X15611Y9626D01*
X15607Y9618D01*
X15604Y9613D01*
X15601Y9609D01*
Y9607D01*
X15488Y9400D01*
X15298D01*
X15394Y9585D01*
X15404Y9604D01*
X15414Y9624D01*
X15423Y9641D01*
X15432Y9657D01*
X15440Y9671D01*
X15447Y9683D01*
X15460Y9704D01*
X15470Y9720D01*
X15478Y9731D01*
X15483Y9738D01*
X15484Y9740D01*
X15497Y9755D01*
X15511Y9771D01*
X15525Y9785D01*
X15538Y9796D01*
X15549Y9806D01*
X15559Y9813D01*
X15564Y9819D01*
X15567Y9820D01*
X15532Y9829D01*
X15502Y9840D01*
X15476Y9854D01*
X15454Y9869D01*
X15438Y9882D01*
X15425Y9893D01*
X15418Y9902D01*
X15415Y9903D01*
Y9905D01*
X15397Y9933D01*
X15383Y9962D01*
X15373Y9992D01*
X15367Y10020D01*
X15363Y10046D01*
X15361Y10057D01*
Y10067D01*
X15360Y10074D01*
Y10081D01*
Y10084D01*
Y10085D01*
X15361Y10118D01*
X15366Y10146D01*
X15371Y10173D01*
X15377Y10195D01*
X15384Y10212D01*
X15390Y10226D01*
X15394Y10235D01*
X15395Y10237D01*
X15409Y10260D01*
X15425Y10278D01*
X15439Y10294D01*
X15453Y10305D01*
X15466Y10315D01*
X15476Y10322D01*
X15483Y10325D01*
X15485Y10326D01*
X15497Y10330D01*
X15509Y10335D01*
X15538Y10342D01*
X15567Y10346D01*
X15597Y10350D01*
X15624Y10352D01*
X15636D01*
X15646Y10353D01*
X16000D01*
Y9400D01*
D02*
G37*
G36*
X15009Y12104D02*
X15029Y12103D01*
X15064Y12095D01*
X15095Y12085D01*
X15120Y12072D01*
X15141Y12059D01*
X15149Y12052D01*
X15156Y12048D01*
X15161Y12044D01*
X15165Y12040D01*
X15167Y12038D01*
X15168Y12037D01*
X15181Y12023D01*
X15191Y12009D01*
X15209Y11975D01*
X15223Y11939D01*
X15233Y11906D01*
X15237Y11889D01*
X15242Y11873D01*
X15243Y11859D01*
X15246Y11848D01*
X15247Y11838D01*
Y11831D01*
X15249Y11825D01*
Y11824D01*
X15099Y11804D01*
X15096Y11831D01*
X15092Y11853D01*
X15087Y11873D01*
X15079Y11890D01*
X15071Y11906D01*
X15063Y11917D01*
X15053Y11927D01*
X15043Y11935D01*
X15033Y11941D01*
X15024Y11945D01*
X15008Y11951D01*
X15002Y11952D01*
X14996Y11954D01*
X14992D01*
X14977Y11952D01*
X14961Y11948D01*
X14948Y11944D01*
X14939Y11938D01*
X14930Y11931D01*
X14924Y11927D01*
X14920Y11923D01*
X14919Y11921D01*
X14909Y11908D01*
X14902Y11893D01*
X14898Y11877D01*
X14893Y11862D01*
X14892Y11848D01*
X14891Y11837D01*
Y11829D01*
Y11828D01*
Y11827D01*
X14892Y11806D01*
X14896Y11784D01*
X14902Y11765D01*
X14907Y11748D01*
X14913Y11732D01*
X14919Y11721D01*
X14923Y11714D01*
X14924Y11711D01*
X14930Y11703D01*
X14937Y11693D01*
X14954Y11670D01*
X14974Y11646D01*
X14995Y11621D01*
X15015Y11597D01*
X15023Y11586D01*
X15032Y11577D01*
X15037Y11570D01*
X15043Y11564D01*
X15046Y11560D01*
X15047Y11559D01*
X15070Y11533D01*
X15089Y11508D01*
X15109Y11486D01*
X15126Y11464D01*
X15141Y11443D01*
X15154Y11425D01*
X15167Y11408D01*
X15177Y11392D01*
X15187Y11378D01*
X15195Y11367D01*
X15201Y11356D01*
X15206Y11347D01*
X15211Y11340D01*
X15212Y11336D01*
X15215Y11333D01*
Y11332D01*
X15229Y11299D01*
X15240Y11267D01*
X15250Y11236D01*
X15256Y11209D01*
X15260Y11185D01*
X15263Y11175D01*
X15264Y11167D01*
Y11160D01*
X15266Y11154D01*
Y11151D01*
Y11150D01*
X14740D01*
Y11319D01*
X15039D01*
X15029Y11338D01*
X15019Y11353D01*
X15015Y11359D01*
X15010Y11364D01*
X15009Y11367D01*
X15008Y11369D01*
X14998Y11381D01*
X14985Y11397D01*
X14970Y11414D01*
X14954Y11432D01*
X14940Y11449D01*
X14927Y11463D01*
X14923Y11469D01*
X14919Y11473D01*
X14917Y11474D01*
X14916Y11476D01*
X14889Y11507D01*
X14867Y11535D01*
X14847Y11559D01*
X14831Y11580D01*
X14820Y11595D01*
X14812Y11608D01*
X14807Y11615D01*
X14806Y11618D01*
X14795Y11639D01*
X14783Y11659D01*
X14775Y11677D01*
X14768Y11694D01*
X14764Y11708D01*
X14759Y11718D01*
X14757Y11725D01*
Y11728D01*
X14751Y11749D01*
X14747Y11769D01*
X14744Y11789D01*
X14741Y11806D01*
Y11821D01*
X14740Y11832D01*
Y11839D01*
Y11842D01*
Y11862D01*
X14743Y11880D01*
X14750Y11914D01*
X14759Y11945D01*
X14771Y11972D01*
X14783Y11994D01*
X14789Y12004D01*
X14793Y12011D01*
X14798Y12017D01*
X14800Y12021D01*
X14802Y12024D01*
X14803Y12025D01*
X14816Y12040D01*
X14829Y12052D01*
X14843Y12062D01*
X14858Y12072D01*
X14874Y12080D01*
X14889Y12086D01*
X14919Y12096D01*
X14947Y12102D01*
X14958Y12103D01*
X14970Y12104D01*
X14978Y12106D01*
X14989D01*
X15009Y12104D01*
D02*
G37*
G36*
X16000Y11150D02*
X15842D01*
Y11548D01*
X15791D01*
X15776Y11546D01*
X15762Y11545D01*
X15750Y11542D01*
X15742Y11541D01*
X15736Y11538D01*
X15734Y11536D01*
X15732D01*
X15722Y11532D01*
X15714Y11525D01*
X15700Y11512D01*
X15694Y11507D01*
X15690Y11501D01*
X15687Y11498D01*
X15686Y11497D01*
X15681Y11491D01*
X15676Y11483D01*
X15669Y11474D01*
X15663Y11464D01*
X15649Y11440D01*
X15635Y11416D01*
X15622Y11394D01*
X15617Y11384D01*
X15611Y11376D01*
X15607Y11369D01*
X15604Y11363D01*
X15601Y11359D01*
Y11357D01*
X15488Y11150D01*
X15298D01*
X15394Y11335D01*
X15404Y11354D01*
X15414Y11374D01*
X15423Y11391D01*
X15432Y11407D01*
X15440Y11421D01*
X15447Y11433D01*
X15460Y11455D01*
X15470Y11470D01*
X15478Y11481D01*
X15483Y11488D01*
X15484Y11490D01*
X15497Y11505D01*
X15511Y11521D01*
X15525Y11535D01*
X15538Y11546D01*
X15549Y11556D01*
X15559Y11563D01*
X15564Y11569D01*
X15567Y11570D01*
X15532Y11579D01*
X15502Y11590D01*
X15476Y11604D01*
X15454Y11619D01*
X15438Y11632D01*
X15425Y11643D01*
X15418Y11652D01*
X15415Y11653D01*
Y11655D01*
X15397Y11683D01*
X15383Y11712D01*
X15373Y11742D01*
X15367Y11770D01*
X15363Y11796D01*
X15361Y11807D01*
Y11817D01*
X15360Y11824D01*
Y11831D01*
Y11834D01*
Y11835D01*
X15361Y11868D01*
X15366Y11896D01*
X15371Y11923D01*
X15377Y11945D01*
X15384Y11962D01*
X15390Y11976D01*
X15394Y11985D01*
X15395Y11987D01*
X15409Y12010D01*
X15425Y12028D01*
X15439Y12044D01*
X15453Y12055D01*
X15466Y12065D01*
X15476Y12072D01*
X15483Y12075D01*
X15485Y12076D01*
X15497Y12080D01*
X15509Y12085D01*
X15538Y12092D01*
X15567Y12096D01*
X15597Y12100D01*
X15624Y12102D01*
X15636D01*
X15646Y12103D01*
X16000D01*
Y11150D01*
D02*
G37*
G36*
X3770Y1636D02*
X3804Y1629D01*
X3835Y1619D01*
X3861Y1607D01*
X3884Y1595D01*
X3894Y1589D01*
X3901Y1585D01*
X3906Y1581D01*
X3911Y1578D01*
X3914Y1576D01*
X3915Y1575D01*
X3929Y1562D01*
X3942Y1550D01*
X3952Y1536D01*
X3961Y1520D01*
X3970Y1505D01*
X3976Y1489D01*
X3985Y1459D01*
X3991Y1431D01*
X3992Y1420D01*
X3994Y1409D01*
X3995Y1400D01*
Y1389D01*
X3994Y1369D01*
X3992Y1349D01*
X3984Y1314D01*
X3974Y1283D01*
X3961Y1258D01*
X3949Y1237D01*
X3942Y1230D01*
X3937Y1223D01*
X3933Y1217D01*
X3929Y1213D01*
X3928Y1211D01*
X3926Y1210D01*
X3912Y1197D01*
X3898Y1187D01*
X3864Y1169D01*
X3829Y1155D01*
X3795Y1145D01*
X3778Y1141D01*
X3763Y1137D01*
X3749Y1135D01*
X3737Y1132D01*
X3727Y1131D01*
X3720D01*
X3715Y1130D01*
X3713D01*
X3694Y1279D01*
X3720Y1282D01*
X3743Y1286D01*
X3763Y1292D01*
X3780Y1299D01*
X3795Y1307D01*
X3806Y1316D01*
X3816Y1326D01*
X3825Y1335D01*
X3830Y1345D01*
X3835Y1354D01*
X3840Y1371D01*
X3842Y1376D01*
X3843Y1382D01*
Y1386D01*
X3842Y1402D01*
X3837Y1417D01*
X3833Y1430D01*
X3828Y1440D01*
X3820Y1448D01*
X3816Y1454D01*
X3812Y1458D01*
X3811Y1459D01*
X3798Y1469D01*
X3782Y1476D01*
X3767Y1481D01*
X3751Y1485D01*
X3737Y1486D01*
X3726Y1488D01*
X3719D01*
X3718D01*
X3716D01*
X3695Y1486D01*
X3674Y1482D01*
X3654Y1476D01*
X3637Y1471D01*
X3622Y1465D01*
X3610Y1459D01*
X3603Y1455D01*
X3601Y1454D01*
X3592Y1448D01*
X3582Y1441D01*
X3560Y1424D01*
X3536Y1404D01*
X3510Y1383D01*
X3486Y1364D01*
X3475Y1355D01*
X3467Y1347D01*
X3460Y1341D01*
X3454Y1335D01*
X3450Y1333D01*
X3448Y1331D01*
X3423Y1309D01*
X3398Y1289D01*
X3375Y1269D01*
X3354Y1252D01*
X3333Y1237D01*
X3314Y1224D01*
X3297Y1211D01*
X3282Y1201D01*
X3268Y1192D01*
X3257Y1183D01*
X3245Y1177D01*
X3237Y1172D01*
X3230Y1168D01*
X3226Y1166D01*
X3223Y1163D01*
X3221D01*
X3189Y1149D01*
X3157Y1138D01*
X3125Y1128D01*
X3099Y1123D01*
X3075Y1118D01*
X3065Y1115D01*
X3056Y1114D01*
X3049D01*
X3044Y1113D01*
X3041D01*
X3040D01*
Y1638D01*
X3209D01*
Y1340D01*
X3227Y1349D01*
X3243Y1359D01*
X3248Y1364D01*
X3254Y1368D01*
X3257Y1369D01*
X3258Y1371D01*
X3271Y1380D01*
X3286Y1393D01*
X3303Y1409D01*
X3321Y1424D01*
X3338Y1438D01*
X3352Y1451D01*
X3358Y1455D01*
X3362Y1459D01*
X3364Y1461D01*
X3365Y1462D01*
X3396Y1489D01*
X3424Y1512D01*
X3448Y1531D01*
X3469Y1547D01*
X3485Y1558D01*
X3498Y1567D01*
X3505Y1571D01*
X3508Y1572D01*
X3529Y1583D01*
X3548Y1595D01*
X3567Y1603D01*
X3584Y1610D01*
X3598Y1614D01*
X3608Y1619D01*
X3615Y1622D01*
X3617D01*
X3639Y1627D01*
X3658Y1631D01*
X3678Y1634D01*
X3695Y1637D01*
X3711D01*
X3722Y1638D01*
X3729D01*
X3732D01*
X3751D01*
X3770Y1636D01*
D02*
G37*
G36*
X3392Y877D02*
X3354Y869D01*
X3323Y857D01*
X3296Y848D01*
X3275Y836D01*
X3258Y826D01*
X3247Y818D01*
X3240Y812D01*
X3237Y811D01*
X3221Y794D01*
X3209Y776D01*
X3200Y757D01*
X3195Y740D01*
X3192Y726D01*
X3190Y714D01*
X3189Y707D01*
Y704D01*
X3190Y688D01*
X3192Y674D01*
X3200Y646D01*
X3213Y623D01*
X3227Y604D01*
X3240Y587D01*
X3252Y576D01*
X3261Y568D01*
X3262Y566D01*
X3264D01*
X3279Y557D01*
X3296Y549D01*
X3316Y542D01*
X3336Y536D01*
X3378Y526D01*
X3420Y521D01*
X3440Y518D01*
X3458Y516D01*
X3475Y515D01*
X3489D01*
X3502Y514D01*
X3510D01*
X3517D01*
X3519D01*
X3550D01*
X3579Y516D01*
X3606Y519D01*
X3630Y522D01*
X3653Y526D01*
X3674Y530D01*
X3692Y535D01*
X3708Y540D01*
X3722Y546D01*
X3734Y550D01*
X3744Y554D01*
X3753Y559D01*
X3758Y563D01*
X3764Y564D01*
X3766Y567D01*
X3767D01*
X3781Y578D01*
X3792Y590D01*
X3802Y601D01*
X3811Y612D01*
X3825Y636D01*
X3833Y659D01*
X3839Y678D01*
X3842Y694D01*
X3843Y700D01*
Y708D01*
X3842Y731D01*
X3836Y750D01*
X3830Y767D01*
X3822Y783D01*
X3815Y795D01*
X3808Y805D01*
X3802Y811D01*
X3801Y812D01*
X3784Y828D01*
X3766Y841D01*
X3746Y852D01*
X3726Y860D01*
X3709Y866D01*
X3695Y870D01*
X3689Y872D01*
X3685D01*
X3684Y873D01*
X3682D01*
X3727Y1029D01*
X3750Y1024D01*
X3771Y1017D01*
X3791Y1010D01*
X3811Y1003D01*
X3828Y994D01*
X3843Y987D01*
X3856Y979D01*
X3868Y972D01*
X3880Y965D01*
X3890Y958D01*
X3898Y952D01*
X3905Y946D01*
X3909Y942D01*
X3914Y939D01*
X3916Y938D01*
Y936D01*
X3932Y920D01*
X3946Y901D01*
X3959Y883D01*
X3970Y865D01*
X3978Y846D01*
X3985Y828D01*
X3997Y793D01*
X4001Y777D01*
X4004Y763D01*
X4005Y750D01*
X4007Y739D01*
X4008Y729D01*
Y717D01*
X4007Y687D01*
X4002Y659D01*
X3997Y633D01*
X3990Y608D01*
X3980Y585D01*
X3970Y564D01*
X3959Y545D01*
X3949Y528D01*
X3937Y512D01*
X3926Y498D01*
X3916Y487D01*
X3906Y477D01*
X3899Y470D01*
X3894Y464D01*
X3890Y461D01*
X3888Y460D01*
X3861Y440D01*
X3832Y423D01*
X3802Y409D01*
X3771Y397D01*
X3739Y385D01*
X3708Y377D01*
X3677Y370D01*
X3646Y364D01*
X3617Y360D01*
X3592Y356D01*
X3568Y353D01*
X3547Y351D01*
X3532D01*
X3519Y350D01*
X3510D01*
X3509D01*
X3508D01*
X3465Y351D01*
X3426Y354D01*
X3388Y360D01*
X3352Y367D01*
X3320Y375D01*
X3290Y384D01*
X3262Y394D01*
X3238Y405D01*
X3216Y415D01*
X3196Y425D01*
X3179Y433D01*
X3166Y442D01*
X3155Y449D01*
X3147Y454D01*
X3142Y457D01*
X3141Y459D01*
X3120Y477D01*
X3103Y497D01*
X3087Y516D01*
X3073Y537D01*
X3062Y559D01*
X3052Y578D01*
X3045Y598D01*
X3038Y618D01*
X3034Y636D01*
X3030Y653D01*
X3028Y669D01*
X3025Y681D01*
Y693D01*
X3024Y700D01*
Y707D01*
X3025Y729D01*
X3027Y750D01*
X3035Y790D01*
X3047Y825D01*
X3054Y841D01*
X3061Y855D01*
X3068Y867D01*
X3075Y879D01*
X3080Y888D01*
X3086Y896D01*
X3090Y903D01*
X3094Y907D01*
X3096Y910D01*
X3097Y911D01*
X3113Y927D01*
X3128Y941D01*
X3165Y965D01*
X3204Y986D01*
X3243Y1003D01*
X3261Y1010D01*
X3278Y1015D01*
X3293Y1020D01*
X3306Y1024D01*
X3317Y1027D01*
X3326Y1029D01*
X3331Y1031D01*
X3333D01*
X3392Y877D01*
D02*
G37*
%LPC*%
G36*
X22750Y8456D02*
X22739D01*
X22731D01*
X22730D01*
X22689D01*
X22652Y8452D01*
X22618Y8448D01*
X22585Y8443D01*
X22556Y8437D01*
X22530Y8430D01*
X22506Y8422D01*
X22483Y8415D01*
X22465Y8407D01*
X22448Y8400D01*
X22433Y8393D01*
X22422Y8387D01*
X22413Y8382D01*
X22407Y8378D01*
X22404Y8376D01*
X22402Y8374D01*
X22383Y8359D01*
X22367Y8343D01*
X22354Y8326D01*
X22341Y8309D01*
X22331Y8293D01*
X22322Y8276D01*
X22309Y8243D01*
X22302Y8215D01*
X22300Y8204D01*
X22298Y8193D01*
X22296Y8183D01*
Y8172D01*
X22298Y8150D01*
X22302Y8130D01*
X22306Y8109D01*
X22313Y8091D01*
X22330Y8056D01*
X22350Y8026D01*
X22370Y8002D01*
X22387Y7985D01*
X22394Y7980D01*
X22400Y7974D01*
X22402Y7972D01*
X22404Y7970D01*
X22426Y7956D01*
X22448Y7945D01*
X22500Y7924D01*
X22554Y7909D01*
X22605Y7900D01*
X22630Y7896D01*
X22652Y7893D01*
X22672Y7891D01*
X22691D01*
X22705Y7889D01*
X22717D01*
X22724D01*
X22726D01*
X22765Y7891D01*
X22802Y7893D01*
X22837Y7896D01*
X22868Y7902D01*
X22898Y7908D01*
X22924Y7913D01*
X22948Y7920D01*
X22970Y7928D01*
X22989Y7935D01*
X23005Y7943D01*
X23018Y7948D01*
X23030Y7954D01*
X23039Y7959D01*
X23044Y7963D01*
X23048Y7967D01*
X23050D01*
X23068Y7982D01*
X23085Y7998D01*
X23098Y8015D01*
X23111Y8033D01*
X23122Y8050D01*
X23130Y8067D01*
X23142Y8100D01*
X23150Y8128D01*
X23152Y8141D01*
X23154Y8152D01*
X23155Y8159D01*
Y8172D01*
X23154Y8195D01*
X23152Y8217D01*
X23146Y8237D01*
X23139Y8257D01*
X23122Y8293D01*
X23104Y8322D01*
X23083Y8344D01*
X23067Y8361D01*
X23059Y8369D01*
X23054Y8372D01*
X23052Y8376D01*
X23050D01*
X23030Y8391D01*
X23007Y8402D01*
X22955Y8422D01*
X22904Y8437D01*
X22852Y8446D01*
X22826Y8448D01*
X22804Y8452D01*
X22783Y8454D01*
X22765D01*
X22750Y8456D01*
D02*
G37*
G36*
X22757Y6928D02*
X22744D01*
X22735D01*
X22728D01*
X22724D01*
X22722D01*
X22674D01*
X22631Y6924D01*
X22594Y6922D01*
X22563Y6919D01*
X22539Y6915D01*
X22520Y6911D01*
X22509Y6909D01*
X22507Y6908D01*
X22506D01*
X22478Y6900D01*
X22452Y6893D01*
X22431Y6884D01*
X22415Y6876D01*
X22402Y6871D01*
X22393Y6865D01*
X22387Y6861D01*
X22385Y6859D01*
X22361Y6837D01*
X22344Y6813D01*
X22337Y6802D01*
X22333Y6795D01*
X22331Y6789D01*
X22330Y6787D01*
X22324Y6769D01*
X22318Y6747D01*
X22315Y6722D01*
X22313Y6698D01*
Y6676D01*
X22311Y6659D01*
Y6489D01*
X23141D01*
Y6624D01*
X23139Y6661D01*
X23137Y6689D01*
X23135Y6713D01*
X23133Y6730D01*
X23131Y6741D01*
X23130Y6748D01*
Y6750D01*
X23122Y6771D01*
X23115Y6789D01*
X23104Y6806D01*
X23094Y6821D01*
X23083Y6832D01*
X23076Y6841D01*
X23070Y6847D01*
X23068Y6848D01*
X23050Y6863D01*
X23030Y6874D01*
X23007Y6885D01*
X22987Y6893D01*
X22968Y6900D01*
X22954Y6904D01*
X22944Y6908D01*
X22942D01*
X22941D01*
X22909Y6915D01*
X22872Y6919D01*
X22837Y6922D01*
X22802Y6926D01*
X22770D01*
X22757Y6928D01*
D02*
G37*
G36*
X20994Y10050D02*
Y9768D01*
X21459Y9907D01*
X20994Y10050D01*
D02*
G37*
G36*
X6057Y8824D02*
X5899D01*
X5883Y8822D01*
X5858D01*
X5847Y8821D01*
X5838D01*
X5830Y8819D01*
X5819Y8818D01*
X5812Y8816D01*
X5807Y8815D01*
X5806D01*
X5795Y8811D01*
X5785Y8805D01*
X5776Y8798D01*
X5769Y8793D01*
X5764Y8787D01*
X5759Y8781D01*
X5758Y8778D01*
X5757Y8777D01*
X5751Y8766D01*
X5745Y8754D01*
X5741Y8730D01*
X5740Y8719D01*
X5738Y8711D01*
Y8705D01*
Y8704D01*
X5740Y8687D01*
X5741Y8673D01*
X5744Y8659D01*
X5747Y8649D01*
X5751Y8639D01*
X5754Y8633D01*
X5755Y8629D01*
X5757Y8628D01*
X5764Y8618D01*
X5772Y8609D01*
X5779Y8604D01*
X5788Y8598D01*
X5795Y8594D01*
X5799Y8591D01*
X5803Y8590D01*
X5804D01*
X5812Y8588D01*
X5819Y8587D01*
X5838Y8585D01*
X5861Y8582D01*
X5883D01*
X5906Y8581D01*
X6057D01*
Y8824D01*
D02*
G37*
G36*
X22065Y775D02*
X21931D01*
X21918Y774D01*
X21896D01*
X21886Y773D01*
X21879D01*
X21872Y772D01*
X21862Y770D01*
X21856Y769D01*
X21853Y768D01*
X21852D01*
X21842Y764D01*
X21834Y760D01*
X21826Y754D01*
X21820Y749D01*
X21816Y744D01*
X21812Y739D01*
X21811Y737D01*
X21810Y736D01*
X21805Y726D01*
X21800Y716D01*
X21796Y696D01*
X21795Y686D01*
X21794Y679D01*
Y674D01*
Y673D01*
X21795Y659D01*
X21796Y647D01*
X21799Y635D01*
X21801Y626D01*
X21805Y618D01*
X21807Y613D01*
X21808Y609D01*
X21810Y608D01*
X21816Y600D01*
X21823Y593D01*
X21829Y588D01*
X21836Y583D01*
X21842Y579D01*
X21846Y577D01*
X21849Y576D01*
X21850D01*
X21856Y575D01*
X21862Y573D01*
X21879Y572D01*
X21898Y570D01*
X21918D01*
X21937Y569D01*
X22065D01*
Y775D01*
D02*
G37*
G36*
X9527Y6208D02*
X9522D01*
X9520D01*
X9503Y6207D01*
X9489Y6205D01*
X9475Y6202D01*
X9465Y6199D01*
X9455Y6195D01*
X9450Y6192D01*
X9445Y6191D01*
X9444Y6190D01*
X9434Y6183D01*
X9426Y6174D01*
X9420Y6167D01*
X9414Y6159D01*
X9410Y6152D01*
X9407Y6147D01*
X9406Y6143D01*
Y6142D01*
X9405Y6135D01*
X9403Y6128D01*
X9402Y6108D01*
X9399Y6085D01*
Y6063D01*
X9397Y6040D01*
Y5889D01*
X9640D01*
Y6047D01*
X9639Y6063D01*
Y6088D01*
X9637Y6099D01*
Y6108D01*
X9636Y6116D01*
X9634Y6128D01*
X9633Y6135D01*
X9632Y6139D01*
Y6140D01*
X9627Y6152D01*
X9622Y6161D01*
X9615Y6170D01*
X9609Y6177D01*
X9603Y6183D01*
X9598Y6187D01*
X9595Y6188D01*
X9593Y6190D01*
X9582Y6195D01*
X9571Y6201D01*
X9547Y6205D01*
X9536Y6207D01*
X9527Y6208D01*
D02*
G37*
G36*
X14981Y9882D02*
X14974D01*
X14958Y9881D01*
X14944Y9875D01*
X14931Y9868D01*
X14920Y9861D01*
X14912Y9853D01*
X14906Y9845D01*
X14902Y9840D01*
X14900Y9838D01*
X14891Y9820D01*
X14882Y9800D01*
X14876Y9778D01*
X14874Y9755D01*
X14871Y9736D01*
X14869Y9720D01*
Y9713D01*
Y9709D01*
Y9706D01*
Y9704D01*
X14871Y9673D01*
X14874Y9647D01*
X14878Y9624D01*
X14884Y9606D01*
X14889Y9592D01*
X14893Y9582D01*
X14896Y9576D01*
X14898Y9575D01*
X14909Y9562D01*
X14920Y9552D01*
X14931Y9547D01*
X14943Y9541D01*
X14953Y9538D01*
X14960Y9537D01*
X14967D01*
X14982Y9538D01*
X14998Y9544D01*
X15010Y9551D01*
X15022Y9561D01*
X15032Y9569D01*
X15039Y9576D01*
X15043Y9582D01*
X15044Y9583D01*
X15056Y9603D01*
X15063Y9626D01*
X15068Y9648D01*
X15072Y9669D01*
X15075Y9689D01*
X15077Y9706D01*
Y9712D01*
Y9716D01*
Y9719D01*
Y9720D01*
X15075Y9748D01*
X15072Y9774D01*
X15067Y9793D01*
X15061Y9810D01*
X15057Y9824D01*
X15051Y9834D01*
X15048Y9840D01*
X15047Y9841D01*
X15036Y9855D01*
X15023Y9865D01*
X15010Y9872D01*
X14999Y9876D01*
X14989Y9881D01*
X14981Y9882D01*
D02*
G37*
G36*
X15842Y10192D02*
X15684D01*
X15669Y10191D01*
X15643D01*
X15632Y10189D01*
X15624D01*
X15615Y10188D01*
X15604Y10187D01*
X15597Y10185D01*
X15593Y10184D01*
X15591D01*
X15580Y10180D01*
X15570Y10174D01*
X15562Y10167D01*
X15555Y10161D01*
X15549Y10156D01*
X15545Y10150D01*
X15543Y10147D01*
X15542Y10146D01*
X15536Y10134D01*
X15531Y10123D01*
X15526Y10099D01*
X15525Y10088D01*
X15524Y10079D01*
Y10074D01*
Y10072D01*
X15525Y10056D01*
X15526Y10041D01*
X15529Y10027D01*
X15532Y10017D01*
X15536Y10008D01*
X15539Y10002D01*
X15540Y9998D01*
X15542Y9996D01*
X15549Y9986D01*
X15557Y9978D01*
X15564Y9972D01*
X15573Y9967D01*
X15580Y9962D01*
X15584Y9960D01*
X15588Y9958D01*
X15590D01*
X15597Y9957D01*
X15604Y9955D01*
X15624Y9954D01*
X15646Y9951D01*
X15669D01*
X15691Y9950D01*
X15842D01*
Y10192D01*
D02*
G37*
G36*
Y11942D02*
X15684D01*
X15669Y11941D01*
X15643D01*
X15632Y11939D01*
X15624D01*
X15615Y11938D01*
X15604Y11937D01*
X15597Y11935D01*
X15593Y11934D01*
X15591D01*
X15580Y11930D01*
X15570Y11924D01*
X15562Y11917D01*
X15555Y11911D01*
X15549Y11906D01*
X15545Y11900D01*
X15543Y11897D01*
X15542Y11896D01*
X15536Y11884D01*
X15531Y11873D01*
X15526Y11849D01*
X15525Y11838D01*
X15524Y11829D01*
Y11824D01*
Y11822D01*
X15525Y11806D01*
X15526Y11791D01*
X15529Y11777D01*
X15532Y11767D01*
X15536Y11758D01*
X15539Y11752D01*
X15540Y11748D01*
X15542Y11746D01*
X15549Y11736D01*
X15557Y11728D01*
X15564Y11722D01*
X15573Y11717D01*
X15580Y11712D01*
X15584Y11710D01*
X15588Y11708D01*
X15590D01*
X15597Y11707D01*
X15604Y11705D01*
X15624Y11704D01*
X15646Y11701D01*
X15669D01*
X15691Y11700D01*
X15842D01*
Y11942D01*
D02*
G37*
%LPD*%
D10*
X19100Y8725D02*
G03*
X19100Y8725I-100J0D01*
G01*
X9981Y5729D02*
X11181D01*
X9981Y7904D02*
X11181D01*
X9981Y5729D02*
Y7904D01*
X11181Y5729D02*
Y7904D01*
X22800Y2100D02*
X23300D01*
X22800Y1517D02*
Y2768D01*
X22500Y1897D02*
Y2450D01*
X22190Y2309D02*
X22190Y1109D01*
X20015Y1109D02*
X20015Y2309D01*
X20015Y1109D02*
X22190Y1109D01*
X20015Y2309D02*
X22190Y2309D01*
X6420Y9100D02*
X6420Y7900D01*
X8595Y7900D02*
X8595Y9100D01*
X6420Y9100D02*
X8595Y9100D01*
X6420Y7900D02*
X8595Y7900D01*
X21865Y2950D02*
Y6025D01*
X20315Y2950D02*
Y6025D01*
X21865D01*
X20315Y2950D02*
X21865D01*
X18400Y10400D02*
X18400Y9200D01*
X16225Y9200D02*
X16225Y10400D01*
X16225Y9200D02*
X18400Y9200D01*
X16225Y10400D02*
X18400Y10400D01*
X16225Y11050D02*
X18400Y11050D01*
X16225Y12250D02*
X18400Y12250D01*
Y11050D02*
Y12250D01*
X16225Y12250D02*
X16225Y11050D01*
X18720Y9195D02*
X20280Y9195D01*
X18720Y12255D02*
X20280Y12255D01*
X18720Y12255D02*
X18720Y9195D01*
X20280Y12255D02*
X20280Y9195D01*
X18720Y10650D02*
X20280Y10650D01*
X1789Y6855D02*
X5214Y6855D01*
X1789Y1895D02*
X5214Y1895D01*
X1789Y6855D02*
X1789Y1895D01*
X5214Y1895D02*
X5214Y6855D01*
D14*
X19725Y1071D02*
Y7929D01*
X12115Y1071D02*
X19725D01*
X12115Y7929D02*
X19725D01*
X12115Y1071D02*
Y7929D01*
X20290Y8230D02*
X21350D01*
X20290Y6270D02*
X21350Y6270D01*
X21350Y8230D02*
X21350Y6270D01*
X20290Y6270D02*
X20290Y8230D01*
M02*
