G04*
G04 #@! TF.GenerationSoftware,Altium Limited,Altium Designer,22.7.1 (60)*
G04*
G04 Layer_Color=65535*
%FSLAX43Y43*%
%MOMM*%
G71*
G04*
G04 #@! TF.SameCoordinates,4746692A-FCE4-4093-9A7F-7E88C9008C25*
G04*
G04*
G04 #@! TF.FilePolarity,Positive*
G04*
G01*
G75*
%ADD10C,0.200*%
%ADD11C,0.250*%
%ADD12C,0.600*%
%ADD13C,0.127*%
%ADD14C,0.150*%
G36*
X8450Y10116D02*
X7761D01*
X7762Y10115D01*
X7765Y10112D01*
X7769Y10108D01*
X7776Y10101D01*
X7783Y10094D01*
X7793Y10084D01*
X7803Y10073D01*
X7813Y10060D01*
X7835Y10032D01*
X7859Y9999D01*
X7880Y9961D01*
X7899Y9922D01*
X7732D01*
Y9923D01*
X7731Y9925D01*
X7728Y9933D01*
X7721Y9944D01*
X7713Y9961D01*
X7700Y9981D01*
X7685Y10002D01*
X7666Y10026D01*
X7644Y10052D01*
X7642Y10053D01*
X7641Y10054D01*
X7632Y10063D01*
X7618Y10074D01*
X7600Y10088D01*
X7579Y10104D01*
X7553Y10119D01*
X7525Y10133D01*
X7494Y10145D01*
Y10267D01*
X8450D01*
Y10116D01*
D02*
G37*
G36*
X8164Y9779D02*
X8172Y9777D01*
X8184Y9774D01*
X8196Y9770D01*
X8212Y9765D01*
X8229Y9760D01*
X8247Y9753D01*
X8285Y9736D01*
X8325Y9715D01*
X8361Y9691D01*
X8377Y9677D01*
X8392Y9661D01*
X8394Y9660D01*
X8395Y9657D01*
X8399Y9653D01*
X8403Y9646D01*
X8409Y9639D01*
X8415Y9629D01*
X8422Y9617D01*
X8429Y9605D01*
X8436Y9591D01*
X8443Y9575D01*
X8454Y9540D01*
X8463Y9500D01*
X8464Y9479D01*
X8466Y9457D01*
Y9450D01*
X8464Y9443D01*
Y9431D01*
X8461Y9419D01*
X8460Y9403D01*
X8456Y9386D01*
X8451Y9368D01*
X8444Y9348D01*
X8437Y9328D01*
X8427Y9309D01*
X8416Y9287D01*
X8402Y9266D01*
X8387Y9247D01*
X8370Y9227D01*
X8349Y9209D01*
X8347Y9207D01*
X8343Y9204D01*
X8334Y9199D01*
X8323Y9192D01*
X8310Y9183D01*
X8294Y9175D01*
X8274Y9165D01*
X8251Y9155D01*
X8227Y9144D01*
X8199Y9134D01*
X8169Y9125D01*
X8137Y9117D01*
X8102Y9110D01*
X8064Y9104D01*
X8024Y9101D01*
X7982Y9100D01*
X7981D01*
X7979D01*
X7971D01*
X7958Y9101D01*
X7943D01*
X7921Y9103D01*
X7897Y9106D01*
X7872Y9110D01*
X7844Y9114D01*
X7813Y9120D01*
X7782Y9127D01*
X7751Y9135D01*
X7718Y9147D01*
X7687Y9159D01*
X7658Y9173D01*
X7628Y9190D01*
X7601Y9210D01*
X7600Y9211D01*
X7596Y9214D01*
X7590Y9220D01*
X7583Y9227D01*
X7573Y9237D01*
X7563Y9248D01*
X7552Y9262D01*
X7541Y9278D01*
X7531Y9295D01*
X7520Y9314D01*
X7510Y9335D01*
X7500Y9358D01*
X7493Y9383D01*
X7487Y9409D01*
X7483Y9437D01*
X7482Y9467D01*
Y9479D01*
X7483Y9489D01*
X7484Y9500D01*
X7486Y9513D01*
X7489Y9527D01*
X7493Y9543D01*
X7504Y9578D01*
X7511Y9596D01*
X7520Y9615D01*
X7531Y9633D01*
X7544Y9651D01*
X7558Y9670D01*
X7573Y9686D01*
Y9688D01*
X7576Y9689D01*
X7580Y9692D01*
X7584Y9696D01*
X7591Y9702D01*
X7600Y9708D01*
X7610Y9715D01*
X7621Y9722D01*
X7634Y9729D01*
X7646Y9737D01*
X7662Y9744D01*
X7679Y9753D01*
X7699Y9760D01*
X7718Y9767D01*
X7740Y9774D01*
X7762Y9779D01*
X7807Y9623D01*
X7806D01*
X7804Y9622D01*
X7800D01*
X7794Y9620D01*
X7780Y9616D01*
X7763Y9610D01*
X7744Y9602D01*
X7724Y9591D01*
X7706Y9578D01*
X7689Y9562D01*
X7687Y9561D01*
X7682Y9555D01*
X7675Y9545D01*
X7668Y9533D01*
X7659Y9517D01*
X7654Y9500D01*
X7648Y9481D01*
X7646Y9458D01*
Y9450D01*
X7648Y9444D01*
X7651Y9428D01*
X7656Y9409D01*
X7665Y9386D01*
X7679Y9362D01*
X7687Y9351D01*
X7697Y9340D01*
X7708Y9328D01*
X7723Y9317D01*
X7724D01*
X7725Y9314D01*
X7731Y9313D01*
X7737Y9309D01*
X7745Y9304D01*
X7755Y9300D01*
X7768Y9296D01*
X7782Y9290D01*
X7797Y9285D01*
X7816Y9280D01*
X7837Y9276D01*
X7859Y9272D01*
X7883Y9269D01*
X7910Y9266D01*
X7940Y9264D01*
X7971D01*
X7972D01*
X7979D01*
X7988D01*
X8000Y9265D01*
X8014D01*
X8031Y9266D01*
X8050Y9268D01*
X8069Y9271D01*
X8112Y9276D01*
X8154Y9286D01*
X8174Y9292D01*
X8193Y9299D01*
X8210Y9307D01*
X8226Y9316D01*
X8227D01*
X8229Y9318D01*
X8237Y9326D01*
X8250Y9337D01*
X8263Y9354D01*
X8277Y9373D01*
X8289Y9396D01*
X8298Y9424D01*
X8299Y9438D01*
X8301Y9454D01*
Y9457D01*
X8299Y9464D01*
X8298Y9476D01*
X8295Y9490D01*
X8289Y9507D01*
X8281Y9526D01*
X8268Y9544D01*
X8253Y9561D01*
X8250Y9562D01*
X8243Y9568D01*
X8231Y9576D01*
X8215Y9586D01*
X8193Y9598D01*
X8167Y9607D01*
X8136Y9619D01*
X8098Y9627D01*
X8157Y9781D01*
X8158D01*
X8164Y9779D01*
D02*
G37*
G36*
X6346Y3496D02*
X6358Y3494D01*
X6370Y3493D01*
X6384Y3490D01*
X6401Y3487D01*
X6435Y3477D01*
X6470Y3463D01*
X6489Y3455D01*
X6507Y3445D01*
X6524Y3432D01*
X6541Y3418D01*
X6542Y3417D01*
X6545Y3415D01*
X6549Y3410D01*
X6554Y3404D01*
X6561Y3397D01*
X6568Y3388D01*
X6583Y3366D01*
X6599Y3339D01*
X6613Y3308D01*
X6617Y3290D01*
X6621Y3271D01*
X6624Y3253D01*
X6626Y3233D01*
Y3223D01*
X6624Y3216D01*
X6623Y3208D01*
X6621Y3197D01*
X6617Y3173D01*
X6609Y3146D01*
X6594Y3116D01*
X6587Y3101D01*
X6578Y3087D01*
X6566Y3073D01*
X6554Y3059D01*
X6552Y3057D01*
X6551Y3056D01*
X6547Y3051D01*
X6541Y3047D01*
X6532Y3042D01*
X6524Y3036D01*
X6514Y3029D01*
X6501Y3022D01*
X6489Y3015D01*
X6473Y3008D01*
X6458Y3001D01*
X6439Y2994D01*
X6401Y2984D01*
X6356Y2977D01*
X6335Y3122D01*
X6337D01*
X6338D01*
X6346Y3123D01*
X6358Y3125D01*
X6373Y3129D01*
X6390Y3133D01*
X6407Y3140D01*
X6424Y3149D01*
X6438Y3159D01*
X6439Y3160D01*
X6444Y3164D01*
X6449Y3171D01*
X6455Y3180D01*
X6462Y3190D01*
X6468Y3202D01*
X6472Y3216D01*
X6473Y3232D01*
Y3240D01*
X6470Y3249D01*
X6468Y3259D01*
X6463Y3271D01*
X6456Y3285D01*
X6446Y3298D01*
X6432Y3311D01*
X6431Y3312D01*
X6424Y3316D01*
X6415Y3321D01*
X6401Y3328D01*
X6386Y3333D01*
X6365Y3338D01*
X6342Y3342D01*
X6315Y3343D01*
X6314D01*
X6313D01*
X6304D01*
X6291Y3342D01*
X6276Y3339D01*
X6259Y3336D01*
X6241Y3331D01*
X6222Y3322D01*
X6207Y3312D01*
X6205Y3311D01*
X6200Y3307D01*
X6194Y3300D01*
X6186Y3291D01*
X6179Y3280D01*
X6172Y3267D01*
X6167Y3253D01*
X6166Y3238D01*
Y3226D01*
X6167Y3219D01*
X6169Y3209D01*
X6172Y3197D01*
X6176Y3184D01*
X6180Y3170D01*
X6031Y3185D01*
Y3195D01*
X6029Y3207D01*
X6028Y3219D01*
X6024Y3235D01*
X6019Y3250D01*
X6011Y3264D01*
X6001Y3278D01*
X6000Y3280D01*
X5995Y3284D01*
X5987Y3290D01*
X5977Y3295D01*
X5964Y3301D01*
X5949Y3307D01*
X5931Y3311D01*
X5909Y3312D01*
X5907D01*
X5901D01*
X5892Y3311D01*
X5881Y3309D01*
X5870Y3307D01*
X5857Y3301D01*
X5845Y3295D01*
X5833Y3287D01*
X5832Y3285D01*
X5829Y3283D01*
X5825Y3277D01*
X5819Y3270D01*
X5814Y3261D01*
X5809Y3250D01*
X5806Y3238D01*
X5805Y3223D01*
Y3218D01*
X5806Y3209D01*
X5809Y3201D01*
X5814Y3191D01*
X5819Y3180D01*
X5826Y3168D01*
X5837Y3157D01*
X5839Y3156D01*
X5843Y3153D01*
X5852Y3149D01*
X5861Y3143D01*
X5874Y3137D01*
X5891Y3132D01*
X5909Y3128D01*
X5932Y3125D01*
X5904Y2987D01*
X5902D01*
X5898Y2988D01*
X5891Y2989D01*
X5883Y2991D01*
X5871Y2994D01*
X5860Y2996D01*
X5832Y3005D01*
X5801Y3016D01*
X5770Y3030D01*
X5740Y3049D01*
X5726Y3059D01*
X5715Y3070D01*
X5713Y3071D01*
X5712Y3073D01*
X5705Y3081D01*
X5695Y3095D01*
X5684Y3113D01*
X5674Y3136D01*
X5664Y3164D01*
X5657Y3195D01*
X5654Y3212D01*
Y3239D01*
X5656Y3247D01*
X5657Y3256D01*
X5658Y3266D01*
X5664Y3291D01*
X5673Y3318D01*
X5687Y3346D01*
X5695Y3360D01*
X5705Y3374D01*
X5716Y3387D01*
X5730Y3400D01*
X5732Y3401D01*
X5733Y3402D01*
X5737Y3405D01*
X5743Y3410D01*
X5750Y3414D01*
X5759Y3419D01*
X5780Y3432D01*
X5805Y3443D01*
X5833Y3453D01*
X5864Y3460D01*
X5881Y3463D01*
X5898D01*
X5901D01*
X5908D01*
X5921Y3462D01*
X5935Y3459D01*
X5953Y3456D01*
X5971Y3450D01*
X5991Y3443D01*
X6011Y3433D01*
X6014Y3432D01*
X6019Y3428D01*
X6028Y3422D01*
X6040Y3412D01*
X6053Y3401D01*
X6069Y3386D01*
X6084Y3369D01*
X6098Y3349D01*
Y3350D01*
X6100Y3352D01*
X6102Y3360D01*
X6107Y3371D01*
X6114Y3387D01*
X6125Y3404D01*
X6138Y3421D01*
X6155Y3438D01*
X6176Y3455D01*
X6179Y3456D01*
X6187Y3462D01*
X6200Y3469D01*
X6217Y3476D01*
X6238Y3484D01*
X6263Y3490D01*
X6293Y3496D01*
X6325Y3497D01*
X6327D01*
X6331D01*
X6338D01*
X6346Y3496D01*
D02*
G37*
G36*
X6324Y2879D02*
X6332Y2877D01*
X6344Y2874D01*
X6356Y2870D01*
X6372Y2865D01*
X6389Y2860D01*
X6407Y2853D01*
X6445Y2836D01*
X6485Y2815D01*
X6521Y2791D01*
X6537Y2777D01*
X6552Y2761D01*
X6554Y2760D01*
X6555Y2757D01*
X6559Y2753D01*
X6563Y2746D01*
X6569Y2739D01*
X6575Y2729D01*
X6582Y2717D01*
X6589Y2705D01*
X6596Y2691D01*
X6603Y2675D01*
X6614Y2640D01*
X6623Y2600D01*
X6624Y2579D01*
X6626Y2557D01*
Y2550D01*
X6624Y2543D01*
Y2531D01*
X6621Y2519D01*
X6620Y2503D01*
X6616Y2486D01*
X6611Y2468D01*
X6604Y2448D01*
X6597Y2428D01*
X6587Y2409D01*
X6576Y2387D01*
X6562Y2366D01*
X6547Y2347D01*
X6530Y2327D01*
X6509Y2309D01*
X6507Y2307D01*
X6503Y2304D01*
X6494Y2299D01*
X6483Y2292D01*
X6470Y2283D01*
X6454Y2275D01*
X6434Y2265D01*
X6411Y2255D01*
X6387Y2244D01*
X6359Y2234D01*
X6329Y2225D01*
X6297Y2217D01*
X6262Y2210D01*
X6224Y2204D01*
X6184Y2201D01*
X6142Y2200D01*
X6141D01*
X6139D01*
X6131D01*
X6118Y2201D01*
X6102D01*
X6081Y2203D01*
X6057Y2206D01*
X6032Y2210D01*
X6004Y2214D01*
X5973Y2220D01*
X5942Y2227D01*
X5911Y2235D01*
X5878Y2247D01*
X5847Y2259D01*
X5818Y2273D01*
X5788Y2290D01*
X5761Y2310D01*
X5760Y2311D01*
X5756Y2314D01*
X5750Y2320D01*
X5743Y2327D01*
X5733Y2337D01*
X5723Y2348D01*
X5712Y2362D01*
X5701Y2378D01*
X5691Y2395D01*
X5680Y2414D01*
X5670Y2435D01*
X5660Y2458D01*
X5653Y2483D01*
X5647Y2509D01*
X5643Y2537D01*
X5642Y2567D01*
Y2579D01*
X5643Y2589D01*
X5644Y2600D01*
X5646Y2613D01*
X5649Y2627D01*
X5653Y2643D01*
X5664Y2678D01*
X5671Y2696D01*
X5680Y2715D01*
X5691Y2733D01*
X5704Y2751D01*
X5718Y2770D01*
X5733Y2786D01*
Y2788D01*
X5736Y2789D01*
X5740Y2792D01*
X5744Y2796D01*
X5751Y2802D01*
X5760Y2808D01*
X5770Y2815D01*
X5781Y2822D01*
X5794Y2829D01*
X5806Y2837D01*
X5822Y2844D01*
X5839Y2853D01*
X5859Y2860D01*
X5878Y2867D01*
X5900Y2874D01*
X5922Y2879D01*
X5967Y2723D01*
X5966D01*
X5964Y2722D01*
X5960D01*
X5954Y2720D01*
X5940Y2716D01*
X5923Y2710D01*
X5904Y2702D01*
X5884Y2691D01*
X5866Y2678D01*
X5849Y2662D01*
X5847Y2661D01*
X5842Y2655D01*
X5835Y2645D01*
X5828Y2633D01*
X5819Y2617D01*
X5814Y2600D01*
X5808Y2581D01*
X5806Y2558D01*
Y2550D01*
X5808Y2544D01*
X5811Y2528D01*
X5816Y2509D01*
X5825Y2486D01*
X5839Y2462D01*
X5847Y2451D01*
X5857Y2440D01*
X5868Y2428D01*
X5883Y2417D01*
X5884D01*
X5885Y2414D01*
X5891Y2413D01*
X5897Y2409D01*
X5905Y2404D01*
X5915Y2400D01*
X5928Y2396D01*
X5942Y2390D01*
X5957Y2385D01*
X5976Y2380D01*
X5997Y2376D01*
X6019Y2372D01*
X6043Y2369D01*
X6070Y2366D01*
X6100Y2364D01*
X6131D01*
X6132D01*
X6139D01*
X6148D01*
X6160Y2365D01*
X6174D01*
X6191Y2366D01*
X6210Y2368D01*
X6229Y2371D01*
X6272Y2376D01*
X6314Y2386D01*
X6334Y2392D01*
X6353Y2399D01*
X6370Y2407D01*
X6386Y2416D01*
X6387D01*
X6389Y2418D01*
X6397Y2426D01*
X6410Y2437D01*
X6423Y2454D01*
X6437Y2473D01*
X6449Y2496D01*
X6458Y2524D01*
X6459Y2538D01*
X6461Y2554D01*
Y2557D01*
X6459Y2564D01*
X6458Y2576D01*
X6455Y2590D01*
X6449Y2607D01*
X6441Y2626D01*
X6428Y2644D01*
X6413Y2661D01*
X6410Y2662D01*
X6403Y2668D01*
X6391Y2676D01*
X6375Y2686D01*
X6353Y2698D01*
X6327Y2707D01*
X6296Y2719D01*
X6258Y2727D01*
X6317Y2881D01*
X6318D01*
X6324Y2879D01*
D02*
G37*
G36*
X10708Y10321D02*
X10900D01*
Y10176D01*
X10708D01*
Y9856D01*
X10549D01*
X9944Y10194D01*
Y10321D01*
X10548D01*
Y10418D01*
X10708D01*
Y10321D01*
D02*
G37*
G36*
X10614Y9779D02*
X10622Y9777D01*
X10634Y9774D01*
X10646Y9770D01*
X10662Y9765D01*
X10679Y9760D01*
X10697Y9753D01*
X10735Y9736D01*
X10775Y9715D01*
X10811Y9691D01*
X10827Y9677D01*
X10842Y9661D01*
X10844Y9660D01*
X10845Y9657D01*
X10849Y9653D01*
X10853Y9646D01*
X10859Y9639D01*
X10865Y9629D01*
X10872Y9617D01*
X10879Y9605D01*
X10886Y9591D01*
X10893Y9575D01*
X10904Y9540D01*
X10913Y9500D01*
X10914Y9479D01*
X10916Y9457D01*
Y9450D01*
X10914Y9443D01*
Y9431D01*
X10911Y9419D01*
X10910Y9403D01*
X10906Y9386D01*
X10901Y9368D01*
X10894Y9348D01*
X10887Y9328D01*
X10877Y9309D01*
X10866Y9287D01*
X10852Y9266D01*
X10837Y9247D01*
X10820Y9227D01*
X10799Y9209D01*
X10797Y9207D01*
X10793Y9204D01*
X10784Y9199D01*
X10773Y9192D01*
X10760Y9183D01*
X10744Y9175D01*
X10724Y9165D01*
X10701Y9155D01*
X10677Y9144D01*
X10649Y9134D01*
X10619Y9125D01*
X10587Y9117D01*
X10552Y9110D01*
X10514Y9104D01*
X10474Y9101D01*
X10432Y9100D01*
X10431D01*
X10429D01*
X10421D01*
X10408Y9101D01*
X10393D01*
X10371Y9103D01*
X10347Y9106D01*
X10322Y9110D01*
X10294Y9114D01*
X10263Y9120D01*
X10232Y9127D01*
X10201Y9135D01*
X10168Y9147D01*
X10137Y9159D01*
X10108Y9173D01*
X10078Y9190D01*
X10051Y9210D01*
X10050Y9211D01*
X10046Y9214D01*
X10040Y9220D01*
X10033Y9227D01*
X10023Y9237D01*
X10013Y9248D01*
X10002Y9262D01*
X9991Y9278D01*
X9981Y9295D01*
X9970Y9314D01*
X9960Y9335D01*
X9950Y9358D01*
X9943Y9383D01*
X9937Y9409D01*
X9933Y9437D01*
X9932Y9467D01*
Y9479D01*
X9933Y9489D01*
X9934Y9500D01*
X9936Y9513D01*
X9939Y9527D01*
X9943Y9543D01*
X9954Y9578D01*
X9961Y9596D01*
X9970Y9615D01*
X9981Y9633D01*
X9994Y9651D01*
X10008Y9670D01*
X10023Y9686D01*
Y9688D01*
X10026Y9689D01*
X10030Y9692D01*
X10034Y9696D01*
X10041Y9702D01*
X10050Y9708D01*
X10060Y9715D01*
X10071Y9722D01*
X10084Y9729D01*
X10096Y9737D01*
X10112Y9744D01*
X10129Y9753D01*
X10149Y9760D01*
X10168Y9767D01*
X10190Y9774D01*
X10212Y9779D01*
X10257Y9623D01*
X10256D01*
X10254Y9622D01*
X10250D01*
X10244Y9620D01*
X10230Y9616D01*
X10213Y9610D01*
X10194Y9602D01*
X10174Y9591D01*
X10156Y9578D01*
X10139Y9562D01*
X10137Y9561D01*
X10132Y9555D01*
X10125Y9545D01*
X10118Y9533D01*
X10109Y9517D01*
X10104Y9500D01*
X10098Y9481D01*
X10096Y9458D01*
Y9450D01*
X10098Y9444D01*
X10101Y9428D01*
X10106Y9409D01*
X10115Y9386D01*
X10129Y9362D01*
X10137Y9351D01*
X10147Y9340D01*
X10158Y9328D01*
X10173Y9317D01*
X10174D01*
X10175Y9314D01*
X10181Y9313D01*
X10187Y9309D01*
X10195Y9304D01*
X10205Y9300D01*
X10218Y9296D01*
X10232Y9290D01*
X10247Y9285D01*
X10266Y9280D01*
X10287Y9276D01*
X10309Y9272D01*
X10333Y9269D01*
X10360Y9266D01*
X10390Y9264D01*
X10421D01*
X10422D01*
X10429D01*
X10438D01*
X10450Y9265D01*
X10464D01*
X10481Y9266D01*
X10500Y9268D01*
X10519Y9271D01*
X10562Y9276D01*
X10604Y9286D01*
X10624Y9292D01*
X10643Y9299D01*
X10660Y9307D01*
X10676Y9316D01*
X10677D01*
X10679Y9318D01*
X10687Y9326D01*
X10700Y9337D01*
X10713Y9354D01*
X10727Y9373D01*
X10739Y9396D01*
X10748Y9424D01*
X10749Y9438D01*
X10751Y9454D01*
Y9457D01*
X10749Y9464D01*
X10748Y9476D01*
X10745Y9490D01*
X10739Y9507D01*
X10731Y9526D01*
X10718Y9544D01*
X10703Y9561D01*
X10700Y9562D01*
X10693Y9568D01*
X10682Y9576D01*
X10665Y9586D01*
X10643Y9598D01*
X10617Y9607D01*
X10586Y9619D01*
X10548Y9627D01*
X10607Y9781D01*
X10608D01*
X10614Y9779D01*
D02*
G37*
G36*
X10601Y8053D02*
X10612D01*
X10625Y8050D01*
X10639Y8049D01*
X10656Y8046D01*
X10691Y8038D01*
X10731Y8025D01*
X10751Y8017D01*
X10770Y8008D01*
X10791Y7997D01*
X10811Y7984D01*
X10813Y7983D01*
X10815Y7981D01*
X10821Y7977D01*
X10828Y7971D01*
X10835Y7964D01*
X10844Y7956D01*
X10853Y7945D01*
X10863Y7933D01*
X10873Y7921D01*
X10883Y7905D01*
X10892Y7890D01*
X10899Y7871D01*
X10906Y7853D01*
X10911Y7832D01*
X10914Y7811D01*
X10916Y7787D01*
Y7777D01*
X10914Y7770D01*
Y7761D01*
X10911Y7750D01*
X10907Y7726D01*
X10899Y7699D01*
X10887Y7670D01*
X10870Y7642D01*
X10859Y7627D01*
X10848Y7613D01*
X10846Y7612D01*
X10845Y7611D01*
X10841Y7606D01*
X10835Y7602D01*
X10828Y7596D01*
X10820Y7591D01*
X10810Y7584D01*
X10799Y7577D01*
X10786Y7570D01*
X10770Y7563D01*
X10755Y7556D01*
X10738Y7549D01*
X10720Y7543D01*
X10698Y7537D01*
X10655Y7530D01*
X10635Y7680D01*
X10638D01*
X10645Y7681D01*
X10658Y7684D01*
X10672Y7687D01*
X10687Y7691D01*
X10703Y7698D01*
X10720Y7706D01*
X10734Y7718D01*
X10735Y7719D01*
X10739Y7723D01*
X10745Y7730D01*
X10751Y7739D01*
X10758Y7749D01*
X10763Y7761D01*
X10767Y7774D01*
X10769Y7788D01*
Y7790D01*
X10767Y7797D01*
X10766Y7805D01*
X10763Y7815D01*
X10758Y7828D01*
X10749Y7842D01*
X10739Y7854D01*
X10724Y7867D01*
X10721Y7869D01*
X10715Y7873D01*
X10704Y7878D01*
X10690Y7884D01*
X10670Y7890D01*
X10646Y7895D01*
X10617Y7900D01*
X10584Y7901D01*
X10583D01*
X10580D01*
X10576D01*
X10569D01*
X10553Y7900D01*
X10533Y7897D01*
X10512Y7892D01*
X10490Y7887D01*
X10470Y7878D01*
X10452Y7867D01*
X10450Y7866D01*
X10445Y7861D01*
X10438Y7854D01*
X10429Y7845D01*
X10422Y7833D01*
X10415Y7818D01*
X10409Y7802D01*
X10408Y7784D01*
Y7781D01*
X10409Y7773D01*
X10412Y7761D01*
X10416Y7746D01*
X10425Y7728D01*
X10438Y7708D01*
X10445Y7698D01*
X10455Y7688D01*
X10464Y7678D01*
X10477Y7668D01*
X10456Y7547D01*
X9960Y7623D01*
Y8019D01*
X10130D01*
Y7737D01*
X10294Y7712D01*
X10292Y7715D01*
X10288Y7721D01*
X10284Y7730D01*
X10277Y7744D01*
X10271Y7760D01*
X10267Y7777D01*
X10263Y7795D01*
X10261Y7815D01*
Y7823D01*
X10263Y7830D01*
X10264Y7839D01*
X10266Y7847D01*
X10270Y7870D01*
X10280Y7894D01*
X10292Y7921D01*
X10301Y7935D01*
X10311Y7947D01*
X10322Y7960D01*
X10335Y7973D01*
X10336Y7974D01*
X10339Y7977D01*
X10345Y7980D01*
X10352Y7986D01*
X10361Y7991D01*
X10373Y7998D01*
X10385Y8007D01*
X10400Y8014D01*
X10416Y8021D01*
X10435Y8029D01*
X10456Y8036D01*
X10477Y8042D01*
X10501Y8048D01*
X10525Y8052D01*
X10552Y8053D01*
X10580Y8055D01*
X10581D01*
X10586D01*
X10593D01*
X10601Y8053D01*
D02*
G37*
G36*
X10614Y7424D02*
X10622Y7422D01*
X10634Y7419D01*
X10646Y7415D01*
X10662Y7410D01*
X10679Y7405D01*
X10697Y7398D01*
X10735Y7381D01*
X10775Y7360D01*
X10811Y7336D01*
X10827Y7322D01*
X10842Y7306D01*
X10844Y7305D01*
X10845Y7302D01*
X10849Y7298D01*
X10853Y7291D01*
X10859Y7284D01*
X10865Y7274D01*
X10872Y7262D01*
X10879Y7250D01*
X10886Y7236D01*
X10893Y7220D01*
X10904Y7185D01*
X10913Y7145D01*
X10914Y7124D01*
X10916Y7102D01*
Y7095D01*
X10914Y7088D01*
Y7076D01*
X10911Y7064D01*
X10910Y7048D01*
X10906Y7031D01*
X10901Y7013D01*
X10894Y6993D01*
X10887Y6973D01*
X10877Y6954D01*
X10866Y6932D01*
X10852Y6911D01*
X10837Y6892D01*
X10820Y6872D01*
X10799Y6854D01*
X10797Y6852D01*
X10793Y6849D01*
X10784Y6844D01*
X10773Y6837D01*
X10760Y6828D01*
X10744Y6820D01*
X10724Y6810D01*
X10701Y6800D01*
X10677Y6789D01*
X10649Y6779D01*
X10619Y6770D01*
X10587Y6762D01*
X10552Y6755D01*
X10514Y6749D01*
X10474Y6746D01*
X10432Y6745D01*
X10431D01*
X10429D01*
X10421D01*
X10408Y6746D01*
X10393D01*
X10371Y6748D01*
X10347Y6751D01*
X10322Y6755D01*
X10294Y6759D01*
X10263Y6765D01*
X10232Y6772D01*
X10201Y6780D01*
X10168Y6792D01*
X10137Y6804D01*
X10108Y6818D01*
X10078Y6835D01*
X10051Y6855D01*
X10050Y6856D01*
X10046Y6859D01*
X10040Y6865D01*
X10033Y6872D01*
X10023Y6882D01*
X10013Y6893D01*
X10002Y6907D01*
X9991Y6923D01*
X9981Y6940D01*
X9970Y6959D01*
X9960Y6980D01*
X9950Y7003D01*
X9943Y7028D01*
X9937Y7054D01*
X9933Y7082D01*
X9932Y7112D01*
Y7124D01*
X9933Y7134D01*
X9934Y7145D01*
X9936Y7158D01*
X9939Y7172D01*
X9943Y7188D01*
X9954Y7223D01*
X9961Y7241D01*
X9970Y7260D01*
X9981Y7278D01*
X9994Y7296D01*
X10008Y7315D01*
X10023Y7331D01*
Y7333D01*
X10026Y7334D01*
X10030Y7337D01*
X10034Y7341D01*
X10041Y7347D01*
X10050Y7353D01*
X10060Y7360D01*
X10071Y7367D01*
X10084Y7374D01*
X10096Y7382D01*
X10112Y7389D01*
X10129Y7398D01*
X10149Y7405D01*
X10168Y7412D01*
X10190Y7419D01*
X10212Y7424D01*
X10257Y7268D01*
X10256D01*
X10254Y7267D01*
X10250D01*
X10244Y7265D01*
X10230Y7261D01*
X10213Y7255D01*
X10194Y7247D01*
X10174Y7236D01*
X10156Y7223D01*
X10139Y7207D01*
X10137Y7206D01*
X10132Y7200D01*
X10125Y7190D01*
X10118Y7178D01*
X10109Y7162D01*
X10104Y7145D01*
X10098Y7126D01*
X10096Y7103D01*
Y7095D01*
X10098Y7089D01*
X10101Y7073D01*
X10106Y7054D01*
X10115Y7031D01*
X10129Y7007D01*
X10137Y6996D01*
X10147Y6985D01*
X10158Y6973D01*
X10173Y6962D01*
X10174D01*
X10175Y6959D01*
X10181Y6958D01*
X10187Y6954D01*
X10195Y6949D01*
X10205Y6945D01*
X10218Y6941D01*
X10232Y6935D01*
X10247Y6930D01*
X10266Y6925D01*
X10287Y6921D01*
X10309Y6917D01*
X10333Y6914D01*
X10360Y6911D01*
X10390Y6909D01*
X10421D01*
X10422D01*
X10429D01*
X10438D01*
X10450Y6910D01*
X10464D01*
X10481Y6911D01*
X10500Y6913D01*
X10519Y6916D01*
X10562Y6921D01*
X10604Y6931D01*
X10624Y6937D01*
X10643Y6944D01*
X10660Y6952D01*
X10676Y6961D01*
X10677D01*
X10679Y6964D01*
X10687Y6971D01*
X10700Y6982D01*
X10713Y6999D01*
X10727Y7018D01*
X10739Y7041D01*
X10748Y7069D01*
X10749Y7083D01*
X10751Y7099D01*
Y7102D01*
X10749Y7109D01*
X10748Y7121D01*
X10745Y7135D01*
X10739Y7152D01*
X10731Y7171D01*
X10718Y7189D01*
X10703Y7206D01*
X10700Y7207D01*
X10693Y7213D01*
X10682Y7221D01*
X10665Y7231D01*
X10643Y7243D01*
X10617Y7252D01*
X10586Y7264D01*
X10548Y7272D01*
X10607Y7426D01*
X10608D01*
X10614Y7424D01*
D02*
G37*
G36*
X10619Y4849D02*
X10632Y4848D01*
X10648Y4846D01*
X10663Y4845D01*
X10682Y4842D01*
X10718Y4832D01*
X10758Y4819D01*
X10777Y4811D01*
X10796Y4801D01*
X10814Y4790D01*
X10831Y4777D01*
X10832Y4776D01*
X10835Y4774D01*
X10839Y4770D01*
X10844Y4764D01*
X10851Y4757D01*
X10858Y4749D01*
X10873Y4728D01*
X10889Y4702D01*
X10903Y4671D01*
X10907Y4654D01*
X10911Y4636D01*
X10914Y4618D01*
X10916Y4598D01*
Y4592D01*
X10914Y4587D01*
Y4578D01*
X10913Y4568D01*
X10910Y4557D01*
X10901Y4530D01*
X10896Y4515D01*
X10889Y4499D01*
X10880Y4482D01*
X10869Y4467D01*
X10856Y4450D01*
X10842Y4435D01*
X10825Y4419D01*
X10806Y4404D01*
X10804Y4402D01*
X10800Y4401D01*
X10793Y4396D01*
X10784Y4392D01*
X10772Y4387D01*
X10756Y4380D01*
X10739Y4372D01*
X10718Y4365D01*
X10694Y4358D01*
X10666Y4351D01*
X10636Y4346D01*
X10603Y4339D01*
X10566Y4334D01*
X10526Y4330D01*
X10483Y4329D01*
X10436Y4327D01*
X10435D01*
X10433D01*
X10425D01*
X10411D01*
X10394Y4329D01*
X10371Y4330D01*
X10347Y4332D01*
X10321Y4334D01*
X10291Y4337D01*
X10229Y4347D01*
X10167Y4361D01*
X10137Y4370D01*
X10109Y4381D01*
X10082Y4392D01*
X10060Y4406D01*
X10058Y4408D01*
X10054Y4411D01*
X10049Y4415D01*
X10041Y4420D01*
X10033Y4429D01*
X10023Y4439D01*
X10013Y4450D01*
X10002Y4463D01*
X9991Y4477D01*
X9981Y4492D01*
X9963Y4528D01*
X9955Y4547D01*
X9948Y4567D01*
X9946Y4590D01*
X9944Y4612D01*
Y4621D01*
X9946Y4626D01*
X9947Y4643D01*
X9951Y4663D01*
X9958Y4687D01*
X9970Y4711D01*
X9984Y4736D01*
X10003Y4759D01*
X10006Y4762D01*
X10015Y4769D01*
X10029Y4778D01*
X10047Y4791D01*
X10073Y4804D01*
X10104Y4817D01*
X10139Y4826D01*
X10181Y4835D01*
X10201Y4690D01*
X10199D01*
X10197D01*
X10191Y4688D01*
X10184Y4687D01*
X10167Y4683D01*
X10147Y4674D01*
X10129Y4664D01*
X10112Y4649D01*
X10105Y4639D01*
X10099Y4629D01*
X10096Y4616D01*
X10095Y4604D01*
Y4602D01*
X10096Y4595D01*
X10098Y4587D01*
X10102Y4575D01*
X10108Y4563D01*
X10118Y4550D01*
X10130Y4536D01*
X10149Y4523D01*
X10151Y4522D01*
X10154Y4521D01*
X10160Y4518D01*
X10166Y4516D01*
X10174Y4512D01*
X10184Y4509D01*
X10195Y4506D01*
X10209Y4502D01*
X10225Y4499D01*
X10243Y4495D01*
X10263Y4492D01*
X10284Y4489D01*
X10308Y4487D01*
X10335Y4484D01*
X10364Y4482D01*
X10363Y4484D01*
X10357Y4488D01*
X10350Y4494D01*
X10342Y4501D01*
X10332Y4511D01*
X10322Y4521D01*
X10312Y4532D01*
X10304Y4544D01*
X10302Y4546D01*
X10301Y4550D01*
X10297Y4559D01*
X10292Y4567D01*
X10290Y4578D01*
X10285Y4592D01*
X10284Y4607D01*
X10283Y4622D01*
Y4630D01*
X10284Y4638D01*
X10285Y4646D01*
X10287Y4654D01*
X10294Y4677D01*
X10304Y4701D01*
X10311Y4715D01*
X10319Y4728D01*
X10329Y4742D01*
X10340Y4755D01*
X10353Y4769D01*
X10369Y4781D01*
X10370Y4783D01*
X10373Y4784D01*
X10377Y4788D01*
X10384Y4793D01*
X10393Y4797D01*
X10402Y4804D01*
X10415Y4809D01*
X10429Y4817D01*
X10445Y4822D01*
X10462Y4829D01*
X10480Y4835D01*
X10500Y4839D01*
X10522Y4845D01*
X10545Y4848D01*
X10570Y4849D01*
X10595Y4850D01*
X10597D01*
X10603D01*
X10610D01*
X10619Y4849D01*
D02*
G37*
G36*
X10614Y4224D02*
X10622Y4222D01*
X10634Y4219D01*
X10646Y4215D01*
X10662Y4210D01*
X10679Y4205D01*
X10697Y4198D01*
X10735Y4181D01*
X10775Y4160D01*
X10811Y4136D01*
X10827Y4122D01*
X10842Y4106D01*
X10844Y4105D01*
X10845Y4102D01*
X10849Y4098D01*
X10853Y4091D01*
X10859Y4083D01*
X10865Y4074D01*
X10872Y4062D01*
X10879Y4050D01*
X10886Y4036D01*
X10893Y4020D01*
X10904Y3985D01*
X10913Y3945D01*
X10914Y3924D01*
X10916Y3902D01*
Y3895D01*
X10914Y3888D01*
Y3876D01*
X10911Y3864D01*
X10910Y3848D01*
X10906Y3831D01*
X10901Y3813D01*
X10894Y3793D01*
X10887Y3773D01*
X10877Y3754D01*
X10866Y3732D01*
X10852Y3711D01*
X10837Y3692D01*
X10820Y3672D01*
X10799Y3654D01*
X10797Y3652D01*
X10793Y3649D01*
X10784Y3644D01*
X10773Y3637D01*
X10760Y3628D01*
X10744Y3620D01*
X10724Y3610D01*
X10701Y3600D01*
X10677Y3589D01*
X10649Y3579D01*
X10619Y3570D01*
X10587Y3562D01*
X10552Y3555D01*
X10514Y3549D01*
X10474Y3546D01*
X10432Y3545D01*
X10431D01*
X10429D01*
X10421D01*
X10408Y3546D01*
X10393D01*
X10371Y3548D01*
X10347Y3551D01*
X10322Y3555D01*
X10294Y3559D01*
X10263Y3565D01*
X10232Y3572D01*
X10201Y3580D01*
X10168Y3592D01*
X10137Y3604D01*
X10108Y3618D01*
X10078Y3635D01*
X10051Y3655D01*
X10050Y3656D01*
X10046Y3659D01*
X10040Y3665D01*
X10033Y3672D01*
X10023Y3682D01*
X10013Y3693D01*
X10002Y3707D01*
X9991Y3723D01*
X9981Y3740D01*
X9970Y3759D01*
X9960Y3780D01*
X9950Y3803D01*
X9943Y3828D01*
X9937Y3854D01*
X9933Y3882D01*
X9932Y3912D01*
Y3924D01*
X9933Y3934D01*
X9934Y3945D01*
X9936Y3958D01*
X9939Y3972D01*
X9943Y3988D01*
X9954Y4023D01*
X9961Y4041D01*
X9970Y4060D01*
X9981Y4078D01*
X9994Y4096D01*
X10008Y4115D01*
X10023Y4131D01*
Y4133D01*
X10026Y4134D01*
X10030Y4137D01*
X10034Y4141D01*
X10041Y4147D01*
X10050Y4153D01*
X10060Y4160D01*
X10071Y4167D01*
X10084Y4174D01*
X10096Y4182D01*
X10112Y4189D01*
X10129Y4198D01*
X10149Y4205D01*
X10168Y4212D01*
X10190Y4219D01*
X10212Y4224D01*
X10257Y4068D01*
X10256D01*
X10254Y4067D01*
X10250D01*
X10244Y4065D01*
X10230Y4061D01*
X10213Y4055D01*
X10194Y4047D01*
X10174Y4036D01*
X10156Y4023D01*
X10139Y4007D01*
X10137Y4006D01*
X10132Y4000D01*
X10125Y3990D01*
X10118Y3978D01*
X10109Y3962D01*
X10104Y3945D01*
X10098Y3926D01*
X10096Y3903D01*
Y3895D01*
X10098Y3889D01*
X10101Y3873D01*
X10106Y3854D01*
X10115Y3831D01*
X10129Y3807D01*
X10137Y3796D01*
X10147Y3785D01*
X10158Y3773D01*
X10173Y3762D01*
X10174D01*
X10175Y3759D01*
X10181Y3758D01*
X10187Y3754D01*
X10195Y3749D01*
X10205Y3745D01*
X10218Y3741D01*
X10232Y3735D01*
X10247Y3730D01*
X10266Y3725D01*
X10287Y3721D01*
X10309Y3717D01*
X10333Y3714D01*
X10360Y3711D01*
X10390Y3709D01*
X10421D01*
X10422D01*
X10429D01*
X10438D01*
X10450Y3710D01*
X10464D01*
X10481Y3711D01*
X10500Y3713D01*
X10519Y3716D01*
X10562Y3721D01*
X10604Y3731D01*
X10624Y3737D01*
X10643Y3744D01*
X10660Y3752D01*
X10676Y3761D01*
X10677D01*
X10679Y3763D01*
X10687Y3771D01*
X10700Y3782D01*
X10713Y3799D01*
X10727Y3818D01*
X10739Y3841D01*
X10748Y3869D01*
X10749Y3883D01*
X10751Y3899D01*
Y3902D01*
X10749Y3909D01*
X10748Y3921D01*
X10745Y3935D01*
X10739Y3952D01*
X10731Y3971D01*
X10718Y3989D01*
X10703Y4006D01*
X10700Y4007D01*
X10693Y4013D01*
X10682Y4021D01*
X10665Y4031D01*
X10643Y4043D01*
X10617Y4052D01*
X10586Y4064D01*
X10548Y4072D01*
X10607Y4226D01*
X10608D01*
X10614Y4224D01*
D02*
G37*
G36*
X21284Y1767D02*
X21295Y1766D01*
X21308Y1764D01*
X21322Y1761D01*
X21338Y1757D01*
X21373Y1746D01*
X21391Y1739D01*
X21410Y1730D01*
X21428Y1719D01*
X21446Y1706D01*
X21465Y1692D01*
X21481Y1677D01*
X21483D01*
X21484Y1674D01*
X21487Y1670D01*
X21491Y1666D01*
X21497Y1659D01*
X21503Y1650D01*
X21510Y1640D01*
X21517Y1629D01*
X21524Y1616D01*
X21532Y1604D01*
X21539Y1588D01*
X21548Y1571D01*
X21555Y1551D01*
X21562Y1532D01*
X21569Y1510D01*
X21574Y1488D01*
X21418Y1443D01*
Y1444D01*
X21417Y1446D01*
Y1450D01*
X21415Y1456D01*
X21411Y1470D01*
X21405Y1487D01*
X21397Y1506D01*
X21386Y1526D01*
X21373Y1544D01*
X21357Y1561D01*
X21356Y1563D01*
X21350Y1568D01*
X21340Y1575D01*
X21328Y1582D01*
X21312Y1591D01*
X21295Y1596D01*
X21276Y1602D01*
X21253Y1604D01*
X21245D01*
X21239Y1602D01*
X21223Y1599D01*
X21204Y1594D01*
X21181Y1585D01*
X21157Y1571D01*
X21146Y1563D01*
X21135Y1553D01*
X21123Y1541D01*
X21112Y1527D01*
Y1526D01*
X21109Y1525D01*
X21108Y1519D01*
X21104Y1513D01*
X21099Y1505D01*
X21095Y1495D01*
X21091Y1482D01*
X21085Y1468D01*
X21080Y1453D01*
X21075Y1434D01*
X21071Y1413D01*
X21067Y1391D01*
X21064Y1367D01*
X21061Y1340D01*
X21059Y1310D01*
Y1279D01*
Y1278D01*
Y1271D01*
Y1262D01*
X21060Y1250D01*
Y1236D01*
X21061Y1219D01*
X21063Y1200D01*
X21066Y1181D01*
X21071Y1138D01*
X21081Y1096D01*
X21087Y1076D01*
X21094Y1057D01*
X21102Y1040D01*
X21111Y1024D01*
Y1023D01*
X21114Y1021D01*
X21121Y1013D01*
X21132Y1000D01*
X21149Y987D01*
X21168Y973D01*
X21191Y961D01*
X21219Y952D01*
X21233Y951D01*
X21249Y949D01*
X21252D01*
X21259Y951D01*
X21271Y952D01*
X21285Y955D01*
X21302Y961D01*
X21321Y969D01*
X21339Y982D01*
X21356Y997D01*
X21357Y1000D01*
X21363Y1007D01*
X21371Y1018D01*
X21381Y1035D01*
X21393Y1057D01*
X21402Y1083D01*
X21414Y1114D01*
X21422Y1152D01*
X21576Y1093D01*
Y1092D01*
X21574Y1086D01*
X21572Y1078D01*
X21569Y1066D01*
X21565Y1054D01*
X21560Y1038D01*
X21555Y1021D01*
X21548Y1003D01*
X21531Y965D01*
X21510Y925D01*
X21486Y889D01*
X21472Y873D01*
X21456Y858D01*
X21455Y856D01*
X21452Y855D01*
X21448Y851D01*
X21441Y847D01*
X21434Y841D01*
X21424Y835D01*
X21412Y828D01*
X21400Y821D01*
X21386Y814D01*
X21370Y807D01*
X21335Y796D01*
X21295Y787D01*
X21274Y786D01*
X21252Y784D01*
X21245D01*
X21238Y786D01*
X21226D01*
X21214Y789D01*
X21198Y790D01*
X21181Y794D01*
X21163Y799D01*
X21143Y806D01*
X21123Y813D01*
X21104Y823D01*
X21082Y834D01*
X21061Y848D01*
X21042Y863D01*
X21022Y880D01*
X21004Y901D01*
X21002Y903D01*
X20999Y907D01*
X20994Y916D01*
X20987Y927D01*
X20978Y940D01*
X20970Y956D01*
X20960Y976D01*
X20950Y999D01*
X20939Y1023D01*
X20929Y1051D01*
X20920Y1081D01*
X20912Y1113D01*
X20905Y1148D01*
X20899Y1186D01*
X20896Y1226D01*
X20895Y1268D01*
Y1269D01*
Y1271D01*
Y1279D01*
X20896Y1292D01*
Y1307D01*
X20898Y1329D01*
X20901Y1353D01*
X20905Y1378D01*
X20909Y1406D01*
X20915Y1437D01*
X20922Y1468D01*
X20930Y1499D01*
X20942Y1532D01*
X20954Y1563D01*
X20968Y1592D01*
X20985Y1622D01*
X21005Y1649D01*
X21006Y1650D01*
X21009Y1654D01*
X21015Y1660D01*
X21022Y1667D01*
X21032Y1677D01*
X21043Y1687D01*
X21057Y1698D01*
X21073Y1709D01*
X21090Y1719D01*
X21109Y1730D01*
X21130Y1740D01*
X21153Y1750D01*
X21178Y1757D01*
X21204Y1763D01*
X21232Y1767D01*
X21262Y1768D01*
X21274D01*
X21284Y1767D01*
D02*
G37*
G36*
X22189Y1606D02*
Y1605D01*
X22186Y1604D01*
X22183Y1598D01*
X22178Y1592D01*
X22172Y1584D01*
X22165Y1575D01*
X22158Y1564D01*
X22150Y1551D01*
X22140Y1536D01*
X22130Y1520D01*
X22120Y1502D01*
X22109Y1484D01*
X22097Y1463D01*
X22085Y1440D01*
X22074Y1416D01*
X22061Y1391D01*
Y1389D01*
X22058Y1385D01*
X22055Y1377D01*
X22050Y1367D01*
X22045Y1354D01*
X22038Y1339D01*
X22031Y1320D01*
X22024Y1300D01*
X22016Y1279D01*
X22007Y1257D01*
X22000Y1231D01*
X21992Y1205D01*
X21975Y1150D01*
X21961Y1090D01*
Y1089D01*
X21959Y1083D01*
X21958Y1075D01*
X21955Y1064D01*
X21952Y1050D01*
X21949Y1033D01*
X21947Y1014D01*
X21944Y995D01*
X21940Y972D01*
X21937Y949D01*
X21931Y900D01*
X21927Y849D01*
X21925Y800D01*
X21782D01*
Y803D01*
Y808D01*
X21783Y820D01*
Y835D01*
X21785Y854D01*
X21786Y875D01*
X21789Y900D01*
X21792Y927D01*
X21796Y956D01*
X21800Y987D01*
X21806Y1021D01*
X21811Y1057D01*
X21827Y1130D01*
X21848Y1205D01*
X21849Y1207D01*
X21851Y1213D01*
X21855Y1224D01*
X21859Y1238D01*
X21866Y1257D01*
X21873Y1278D01*
X21883Y1300D01*
X21893Y1327D01*
X21904Y1354D01*
X21917Y1384D01*
X21947Y1444D01*
X21979Y1509D01*
X22017Y1571D01*
X21677D01*
Y1740D01*
X22189D01*
Y1606D01*
D02*
G37*
G36*
X21289Y12227D02*
X21300Y12226D01*
X21313Y12224D01*
X21327Y12221D01*
X21343Y12217D01*
X21378Y12206D01*
X21396Y12199D01*
X21415Y12190D01*
X21433Y12179D01*
X21451Y12166D01*
X21470Y12152D01*
X21486Y12137D01*
X21488D01*
X21489Y12134D01*
X21492Y12130D01*
X21496Y12126D01*
X21502Y12119D01*
X21508Y12110D01*
X21515Y12100D01*
X21522Y12089D01*
X21529Y12076D01*
X21537Y12064D01*
X21544Y12048D01*
X21553Y12031D01*
X21560Y12011D01*
X21567Y11992D01*
X21574Y11970D01*
X21579Y11948D01*
X21423Y11903D01*
Y11904D01*
X21422Y11906D01*
Y11910D01*
X21420Y11916D01*
X21416Y11930D01*
X21410Y11947D01*
X21402Y11966D01*
X21391Y11986D01*
X21378Y12004D01*
X21362Y12021D01*
X21361Y12023D01*
X21355Y12028D01*
X21345Y12035D01*
X21333Y12042D01*
X21317Y12051D01*
X21300Y12056D01*
X21281Y12062D01*
X21258Y12064D01*
X21250D01*
X21244Y12062D01*
X21228Y12059D01*
X21209Y12054D01*
X21186Y12045D01*
X21162Y12031D01*
X21151Y12023D01*
X21140Y12013D01*
X21128Y12002D01*
X21117Y11987D01*
Y11986D01*
X21114Y11985D01*
X21113Y11979D01*
X21109Y11973D01*
X21104Y11965D01*
X21100Y11955D01*
X21096Y11942D01*
X21090Y11928D01*
X21085Y11913D01*
X21080Y11894D01*
X21076Y11873D01*
X21072Y11851D01*
X21069Y11827D01*
X21066Y11800D01*
X21064Y11770D01*
Y11739D01*
Y11738D01*
Y11731D01*
Y11722D01*
X21065Y11710D01*
Y11696D01*
X21066Y11679D01*
X21068Y11660D01*
X21071Y11641D01*
X21076Y11598D01*
X21086Y11556D01*
X21092Y11536D01*
X21099Y11517D01*
X21107Y11500D01*
X21116Y11484D01*
Y11483D01*
X21118Y11481D01*
X21126Y11473D01*
X21137Y11460D01*
X21154Y11447D01*
X21173Y11433D01*
X21196Y11421D01*
X21224Y11412D01*
X21238Y11411D01*
X21254Y11409D01*
X21257D01*
X21264Y11411D01*
X21276Y11412D01*
X21290Y11415D01*
X21307Y11421D01*
X21326Y11429D01*
X21344Y11442D01*
X21361Y11457D01*
X21362Y11460D01*
X21368Y11467D01*
X21376Y11479D01*
X21386Y11495D01*
X21398Y11517D01*
X21407Y11543D01*
X21419Y11574D01*
X21427Y11612D01*
X21581Y11553D01*
Y11552D01*
X21579Y11546D01*
X21577Y11538D01*
X21574Y11526D01*
X21570Y11514D01*
X21565Y11498D01*
X21560Y11481D01*
X21553Y11463D01*
X21536Y11425D01*
X21515Y11385D01*
X21491Y11349D01*
X21477Y11333D01*
X21461Y11318D01*
X21460Y11316D01*
X21457Y11315D01*
X21453Y11311D01*
X21446Y11307D01*
X21438Y11301D01*
X21429Y11295D01*
X21417Y11288D01*
X21405Y11281D01*
X21391Y11274D01*
X21375Y11267D01*
X21340Y11256D01*
X21300Y11247D01*
X21279Y11246D01*
X21257Y11244D01*
X21250D01*
X21243Y11246D01*
X21231D01*
X21219Y11249D01*
X21203Y11250D01*
X21186Y11254D01*
X21168Y11259D01*
X21148Y11266D01*
X21128Y11273D01*
X21109Y11283D01*
X21087Y11294D01*
X21066Y11308D01*
X21047Y11323D01*
X21027Y11340D01*
X21009Y11361D01*
X21007Y11363D01*
X21004Y11367D01*
X20999Y11376D01*
X20992Y11387D01*
X20983Y11400D01*
X20975Y11416D01*
X20965Y11436D01*
X20955Y11459D01*
X20944Y11483D01*
X20934Y11511D01*
X20925Y11541D01*
X20917Y11573D01*
X20910Y11608D01*
X20904Y11646D01*
X20901Y11686D01*
X20900Y11728D01*
Y11729D01*
Y11731D01*
Y11739D01*
X20901Y11752D01*
Y11767D01*
X20903Y11789D01*
X20906Y11813D01*
X20910Y11838D01*
X20914Y11866D01*
X20920Y11897D01*
X20927Y11928D01*
X20935Y11959D01*
X20947Y11992D01*
X20959Y12023D01*
X20973Y12052D01*
X20990Y12082D01*
X21010Y12109D01*
X21011Y12110D01*
X21014Y12114D01*
X21020Y12120D01*
X21027Y12127D01*
X21037Y12137D01*
X21048Y12147D01*
X21062Y12158D01*
X21078Y12169D01*
X21095Y12179D01*
X21114Y12190D01*
X21135Y12200D01*
X21158Y12210D01*
X21183Y12217D01*
X21209Y12223D01*
X21237Y12227D01*
X21267Y12228D01*
X21279D01*
X21289Y12227D01*
D02*
G37*
G36*
X21954Y12214D02*
X21964Y12213D01*
X21976Y12212D01*
X22001Y12207D01*
X22029Y12199D01*
X22057Y12186D01*
X22071Y12178D01*
X22086Y12168D01*
X22098Y12157D01*
X22110Y12144D01*
X22111Y12142D01*
X22112Y12141D01*
X22115Y12137D01*
X22119Y12131D01*
X22124Y12124D01*
X22129Y12116D01*
X22141Y12096D01*
X22150Y12071D01*
X22160Y12041D01*
X22167Y12009D01*
X22170Y11990D01*
Y11972D01*
Y11970D01*
Y11969D01*
Y11961D01*
X22169Y11948D01*
X22166Y11931D01*
X22163Y11913D01*
X22157Y11893D01*
X22150Y11872D01*
X22141Y11852D01*
X22139Y11849D01*
X22135Y11844D01*
X22129Y11835D01*
X22119Y11824D01*
X22108Y11811D01*
X22095Y11799D01*
X22079Y11786D01*
X22062Y11775D01*
X22063D01*
X22064Y11773D01*
X22073Y11769D01*
X22084Y11762D01*
X22100Y11751D01*
X22115Y11738D01*
X22132Y11722D01*
X22148Y11704D01*
X22162Y11683D01*
X22163Y11680D01*
X22167Y11673D01*
X22173Y11660D01*
X22179Y11643D01*
X22184Y11622D01*
X22190Y11598D01*
X22194Y11570D01*
X22196Y11539D01*
Y11538D01*
Y11535D01*
Y11531D01*
Y11524D01*
X22194Y11517D01*
Y11508D01*
X22191Y11487D01*
X22187Y11462D01*
X22181Y11436D01*
X22173Y11409D01*
X22162Y11383D01*
Y11381D01*
X22160Y11380D01*
X22156Y11371D01*
X22149Y11360D01*
X22138Y11345D01*
X22125Y11328D01*
X22110Y11311D01*
X22093Y11294D01*
X22071Y11280D01*
X22069Y11278D01*
X22062Y11274D01*
X22049Y11268D01*
X22033Y11263D01*
X22015Y11256D01*
X21993Y11250D01*
X21969Y11246D01*
X21942Y11244D01*
X21930D01*
X21923Y11246D01*
X21914Y11247D01*
X21902Y11249D01*
X21877Y11254D01*
X21847Y11263D01*
X21816Y11277D01*
X21801Y11287D01*
X21785Y11297D01*
X21770Y11308D01*
X21756Y11322D01*
X21754Y11323D01*
X21753Y11326D01*
X21749Y11330D01*
X21744Y11336D01*
X21739Y11345D01*
X21733Y11354D01*
X21726Y11366D01*
X21719Y11378D01*
X21712Y11393D01*
X21705Y11408D01*
X21699Y11426D01*
X21694Y11445D01*
X21685Y11487D01*
X21684Y11510D01*
X21682Y11533D01*
Y11535D01*
Y11538D01*
Y11542D01*
Y11548D01*
X21684Y11563D01*
X21687Y11584D01*
X21691Y11607D01*
X21696Y11631D01*
X21704Y11656D01*
X21715Y11680D01*
Y11682D01*
X21716Y11683D01*
X21720Y11690D01*
X21729Y11701D01*
X21740Y11715D01*
X21753Y11731D01*
X21770Y11746D01*
X21790Y11762D01*
X21812Y11775D01*
X21809Y11776D01*
X21804Y11780D01*
X21794Y11786D01*
X21781Y11794D01*
X21767Y11806D01*
X21754Y11820D01*
X21740Y11835D01*
X21729Y11852D01*
X21727Y11855D01*
X21725Y11861D01*
X21720Y11872D01*
X21716Y11886D01*
X21711Y11903D01*
X21706Y11923D01*
X21704Y11945D01*
X21702Y11970D01*
Y11972D01*
Y11976D01*
Y11982D01*
X21704Y11989D01*
Y11999D01*
X21705Y12010D01*
X21711Y12034D01*
X21718Y12064D01*
X21729Y12093D01*
X21744Y12121D01*
X21754Y12135D01*
X21766Y12148D01*
X21767Y12150D01*
X21768Y12151D01*
X21773Y12154D01*
X21777Y12159D01*
X21791Y12169D01*
X21811Y12182D01*
X21835Y12195D01*
X21864Y12206D01*
X21898Y12213D01*
X21916Y12214D01*
X21936Y12216D01*
X21947D01*
X21954Y12214D01*
D02*
G37*
G36*
X12664Y12167D02*
X12675Y12166D01*
X12688Y12164D01*
X12702Y12161D01*
X12718Y12157D01*
X12753Y12146D01*
X12771Y12139D01*
X12790Y12130D01*
X12808Y12119D01*
X12826Y12106D01*
X12845Y12092D01*
X12861Y12077D01*
X12863D01*
X12864Y12074D01*
X12867Y12070D01*
X12871Y12066D01*
X12877Y12059D01*
X12883Y12050D01*
X12890Y12040D01*
X12897Y12029D01*
X12904Y12016D01*
X12912Y12004D01*
X12919Y11988D01*
X12928Y11971D01*
X12935Y11951D01*
X12942Y11932D01*
X12949Y11910D01*
X12954Y11888D01*
X12798Y11843D01*
Y11844D01*
X12797Y11846D01*
Y11850D01*
X12795Y11856D01*
X12791Y11870D01*
X12785Y11887D01*
X12777Y11906D01*
X12766Y11926D01*
X12753Y11944D01*
X12737Y11961D01*
X12736Y11963D01*
X12730Y11968D01*
X12720Y11975D01*
X12708Y11982D01*
X12692Y11991D01*
X12675Y11996D01*
X12656Y12002D01*
X12633Y12004D01*
X12625D01*
X12619Y12002D01*
X12603Y11999D01*
X12584Y11994D01*
X12561Y11985D01*
X12537Y11971D01*
X12526Y11963D01*
X12515Y11953D01*
X12503Y11941D01*
X12492Y11927D01*
Y11926D01*
X12489Y11925D01*
X12488Y11919D01*
X12484Y11913D01*
X12479Y11905D01*
X12475Y11895D01*
X12471Y11882D01*
X12465Y11868D01*
X12460Y11853D01*
X12455Y11834D01*
X12451Y11813D01*
X12447Y11791D01*
X12444Y11767D01*
X12441Y11740D01*
X12439Y11710D01*
Y11679D01*
Y11678D01*
Y11671D01*
Y11662D01*
X12440Y11650D01*
Y11636D01*
X12441Y11619D01*
X12443Y11600D01*
X12446Y11581D01*
X12451Y11538D01*
X12461Y11496D01*
X12467Y11476D01*
X12474Y11457D01*
X12482Y11440D01*
X12491Y11424D01*
Y11423D01*
X12493Y11421D01*
X12501Y11413D01*
X12512Y11400D01*
X12529Y11387D01*
X12548Y11373D01*
X12571Y11361D01*
X12599Y11352D01*
X12613Y11351D01*
X12629Y11349D01*
X12632D01*
X12639Y11351D01*
X12651Y11352D01*
X12665Y11355D01*
X12682Y11361D01*
X12701Y11369D01*
X12719Y11382D01*
X12736Y11397D01*
X12737Y11400D01*
X12743Y11407D01*
X12751Y11418D01*
X12761Y11435D01*
X12773Y11457D01*
X12782Y11483D01*
X12794Y11514D01*
X12802Y11552D01*
X12956Y11493D01*
Y11492D01*
X12954Y11486D01*
X12952Y11478D01*
X12949Y11466D01*
X12945Y11454D01*
X12940Y11438D01*
X12935Y11421D01*
X12928Y11403D01*
X12911Y11365D01*
X12890Y11325D01*
X12866Y11289D01*
X12852Y11273D01*
X12836Y11258D01*
X12835Y11256D01*
X12832Y11255D01*
X12828Y11251D01*
X12821Y11247D01*
X12814Y11241D01*
X12804Y11235D01*
X12792Y11228D01*
X12780Y11221D01*
X12766Y11214D01*
X12750Y11207D01*
X12715Y11196D01*
X12675Y11187D01*
X12654Y11186D01*
X12632Y11184D01*
X12625D01*
X12618Y11186D01*
X12606D01*
X12594Y11189D01*
X12578Y11190D01*
X12561Y11194D01*
X12543Y11199D01*
X12523Y11206D01*
X12503Y11213D01*
X12484Y11223D01*
X12462Y11234D01*
X12441Y11248D01*
X12422Y11263D01*
X12402Y11280D01*
X12384Y11302D01*
X12382Y11303D01*
X12379Y11307D01*
X12374Y11316D01*
X12367Y11327D01*
X12358Y11340D01*
X12350Y11356D01*
X12340Y11376D01*
X12330Y11399D01*
X12319Y11423D01*
X12309Y11451D01*
X12300Y11481D01*
X12292Y11513D01*
X12285Y11548D01*
X12279Y11586D01*
X12276Y11626D01*
X12275Y11668D01*
Y11669D01*
Y11671D01*
Y11679D01*
X12276Y11692D01*
Y11707D01*
X12278Y11729D01*
X12281Y11753D01*
X12285Y11778D01*
X12289Y11806D01*
X12295Y11837D01*
X12302Y11868D01*
X12310Y11899D01*
X12322Y11932D01*
X12334Y11963D01*
X12348Y11992D01*
X12365Y12022D01*
X12385Y12049D01*
X12386Y12050D01*
X12389Y12054D01*
X12395Y12060D01*
X12402Y12067D01*
X12412Y12077D01*
X12423Y12087D01*
X12437Y12098D01*
X12453Y12109D01*
X12470Y12119D01*
X12489Y12130D01*
X12510Y12140D01*
X12533Y12150D01*
X12558Y12157D01*
X12584Y12163D01*
X12612Y12167D01*
X12642Y12168D01*
X12654D01*
X12664Y12167D01*
D02*
G37*
G36*
X13314Y12154D02*
X13324Y12153D01*
X13337Y12150D01*
X13363Y12142D01*
X13379Y12136D01*
X13394Y12129D01*
X13410Y12119D01*
X13427Y12109D01*
X13444Y12097D01*
X13459Y12081D01*
X13475Y12064D01*
X13490Y12044D01*
X13492Y12043D01*
X13493Y12039D01*
X13497Y12033D01*
X13503Y12023D01*
X13508Y12011D01*
X13514Y11995D01*
X13521Y11978D01*
X13530Y11957D01*
X13537Y11933D01*
X13544Y11905D01*
X13549Y11875D01*
X13555Y11841D01*
X13561Y11805D01*
X13565Y11765D01*
X13566Y11722D01*
X13568Y11675D01*
Y11674D01*
Y11672D01*
Y11664D01*
Y11650D01*
X13566Y11633D01*
X13565Y11610D01*
X13563Y11586D01*
X13561Y11559D01*
X13558Y11530D01*
X13548Y11468D01*
X13542Y11437D01*
X13534Y11406D01*
X13524Y11376D01*
X13514Y11348D01*
X13501Y11321D01*
X13487Y11299D01*
X13486Y11297D01*
X13483Y11294D01*
X13479Y11289D01*
X13473Y11280D01*
X13465Y11272D01*
X13455Y11262D01*
X13444Y11252D01*
X13431Y11242D01*
X13417Y11231D01*
X13401Y11221D01*
X13366Y11203D01*
X13346Y11196D01*
X13325Y11190D01*
X13304Y11186D01*
X13280Y11184D01*
X13272D01*
X13266Y11186D01*
X13249Y11187D01*
X13228Y11192D01*
X13205Y11199D01*
X13181Y11208D01*
X13156Y11223D01*
X13134Y11242D01*
X13131Y11245D01*
X13124Y11254D01*
X13114Y11268D01*
X13108Y11276D01*
X13102Y11286D01*
X13097Y11299D01*
X13090Y11311D01*
X13084Y11325D01*
X13079Y11342D01*
X13073Y11359D01*
X13067Y11379D01*
X13063Y11399D01*
X13060Y11421D01*
X13205Y11441D01*
Y11440D01*
Y11437D01*
X13207Y11431D01*
X13208Y11424D01*
X13212Y11407D01*
X13219Y11389D01*
X13231Y11369D01*
X13245Y11352D01*
X13255Y11345D01*
X13265Y11340D01*
X13277Y11337D01*
X13290Y11335D01*
X13293D01*
X13298Y11337D01*
X13307Y11338D01*
X13318Y11342D01*
X13331Y11348D01*
X13345Y11358D01*
X13358Y11371D01*
X13370Y11387D01*
X13372Y11390D01*
X13373Y11393D01*
X13376Y11399D01*
X13379Y11404D01*
X13382Y11413D01*
X13384Y11423D01*
X13387Y11434D01*
X13391Y11448D01*
X13394Y11464D01*
X13399Y11481D01*
X13401Y11500D01*
X13406Y11523D01*
X13408Y11547D01*
X13411Y11574D01*
X13413Y11602D01*
X13411Y11600D01*
X13408Y11595D01*
X13401Y11588D01*
X13394Y11579D01*
X13384Y11569D01*
X13375Y11561D01*
X13362Y11551D01*
X13349Y11543D01*
X13348Y11541D01*
X13344Y11540D01*
X13335Y11537D01*
X13327Y11533D01*
X13314Y11528D01*
X13301Y11526D01*
X13286Y11524D01*
X13270Y11523D01*
X13262D01*
X13255Y11524D01*
X13248Y11526D01*
X13239Y11527D01*
X13217Y11534D01*
X13193Y11544D01*
X13180Y11551D01*
X13166Y11558D01*
X13153Y11568D01*
X13139Y11579D01*
X13125Y11592D01*
X13112Y11607D01*
X13111Y11609D01*
X13110Y11612D01*
X13107Y11616D01*
X13102Y11623D01*
X13097Y11631D01*
X13091Y11641D01*
X13086Y11654D01*
X13079Y11668D01*
X13073Y11682D01*
X13066Y11699D01*
X13060Y11719D01*
X13056Y11739D01*
X13050Y11760D01*
X13048Y11782D01*
X13046Y11808D01*
X13045Y11833D01*
Y11834D01*
Y11840D01*
Y11847D01*
X13046Y11858D01*
X13048Y11870D01*
X13049Y11885D01*
X13050Y11901D01*
X13053Y11919D01*
X13062Y11956D01*
X13076Y11995D01*
X13083Y12015D01*
X13093Y12033D01*
X13104Y12051D01*
X13117Y12068D01*
X13118Y12070D01*
X13119Y12073D01*
X13124Y12077D01*
X13129Y12082D01*
X13136Y12088D01*
X13145Y12097D01*
X13166Y12112D01*
X13191Y12128D01*
X13222Y12142D01*
X13239Y12147D01*
X13256Y12152D01*
X13274Y12154D01*
X13294Y12156D01*
X13305D01*
X13314Y12154D01*
D02*
G37*
G36*
X8994Y6100D02*
X8865D01*
Y6687D01*
X8864Y6686D01*
X8861Y6684D01*
X8858Y6680D01*
X8852Y6674D01*
X8846Y6668D01*
X8837Y6660D01*
X8828Y6651D01*
X8817Y6643D01*
X8793Y6624D01*
X8765Y6603D01*
X8733Y6585D01*
X8699Y6570D01*
Y6712D01*
X8700D01*
X8702Y6713D01*
X8709Y6715D01*
X8718Y6721D01*
X8733Y6728D01*
X8750Y6739D01*
X8768Y6752D01*
X8788Y6768D01*
X8810Y6787D01*
X8811Y6788D01*
X8812Y6790D01*
X8819Y6797D01*
X8829Y6809D01*
X8841Y6824D01*
X8854Y6842D01*
X8867Y6864D01*
X8879Y6888D01*
X8889Y6915D01*
X8994D01*
Y6100D01*
D02*
G37*
G36*
X8623D02*
X8478D01*
X8420Y6284D01*
X8151D01*
X8097Y6100D01*
X7954D01*
X8213Y6912D01*
X8356D01*
X8623Y6100D01*
D02*
G37*
G36*
X7618Y6911D02*
X7626D01*
X7647Y6910D01*
X7670Y6907D01*
X7692Y6903D01*
X7715Y6898D01*
X7734Y6891D01*
X7737Y6889D01*
X7743Y6887D01*
X7751Y6881D01*
X7763Y6874D01*
X7777Y6864D01*
X7792Y6852D01*
X7807Y6838D01*
X7822Y6821D01*
X7825Y6818D01*
X7829Y6812D01*
X7837Y6802D01*
X7845Y6786D01*
X7856Y6768D01*
X7867Y6746D01*
X7876Y6721D01*
X7886Y6692D01*
Y6691D01*
X7887Y6689D01*
X7888Y6684D01*
X7889Y6678D01*
X7891Y6671D01*
X7893Y6661D01*
X7895Y6650D01*
X7898Y6638D01*
X7899Y6625D01*
X7901Y6611D01*
X7904Y6595D01*
X7905Y6577D01*
X7907Y6540D01*
X7909Y6498D01*
Y6496D01*
Y6493D01*
Y6487D01*
Y6480D01*
X7907Y6471D01*
Y6460D01*
X7906Y6448D01*
Y6435D01*
X7903Y6406D01*
X7899Y6375D01*
X7893Y6344D01*
X7885Y6314D01*
Y6313D01*
X7883Y6310D01*
X7882Y6307D01*
X7880Y6301D01*
X7875Y6286D01*
X7868Y6269D01*
X7859Y6249D01*
X7849Y6229D01*
X7837Y6208D01*
X7823Y6190D01*
X7822Y6188D01*
X7817Y6183D01*
X7809Y6174D01*
X7799Y6165D01*
X7786Y6154D01*
X7772Y6143D01*
X7755Y6132D01*
X7736Y6123D01*
X7733Y6122D01*
X7726Y6119D01*
X7715Y6116D01*
X7700Y6112D01*
X7680Y6107D01*
X7658Y6104D01*
X7631Y6101D01*
X7602Y6100D01*
X7350D01*
Y6912D01*
X7611D01*
X7618Y6911D01*
D02*
G37*
G36*
X18628Y6000D02*
X18478D01*
Y6689D01*
X18476Y6688D01*
X18473Y6685D01*
X18469Y6681D01*
X18462Y6674D01*
X18455Y6667D01*
X18445Y6657D01*
X18434Y6647D01*
X18421Y6637D01*
X18393Y6615D01*
X18361Y6591D01*
X18323Y6570D01*
X18283Y6551D01*
Y6718D01*
X18285D01*
X18286Y6719D01*
X18294Y6722D01*
X18306Y6729D01*
X18323Y6737D01*
X18342Y6750D01*
X18363Y6765D01*
X18387Y6784D01*
X18413Y6806D01*
X18414Y6808D01*
X18416Y6809D01*
X18424Y6818D01*
X18435Y6832D01*
X18449Y6850D01*
X18465Y6871D01*
X18480Y6897D01*
X18495Y6925D01*
X18506Y6956D01*
X18628D01*
Y6000D01*
D02*
G37*
G36*
X17802Y6952D02*
X17812D01*
X17836Y6950D01*
X17863Y6947D01*
X17890Y6942D01*
X17917Y6936D01*
X17939Y6928D01*
X17942Y6926D01*
X17949Y6923D01*
X17959Y6916D01*
X17973Y6908D01*
X17988Y6897D01*
X18007Y6882D01*
X18024Y6866D01*
X18042Y6846D01*
X18045Y6843D01*
X18050Y6836D01*
X18059Y6823D01*
X18069Y6805D01*
X18082Y6784D01*
X18094Y6758D01*
X18105Y6729D01*
X18117Y6695D01*
Y6694D01*
X18118Y6691D01*
X18120Y6685D01*
X18121Y6678D01*
X18122Y6670D01*
X18125Y6658D01*
X18128Y6646D01*
X18131Y6632D01*
X18132Y6616D01*
X18135Y6599D01*
X18138Y6581D01*
X18139Y6560D01*
X18142Y6516D01*
X18144Y6467D01*
Y6465D01*
Y6461D01*
Y6454D01*
Y6445D01*
X18142Y6436D01*
Y6423D01*
X18141Y6409D01*
Y6393D01*
X18136Y6359D01*
X18132Y6323D01*
X18125Y6286D01*
X18115Y6251D01*
Y6250D01*
X18114Y6247D01*
X18113Y6242D01*
X18110Y6235D01*
X18104Y6219D01*
X18096Y6199D01*
X18086Y6175D01*
X18073Y6151D01*
X18059Y6127D01*
X18043Y6106D01*
X18042Y6103D01*
X18036Y6097D01*
X18027Y6087D01*
X18015Y6076D01*
X18000Y6063D01*
X17983Y6051D01*
X17963Y6038D01*
X17941Y6027D01*
X17938Y6025D01*
X17929Y6023D01*
X17917Y6018D01*
X17898Y6014D01*
X17876Y6008D01*
X17849Y6004D01*
X17818Y6001D01*
X17784Y6000D01*
X17488D01*
Y6953D01*
X17794D01*
X17802Y6952D01*
D02*
G37*
G36*
X17014D02*
X17024D01*
X17048Y6950D01*
X17075Y6947D01*
X17102Y6942D01*
X17129Y6936D01*
X17151Y6928D01*
X17154Y6926D01*
X17161Y6923D01*
X17171Y6916D01*
X17185Y6908D01*
X17200Y6897D01*
X17219Y6882D01*
X17236Y6866D01*
X17254Y6846D01*
X17257Y6843D01*
X17262Y6836D01*
X17271Y6823D01*
X17281Y6805D01*
X17293Y6784D01*
X17306Y6758D01*
X17317Y6729D01*
X17329Y6695D01*
Y6694D01*
X17330Y6691D01*
X17332Y6685D01*
X17333Y6678D01*
X17334Y6670D01*
X17337Y6658D01*
X17340Y6646D01*
X17343Y6632D01*
X17344Y6616D01*
X17347Y6599D01*
X17350Y6581D01*
X17351Y6560D01*
X17354Y6516D01*
X17356Y6467D01*
Y6465D01*
Y6461D01*
Y6454D01*
Y6445D01*
X17354Y6436D01*
Y6423D01*
X17353Y6409D01*
Y6393D01*
X17348Y6359D01*
X17344Y6323D01*
X17337Y6286D01*
X17327Y6251D01*
Y6250D01*
X17326Y6247D01*
X17324Y6242D01*
X17322Y6235D01*
X17316Y6219D01*
X17308Y6199D01*
X17298Y6175D01*
X17285Y6151D01*
X17271Y6127D01*
X17255Y6106D01*
X17254Y6103D01*
X17248Y6097D01*
X17239Y6087D01*
X17227Y6076D01*
X17212Y6063D01*
X17195Y6051D01*
X17175Y6038D01*
X17153Y6027D01*
X17150Y6025D01*
X17141Y6023D01*
X17129Y6018D01*
X17110Y6014D01*
X17088Y6008D01*
X17061Y6004D01*
X17030Y6001D01*
X16996Y6000D01*
X16700D01*
Y6953D01*
X17006D01*
X17014Y6952D01*
D02*
G37*
G36*
X13228Y1052D02*
X13325D01*
Y892D01*
X13228D01*
Y700D01*
X13082D01*
Y892D01*
X12762D01*
Y1051D01*
X13101Y1656D01*
X13228D01*
Y1052D01*
D02*
G37*
G36*
X12399Y1652D02*
X12411D01*
X12438Y1650D01*
X12468Y1646D01*
X12497Y1642D01*
X12526Y1635D01*
X12538Y1630D01*
X12550Y1626D01*
X12552Y1625D01*
X12559Y1622D01*
X12569Y1615D01*
X12582Y1605D01*
X12596Y1594D01*
X12610Y1578D01*
X12626Y1560D01*
X12640Y1537D01*
X12641Y1535D01*
X12645Y1526D01*
X12651Y1512D01*
X12658Y1495D01*
X12664Y1473D01*
X12669Y1446D01*
X12674Y1418D01*
X12675Y1385D01*
Y1384D01*
Y1381D01*
Y1374D01*
X12674Y1367D01*
Y1357D01*
X12672Y1346D01*
X12668Y1320D01*
X12662Y1292D01*
X12652Y1262D01*
X12638Y1233D01*
X12620Y1205D01*
Y1203D01*
X12617Y1202D01*
X12610Y1193D01*
X12597Y1182D01*
X12581Y1169D01*
X12559Y1154D01*
X12533Y1140D01*
X12503Y1129D01*
X12468Y1120D01*
X12471Y1119D01*
X12476Y1113D01*
X12486Y1106D01*
X12497Y1096D01*
X12510Y1085D01*
X12524Y1071D01*
X12538Y1055D01*
X12551Y1040D01*
X12552Y1038D01*
X12557Y1031D01*
X12565Y1020D01*
X12575Y1005D01*
X12588Y983D01*
X12595Y971D01*
X12603Y957D01*
X12612Y941D01*
X12621Y924D01*
X12631Y904D01*
X12641Y885D01*
X12737Y700D01*
X12547D01*
X12434Y907D01*
Y909D01*
X12431Y913D01*
X12428Y919D01*
X12424Y926D01*
X12418Y934D01*
X12413Y944D01*
X12400Y966D01*
X12386Y990D01*
X12372Y1014D01*
X12366Y1024D01*
X12359Y1033D01*
X12354Y1041D01*
X12349Y1047D01*
X12348Y1048D01*
X12345Y1051D01*
X12341Y1057D01*
X12335Y1062D01*
X12321Y1075D01*
X12313Y1082D01*
X12303Y1086D01*
X12301D01*
X12299Y1088D01*
X12293Y1090D01*
X12285Y1092D01*
X12273Y1095D01*
X12259Y1096D01*
X12244Y1098D01*
X12193D01*
Y700D01*
X12035D01*
Y1653D01*
X12389D01*
X12399Y1652D01*
D02*
G37*
G36*
X3850Y10809D02*
X3161D01*
X3162Y10808D01*
X3165Y10805D01*
X3169Y10801D01*
X3176Y10794D01*
X3183Y10787D01*
X3193Y10777D01*
X3203Y10766D01*
X3213Y10753D01*
X3235Y10725D01*
X3259Y10692D01*
X3280Y10654D01*
X3299Y10615D01*
X3132D01*
Y10616D01*
X3131Y10618D01*
X3128Y10626D01*
X3121Y10637D01*
X3113Y10654D01*
X3100Y10674D01*
X3085Y10695D01*
X3066Y10719D01*
X3044Y10745D01*
X3042Y10746D01*
X3041Y10747D01*
X3032Y10756D01*
X3018Y10767D01*
X3000Y10781D01*
X2979Y10797D01*
X2953Y10812D01*
X2925Y10826D01*
X2894Y10838D01*
Y10960D01*
X3850D01*
Y10809D01*
D02*
G37*
G36*
Y10339D02*
X3526Y10164D01*
X3850Y9989D01*
Y9800D01*
X3354Y10071D01*
X2897Y9825D01*
Y10009D01*
X3183Y10164D01*
X2897Y10319D01*
Y10502D01*
X3354Y10257D01*
X3850Y10527D01*
Y10339D01*
D02*
G37*
%LPC*%
G36*
X10548Y10176D02*
X10223D01*
X10548Y9995D01*
Y10176D01*
D02*
G37*
G36*
X10595Y4704D02*
X10594D01*
X10591D01*
X10587D01*
X10580D01*
X10564Y4702D01*
X10545Y4700D01*
X10522Y4697D01*
X10500Y4691D01*
X10480Y4683D01*
X10462Y4673D01*
X10460Y4671D01*
X10455Y4667D01*
X10447Y4661D01*
X10439Y4653D01*
X10432Y4642D01*
X10425Y4629D01*
X10419Y4615D01*
X10418Y4599D01*
Y4592D01*
X10419Y4584D01*
X10424Y4574D01*
X10428Y4563D01*
X10435Y4550D01*
X10445Y4537D01*
X10459Y4526D01*
X10460Y4525D01*
X10466Y4522D01*
X10476Y4516D01*
X10490Y4512D01*
X10507Y4506D01*
X10526Y4501D01*
X10552Y4498D01*
X10580Y4497D01*
X10581D01*
X10584D01*
X10588D01*
X10594D01*
X10611Y4498D01*
X10631Y4501D01*
X10652Y4505D01*
X10674Y4511D01*
X10697Y4518D01*
X10717Y4529D01*
X10718Y4530D01*
X10724Y4535D01*
X10731Y4542D01*
X10739Y4552D01*
X10749Y4563D01*
X10756Y4575D01*
X10762Y4591D01*
X10763Y4607D01*
Y4614D01*
X10762Y4621D01*
X10759Y4630D01*
X10753Y4642D01*
X10748Y4653D01*
X10738Y4664D01*
X10725Y4676D01*
X10724Y4677D01*
X10718Y4680D01*
X10708Y4684D01*
X10694Y4690D01*
X10676Y4695D01*
X10653Y4700D01*
X10627Y4702D01*
X10595Y4704D01*
D02*
G37*
G36*
X21938Y12071D02*
X21930D01*
X21923Y12069D01*
X21914Y12066D01*
X21904Y12064D01*
X21892Y12058D01*
X21881Y12049D01*
X21870Y12040D01*
X21868Y12038D01*
X21866Y12034D01*
X21861Y12027D01*
X21857Y12018D01*
X21853Y12007D01*
X21849Y11993D01*
X21846Y11976D01*
X21844Y11958D01*
Y11955D01*
Y11948D01*
X21846Y11938D01*
X21847Y11925D01*
X21850Y11913D01*
X21856Y11897D01*
X21861Y11884D01*
X21870Y11872D01*
X21871Y11870D01*
X21874Y11868D01*
X21880Y11863D01*
X21888Y11858D01*
X21897Y11852D01*
X21908Y11848D01*
X21922Y11845D01*
X21936Y11844D01*
X21943D01*
X21950Y11845D01*
X21959Y11848D01*
X21970Y11851D01*
X21981Y11855D01*
X21993Y11862D01*
X22002Y11872D01*
X22004Y11873D01*
X22007Y11877D01*
X22011Y11884D01*
X22016Y11894D01*
X22021Y11906D01*
X22025Y11921D01*
X22028Y11938D01*
X22029Y11958D01*
Y11961D01*
Y11966D01*
X22028Y11976D01*
X22026Y11989D01*
X22022Y12002D01*
X22018Y12016D01*
X22011Y12028D01*
X22002Y12041D01*
X22001Y12042D01*
X21998Y12045D01*
X21993Y12051D01*
X21985Y12056D01*
X21976Y12061D01*
X21964Y12066D01*
X21952Y12069D01*
X21938Y12071D01*
D02*
G37*
G36*
X21936Y11697D02*
X21929D01*
X21921Y11696D01*
X21909Y11691D01*
X21898Y11687D01*
X21885Y11680D01*
X21873Y11670D01*
X21860Y11656D01*
X21859Y11655D01*
X21856Y11649D01*
X21850Y11641D01*
X21844Y11628D01*
X21839Y11612D01*
X21833Y11596D01*
X21830Y11574D01*
X21829Y11550D01*
Y11549D01*
Y11548D01*
Y11543D01*
Y11538D01*
X21830Y11524D01*
X21833Y11507D01*
X21836Y11487D01*
X21842Y11467D01*
X21850Y11449D01*
X21860Y11432D01*
X21861Y11431D01*
X21866Y11426D01*
X21873Y11419D01*
X21883Y11412D01*
X21894Y11404D01*
X21907Y11398D01*
X21922Y11393D01*
X21939Y11391D01*
X21946D01*
X21954Y11394D01*
X21966Y11397D01*
X21977Y11401D01*
X21990Y11408D01*
X22002Y11418D01*
X22015Y11431D01*
X22016Y11432D01*
X22019Y11438D01*
X22025Y11447D01*
X22031Y11460D01*
X22036Y11477D01*
X22042Y11497D01*
X22045Y11521D01*
X22046Y11549D01*
Y11550D01*
Y11552D01*
Y11560D01*
X22045Y11573D01*
X22042Y11588D01*
X22038Y11605D01*
X22032Y11622D01*
X22025Y11641D01*
X22014Y11656D01*
X22012Y11658D01*
X22008Y11663D01*
X22001Y11669D01*
X21993Y11677D01*
X21981Y11684D01*
X21969Y11691D01*
X21953Y11696D01*
X21936Y11697D01*
D02*
G37*
G36*
X13289Y12004D02*
X13282D01*
X13273Y12002D01*
X13265Y11999D01*
X13253Y11994D01*
X13241Y11987D01*
X13229Y11977D01*
X13218Y11964D01*
X13217Y11963D01*
X13214Y11957D01*
X13210Y11947D01*
X13205Y11933D01*
X13200Y11915D01*
X13196Y11892D01*
X13193Y11865D01*
X13191Y11833D01*
Y11832D01*
Y11829D01*
Y11825D01*
Y11817D01*
X13193Y11802D01*
X13196Y11782D01*
X13198Y11760D01*
X13204Y11739D01*
X13211Y11717D01*
X13221Y11699D01*
X13222Y11698D01*
X13227Y11692D01*
X13234Y11686D01*
X13242Y11678D01*
X13253Y11671D01*
X13266Y11664D01*
X13280Y11658D01*
X13296Y11657D01*
X13303D01*
X13311Y11660D01*
X13321Y11662D01*
X13332Y11667D01*
X13345Y11674D01*
X13356Y11684D01*
X13369Y11696D01*
X13370Y11698D01*
X13373Y11703D01*
X13379Y11713D01*
X13384Y11727D01*
X13390Y11744D01*
X13396Y11765D01*
X13399Y11791D01*
X13400Y11819D01*
Y11820D01*
Y11823D01*
Y11827D01*
Y11833D01*
X13399Y11850D01*
X13396Y11870D01*
X13391Y11891D01*
X13384Y11915D01*
X13376Y11936D01*
X13365Y11956D01*
X13363Y11957D01*
X13359Y11963D01*
X13352Y11971D01*
X13342Y11980D01*
X13331Y11988D01*
X13318Y11996D01*
X13304Y12002D01*
X13289Y12004D01*
D02*
G37*
G36*
X8283Y6722D02*
X8193Y6421D01*
X8376D01*
X8283Y6722D01*
D02*
G37*
G36*
X7572Y6775D02*
X7485D01*
Y6237D01*
X7595D01*
X7606Y6238D01*
X7620D01*
X7636Y6239D01*
X7652Y6242D01*
X7666Y6245D01*
X7678Y6249D01*
X7679Y6250D01*
X7683Y6251D01*
X7688Y6254D01*
X7695Y6259D01*
X7710Y6269D01*
X7725Y6285D01*
X7726Y6286D01*
X7728Y6290D01*
X7732Y6296D01*
X7736Y6304D01*
X7740Y6315D01*
X7746Y6328D01*
X7751Y6345D01*
X7756Y6363D01*
Y6364D01*
X7757Y6366D01*
X7758Y6373D01*
X7761Y6385D01*
X7763Y6400D01*
X7766Y6421D01*
X7767Y6445D01*
X7769Y6472D01*
Y6504D01*
Y6505D01*
Y6507D01*
Y6512D01*
Y6518D01*
Y6527D01*
X7768Y6535D01*
Y6555D01*
X7766Y6578D01*
X7763Y6601D01*
X7761Y6625D01*
X7756Y6645D01*
Y6647D01*
Y6648D01*
X7754Y6654D01*
X7751Y6663D01*
X7746Y6675D01*
X7742Y6689D01*
X7734Y6703D01*
X7727Y6716D01*
X7718Y6728D01*
X7716Y6730D01*
X7713Y6733D01*
X7707Y6738D01*
X7700Y6745D01*
X7690Y6751D01*
X7679Y6758D01*
X7667Y6763D01*
X7654Y6768D01*
X7653D01*
X7648Y6769D01*
X7641Y6770D01*
X7630Y6772D01*
X7614Y6773D01*
X7596Y6774D01*
X7572Y6775D01*
D02*
G37*
G36*
X17749Y6792D02*
X17646D01*
Y6161D01*
X17776D01*
X17788Y6162D01*
X17805D01*
X17824Y6164D01*
X17842Y6166D01*
X17859Y6171D01*
X17873Y6175D01*
X17874Y6176D01*
X17879Y6178D01*
X17884Y6180D01*
X17893Y6186D01*
X17911Y6199D01*
X17928Y6217D01*
X17929Y6219D01*
X17932Y6223D01*
X17936Y6230D01*
X17941Y6240D01*
X17946Y6252D01*
X17953Y6268D01*
X17959Y6288D01*
X17965Y6309D01*
Y6310D01*
X17966Y6312D01*
X17967Y6320D01*
X17970Y6334D01*
X17973Y6352D01*
X17976Y6376D01*
X17977Y6405D01*
X17980Y6437D01*
Y6474D01*
Y6475D01*
Y6478D01*
Y6484D01*
Y6491D01*
Y6500D01*
X17979Y6510D01*
Y6534D01*
X17976Y6561D01*
X17973Y6588D01*
X17970Y6616D01*
X17965Y6640D01*
Y6641D01*
Y6643D01*
X17962Y6650D01*
X17959Y6661D01*
X17953Y6675D01*
X17948Y6691D01*
X17939Y6708D01*
X17931Y6723D01*
X17919Y6737D01*
X17918Y6739D01*
X17914Y6743D01*
X17907Y6749D01*
X17898Y6757D01*
X17887Y6764D01*
X17874Y6773D01*
X17860Y6778D01*
X17845Y6784D01*
X17843D01*
X17838Y6785D01*
X17829Y6787D01*
X17816Y6788D01*
X17798Y6789D01*
X17777Y6791D01*
X17749Y6792D01*
D02*
G37*
G36*
X16961D02*
X16858D01*
Y6161D01*
X16988D01*
X17000Y6162D01*
X17017D01*
X17036Y6164D01*
X17054Y6166D01*
X17071Y6171D01*
X17085Y6175D01*
X17086Y6176D01*
X17090Y6178D01*
X17096Y6180D01*
X17105Y6186D01*
X17123Y6199D01*
X17140Y6217D01*
X17141Y6219D01*
X17144Y6223D01*
X17148Y6230D01*
X17153Y6240D01*
X17158Y6252D01*
X17165Y6268D01*
X17171Y6288D01*
X17176Y6309D01*
Y6310D01*
X17178Y6312D01*
X17179Y6320D01*
X17182Y6334D01*
X17185Y6352D01*
X17188Y6376D01*
X17189Y6405D01*
X17192Y6437D01*
Y6474D01*
Y6475D01*
Y6478D01*
Y6484D01*
Y6491D01*
Y6500D01*
X17191Y6510D01*
Y6534D01*
X17188Y6561D01*
X17185Y6588D01*
X17182Y6616D01*
X17176Y6640D01*
Y6641D01*
Y6643D01*
X17174Y6650D01*
X17171Y6661D01*
X17165Y6675D01*
X17160Y6691D01*
X17151Y6708D01*
X17143Y6723D01*
X17131Y6737D01*
X17130Y6739D01*
X17126Y6743D01*
X17119Y6749D01*
X17110Y6757D01*
X17099Y6764D01*
X17086Y6773D01*
X17072Y6778D01*
X17057Y6784D01*
X17055D01*
X17050Y6785D01*
X17041Y6787D01*
X17028Y6788D01*
X17010Y6789D01*
X16989Y6791D01*
X16961Y6792D01*
D02*
G37*
G36*
X13082Y1377D02*
X12902Y1052D01*
X13082D01*
Y1377D01*
D02*
G37*
G36*
X12351Y1492D02*
X12193D01*
Y1250D01*
X12344D01*
X12366Y1251D01*
X12389D01*
X12411Y1254D01*
X12431Y1255D01*
X12438Y1257D01*
X12445Y1258D01*
X12447D01*
X12451Y1260D01*
X12455Y1262D01*
X12462Y1267D01*
X12471Y1272D01*
X12478Y1278D01*
X12486Y1286D01*
X12493Y1296D01*
X12495Y1298D01*
X12496Y1302D01*
X12499Y1308D01*
X12503Y1317D01*
X12506Y1327D01*
X12509Y1341D01*
X12510Y1356D01*
X12511Y1372D01*
Y1374D01*
Y1379D01*
X12510Y1388D01*
X12509Y1399D01*
X12504Y1423D01*
X12499Y1434D01*
X12493Y1446D01*
X12492Y1447D01*
X12490Y1450D01*
X12486Y1456D01*
X12480Y1461D01*
X12473Y1467D01*
X12465Y1474D01*
X12455Y1480D01*
X12444Y1484D01*
X12442D01*
X12438Y1485D01*
X12431Y1487D01*
X12420Y1488D01*
X12411Y1489D01*
X12403D01*
X12392Y1491D01*
X12366D01*
X12351Y1492D01*
D02*
G37*
%LPD*%
D10*
X5125Y3600D02*
G03*
X5125Y3600I-100J0D01*
G01*
X6610Y5300D02*
G03*
X6610Y5300I-100J0D01*
G01*
X6730Y5750D02*
X6730Y7250D01*
X9770Y7250D02*
X9770Y5750D01*
X7870Y7250D02*
X8630Y7250D01*
X14800Y3750D02*
Y9250D01*
X20300Y3750D02*
Y9250D01*
X14800D02*
X20300D01*
X14800Y3750D02*
X20300D01*
X12035Y3050D02*
X12035Y1850D01*
X14210Y1850D02*
Y3050D01*
X12035Y1850D02*
X14210Y1850D01*
X12035Y3050D02*
X14210Y3050D01*
D11*
X13425Y9800D02*
G03*
X13425Y9800I-125J0D01*
G01*
D12*
X16100Y8250D02*
G03*
X16100Y8250I-300J0D01*
G01*
D13*
X5125Y4400D02*
X5125Y4200D01*
X4425Y3500D02*
X5125Y4200D01*
X4125Y3500D02*
X4425D01*
X725Y3500D02*
X2525Y3500D01*
X5125Y9500D02*
X5125Y8600D01*
X4125Y9500D02*
X5125Y9500D01*
X725Y4400D02*
X725Y3500D01*
X725Y8600D02*
X725Y9500D01*
X2525Y9500D01*
D14*
X11070Y3545D02*
X12130Y3545D01*
X11070Y5505D02*
X12130Y5505D01*
X12130Y3545D01*
X11070Y3545D02*
X11070Y5505D01*
X22855Y2950D02*
X22855Y1890D01*
X20895Y1890D02*
X20895Y2950D01*
X22855Y2950D01*
X20895Y1890D02*
X22855Y1890D01*
X22855Y11100D02*
X22855Y10040D01*
X20895Y10040D02*
X20895Y11100D01*
X22855Y11100D01*
X20895Y10040D02*
X22855Y10040D01*
X12275Y11060D02*
X12275Y10000D01*
X14235Y10000D02*
X14235Y11060D01*
X12275Y10000D02*
X14235Y10000D01*
X12275Y11060D02*
X14235Y11060D01*
X11070Y11060D02*
X12130Y11060D01*
X11070Y9100D02*
X12130D01*
X11070Y11060D02*
X11070Y9100D01*
X12130D02*
X12130Y11060D01*
X11070Y8705D02*
X12130Y8705D01*
X11070Y6745D02*
X12130D01*
X11070Y8705D02*
X11070Y6745D01*
X12130D02*
X12130Y8705D01*
X25875Y1350D02*
Y11750D01*
X23075Y1350D02*
X25875D01*
X23075Y11750D02*
X25875D01*
X23075Y1350D02*
Y11750D01*
X6790Y2269D02*
X6790Y4229D01*
X7850Y2269D02*
X7850Y4229D01*
X6790D02*
X7850D01*
X6790Y2269D02*
X7850Y2269D01*
X8670Y9100D02*
X8670Y11060D01*
X9730Y11060D02*
X9730Y9100D01*
X8670Y11060D02*
X9730Y11060D01*
X8670Y9100D02*
X9730Y9100D01*
M02*
