G04*
G04 #@! TF.GenerationSoftware,Altium Limited,Altium Designer,22.7.1 (60)*
G04*
G04 Layer_Color=16711935*
%FSLAX43Y43*%
%MOMM*%
G71*
G04*
G04 #@! TF.SameCoordinates,4746692A-FCE4-4093-9A7F-7E88C9008C25*
G04*
G04*
G04 #@! TF.FilePolarity,Positive*
G04*
G01*
G75*
%ADD48C,0.100*%
D48*
X544Y12982D02*
X700Y13000D01*
X396Y12931D02*
X544Y12982D01*
X264Y12847D02*
X396Y12931D01*
X153Y12736D02*
X264Y12847D01*
X69Y12604D02*
X153Y12736D01*
X18Y12456D02*
X69Y12604D01*
X-0Y12300D02*
X18Y12456D01*
X-0Y700D02*
Y12300D01*
Y700D02*
X18Y544D01*
X69Y396D01*
X153Y263D01*
X264Y153D01*
X396Y69D01*
X544Y17D01*
X700Y-0D01*
X25300D01*
X25456Y17D01*
X25604Y69D01*
X25736Y153D01*
X25847Y263D01*
X25931Y396D01*
X25982Y544D01*
X26000Y700D01*
Y12300D01*
X25982Y12456D02*
X26000Y12300D01*
X25931Y12604D02*
X25982Y12456D01*
X25847Y12736D02*
X25931Y12604D01*
X25736Y12847D02*
X25847Y12736D01*
X25604Y12931D02*
X25736Y12847D01*
X25456Y12982D02*
X25604Y12931D01*
X25300Y13000D02*
X25456Y12982D01*
X700Y13000D02*
X25300D01*
M02*
