G04*
G04 #@! TF.GenerationSoftware,Altium Limited,Altium Designer,22.7.1 (60)*
G04*
G04 Layer_Physical_Order=1*
G04 Layer_Color=16776960*
%FSLAX43Y43*%
%MOMM*%
G71*
G04*
G04 #@! TF.SameCoordinates,4746692A-FCE4-4093-9A7F-7E88C9008C25*
G04*
G04*
G04 #@! TF.FilePolarity,Positive*
G04*
G01*
G75*
%ADD10C,0.200*%
%ADD25C,0.400*%
%ADD26C,0.500*%
%ADD27C,0.300*%
G04:AMPARAMS|DCode=28|XSize=1.5mm|YSize=0.55mm|CornerRadius=0.069mm|HoleSize=0mm|Usage=FLASHONLY|Rotation=0.000|XOffset=0mm|YOffset=0mm|HoleType=Round|Shape=RoundedRectangle|*
%AMROUNDEDRECTD28*
21,1,1.500,0.413,0,0,0.0*
21,1,1.363,0.550,0,0,0.0*
1,1,0.138,0.681,-0.206*
1,1,0.138,-0.681,-0.206*
1,1,0.138,-0.681,0.206*
1,1,0.138,0.681,0.206*
%
%ADD28ROUNDEDRECTD28*%
G04:AMPARAMS|DCode=29|XSize=0.59mm|YSize=0.6mm|CornerRadius=0.074mm|HoleSize=0mm|Usage=FLASHONLY|Rotation=90.000|XOffset=0mm|YOffset=0mm|HoleType=Round|Shape=RoundedRectangle|*
%AMROUNDEDRECTD29*
21,1,0.590,0.453,0,0,90.0*
21,1,0.443,0.600,0,0,90.0*
1,1,0.148,0.226,0.221*
1,1,0.148,0.226,-0.221*
1,1,0.148,-0.226,-0.221*
1,1,0.148,-0.226,0.221*
%
%ADD29ROUNDEDRECTD29*%
G04:AMPARAMS|DCode=30|XSize=0.59mm|YSize=0.6mm|CornerRadius=0.074mm|HoleSize=0mm|Usage=FLASHONLY|Rotation=180.000|XOffset=0mm|YOffset=0mm|HoleType=Round|Shape=RoundedRectangle|*
%AMROUNDEDRECTD30*
21,1,0.590,0.453,0,0,180.0*
21,1,0.443,0.600,0,0,180.0*
1,1,0.148,-0.221,0.226*
1,1,0.148,0.221,0.226*
1,1,0.148,0.221,-0.226*
1,1,0.148,-0.221,-0.226*
%
%ADD30ROUNDEDRECTD30*%
G04:AMPARAMS|DCode=31|XSize=0.61mm|YSize=1.26mm|CornerRadius=0.076mm|HoleSize=0mm|Usage=FLASHONLY|Rotation=180.000|XOffset=0mm|YOffset=0mm|HoleType=Round|Shape=RoundedRectangle|*
%AMROUNDEDRECTD31*
21,1,0.610,1.108,0,0,180.0*
21,1,0.458,1.260,0,0,180.0*
1,1,0.153,-0.229,0.554*
1,1,0.153,0.229,0.554*
1,1,0.153,0.229,-0.554*
1,1,0.153,-0.229,-0.554*
%
%ADD31ROUNDEDRECTD31*%
%ADD32O,1.800X0.250*%
%ADD33O,0.250X1.800*%
G04:AMPARAMS|DCode=34|XSize=0.61mm|YSize=0.6mm|CornerRadius=0.075mm|HoleSize=0mm|Usage=FLASHONLY|Rotation=0.000|XOffset=0mm|YOffset=0mm|HoleType=Round|Shape=RoundedRectangle|*
%AMROUNDEDRECTD34*
21,1,0.610,0.450,0,0,0.0*
21,1,0.460,0.600,0,0,0.0*
1,1,0.150,0.230,-0.225*
1,1,0.150,-0.230,-0.225*
1,1,0.150,-0.230,0.225*
1,1,0.150,0.230,0.225*
%
%ADD34ROUNDEDRECTD34*%
%ADD35R,1.700X1.700*%
%ADD36C,1.700*%
%ADD37C,0.700*%
G36*
X8199Y11300D02*
X8383Y11224D01*
X8524Y11083D01*
X8600Y10899D01*
Y10800D01*
X8600D01*
X8600Y10800D01*
X8600Y7600D01*
X8600Y7530D01*
X8547Y7402D01*
X8448Y7303D01*
X8369Y7270D01*
X8250Y7250D01*
X7810Y7250D01*
Y7425D01*
X7300D01*
Y7725D01*
X7000D01*
Y8546D01*
X6963Y8539D01*
X6872Y8478D01*
X6811Y8387D01*
X6799Y8328D01*
X6666Y8299D01*
X6664Y8302D01*
X6555Y8564D01*
X6500Y8841D01*
Y10823D01*
X6500Y10918D01*
X6573Y11093D01*
X6707Y11227D01*
X6851Y11287D01*
X6977Y11300D01*
D01*
X7098Y11300D01*
X8199Y11300D01*
D02*
G37*
G36*
X20170Y9154D02*
X20254Y9070D01*
X20277Y9015D01*
X20300Y8901D01*
Y8900D01*
X20300Y8900D01*
X20300Y8900D01*
X20300Y8083D01*
X20300Y7974D01*
X20258Y7762D01*
X20175Y7561D01*
X20060Y7389D01*
X19978Y7304D01*
X19978Y7304D01*
X19978Y7304D01*
X17937Y5264D01*
X17815Y5142D01*
X17527Y4950D01*
X17208Y4817D01*
X16869Y4750D01*
X16696Y4750D01*
X16696Y4750D01*
X16696Y4750D01*
X15200Y4750D01*
X15120Y4750D01*
X14973Y4811D01*
X14861Y4923D01*
X14800Y5070D01*
X14800Y5150D01*
Y6781D01*
X14842Y6810D01*
X14927Y6838D01*
X15085Y6732D01*
X15300Y6689D01*
X15515Y6732D01*
X15697Y6853D01*
X15818Y7035D01*
X15861Y7250D01*
X15818Y7465D01*
X15697Y7647D01*
X15515Y7768D01*
X15300Y7811D01*
X15085Y7768D01*
X14927Y7662D01*
X14842Y7690D01*
X14800Y7719D01*
Y8900D01*
X14800Y8960D01*
X14846Y9070D01*
X14930Y9154D01*
X15040Y9200D01*
X15100Y9200D01*
X15100Y9200D01*
X15886D01*
X15954Y9073D01*
X15882Y8965D01*
X15839Y8750D01*
X15882Y8535D01*
X16003Y8353D01*
X16185Y8232D01*
X16400Y8189D01*
X16615Y8232D01*
X16797Y8353D01*
X16918Y8535D01*
X16961Y8750D01*
X16919Y8960D01*
X16981Y9075D01*
X17019Y9200D01*
X20000Y9200D01*
X20060Y9200D01*
X20170Y9154D01*
D02*
G37*
G36*
X970Y10370D02*
X5730Y10370D01*
X5730Y10370D01*
X5730Y10370D01*
X5730D01*
X5847Y10360D01*
X5996Y10298D01*
X6128Y10166D01*
X6200Y9993D01*
X6200Y9900D01*
X6200Y7988D01*
X6200Y7861D01*
X5985Y7818D01*
X5958Y7800D01*
X5857Y7800D01*
X5857Y7800D01*
X3789D01*
X3789Y7800D01*
X2057Y7800D01*
X2057Y7800D01*
X1025D01*
Y8100D01*
X725D01*
Y8580D01*
X544D01*
X544Y9944D01*
X544Y9944D01*
X559Y10065D01*
X609Y10185D01*
X729Y10305D01*
X885Y10370D01*
X970Y10370D01*
D02*
G37*
G36*
X6700Y3652D02*
X6700Y1769D01*
X6700Y1769D01*
X6700Y1715D01*
X6658Y1614D01*
X6581Y1537D01*
X6480Y1495D01*
X5874Y1495D01*
X5686Y1532D01*
X5510Y1605D01*
X5466Y1635D01*
X5254Y1809D01*
X5216Y1846D01*
X5110Y2005D01*
X5037Y2181D01*
X5000Y2369D01*
Y3400D01*
X5000Y3478D01*
X5060Y3623D01*
X5171Y3734D01*
X5315Y3794D01*
X5394Y3793D01*
X6178Y3794D01*
X6200Y3789D01*
X6221Y3794D01*
X6559Y3794D01*
X6700Y3652D01*
D02*
G37*
G36*
X1775Y4377D02*
X1900Y4294D01*
X1900Y2015D01*
X1900Y1958D01*
X1856Y1851D01*
X1775Y1770D01*
X1726Y1749D01*
X1610Y1725D01*
X1610Y1725D01*
Y1725D01*
X515Y1722D01*
X400Y1770D01*
X311Y1858D01*
X264Y1973D01*
X264Y2036D01*
X264Y2036D01*
X264Y4299D01*
X275Y4308D01*
Y4900D01*
X1775D01*
Y4377D01*
D02*
G37*
%LPC*%
G36*
X7600Y8546D02*
Y8025D01*
X7810D01*
Y8279D01*
X7789Y8387D01*
X7728Y8478D01*
X7637Y8539D01*
X7600Y8546D01*
D02*
G37*
G36*
X1706Y8580D02*
X1325D01*
Y8400D01*
X1962D01*
X1959Y8411D01*
X1900Y8500D01*
X1811Y8559D01*
X1706Y8580D01*
D02*
G37*
G36*
X5506Y8580D02*
X5125D01*
Y8400D01*
X5762D01*
X5759Y8411D01*
X5700Y8500D01*
X5611Y8559D01*
X5506Y8580D01*
D02*
G37*
G36*
X4525D02*
X4144D01*
X4039Y8559D01*
X3950Y8500D01*
X3891Y8411D01*
X3888Y8400D01*
X4525D01*
Y8580D01*
D02*
G37*
%LPD*%
D10*
X12083Y5250D02*
G03*
X11600Y5050I0J-683D01*
G01*
X10575Y5300D02*
G03*
X11179Y5050I604J604D01*
G01*
X21350Y2420D02*
G03*
X21682Y1618I1135J0D01*
G01*
X11600Y9555D02*
G03*
X12336Y9250I736J736D01*
G01*
X10575Y8525D02*
G03*
X11299Y8225I724J724D01*
G01*
X19800Y1091D02*
G03*
X20191Y700I391J0D01*
G01*
X24145Y2420D02*
G03*
X24475Y2750I0J330D01*
G01*
X6200Y4350D02*
G03*
X4872Y4900I-1328J-1328D01*
G01*
X15020Y900D02*
G03*
X15600Y1140I0J820D01*
G01*
D02*
G03*
X15800Y1623I-483J483D01*
G01*
X15066Y396D02*
G03*
X15800Y700I0J1037D01*
G01*
X16000Y900D02*
G03*
X16300Y1624I-724J724D01*
G01*
X18400Y700D02*
G03*
X18800Y1666I-966J966D01*
G01*
X6200Y5350D02*
G03*
X5355Y5700I-845J-845D01*
G01*
X3400Y6650D02*
G03*
X2800Y7250I-600J0D01*
G01*
X3400Y4277D02*
G03*
X4144Y2481I2540J0D01*
G01*
X1025Y7300D02*
G03*
X1075Y7250I50J0D01*
G01*
X4981Y1644D02*
G03*
X6777Y900I1796J1796D01*
G01*
X2900Y6000D02*
G03*
X2400Y6500I-500J0D01*
G01*
X2900Y4027D02*
G03*
X3644Y2231I2540J0D01*
G01*
X4735Y1140D02*
G03*
X6531Y396I1796J1796D01*
G01*
X2400Y5300D02*
G03*
X2000Y5700I-400J0D01*
G01*
X24475Y7830D02*
G03*
X23461Y8250I-1014J-1014D01*
G01*
X23200Y7300D02*
G03*
X22750Y7750I-450J0D01*
G01*
X23200Y6565D02*
G03*
X24475Y5290I1275J0D01*
G01*
X13300Y1700D02*
G03*
X13635Y2035I0J335D01*
G01*
X11600Y10580D02*
G03*
X11370Y11135I-785J0D01*
G01*
X12755Y10530D02*
G03*
X12384Y11426I-1267J0D01*
G01*
X22775Y11595D02*
G03*
X22375Y10629I966J-966D01*
G01*
X20800Y12500D02*
G03*
X20300Y12000I0J-500D01*
G01*
X24475Y12000D02*
G03*
X23975Y12500I-500J0D01*
G01*
X16400Y8750D02*
G03*
X16800Y9716I-966J966D01*
G01*
X6200Y6300D02*
G03*
X5717Y6500I-483J-483D01*
G01*
X15764Y4250D02*
G03*
X15100Y3975I0J-939D01*
G01*
X10900Y3325D02*
G03*
X11600Y4025I0J700D01*
G01*
X18500Y4900D02*
G03*
X18862Y4750I362J362D01*
G01*
X2400Y3149D02*
G03*
X3000Y1700I2049J0D01*
G01*
X11179Y5050D02*
X11600D01*
X21350Y9250D02*
Y10570D01*
X20330Y2420D02*
X21350D01*
X13780Y10530D02*
X14800D01*
X12336Y9250D02*
X13500D01*
X10575Y9555D02*
X11600D01*
X12083Y5250D02*
X13500D01*
X11299Y8225D02*
X11600D01*
X11605Y6255D02*
X11609Y6250D01*
X11600Y7200D02*
X11605Y7195D01*
Y6255D02*
Y7195D01*
X11609Y6250D02*
X13500D01*
X21682Y1618D02*
X22300Y1000D01*
X20191Y700D02*
X21300D01*
X19800Y1091D02*
Y2450D01*
X22375Y2420D02*
X24145D01*
X8475Y1700D02*
X13300D01*
X16800Y700D02*
Y2450D01*
X6777Y900D02*
X15020D01*
X15800Y1623D02*
Y2450D01*
X6531Y396D02*
X15066D01*
X15800Y700D02*
X16000Y900D01*
X16300Y1624D02*
Y2450D01*
X18800Y1666D02*
Y2450D01*
X4825Y4900D02*
X4872D01*
X4825Y5700D02*
X5355D01*
X20300Y2450D02*
X20330Y2420D01*
X21350Y9250D02*
X21600D01*
X14800Y10530D02*
Y10550D01*
X15300Y8750D02*
Y10550D01*
X13500Y5750D02*
X15300D01*
X19800Y8750D02*
X21600D01*
X4825Y7300D02*
Y7300D01*
X3400Y4277D02*
Y6650D01*
X1075Y7250D02*
X2800D01*
X1025Y7300D02*
Y7300D01*
X4144Y2481D02*
X4981Y1644D01*
X1025Y6500D02*
Y6500D01*
X2900Y4027D02*
Y6000D01*
X3644Y2231D02*
X4735Y1140D01*
X1025Y6500D02*
X2400D01*
X13635Y2450D02*
X14800D01*
X13635Y2035D02*
Y2450D01*
X1025Y5700D02*
X2000D01*
X21600Y8250D02*
X23461D01*
X21600Y7750D02*
X22750D01*
X23200Y6565D02*
Y7300D01*
X9200Y10605D02*
Y11630D01*
X4825Y7300D02*
X6200D01*
X4825Y6500D02*
X5717D01*
X13780Y10530D02*
Y11555D01*
X21350Y10570D02*
Y11595D01*
X10675Y3325D02*
X10900D01*
X11000Y11505D02*
X11370Y11135D01*
X12255Y11555D02*
X12384Y11426D01*
X22375Y10570D02*
Y10629D01*
X20300Y10550D02*
Y12000D01*
X20800Y12500D02*
X23975D01*
X24475Y10370D02*
Y12000D01*
X13500Y7250D02*
X15300D01*
X15800Y10550D02*
Y12200D01*
X16800Y9716D02*
Y10550D01*
X15764Y4250D02*
X21600D01*
X11535Y2450D02*
X12635D01*
X7320Y1724D02*
Y2749D01*
X18862Y4750D02*
X21600D01*
X3000Y1700D02*
X3700Y1000D01*
X2400Y3149D02*
Y5300D01*
D25*
X7160Y3774D02*
G03*
X6500Y3500I0J-934D01*
G01*
X7280Y3774D02*
X7320D01*
X7160D02*
X7280D01*
D26*
D02*
G03*
X7300Y3794I0J20D01*
G01*
D27*
X8774Y3774D02*
G03*
X9200Y4200I0J426D01*
G01*
X7320Y3774D02*
X8774D01*
X9200Y7725D02*
Y9580D01*
X7300Y3794D02*
Y5275D01*
X9200Y4200D02*
Y5275D01*
X9200D02*
X9200D01*
X8250Y5275D02*
Y6500D01*
D28*
X4825Y7300D02*
D03*
X4825Y5700D02*
D03*
X4825Y6500D02*
D03*
X4825Y4900D02*
D03*
X4825Y8100D02*
D03*
X1025Y4900D02*
D03*
X1025Y8100D02*
D03*
X1025Y6500D02*
D03*
X1025Y7300D02*
D03*
X1025Y5700D02*
D03*
D29*
X11600Y5050D02*
D03*
Y4025D02*
D03*
X11600Y9555D02*
D03*
Y10580D02*
D03*
Y7200D02*
D03*
Y8225D02*
D03*
X7320Y2749D02*
D03*
X7320Y3774D02*
D03*
X9200Y9580D02*
D03*
X9200Y10605D02*
D03*
D30*
X21350Y2420D02*
D03*
X22375Y2420D02*
D03*
X21350Y10570D02*
D03*
X22375Y10570D02*
D03*
X13780Y10530D02*
D03*
X12755Y10530D02*
D03*
D31*
X7300Y7725D02*
D03*
X9200D02*
D03*
X9200Y5275D02*
D03*
X8250Y5275D02*
D03*
X7300Y5275D02*
D03*
D32*
X13500Y9250D02*
D03*
Y8750D02*
D03*
Y8250D02*
D03*
Y7750D02*
D03*
Y7250D02*
D03*
Y6750D02*
D03*
Y6250D02*
D03*
Y5750D02*
D03*
Y5250D02*
D03*
Y4750D02*
D03*
Y4250D02*
D03*
Y3750D02*
D03*
X21600D02*
D03*
Y4250D02*
D03*
Y4750D02*
D03*
Y5250D02*
D03*
Y5750D02*
D03*
Y6250D02*
D03*
Y6750D02*
D03*
Y7250D02*
D03*
Y7750D02*
D03*
Y8250D02*
D03*
Y8750D02*
D03*
Y9250D02*
D03*
D33*
X14800Y2450D02*
D03*
X15300D02*
D03*
X15800D02*
D03*
X16300D02*
D03*
X16800D02*
D03*
X17300D02*
D03*
X17800D02*
D03*
X18300D02*
D03*
X18800D02*
D03*
X19300D02*
D03*
X19800D02*
D03*
X20300D02*
D03*
Y10550D02*
D03*
X19800D02*
D03*
X19300D02*
D03*
X18800D02*
D03*
X18300D02*
D03*
X17800D02*
D03*
X17300D02*
D03*
X16800D02*
D03*
X16300D02*
D03*
X15800D02*
D03*
X15300D02*
D03*
X14800D02*
D03*
D34*
X13635Y2450D02*
D03*
X12635Y2450D02*
D03*
D35*
X24475Y10370D02*
D03*
D36*
Y7830D02*
D03*
Y5290D02*
D03*
Y2750D02*
D03*
D37*
X11609Y6250D02*
D03*
X10575Y8425D02*
D03*
X22300Y1000D02*
D03*
X21300Y700D02*
D03*
X6300Y1926D02*
D03*
X5800Y2543D02*
D03*
Y3400D02*
D03*
X16800Y700D02*
D03*
X18400D02*
D03*
X6200Y4350D02*
D03*
X6200Y5350D02*
D03*
X11000Y11505D02*
D03*
X12255Y11555D02*
D03*
X16400Y8750D02*
D03*
X15300D02*
D03*
X15200Y6200D02*
D03*
X19800Y8750D02*
D03*
X22775Y11595D02*
D03*
X16000Y6200D02*
D03*
X10675Y3325D02*
D03*
X1025Y9100D02*
D03*
X1800D02*
D03*
X2575D02*
D03*
X3350D02*
D03*
X4125D02*
D03*
X4900D02*
D03*
X5675D02*
D03*
X2575Y8325D02*
D03*
X3350D02*
D03*
X1800Y9875D02*
D03*
X2575D02*
D03*
X1025D02*
D03*
X3350D02*
D03*
X4125D02*
D03*
X4900D02*
D03*
X5675D02*
D03*
X9200Y11630D02*
D03*
X6200Y7300D02*
D03*
X6200Y6300D02*
D03*
X8000Y9875D02*
D03*
X7025D02*
D03*
Y10650D02*
D03*
X8000D02*
D03*
X8250Y6500D02*
D03*
X10575Y9555D02*
D03*
X13780Y11555D02*
D03*
X21350Y11595D02*
D03*
X15300Y7250D02*
D03*
X17800Y8750D02*
D03*
X15800Y12200D02*
D03*
X18800Y8750D02*
D03*
X15200Y5400D02*
D03*
X16000D02*
D03*
X16800D02*
D03*
X16800Y6200D02*
D03*
X16800Y7000D02*
D03*
X18500Y4900D02*
D03*
X15100Y3975D02*
D03*
X11535Y2450D02*
D03*
X8475Y1700D02*
D03*
X7320Y1724D02*
D03*
X10575Y5300D02*
D03*
X19800Y7988D02*
D03*
X12000Y3200D02*
D03*
X20000Y5594D02*
D03*
X1475Y2300D02*
D03*
X700D02*
D03*
Y3075D02*
D03*
X1475D02*
D03*
Y3850D02*
D03*
X700D02*
D03*
X3700Y1000D02*
D03*
M02*
