M48
;Layer_Color=9474304
;FILE_FORMAT=4:3
METRIC,LZ
;TYPE=PLATED
T1F00S00C0.300
T2F00S00C0.950
%
T01
X0008475Y00017
X0011535Y000245
X0012Y00032
X0010675Y0003325
X0010575Y00053
X0011609Y000625
X0010575Y0008425
Y0009555
X0011Y0011505
X0012255Y0011555
X001378Y0011555
X00158Y00122
X00153Y000875
X00164
X00178Y000875
X00188
X00198
Y0007988
X002Y0005594
X00185Y00049
X00168Y00054
X0016
X00152
X00152Y00062
X0016
X00168
X00168Y0007
X00153Y000725
X00151Y0003975
X00168Y00007
X00184
X00213
X00223Y0001
X0022775Y0011595
X002135
X00092Y001163
X0008Y001065
Y0009875
X0007025
Y001065
X0005675Y0009875
X00049
X0004125
X000335
X0002575
X00018
X0001025
Y00091
X00018
X0002575
X000335
X0004125
X00049
X0005675
X00062Y00073
X00062Y00063
X00062Y000535
X00062Y000435
X00058Y00034
Y0002543
X00063Y0001926
X000732Y0001724
X00037Y0001
X0001475Y00023
X00007
Y0003075
X0001475
Y000385
X00007
X0002575Y0008325
X000335
X000825Y00065
T02
X0024475Y000275
Y000529
Y000783
Y001037
M30
