G04*
G04 #@! TF.GenerationSoftware,Altium Limited,Altium Designer,22.7.1 (60)*
G04*
G04 Layer_Color=32896*
%FSLAX43Y43*%
%MOMM*%
G71*
G04*
G04 #@! TF.SameCoordinates,DF1E0758-EE3D-4B36-99E4-D52E4057D36D*
G04*
G04*
G04 #@! TF.FilePolarity,Positive*
G04*
G01*
G75*
%ADD10C,0.200*%
%ADD11C,0.150*%
G36*
X4000Y12016D02*
Y9500D01*
X4000Y9381D01*
X4091Y9160D01*
X4260Y8991D01*
X4481Y8900D01*
X4600D01*
X4600Y8900D01*
X9300Y8900D01*
X9369D01*
X9504Y8927D01*
X9632Y8980D01*
X9746Y9056D01*
X9844Y9154D01*
X9920Y9268D01*
X9973Y9396D01*
X10000Y9531D01*
Y9600D01*
X10000Y9600D01*
X10000Y11950D01*
Y12023D01*
X9971Y12167D01*
X9915Y12303D01*
X9834Y12425D01*
X9730Y12529D01*
X9608Y12610D01*
X9472Y12666D01*
X9328Y12695D01*
X9255Y12695D01*
X9255Y12695D01*
X4679Y12695D01*
X4612Y12695D01*
X4481Y12669D01*
X4357Y12618D01*
X4246Y12543D01*
X4151Y12449D01*
X4077Y12338D01*
X4026Y12214D01*
X4000Y12083D01*
X4000Y12016D01*
Y12016D01*
D02*
G37*
G36*
X9174Y8499D02*
X9214Y8496D01*
X9252Y8490D01*
X9287Y8483D01*
X9319Y8475D01*
X9349Y8466D01*
X9377Y8456D01*
X9401Y8445D01*
X9424Y8435D01*
X9444Y8425D01*
X9460Y8417D01*
X9473Y8408D01*
X9484Y8401D01*
X9493Y8396D01*
X9497Y8393D01*
X9498Y8391D01*
X9520Y8373D01*
X9537Y8353D01*
X9552Y8334D01*
X9566Y8313D01*
X9577Y8291D01*
X9587Y8272D01*
X9594Y8252D01*
X9601Y8232D01*
X9606Y8214D01*
X9610Y8197D01*
X9611Y8181D01*
X9614Y8169D01*
Y8157D01*
X9616Y8150D01*
Y8143D01*
X9614Y8121D01*
X9613Y8100D01*
X9604Y8060D01*
X9593Y8025D01*
X9586Y8009D01*
X9579Y7995D01*
X9572Y7983D01*
X9565Y7971D01*
X9559Y7962D01*
X9553Y7954D01*
X9549Y7947D01*
X9545Y7943D01*
X9544Y7940D01*
X9542Y7939D01*
X9527Y7923D01*
X9511Y7909D01*
X9475Y7885D01*
X9435Y7864D01*
X9397Y7847D01*
X9379Y7840D01*
X9362Y7835D01*
X9346Y7830D01*
X9334Y7826D01*
X9322Y7823D01*
X9314Y7821D01*
X9308Y7819D01*
X9307D01*
X9248Y7973D01*
X9286Y7981D01*
X9317Y7993D01*
X9343Y8002D01*
X9365Y8014D01*
X9382Y8024D01*
X9393Y8032D01*
X9400Y8038D01*
X9403Y8039D01*
X9418Y8056D01*
X9431Y8074D01*
X9439Y8093D01*
X9445Y8110D01*
X9448Y8124D01*
X9449Y8136D01*
X9451Y8143D01*
Y8146D01*
X9449Y8162D01*
X9448Y8176D01*
X9439Y8204D01*
X9427Y8227D01*
X9413Y8246D01*
X9400Y8263D01*
X9387Y8274D01*
X9379Y8281D01*
X9377Y8284D01*
X9376D01*
X9360Y8293D01*
X9343Y8301D01*
X9324Y8308D01*
X9304Y8314D01*
X9262Y8324D01*
X9219Y8329D01*
X9200Y8332D01*
X9181Y8334D01*
X9164Y8335D01*
X9150D01*
X9138Y8336D01*
X9129D01*
X9122D01*
X9121D01*
X9090D01*
X9060Y8334D01*
X9033Y8331D01*
X9009Y8328D01*
X8987Y8324D01*
X8966Y8320D01*
X8947Y8315D01*
X8932Y8310D01*
X8918Y8304D01*
X8905Y8300D01*
X8895Y8296D01*
X8887Y8291D01*
X8881Y8287D01*
X8875Y8286D01*
X8874Y8283D01*
X8873D01*
X8858Y8272D01*
X8847Y8260D01*
X8837Y8249D01*
X8829Y8238D01*
X8815Y8214D01*
X8806Y8191D01*
X8801Y8172D01*
X8798Y8156D01*
X8796Y8150D01*
Y8142D01*
X8798Y8119D01*
X8804Y8100D01*
X8809Y8083D01*
X8818Y8067D01*
X8825Y8055D01*
X8832Y8045D01*
X8837Y8039D01*
X8839Y8038D01*
X8856Y8022D01*
X8874Y8009D01*
X8894Y7998D01*
X8913Y7990D01*
X8930Y7984D01*
X8944Y7980D01*
X8950Y7978D01*
X8954D01*
X8956Y7977D01*
X8957D01*
X8912Y7821D01*
X8890Y7826D01*
X8868Y7833D01*
X8849Y7840D01*
X8829Y7847D01*
X8812Y7856D01*
X8796Y7863D01*
X8784Y7871D01*
X8771Y7878D01*
X8760Y7885D01*
X8750Y7892D01*
X8741Y7898D01*
X8734Y7904D01*
X8730Y7908D01*
X8726Y7911D01*
X8723Y7912D01*
Y7914D01*
X8708Y7930D01*
X8694Y7949D01*
X8681Y7967D01*
X8670Y7985D01*
X8661Y8004D01*
X8654Y8022D01*
X8643Y8057D01*
X8639Y8073D01*
X8636Y8087D01*
X8634Y8100D01*
X8633Y8111D01*
X8632Y8121D01*
Y8133D01*
X8633Y8163D01*
X8637Y8191D01*
X8643Y8217D01*
X8650Y8242D01*
X8660Y8265D01*
X8670Y8286D01*
X8681Y8305D01*
X8691Y8322D01*
X8702Y8338D01*
X8713Y8352D01*
X8723Y8363D01*
X8733Y8373D01*
X8740Y8380D01*
X8746Y8386D01*
X8750Y8389D01*
X8751Y8390D01*
X8778Y8410D01*
X8808Y8427D01*
X8837Y8441D01*
X8868Y8453D01*
X8901Y8465D01*
X8932Y8473D01*
X8963Y8480D01*
X8994Y8486D01*
X9022Y8490D01*
X9047Y8494D01*
X9071Y8497D01*
X9093Y8499D01*
X9108D01*
X9121Y8500D01*
X9129D01*
X9131D01*
X9132D01*
X9174Y8499D01*
D02*
G37*
G36*
X9030Y7639D02*
X9009Y7601D01*
X8985Y7568D01*
X8963Y7540D01*
X8953Y7527D01*
X8943Y7516D01*
X8933Y7506D01*
X8926Y7499D01*
X8919Y7492D01*
X8915Y7488D01*
X8912Y7485D01*
X8911Y7484D01*
X9600D01*
Y7333D01*
X8644D01*
Y7455D01*
X8675Y7467D01*
X8703Y7481D01*
X8729Y7496D01*
X8750Y7512D01*
X8768Y7526D01*
X8782Y7537D01*
X8791Y7546D01*
X8792Y7547D01*
X8794Y7548D01*
X8816Y7574D01*
X8835Y7598D01*
X8850Y7619D01*
X8863Y7639D01*
X8871Y7656D01*
X8878Y7667D01*
X8881Y7675D01*
X8882Y7677D01*
Y7678D01*
X9049D01*
X9030Y7639D01*
D02*
G37*
G36*
Y7031D02*
X9009Y6993D01*
X8985Y6961D01*
X8963Y6932D01*
X8953Y6920D01*
X8943Y6908D01*
X8933Y6899D01*
X8926Y6892D01*
X8919Y6884D01*
X8915Y6880D01*
X8912Y6877D01*
X8911Y6876D01*
X9600D01*
Y6725D01*
X8644D01*
Y6848D01*
X8675Y6859D01*
X8703Y6873D01*
X8729Y6889D01*
X8750Y6904D01*
X8768Y6918D01*
X8782Y6930D01*
X8791Y6938D01*
X8792Y6939D01*
X8794Y6941D01*
X8816Y6966D01*
X8835Y6990D01*
X8850Y7011D01*
X8863Y7031D01*
X8871Y7048D01*
X8878Y7059D01*
X8881Y7068D01*
X8882Y7069D01*
Y7071D01*
X9049D01*
X9030Y7031D01*
D02*
G37*
G36*
X5174Y8499D02*
X5214Y8496D01*
X5252Y8490D01*
X5287Y8483D01*
X5319Y8475D01*
X5349Y8466D01*
X5377Y8456D01*
X5401Y8445D01*
X5424Y8435D01*
X5444Y8425D01*
X5460Y8417D01*
X5473Y8408D01*
X5484Y8401D01*
X5493Y8396D01*
X5497Y8393D01*
X5498Y8391D01*
X5520Y8373D01*
X5537Y8353D01*
X5552Y8334D01*
X5566Y8313D01*
X5577Y8291D01*
X5587Y8272D01*
X5594Y8252D01*
X5601Y8232D01*
X5606Y8214D01*
X5610Y8197D01*
X5611Y8181D01*
X5614Y8169D01*
Y8157D01*
X5616Y8150D01*
Y8143D01*
X5614Y8121D01*
X5613Y8100D01*
X5604Y8060D01*
X5593Y8025D01*
X5586Y8009D01*
X5579Y7995D01*
X5572Y7983D01*
X5565Y7971D01*
X5559Y7962D01*
X5553Y7954D01*
X5549Y7947D01*
X5545Y7943D01*
X5544Y7940D01*
X5542Y7939D01*
X5527Y7923D01*
X5511Y7909D01*
X5475Y7885D01*
X5435Y7864D01*
X5397Y7847D01*
X5379Y7840D01*
X5362Y7835D01*
X5346Y7830D01*
X5334Y7826D01*
X5322Y7823D01*
X5314Y7821D01*
X5308Y7819D01*
X5307D01*
X5248Y7973D01*
X5286Y7981D01*
X5317Y7993D01*
X5343Y8002D01*
X5365Y8014D01*
X5381Y8024D01*
X5393Y8032D01*
X5400Y8038D01*
X5403Y8039D01*
X5418Y8056D01*
X5431Y8074D01*
X5439Y8093D01*
X5445Y8110D01*
X5448Y8124D01*
X5449Y8136D01*
X5451Y8143D01*
Y8146D01*
X5449Y8162D01*
X5448Y8176D01*
X5439Y8204D01*
X5427Y8227D01*
X5413Y8246D01*
X5400Y8263D01*
X5387Y8274D01*
X5379Y8281D01*
X5377Y8284D01*
X5376D01*
X5360Y8293D01*
X5343Y8301D01*
X5324Y8308D01*
X5304Y8314D01*
X5262Y8324D01*
X5219Y8329D01*
X5200Y8332D01*
X5181Y8334D01*
X5164Y8335D01*
X5150D01*
X5138Y8336D01*
X5129D01*
X5122D01*
X5121D01*
X5090D01*
X5060Y8334D01*
X5033Y8331D01*
X5009Y8328D01*
X4987Y8324D01*
X4966Y8320D01*
X4947Y8315D01*
X4932Y8310D01*
X4918Y8304D01*
X4905Y8300D01*
X4895Y8296D01*
X4887Y8291D01*
X4881Y8287D01*
X4875Y8286D01*
X4874Y8283D01*
X4873D01*
X4859Y8272D01*
X4847Y8260D01*
X4837Y8249D01*
X4829Y8238D01*
X4815Y8214D01*
X4806Y8191D01*
X4801Y8172D01*
X4798Y8156D01*
X4796Y8150D01*
Y8142D01*
X4798Y8119D01*
X4804Y8100D01*
X4809Y8083D01*
X4818Y8067D01*
X4825Y8055D01*
X4832Y8045D01*
X4837Y8039D01*
X4839Y8038D01*
X4856Y8022D01*
X4874Y8009D01*
X4894Y7998D01*
X4913Y7990D01*
X4930Y7984D01*
X4944Y7980D01*
X4950Y7978D01*
X4954D01*
X4956Y7977D01*
X4957D01*
X4912Y7821D01*
X4890Y7826D01*
X4868Y7833D01*
X4849Y7840D01*
X4829Y7847D01*
X4812Y7856D01*
X4796Y7863D01*
X4784Y7871D01*
X4771Y7878D01*
X4760Y7885D01*
X4750Y7892D01*
X4741Y7898D01*
X4734Y7904D01*
X4730Y7908D01*
X4726Y7911D01*
X4723Y7912D01*
Y7914D01*
X4708Y7930D01*
X4694Y7949D01*
X4681Y7967D01*
X4670Y7985D01*
X4661Y8004D01*
X4654Y8022D01*
X4643Y8057D01*
X4639Y8073D01*
X4636Y8087D01*
X4634Y8100D01*
X4633Y8111D01*
X4632Y8121D01*
Y8133D01*
X4633Y8163D01*
X4637Y8191D01*
X4643Y8217D01*
X4650Y8242D01*
X4660Y8265D01*
X4670Y8286D01*
X4681Y8305D01*
X4691Y8322D01*
X4702Y8338D01*
X4713Y8352D01*
X4723Y8363D01*
X4733Y8373D01*
X4740Y8380D01*
X4746Y8386D01*
X4750Y8389D01*
X4751Y8390D01*
X4778Y8410D01*
X4808Y8427D01*
X4837Y8441D01*
X4868Y8453D01*
X4901Y8465D01*
X4932Y8473D01*
X4963Y8480D01*
X4994Y8486D01*
X5022Y8490D01*
X5047Y8494D01*
X5071Y8497D01*
X5093Y8499D01*
X5108D01*
X5121Y8500D01*
X5129D01*
X5131D01*
X5132D01*
X5174Y8499D01*
D02*
G37*
G36*
X5030Y7639D02*
X5009Y7601D01*
X4985Y7568D01*
X4963Y7540D01*
X4953Y7527D01*
X4943Y7516D01*
X4933Y7506D01*
X4926Y7499D01*
X4919Y7492D01*
X4915Y7488D01*
X4912Y7485D01*
X4911Y7484D01*
X5600D01*
Y7333D01*
X4644D01*
Y7455D01*
X4675Y7467D01*
X4703Y7481D01*
X4729Y7496D01*
X4750Y7512D01*
X4768Y7526D01*
X4782Y7537D01*
X4791Y7546D01*
X4792Y7547D01*
X4794Y7548D01*
X4816Y7574D01*
X4835Y7598D01*
X4850Y7619D01*
X4863Y7639D01*
X4871Y7656D01*
X4878Y7667D01*
X4881Y7675D01*
X4882Y7677D01*
Y7678D01*
X5049D01*
X5030Y7639D01*
D02*
G37*
G36*
X5600Y6604D02*
X5431D01*
Y6903D01*
X5413Y6893D01*
X5397Y6883D01*
X5391Y6879D01*
X5386Y6875D01*
X5383Y6873D01*
X5381Y6872D01*
X5369Y6862D01*
X5353Y6849D01*
X5336Y6834D01*
X5318Y6818D01*
X5301Y6804D01*
X5287Y6791D01*
X5281Y6787D01*
X5277Y6783D01*
X5276Y6782D01*
X5274Y6780D01*
X5243Y6753D01*
X5215Y6731D01*
X5191Y6711D01*
X5170Y6696D01*
X5155Y6684D01*
X5142Y6676D01*
X5135Y6672D01*
X5132Y6670D01*
X5111Y6659D01*
X5091Y6648D01*
X5073Y6639D01*
X5056Y6632D01*
X5042Y6628D01*
X5032Y6624D01*
X5025Y6621D01*
X5022D01*
X5001Y6615D01*
X4981Y6611D01*
X4961Y6608D01*
X4944Y6605D01*
X4929D01*
X4918Y6604D01*
X4911D01*
X4908D01*
X4888D01*
X4870Y6607D01*
X4836Y6614D01*
X4805Y6624D01*
X4778Y6635D01*
X4756Y6648D01*
X4746Y6653D01*
X4739Y6658D01*
X4733Y6662D01*
X4729Y6665D01*
X4726Y6666D01*
X4725Y6667D01*
X4710Y6680D01*
X4698Y6693D01*
X4688Y6707D01*
X4678Y6722D01*
X4670Y6738D01*
X4664Y6753D01*
X4654Y6783D01*
X4648Y6811D01*
X4647Y6822D01*
X4646Y6834D01*
X4644Y6842D01*
Y6853D01*
X4646Y6873D01*
X4647Y6893D01*
X4655Y6928D01*
X4665Y6959D01*
X4678Y6985D01*
X4691Y7006D01*
X4698Y7013D01*
X4702Y7020D01*
X4706Y7025D01*
X4710Y7030D01*
X4712Y7031D01*
X4713Y7032D01*
X4727Y7045D01*
X4741Y7055D01*
X4775Y7073D01*
X4811Y7087D01*
X4844Y7097D01*
X4861Y7102D01*
X4877Y7106D01*
X4891Y7107D01*
X4902Y7110D01*
X4912Y7111D01*
X4919D01*
X4925Y7113D01*
X4926D01*
X4946Y6963D01*
X4919Y6961D01*
X4897Y6956D01*
X4877Y6951D01*
X4860Y6944D01*
X4844Y6935D01*
X4833Y6927D01*
X4823Y6917D01*
X4815Y6907D01*
X4809Y6897D01*
X4805Y6889D01*
X4799Y6872D01*
X4798Y6866D01*
X4796Y6861D01*
Y6856D01*
X4798Y6841D01*
X4802Y6825D01*
X4806Y6813D01*
X4812Y6803D01*
X4819Y6794D01*
X4823Y6789D01*
X4827Y6784D01*
X4829Y6783D01*
X4842Y6773D01*
X4857Y6766D01*
X4873Y6762D01*
X4888Y6758D01*
X4902Y6756D01*
X4913Y6755D01*
X4921D01*
X4922D01*
X4923D01*
X4944Y6756D01*
X4966Y6760D01*
X4985Y6766D01*
X5002Y6772D01*
X5018Y6777D01*
X5029Y6783D01*
X5036Y6787D01*
X5039Y6789D01*
X5047Y6794D01*
X5057Y6801D01*
X5080Y6818D01*
X5104Y6838D01*
X5129Y6859D01*
X5153Y6879D01*
X5164Y6887D01*
X5173Y6896D01*
X5180Y6901D01*
X5186Y6907D01*
X5190Y6910D01*
X5191Y6911D01*
X5217Y6934D01*
X5242Y6954D01*
X5264Y6973D01*
X5286Y6990D01*
X5307Y7006D01*
X5325Y7018D01*
X5342Y7031D01*
X5358Y7041D01*
X5372Y7051D01*
X5383Y7059D01*
X5394Y7065D01*
X5403Y7071D01*
X5410Y7075D01*
X5414Y7076D01*
X5417Y7079D01*
X5418D01*
X5451Y7093D01*
X5483Y7104D01*
X5514Y7114D01*
X5541Y7120D01*
X5565Y7124D01*
X5575Y7127D01*
X5583Y7128D01*
X5590D01*
X5596Y7130D01*
X5599D01*
X5600D01*
Y6604D01*
D02*
G37*
G36*
X7374Y8499D02*
X7414Y8496D01*
X7452Y8490D01*
X7487Y8483D01*
X7519Y8475D01*
X7549Y8466D01*
X7577Y8456D01*
X7601Y8445D01*
X7624Y8435D01*
X7644Y8425D01*
X7660Y8417D01*
X7673Y8408D01*
X7684Y8401D01*
X7693Y8396D01*
X7697Y8393D01*
X7699Y8391D01*
X7720Y8373D01*
X7737Y8353D01*
X7752Y8334D01*
X7766Y8313D01*
X7777Y8291D01*
X7787Y8272D01*
X7794Y8252D01*
X7801Y8232D01*
X7806Y8214D01*
X7810Y8197D01*
X7811Y8181D01*
X7814Y8169D01*
Y8157D01*
X7816Y8150D01*
Y8143D01*
X7814Y8121D01*
X7813Y8100D01*
X7804Y8060D01*
X7793Y8025D01*
X7786Y8009D01*
X7779Y7995D01*
X7772Y7983D01*
X7765Y7971D01*
X7759Y7962D01*
X7753Y7954D01*
X7749Y7947D01*
X7745Y7943D01*
X7744Y7940D01*
X7742Y7939D01*
X7727Y7923D01*
X7711Y7909D01*
X7675Y7885D01*
X7635Y7864D01*
X7597Y7847D01*
X7579Y7840D01*
X7562Y7835D01*
X7546Y7830D01*
X7534Y7826D01*
X7522Y7823D01*
X7514Y7821D01*
X7508Y7819D01*
X7507D01*
X7448Y7973D01*
X7486Y7981D01*
X7517Y7993D01*
X7543Y8002D01*
X7565Y8014D01*
X7582Y8024D01*
X7593Y8032D01*
X7600Y8038D01*
X7603Y8039D01*
X7618Y8056D01*
X7631Y8074D01*
X7639Y8093D01*
X7645Y8110D01*
X7648Y8124D01*
X7649Y8136D01*
X7651Y8143D01*
Y8146D01*
X7649Y8162D01*
X7648Y8176D01*
X7639Y8204D01*
X7627Y8227D01*
X7613Y8246D01*
X7600Y8263D01*
X7587Y8274D01*
X7579Y8281D01*
X7577Y8284D01*
X7576D01*
X7560Y8293D01*
X7543Y8301D01*
X7524Y8308D01*
X7504Y8314D01*
X7462Y8324D01*
X7419Y8329D01*
X7400Y8332D01*
X7381Y8334D01*
X7364Y8335D01*
X7350D01*
X7338Y8336D01*
X7329D01*
X7322D01*
X7321D01*
X7290D01*
X7260Y8334D01*
X7233Y8331D01*
X7209Y8328D01*
X7187Y8324D01*
X7166Y8320D01*
X7147Y8315D01*
X7132Y8310D01*
X7118Y8304D01*
X7105Y8300D01*
X7095Y8296D01*
X7087Y8291D01*
X7081Y8287D01*
X7075Y8286D01*
X7074Y8283D01*
X7073D01*
X7058Y8272D01*
X7047Y8260D01*
X7037Y8249D01*
X7029Y8238D01*
X7015Y8214D01*
X7006Y8191D01*
X7001Y8172D01*
X6998Y8156D01*
X6996Y8150D01*
Y8142D01*
X6998Y8119D01*
X7004Y8100D01*
X7009Y8083D01*
X7018Y8067D01*
X7025Y8055D01*
X7032Y8045D01*
X7037Y8039D01*
X7039Y8038D01*
X7056Y8022D01*
X7074Y8009D01*
X7094Y7998D01*
X7113Y7990D01*
X7130Y7984D01*
X7144Y7980D01*
X7150Y7978D01*
X7154D01*
X7156Y7977D01*
X7157D01*
X7112Y7821D01*
X7090Y7826D01*
X7068Y7833D01*
X7049Y7840D01*
X7029Y7847D01*
X7012Y7856D01*
X6996Y7863D01*
X6984Y7871D01*
X6971Y7878D01*
X6960Y7885D01*
X6950Y7892D01*
X6941Y7898D01*
X6934Y7904D01*
X6930Y7908D01*
X6926Y7911D01*
X6923Y7912D01*
Y7914D01*
X6908Y7930D01*
X6894Y7949D01*
X6881Y7967D01*
X6870Y7985D01*
X6861Y8004D01*
X6854Y8022D01*
X6843Y8057D01*
X6839Y8073D01*
X6836Y8087D01*
X6834Y8100D01*
X6833Y8111D01*
X6832Y8121D01*
Y8133D01*
X6833Y8163D01*
X6837Y8191D01*
X6843Y8217D01*
X6850Y8242D01*
X6860Y8265D01*
X6870Y8286D01*
X6881Y8305D01*
X6891Y8322D01*
X6902Y8338D01*
X6913Y8352D01*
X6923Y8363D01*
X6933Y8373D01*
X6940Y8380D01*
X6946Y8386D01*
X6950Y8389D01*
X6951Y8390D01*
X6978Y8410D01*
X7008Y8427D01*
X7037Y8441D01*
X7068Y8453D01*
X7101Y8465D01*
X7132Y8473D01*
X7163Y8480D01*
X7194Y8486D01*
X7222Y8490D01*
X7247Y8494D01*
X7271Y8497D01*
X7293Y8499D01*
X7308D01*
X7321Y8500D01*
X7329D01*
X7331D01*
X7332D01*
X7374Y8499D01*
D02*
G37*
G36*
X7230Y7639D02*
X7209Y7601D01*
X7185Y7568D01*
X7163Y7540D01*
X7153Y7527D01*
X7143Y7516D01*
X7133Y7506D01*
X7126Y7499D01*
X7119Y7492D01*
X7115Y7488D01*
X7112Y7485D01*
X7111Y7484D01*
X7800D01*
Y7333D01*
X6844D01*
Y7455D01*
X6875Y7467D01*
X6903Y7481D01*
X6929Y7496D01*
X6950Y7512D01*
X6968Y7526D01*
X6982Y7537D01*
X6991Y7546D01*
X6992Y7547D01*
X6994Y7548D01*
X7016Y7574D01*
X7035Y7598D01*
X7050Y7619D01*
X7063Y7639D01*
X7071Y7656D01*
X7078Y7667D01*
X7081Y7675D01*
X7082Y7677D01*
Y7678D01*
X7249D01*
X7230Y7639D01*
D02*
G37*
G36*
X7591Y7109D02*
X7629Y7099D01*
X7648Y7092D01*
X7663Y7085D01*
X7679Y7078D01*
X7691Y7071D01*
X7704Y7064D01*
X7714Y7056D01*
X7722Y7051D01*
X7731Y7045D01*
X7737Y7041D01*
X7741Y7037D01*
X7742Y7035D01*
X7744Y7034D01*
X7756Y7020D01*
X7768Y7006D01*
X7777Y6992D01*
X7784Y6976D01*
X7799Y6947D01*
X7807Y6920D01*
X7811Y6896D01*
X7813Y6884D01*
X7814Y6876D01*
X7816Y6869D01*
Y6859D01*
X7814Y6839D01*
X7811Y6821D01*
X7807Y6803D01*
X7803Y6784D01*
X7789Y6753D01*
X7773Y6727D01*
X7758Y6704D01*
X7751Y6696D01*
X7744Y6689D01*
X7739Y6683D01*
X7735Y6677D01*
X7732Y6676D01*
X7731Y6674D01*
X7714Y6660D01*
X7697Y6648D01*
X7679Y6638D01*
X7660Y6629D01*
X7625Y6615D01*
X7591Y6605D01*
X7574Y6603D01*
X7560Y6600D01*
X7548Y6598D01*
X7536Y6597D01*
X7528Y6595D01*
X7521D01*
X7517D01*
X7515D01*
X7483Y6597D01*
X7453Y6603D01*
X7428Y6608D01*
X7407Y6617D01*
X7390Y6624D01*
X7377Y6631D01*
X7369Y6636D01*
X7366Y6638D01*
X7345Y6655D01*
X7328Y6672D01*
X7315Y6689D01*
X7304Y6705D01*
X7297Y6721D01*
X7293Y6732D01*
X7290Y6741D01*
X7288Y6742D01*
Y6744D01*
X7274Y6724D01*
X7259Y6707D01*
X7243Y6691D01*
X7230Y6680D01*
X7218Y6670D01*
X7209Y6665D01*
X7204Y6660D01*
X7201Y6659D01*
X7181Y6649D01*
X7161Y6642D01*
X7143Y6636D01*
X7125Y6634D01*
X7111Y6631D01*
X7098Y6629D01*
X7091D01*
X7088D01*
X7071D01*
X7054Y6632D01*
X7023Y6639D01*
X6995Y6649D01*
X6970Y6660D01*
X6949Y6673D01*
X6940Y6679D01*
X6933Y6683D01*
X6927Y6687D01*
X6923Y6690D01*
X6922Y6691D01*
X6920Y6693D01*
X6906Y6705D01*
X6895Y6718D01*
X6885Y6732D01*
X6877Y6746D01*
X6863Y6775D01*
X6854Y6801D01*
X6848Y6827D01*
X6847Y6837D01*
X6846Y6845D01*
X6844Y6853D01*
Y6880D01*
X6847Y6897D01*
X6854Y6928D01*
X6864Y6956D01*
X6874Y6979D01*
X6885Y6997D01*
X6895Y7011D01*
X6902Y7020D01*
X6903Y7021D01*
X6905Y7023D01*
X6916Y7034D01*
X6930Y7044D01*
X6960Y7062D01*
X6991Y7076D01*
X7022Y7087D01*
X7050Y7096D01*
X7061Y7099D01*
X7073Y7102D01*
X7081Y7103D01*
X7088Y7104D01*
X7092Y7106D01*
X7094D01*
X7122Y6968D01*
X7099Y6965D01*
X7081Y6961D01*
X7064Y6955D01*
X7051Y6949D01*
X7042Y6944D01*
X7033Y6939D01*
X7029Y6937D01*
X7027Y6935D01*
X7016Y6924D01*
X7009Y6913D01*
X7004Y6901D01*
X6999Y6892D01*
X6996Y6883D01*
X6995Y6875D01*
Y6869D01*
X6996Y6855D01*
X6999Y6842D01*
X7004Y6831D01*
X7009Y6822D01*
X7015Y6815D01*
X7019Y6810D01*
X7022Y6807D01*
X7023Y6806D01*
X7035Y6797D01*
X7047Y6791D01*
X7060Y6786D01*
X7071Y6783D01*
X7082Y6782D01*
X7091Y6780D01*
X7097D01*
X7099D01*
X7121Y6782D01*
X7139Y6786D01*
X7154Y6791D01*
X7167Y6797D01*
X7177Y6803D01*
X7185Y6808D01*
X7190Y6813D01*
X7191Y6814D01*
X7201Y6828D01*
X7209Y6842D01*
X7214Y6858D01*
X7218Y6873D01*
X7219Y6886D01*
X7221Y6897D01*
Y6907D01*
X7370Y6923D01*
X7366Y6908D01*
X7362Y6896D01*
X7359Y6883D01*
X7357Y6873D01*
X7356Y6866D01*
Y6855D01*
X7357Y6839D01*
X7362Y6825D01*
X7369Y6813D01*
X7376Y6801D01*
X7384Y6793D01*
X7390Y6786D01*
X7395Y6782D01*
X7397Y6780D01*
X7412Y6770D01*
X7431Y6762D01*
X7449Y6756D01*
X7466Y6753D01*
X7481Y6751D01*
X7494Y6749D01*
X7503D01*
X7504D01*
X7505D01*
X7532Y6751D01*
X7555Y6755D01*
X7576Y6759D01*
X7591Y6765D01*
X7605Y6772D01*
X7614Y6776D01*
X7621Y6780D01*
X7622Y6782D01*
X7636Y6794D01*
X7646Y6807D01*
X7653Y6821D01*
X7658Y6834D01*
X7660Y6844D01*
X7663Y6852D01*
Y6861D01*
X7662Y6876D01*
X7658Y6890D01*
X7652Y6903D01*
X7645Y6913D01*
X7639Y6921D01*
X7634Y6928D01*
X7629Y6932D01*
X7628Y6934D01*
X7614Y6944D01*
X7597Y6952D01*
X7580Y6959D01*
X7563Y6963D01*
X7548Y6968D01*
X7536Y6969D01*
X7528Y6970D01*
X7527D01*
X7525D01*
X7546Y7116D01*
X7591Y7109D01*
D02*
G37*
G36*
X15537Y1819D02*
X15571Y1817D01*
X15603Y1812D01*
X15633Y1806D01*
X15661Y1799D01*
X15686Y1792D01*
X15710Y1783D01*
X15731Y1774D01*
X15750Y1765D01*
X15767Y1757D01*
X15781Y1750D01*
X15792Y1742D01*
X15801Y1736D01*
X15809Y1732D01*
X15812Y1729D01*
X15814Y1728D01*
X15832Y1712D01*
X15846Y1695D01*
X15859Y1679D01*
X15871Y1661D01*
X15881Y1643D01*
X15889Y1626D01*
X15895Y1609D01*
X15901Y1592D01*
X15905Y1577D01*
X15908Y1562D01*
X15910Y1549D01*
X15912Y1538D01*
Y1528D01*
X15913Y1522D01*
Y1516D01*
X15912Y1497D01*
X15911Y1479D01*
X15904Y1446D01*
X15894Y1416D01*
X15888Y1402D01*
X15882Y1390D01*
X15876Y1380D01*
X15870Y1370D01*
X15865Y1361D01*
X15860Y1355D01*
X15857Y1349D01*
X15853Y1346D01*
X15852Y1343D01*
X15851Y1342D01*
X15838Y1329D01*
X15824Y1317D01*
X15793Y1297D01*
X15759Y1279D01*
X15727Y1264D01*
X15711Y1258D01*
X15697Y1253D01*
X15684Y1250D01*
X15673Y1246D01*
X15663Y1244D01*
X15656Y1241D01*
X15651Y1240D01*
X15650D01*
X15600Y1371D01*
X15632Y1378D01*
X15659Y1388D01*
X15681Y1396D01*
X15699Y1406D01*
X15714Y1414D01*
X15723Y1422D01*
X15729Y1426D01*
X15732Y1428D01*
X15745Y1442D01*
X15756Y1458D01*
X15763Y1473D01*
X15768Y1488D01*
X15770Y1500D01*
X15771Y1510D01*
X15773Y1516D01*
Y1519D01*
X15771Y1532D01*
X15770Y1544D01*
X15763Y1568D01*
X15752Y1587D01*
X15740Y1604D01*
X15729Y1619D01*
X15719Y1628D01*
X15711Y1634D01*
X15710Y1637D01*
X15709D01*
X15696Y1644D01*
X15681Y1651D01*
X15665Y1657D01*
X15648Y1662D01*
X15612Y1670D01*
X15576Y1675D01*
X15559Y1677D01*
X15543Y1679D01*
X15529Y1680D01*
X15517D01*
X15506Y1681D01*
X15499D01*
X15493D01*
X15492D01*
X15465D01*
X15440Y1679D01*
X15417Y1676D01*
X15397Y1674D01*
X15377Y1670D01*
X15359Y1667D01*
X15344Y1663D01*
X15331Y1658D01*
X15319Y1653D01*
X15308Y1650D01*
X15299Y1646D01*
X15292Y1643D01*
X15287Y1639D01*
X15282Y1638D01*
X15281Y1635D01*
X15280D01*
X15268Y1626D01*
X15258Y1616D01*
X15250Y1607D01*
X15243Y1597D01*
X15231Y1577D01*
X15224Y1557D01*
X15219Y1541D01*
X15216Y1527D01*
X15215Y1522D01*
Y1515D01*
X15216Y1496D01*
X15221Y1479D01*
X15226Y1465D01*
X15233Y1452D01*
X15239Y1441D01*
X15245Y1432D01*
X15250Y1428D01*
X15251Y1426D01*
X15266Y1413D01*
X15281Y1402D01*
X15298Y1393D01*
X15315Y1386D01*
X15329Y1381D01*
X15341Y1377D01*
X15346Y1376D01*
X15350D01*
X15351Y1375D01*
X15352D01*
X15314Y1241D01*
X15294Y1246D01*
X15276Y1252D01*
X15260Y1258D01*
X15243Y1264D01*
X15228Y1271D01*
X15215Y1277D01*
X15204Y1285D01*
X15194Y1291D01*
X15184Y1297D01*
X15176Y1303D01*
X15168Y1307D01*
X15162Y1312D01*
X15159Y1316D01*
X15155Y1318D01*
X15153Y1319D01*
Y1321D01*
X15139Y1335D01*
X15127Y1351D01*
X15117Y1366D01*
X15107Y1382D01*
X15100Y1398D01*
X15094Y1413D01*
X15084Y1443D01*
X15081Y1456D01*
X15078Y1468D01*
X15077Y1479D01*
X15076Y1489D01*
X15075Y1497D01*
Y1508D01*
X15076Y1533D01*
X15079Y1557D01*
X15084Y1579D01*
X15090Y1601D01*
X15099Y1620D01*
X15107Y1638D01*
X15117Y1655D01*
X15125Y1669D01*
X15135Y1682D01*
X15144Y1694D01*
X15153Y1704D01*
X15161Y1712D01*
X15167Y1718D01*
X15172Y1723D01*
X15176Y1726D01*
X15177Y1727D01*
X15200Y1744D01*
X15225Y1758D01*
X15250Y1770D01*
X15276Y1781D01*
X15304Y1790D01*
X15331Y1798D01*
X15357Y1804D01*
X15383Y1808D01*
X15407Y1812D01*
X15429Y1816D01*
X15449Y1818D01*
X15467Y1819D01*
X15481D01*
X15492Y1820D01*
X15499D01*
X15500D01*
X15501D01*
X15537Y1819D01*
D02*
G37*
G36*
X15415Y1086D02*
X15397Y1054D01*
X15376Y1026D01*
X15357Y1002D01*
X15349Y991D01*
X15340Y982D01*
X15332Y973D01*
X15326Y967D01*
X15320Y961D01*
X15316Y958D01*
X15314Y955D01*
X15313Y954D01*
X15900D01*
Y826D01*
X15085D01*
Y930D01*
X15112Y940D01*
X15136Y952D01*
X15158Y965D01*
X15176Y978D01*
X15191Y990D01*
X15203Y1000D01*
X15210Y1007D01*
X15212Y1008D01*
X15213Y1009D01*
X15232Y1031D01*
X15248Y1052D01*
X15261Y1070D01*
X15272Y1086D01*
X15279Y1101D01*
X15285Y1110D01*
X15287Y1118D01*
X15288Y1119D01*
Y1120D01*
X15430D01*
X15415Y1086D01*
D02*
G37*
G36*
X15737Y386D02*
X15900D01*
Y262D01*
X15737D01*
Y179D01*
X15600D01*
Y262D01*
X15085D01*
Y370D01*
X15601Y659D01*
X15737D01*
Y386D01*
D02*
G37*
G36*
X23790Y10944D02*
X23669Y10923D01*
X23659Y10936D01*
X23649Y10945D01*
X23639Y10955D01*
X23630Y10962D01*
X23610Y10975D01*
X23592Y10984D01*
X23576Y10988D01*
X23565Y10991D01*
X23556Y10992D01*
X23553D01*
X23535Y10991D01*
X23520Y10985D01*
X23504Y10978D01*
X23493Y10971D01*
X23483Y10962D01*
X23476Y10955D01*
X23472Y10950D01*
X23470Y10948D01*
X23459Y10930D01*
X23451Y10910D01*
X23445Y10888D01*
X23441Y10867D01*
X23438Y10847D01*
X23436Y10831D01*
Y10824D01*
Y10820D01*
Y10817D01*
Y10816D01*
X23438Y10783D01*
X23442Y10754D01*
X23448Y10730D01*
X23453Y10710D01*
X23459Y10696D01*
X23465Y10685D01*
X23469Y10679D01*
X23470Y10676D01*
X23483Y10661D01*
X23496Y10651D01*
X23510Y10642D01*
X23522Y10637D01*
X23532Y10634D01*
X23541Y10633D01*
X23548Y10631D01*
X23549D01*
X23563Y10633D01*
X23576Y10637D01*
X23589Y10642D01*
X23599Y10649D01*
X23607Y10655D01*
X23614Y10661D01*
X23618Y10665D01*
X23620Y10666D01*
X23631Y10680D01*
X23639Y10697D01*
X23647Y10713D01*
X23651Y10728D01*
X23654Y10742D01*
X23656Y10755D01*
X23658Y10762D01*
Y10765D01*
X23807Y10745D01*
X23800Y10702D01*
X23795Y10680D01*
X23789Y10662D01*
X23782Y10645D01*
X23775Y10630D01*
X23768Y10614D01*
X23761Y10601D01*
X23754Y10590D01*
X23747Y10580D01*
X23741Y10572D01*
X23735Y10565D01*
X23731Y10559D01*
X23727Y10555D01*
X23725Y10554D01*
X23724Y10552D01*
X23710Y10541D01*
X23696Y10530D01*
X23668Y10513D01*
X23638Y10501D01*
X23611Y10493D01*
X23587Y10489D01*
X23576Y10486D01*
X23568D01*
X23561Y10484D01*
X23551D01*
X23527Y10486D01*
X23506Y10489D01*
X23484Y10494D01*
X23466Y10501D01*
X23448Y10508D01*
X23432Y10517D01*
X23417Y10527D01*
X23404Y10537D01*
X23393Y10547D01*
X23381Y10556D01*
X23373Y10565D01*
X23366Y10572D01*
X23360Y10579D01*
X23356Y10585D01*
X23355Y10587D01*
X23353Y10589D01*
X23341Y10609D01*
X23329Y10630D01*
X23321Y10649D01*
X23312Y10669D01*
X23300Y10709D01*
X23291Y10744D01*
X23288Y10761D01*
X23287Y10775D01*
X23284Y10788D01*
Y10799D01*
X23283Y10807D01*
Y10814D01*
Y10819D01*
Y10820D01*
X23284Y10848D01*
X23286Y10875D01*
X23290Y10899D01*
X23295Y10923D01*
X23301Y10944D01*
X23308Y10965D01*
X23317Y10984D01*
X23324Y11000D01*
X23331Y11015D01*
X23339Y11027D01*
X23346Y11038D01*
X23352Y11048D01*
X23358Y11055D01*
X23360Y11061D01*
X23363Y11064D01*
X23365Y11065D01*
X23377Y11078D01*
X23390Y11089D01*
X23403Y11099D01*
X23417Y11108D01*
X23444Y11120D01*
X23467Y11130D01*
X23490Y11134D01*
X23498Y11136D01*
X23507Y11137D01*
X23514Y11139D01*
X23522D01*
X23542Y11137D01*
X23561Y11133D01*
X23577Y11129D01*
X23593Y11123D01*
X23607Y11116D01*
X23617Y11112D01*
X23623Y11108D01*
X23625Y11106D01*
X23600Y11270D01*
X23318D01*
Y11440D01*
X23714D01*
X23790Y10944D01*
D02*
G37*
G36*
X24167Y11425D02*
X24181Y11397D01*
X24196Y11371D01*
X24212Y11350D01*
X24226Y11332D01*
X24237Y11318D01*
X24246Y11309D01*
X24247Y11308D01*
X24248Y11306D01*
X24274Y11284D01*
X24298Y11265D01*
X24319Y11250D01*
X24339Y11237D01*
X24356Y11229D01*
X24367Y11222D01*
X24375Y11219D01*
X24377Y11218D01*
X24378D01*
Y11051D01*
X24339Y11070D01*
X24301Y11091D01*
X24268Y11115D01*
X24240Y11137D01*
X24227Y11147D01*
X24216Y11157D01*
X24206Y11167D01*
X24199Y11174D01*
X24192Y11181D01*
X24188Y11185D01*
X24185Y11188D01*
X24184Y11189D01*
Y10500D01*
X24033D01*
Y11456D01*
X24155D01*
X24167Y11425D01*
D02*
G37*
G36*
X24863Y11467D02*
X24891Y11463D01*
X24917Y11457D01*
X24942Y11450D01*
X24965Y11440D01*
X24986Y11430D01*
X25005Y11419D01*
X25022Y11409D01*
X25038Y11398D01*
X25052Y11387D01*
X25063Y11377D01*
X25073Y11367D01*
X25080Y11360D01*
X25086Y11354D01*
X25089Y11350D01*
X25090Y11349D01*
X25110Y11322D01*
X25127Y11292D01*
X25141Y11263D01*
X25153Y11232D01*
X25165Y11199D01*
X25173Y11168D01*
X25180Y11137D01*
X25186Y11106D01*
X25190Y11078D01*
X25194Y11053D01*
X25197Y11029D01*
X25199Y11007D01*
Y10992D01*
X25200Y10979D01*
Y10971D01*
Y10969D01*
Y10968D01*
X25199Y10926D01*
X25196Y10886D01*
X25190Y10848D01*
X25183Y10813D01*
X25175Y10781D01*
X25166Y10751D01*
X25156Y10723D01*
X25145Y10699D01*
X25135Y10676D01*
X25125Y10656D01*
X25117Y10640D01*
X25108Y10627D01*
X25101Y10616D01*
X25096Y10607D01*
X25093Y10603D01*
X25091Y10601D01*
X25073Y10580D01*
X25053Y10563D01*
X25034Y10548D01*
X25013Y10534D01*
X24991Y10523D01*
X24972Y10513D01*
X24952Y10506D01*
X24932Y10499D01*
X24914Y10494D01*
X24897Y10490D01*
X24881Y10489D01*
X24869Y10486D01*
X24857D01*
X24850Y10484D01*
X24843D01*
X24821Y10486D01*
X24800Y10487D01*
X24760Y10496D01*
X24725Y10507D01*
X24709Y10514D01*
X24695Y10521D01*
X24683Y10528D01*
X24671Y10535D01*
X24661Y10541D01*
X24654Y10547D01*
X24647Y10551D01*
X24643Y10555D01*
X24640Y10556D01*
X24639Y10558D01*
X24623Y10573D01*
X24609Y10589D01*
X24585Y10625D01*
X24564Y10665D01*
X24547Y10703D01*
X24540Y10721D01*
X24535Y10738D01*
X24530Y10754D01*
X24526Y10766D01*
X24523Y10778D01*
X24521Y10786D01*
X24519Y10792D01*
Y10793D01*
X24673Y10852D01*
X24681Y10814D01*
X24693Y10783D01*
X24702Y10757D01*
X24714Y10735D01*
X24724Y10719D01*
X24732Y10707D01*
X24738Y10700D01*
X24739Y10697D01*
X24756Y10682D01*
X24774Y10669D01*
X24793Y10661D01*
X24810Y10655D01*
X24824Y10652D01*
X24836Y10651D01*
X24843Y10649D01*
X24846D01*
X24862Y10651D01*
X24876Y10652D01*
X24904Y10661D01*
X24927Y10673D01*
X24946Y10687D01*
X24963Y10700D01*
X24974Y10713D01*
X24982Y10721D01*
X24984Y10723D01*
Y10724D01*
X24993Y10740D01*
X25001Y10757D01*
X25008Y10776D01*
X25014Y10796D01*
X25024Y10838D01*
X25029Y10881D01*
X25032Y10900D01*
X25034Y10919D01*
X25035Y10936D01*
Y10950D01*
X25036Y10962D01*
Y10971D01*
Y10978D01*
Y10979D01*
Y11010D01*
X25034Y11040D01*
X25031Y11067D01*
X25028Y11091D01*
X25024Y11113D01*
X25020Y11134D01*
X25015Y11153D01*
X25010Y11168D01*
X25004Y11182D01*
X25000Y11195D01*
X24996Y11205D01*
X24991Y11213D01*
X24987Y11219D01*
X24986Y11225D01*
X24983Y11226D01*
Y11227D01*
X24972Y11241D01*
X24960Y11253D01*
X24949Y11263D01*
X24938Y11271D01*
X24914Y11285D01*
X24891Y11294D01*
X24872Y11299D01*
X24856Y11302D01*
X24850Y11304D01*
X24842D01*
X24819Y11302D01*
X24800Y11296D01*
X24783Y11291D01*
X24767Y11282D01*
X24755Y11275D01*
X24745Y11268D01*
X24739Y11263D01*
X24738Y11261D01*
X24722Y11244D01*
X24709Y11226D01*
X24698Y11206D01*
X24690Y11187D01*
X24684Y11170D01*
X24680Y11156D01*
X24678Y11150D01*
Y11146D01*
X24677Y11144D01*
Y11143D01*
X24521Y11188D01*
X24526Y11210D01*
X24533Y11232D01*
X24540Y11251D01*
X24547Y11271D01*
X24556Y11288D01*
X24563Y11304D01*
X24571Y11316D01*
X24578Y11329D01*
X24585Y11340D01*
X24592Y11350D01*
X24598Y11359D01*
X24604Y11366D01*
X24608Y11370D01*
X24611Y11374D01*
X24612Y11377D01*
X24614D01*
X24630Y11392D01*
X24649Y11406D01*
X24667Y11419D01*
X24685Y11430D01*
X24704Y11439D01*
X24722Y11446D01*
X24757Y11457D01*
X24773Y11461D01*
X24787Y11464D01*
X24800Y11466D01*
X24811Y11467D01*
X24821Y11468D01*
X24833D01*
X24863Y11467D01*
D02*
G37*
G36*
X24167Y7895D02*
X24181Y7867D01*
X24196Y7841D01*
X24212Y7820D01*
X24226Y7802D01*
X24237Y7788D01*
X24246Y7779D01*
X24247Y7778D01*
X24248Y7777D01*
X24274Y7754D01*
X24298Y7736D01*
X24319Y7720D01*
X24339Y7707D01*
X24356Y7699D01*
X24367Y7692D01*
X24375Y7689D01*
X24377Y7688D01*
X24378D01*
Y7521D01*
X24339Y7540D01*
X24301Y7561D01*
X24268Y7585D01*
X24240Y7607D01*
X24227Y7617D01*
X24216Y7627D01*
X24206Y7637D01*
X24199Y7644D01*
X24192Y7651D01*
X24188Y7655D01*
X24185Y7658D01*
X24184Y7660D01*
Y6970D01*
X24033D01*
Y7926D01*
X24155D01*
X24167Y7895D01*
D02*
G37*
G36*
X23548Y7925D02*
X23570Y7922D01*
X23590Y7915D01*
X23610Y7908D01*
X23645Y7889D01*
X23661Y7879D01*
X23675Y7868D01*
X23687Y7857D01*
X23699Y7847D01*
X23709Y7837D01*
X23717Y7829D01*
X23723Y7822D01*
X23727Y7816D01*
X23730Y7812D01*
X23731Y7810D01*
X23745Y7788D01*
X23756Y7761D01*
X23768Y7733D01*
X23776Y7703D01*
X23790Y7641D01*
X23800Y7579D01*
X23803Y7550D01*
X23806Y7523D01*
X23807Y7499D01*
X23809Y7476D01*
X23810Y7459D01*
Y7445D01*
Y7437D01*
Y7435D01*
Y7434D01*
X23809Y7387D01*
X23807Y7344D01*
X23803Y7304D01*
X23799Y7268D01*
X23792Y7234D01*
X23786Y7204D01*
X23779Y7176D01*
X23772Y7152D01*
X23765Y7131D01*
X23758Y7114D01*
X23751Y7098D01*
X23745Y7086D01*
X23741Y7077D01*
X23737Y7070D01*
X23735Y7066D01*
X23734Y7065D01*
X23718Y7045D01*
X23703Y7028D01*
X23687Y7014D01*
X23670Y7001D01*
X23655Y6990D01*
X23638Y6981D01*
X23623Y6974D01*
X23607Y6969D01*
X23580Y6960D01*
X23569Y6958D01*
X23559Y6956D01*
X23551D01*
X23545Y6955D01*
X23539D01*
X23520Y6956D01*
X23501Y6959D01*
X23483Y6963D01*
X23466Y6967D01*
X23435Y6981D01*
X23410Y6997D01*
X23389Y7012D01*
X23380Y7020D01*
X23373Y7027D01*
X23367Y7031D01*
X23363Y7035D01*
X23362Y7038D01*
X23360Y7039D01*
X23348Y7056D01*
X23336Y7075D01*
X23327Y7093D01*
X23318Y7113D01*
X23305Y7152D01*
X23295Y7189D01*
X23293Y7207D01*
X23291Y7223D01*
X23290Y7238D01*
X23288Y7251D01*
X23287Y7261D01*
Y7268D01*
Y7273D01*
Y7275D01*
X23288Y7300D01*
X23290Y7325D01*
X23293Y7348D01*
X23298Y7371D01*
X23303Y7390D01*
X23308Y7409D01*
X23315Y7426D01*
X23321Y7441D01*
X23328Y7455D01*
X23334Y7468D01*
X23341Y7478D01*
X23345Y7486D01*
X23349Y7493D01*
X23353Y7497D01*
X23355Y7500D01*
X23356Y7502D01*
X23369Y7517D01*
X23383Y7530D01*
X23396Y7541D01*
X23410Y7551D01*
X23422Y7559D01*
X23436Y7567D01*
X23460Y7576D01*
X23483Y7583D01*
X23491Y7585D01*
X23500Y7586D01*
X23507Y7588D01*
X23515D01*
X23531Y7586D01*
X23545Y7585D01*
X23559Y7581D01*
X23570Y7578D01*
X23579Y7574D01*
X23587Y7569D01*
X23592Y7568D01*
X23593Y7567D01*
X23606Y7558D01*
X23617Y7548D01*
X23627Y7538D01*
X23637Y7528D01*
X23644Y7520D01*
X23649Y7513D01*
X23654Y7507D01*
X23655Y7506D01*
X23654Y7535D01*
X23651Y7562D01*
X23648Y7586D01*
X23645Y7607D01*
X23642Y7627D01*
X23638Y7645D01*
X23635Y7661D01*
X23631Y7675D01*
X23628Y7686D01*
X23625Y7696D01*
X23621Y7705D01*
X23620Y7710D01*
X23617Y7716D01*
X23615Y7719D01*
X23614Y7722D01*
X23601Y7740D01*
X23587Y7753D01*
X23575Y7762D01*
X23562Y7768D01*
X23551Y7772D01*
X23542Y7774D01*
X23535Y7775D01*
X23534D01*
X23521Y7774D01*
X23508Y7771D01*
X23498Y7765D01*
X23489Y7758D01*
X23473Y7741D01*
X23463Y7723D01*
X23455Y7703D01*
X23451Y7686D01*
X23449Y7679D01*
X23448Y7674D01*
Y7671D01*
Y7669D01*
X23303Y7689D01*
X23311Y7731D01*
X23321Y7767D01*
X23334Y7798D01*
X23346Y7823D01*
X23359Y7841D01*
X23369Y7855D01*
X23376Y7864D01*
X23379Y7867D01*
X23401Y7886D01*
X23427Y7901D01*
X23451Y7912D01*
X23475Y7919D01*
X23494Y7923D01*
X23511Y7925D01*
X23517Y7926D01*
X23525D01*
X23548Y7925D01*
D02*
G37*
G36*
X24863Y7937D02*
X24891Y7933D01*
X24917Y7927D01*
X24942Y7920D01*
X24965Y7910D01*
X24986Y7901D01*
X25005Y7889D01*
X25022Y7879D01*
X25038Y7868D01*
X25052Y7857D01*
X25063Y7847D01*
X25073Y7837D01*
X25080Y7830D01*
X25086Y7824D01*
X25089Y7820D01*
X25090Y7819D01*
X25110Y7792D01*
X25127Y7762D01*
X25141Y7733D01*
X25153Y7702D01*
X25165Y7669D01*
X25173Y7638D01*
X25180Y7607D01*
X25186Y7576D01*
X25190Y7548D01*
X25194Y7523D01*
X25197Y7499D01*
X25199Y7478D01*
Y7462D01*
X25200Y7449D01*
Y7441D01*
Y7440D01*
Y7438D01*
X25199Y7396D01*
X25196Y7356D01*
X25190Y7318D01*
X25183Y7283D01*
X25175Y7251D01*
X25166Y7221D01*
X25156Y7193D01*
X25145Y7169D01*
X25135Y7146D01*
X25125Y7127D01*
X25117Y7110D01*
X25108Y7097D01*
X25101Y7086D01*
X25096Y7077D01*
X25093Y7073D01*
X25091Y7072D01*
X25073Y7051D01*
X25053Y7034D01*
X25034Y7018D01*
X25013Y7004D01*
X24991Y6993D01*
X24972Y6983D01*
X24952Y6976D01*
X24932Y6969D01*
X24914Y6965D01*
X24897Y6960D01*
X24881Y6959D01*
X24869Y6956D01*
X24857D01*
X24850Y6955D01*
X24843D01*
X24821Y6956D01*
X24800Y6958D01*
X24760Y6966D01*
X24725Y6977D01*
X24709Y6984D01*
X24695Y6991D01*
X24683Y6998D01*
X24671Y7005D01*
X24661Y7011D01*
X24654Y7017D01*
X24647Y7021D01*
X24643Y7025D01*
X24640Y7027D01*
X24639Y7028D01*
X24623Y7043D01*
X24609Y7059D01*
X24585Y7096D01*
X24564Y7135D01*
X24547Y7173D01*
X24540Y7192D01*
X24535Y7208D01*
X24530Y7224D01*
X24526Y7237D01*
X24523Y7248D01*
X24521Y7256D01*
X24519Y7262D01*
Y7263D01*
X24673Y7323D01*
X24681Y7285D01*
X24693Y7254D01*
X24702Y7227D01*
X24714Y7206D01*
X24724Y7189D01*
X24732Y7177D01*
X24738Y7170D01*
X24739Y7168D01*
X24756Y7152D01*
X24774Y7139D01*
X24793Y7131D01*
X24810Y7125D01*
X24824Y7122D01*
X24836Y7121D01*
X24843Y7120D01*
X24846D01*
X24862Y7121D01*
X24876Y7122D01*
X24904Y7131D01*
X24927Y7144D01*
X24946Y7158D01*
X24963Y7170D01*
X24974Y7183D01*
X24982Y7192D01*
X24984Y7193D01*
Y7194D01*
X24993Y7210D01*
X25001Y7227D01*
X25008Y7247D01*
X25014Y7266D01*
X25024Y7309D01*
X25029Y7351D01*
X25032Y7371D01*
X25034Y7389D01*
X25035Y7406D01*
Y7420D01*
X25036Y7433D01*
Y7441D01*
Y7448D01*
Y7449D01*
Y7481D01*
X25034Y7510D01*
X25031Y7537D01*
X25028Y7561D01*
X25024Y7583D01*
X25020Y7605D01*
X25015Y7623D01*
X25010Y7638D01*
X25004Y7652D01*
X25000Y7665D01*
X24996Y7675D01*
X24991Y7684D01*
X24987Y7689D01*
X24986Y7695D01*
X24983Y7696D01*
Y7698D01*
X24972Y7712D01*
X24960Y7723D01*
X24949Y7733D01*
X24938Y7741D01*
X24914Y7755D01*
X24891Y7764D01*
X24872Y7769D01*
X24856Y7772D01*
X24850Y7774D01*
X24842D01*
X24819Y7772D01*
X24800Y7767D01*
X24783Y7761D01*
X24767Y7753D01*
X24755Y7746D01*
X24745Y7738D01*
X24739Y7733D01*
X24738Y7731D01*
X24722Y7715D01*
X24709Y7696D01*
X24698Y7676D01*
X24690Y7657D01*
X24684Y7640D01*
X24680Y7626D01*
X24678Y7620D01*
Y7616D01*
X24677Y7614D01*
Y7613D01*
X24521Y7658D01*
X24526Y7681D01*
X24533Y7702D01*
X24540Y7722D01*
X24547Y7741D01*
X24556Y7758D01*
X24563Y7774D01*
X24571Y7786D01*
X24578Y7799D01*
X24585Y7810D01*
X24592Y7820D01*
X24598Y7829D01*
X24604Y7836D01*
X24608Y7840D01*
X24611Y7844D01*
X24612Y7847D01*
X24614D01*
X24630Y7863D01*
X24649Y7877D01*
X24667Y7889D01*
X24685Y7901D01*
X24704Y7909D01*
X24722Y7916D01*
X24757Y7927D01*
X24773Y7932D01*
X24787Y7934D01*
X24800Y7936D01*
X24811Y7937D01*
X24821Y7939D01*
X24833D01*
X24863Y7937D01*
D02*
G37*
G36*
X20474Y2449D02*
X20514Y2446D01*
X20552Y2440D01*
X20587Y2433D01*
X20619Y2425D01*
X20649Y2416D01*
X20677Y2406D01*
X20701Y2395D01*
X20724Y2385D01*
X20744Y2375D01*
X20760Y2367D01*
X20773Y2358D01*
X20784Y2351D01*
X20793Y2346D01*
X20797Y2343D01*
X20799Y2341D01*
X20820Y2323D01*
X20837Y2303D01*
X20852Y2284D01*
X20866Y2262D01*
X20877Y2241D01*
X20887Y2222D01*
X20894Y2202D01*
X20901Y2182D01*
X20906Y2164D01*
X20910Y2147D01*
X20911Y2131D01*
X20914Y2119D01*
Y2107D01*
X20916Y2100D01*
Y2093D01*
X20914Y2071D01*
X20913Y2050D01*
X20904Y2010D01*
X20893Y1975D01*
X20886Y1959D01*
X20879Y1945D01*
X20872Y1933D01*
X20865Y1921D01*
X20859Y1911D01*
X20853Y1904D01*
X20849Y1897D01*
X20845Y1893D01*
X20844Y1890D01*
X20842Y1889D01*
X20827Y1873D01*
X20811Y1859D01*
X20775Y1835D01*
X20735Y1814D01*
X20697Y1797D01*
X20679Y1790D01*
X20662Y1785D01*
X20646Y1780D01*
X20634Y1776D01*
X20622Y1773D01*
X20614Y1770D01*
X20608Y1769D01*
X20607D01*
X20548Y1923D01*
X20586Y1931D01*
X20617Y1942D01*
X20643Y1952D01*
X20665Y1964D01*
X20681Y1973D01*
X20693Y1982D01*
X20700Y1988D01*
X20703Y1989D01*
X20718Y2006D01*
X20731Y2024D01*
X20739Y2043D01*
X20745Y2059D01*
X20748Y2074D01*
X20749Y2086D01*
X20751Y2093D01*
Y2096D01*
X20749Y2112D01*
X20748Y2126D01*
X20739Y2154D01*
X20727Y2176D01*
X20713Y2196D01*
X20700Y2213D01*
X20687Y2224D01*
X20679Y2231D01*
X20677Y2234D01*
X20676D01*
X20660Y2243D01*
X20643Y2251D01*
X20624Y2258D01*
X20604Y2264D01*
X20562Y2274D01*
X20519Y2279D01*
X20500Y2282D01*
X20481Y2284D01*
X20464Y2285D01*
X20450D01*
X20438Y2286D01*
X20429D01*
X20422D01*
X20421D01*
X20390D01*
X20360Y2284D01*
X20333Y2281D01*
X20309Y2278D01*
X20287Y2274D01*
X20266Y2270D01*
X20247Y2265D01*
X20232Y2260D01*
X20218Y2254D01*
X20205Y2250D01*
X20195Y2246D01*
X20187Y2241D01*
X20181Y2237D01*
X20175Y2236D01*
X20174Y2233D01*
X20173D01*
X20159Y2222D01*
X20147Y2210D01*
X20137Y2199D01*
X20129Y2188D01*
X20115Y2164D01*
X20106Y2141D01*
X20101Y2122D01*
X20098Y2106D01*
X20096Y2100D01*
Y2092D01*
X20098Y2069D01*
X20104Y2050D01*
X20109Y2033D01*
X20118Y2017D01*
X20125Y2004D01*
X20132Y1995D01*
X20137Y1989D01*
X20139Y1988D01*
X20156Y1972D01*
X20174Y1959D01*
X20194Y1948D01*
X20213Y1940D01*
X20230Y1934D01*
X20244Y1930D01*
X20250Y1928D01*
X20254D01*
X20256Y1927D01*
X20257D01*
X20212Y1770D01*
X20190Y1776D01*
X20168Y1783D01*
X20149Y1790D01*
X20129Y1797D01*
X20112Y1806D01*
X20096Y1813D01*
X20084Y1821D01*
X20071Y1828D01*
X20060Y1835D01*
X20050Y1842D01*
X20041Y1848D01*
X20034Y1854D01*
X20030Y1858D01*
X20026Y1861D01*
X20023Y1862D01*
Y1864D01*
X20008Y1880D01*
X19994Y1899D01*
X19981Y1917D01*
X19970Y1935D01*
X19961Y1954D01*
X19954Y1972D01*
X19943Y2007D01*
X19939Y2023D01*
X19936Y2037D01*
X19934Y2050D01*
X19933Y2061D01*
X19932Y2071D01*
Y2083D01*
X19933Y2113D01*
X19937Y2141D01*
X19943Y2167D01*
X19950Y2192D01*
X19960Y2215D01*
X19970Y2236D01*
X19981Y2255D01*
X19991Y2272D01*
X20002Y2288D01*
X20013Y2302D01*
X20023Y2313D01*
X20033Y2323D01*
X20040Y2330D01*
X20046Y2336D01*
X20050Y2339D01*
X20051Y2340D01*
X20078Y2360D01*
X20108Y2377D01*
X20137Y2391D01*
X20168Y2403D01*
X20201Y2415D01*
X20232Y2423D01*
X20263Y2430D01*
X20294Y2436D01*
X20322Y2440D01*
X20347Y2444D01*
X20371Y2447D01*
X20393Y2449D01*
X20408D01*
X20421Y2450D01*
X20429D01*
X20431D01*
X20432D01*
X20474Y2449D01*
D02*
G37*
G36*
X20330Y1589D02*
X20309Y1551D01*
X20285Y1518D01*
X20263Y1490D01*
X20253Y1477D01*
X20243Y1466D01*
X20233Y1456D01*
X20226Y1449D01*
X20219Y1442D01*
X20215Y1438D01*
X20212Y1435D01*
X20211Y1434D01*
X20900D01*
Y1283D01*
X19944D01*
Y1405D01*
X19975Y1417D01*
X20003Y1431D01*
X20029Y1446D01*
X20050Y1462D01*
X20068Y1476D01*
X20082Y1487D01*
X20091Y1496D01*
X20092Y1497D01*
X20094Y1498D01*
X20116Y1524D01*
X20135Y1548D01*
X20150Y1569D01*
X20163Y1589D01*
X20171Y1606D01*
X20178Y1617D01*
X20181Y1625D01*
X20182Y1627D01*
Y1628D01*
X20349D01*
X20330Y1589D01*
D02*
G37*
G36*
X20129Y720D02*
X20191Y758D01*
X20256Y791D01*
X20316Y820D01*
X20346Y833D01*
X20373Y844D01*
X20400Y854D01*
X20422Y864D01*
X20443Y871D01*
X20462Y878D01*
X20476Y882D01*
X20487Y887D01*
X20493Y888D01*
X20495Y889D01*
X20570Y911D01*
X20643Y926D01*
X20679Y932D01*
X20713Y937D01*
X20744Y942D01*
X20773Y946D01*
X20800Y949D01*
X20825Y951D01*
X20846Y953D01*
X20865Y954D01*
X20880D01*
X20892Y956D01*
X20897D01*
X20900D01*
Y812D01*
X20851Y810D01*
X20800Y806D01*
X20751Y801D01*
X20728Y798D01*
X20705Y794D01*
X20686Y791D01*
X20667Y788D01*
X20650Y785D01*
X20636Y782D01*
X20625Y779D01*
X20617Y778D01*
X20611Y777D01*
X20610D01*
X20550Y763D01*
X20495Y746D01*
X20469Y737D01*
X20443Y730D01*
X20421Y722D01*
X20400Y713D01*
X20380Y706D01*
X20361Y699D01*
X20346Y692D01*
X20333Y688D01*
X20323Y682D01*
X20315Y679D01*
X20311Y677D01*
X20309D01*
X20284Y664D01*
X20260Y653D01*
X20237Y640D01*
X20216Y629D01*
X20198Y617D01*
X20180Y607D01*
X20164Y598D01*
X20149Y588D01*
X20136Y579D01*
X20125Y572D01*
X20116Y565D01*
X20108Y560D01*
X20102Y554D01*
X20096Y551D01*
X20095Y548D01*
X20094D01*
X19960D01*
Y1060D01*
X20129D01*
Y720D01*
D02*
G37*
G36*
X23474Y4694D02*
X23514Y4691D01*
X23552Y4685D01*
X23587Y4678D01*
X23619Y4670D01*
X23649Y4661D01*
X23677Y4651D01*
X23701Y4640D01*
X23724Y4630D01*
X23744Y4620D01*
X23760Y4612D01*
X23773Y4603D01*
X23784Y4596D01*
X23793Y4591D01*
X23797Y4588D01*
X23799Y4586D01*
X23820Y4568D01*
X23837Y4548D01*
X23852Y4529D01*
X23866Y4508D01*
X23877Y4486D01*
X23887Y4467D01*
X23894Y4447D01*
X23901Y4427D01*
X23906Y4409D01*
X23910Y4392D01*
X23911Y4376D01*
X23914Y4364D01*
Y4352D01*
X23916Y4345D01*
Y4338D01*
X23914Y4316D01*
X23913Y4295D01*
X23904Y4255D01*
X23893Y4220D01*
X23886Y4204D01*
X23879Y4190D01*
X23872Y4178D01*
X23865Y4166D01*
X23859Y4156D01*
X23853Y4149D01*
X23849Y4142D01*
X23845Y4138D01*
X23844Y4135D01*
X23842Y4134D01*
X23827Y4118D01*
X23811Y4104D01*
X23775Y4080D01*
X23735Y4059D01*
X23697Y4042D01*
X23679Y4035D01*
X23662Y4030D01*
X23646Y4025D01*
X23634Y4021D01*
X23622Y4018D01*
X23614Y4016D01*
X23608Y4014D01*
X23607D01*
X23548Y4168D01*
X23586Y4176D01*
X23617Y4187D01*
X23643Y4197D01*
X23665Y4209D01*
X23681Y4219D01*
X23693Y4227D01*
X23700Y4233D01*
X23703Y4234D01*
X23718Y4251D01*
X23731Y4269D01*
X23739Y4288D01*
X23745Y4305D01*
X23748Y4319D01*
X23749Y4331D01*
X23751Y4338D01*
Y4341D01*
X23749Y4357D01*
X23748Y4371D01*
X23739Y4399D01*
X23727Y4422D01*
X23713Y4441D01*
X23700Y4458D01*
X23687Y4469D01*
X23679Y4476D01*
X23677Y4479D01*
X23676D01*
X23660Y4488D01*
X23643Y4496D01*
X23624Y4503D01*
X23604Y4509D01*
X23562Y4519D01*
X23519Y4524D01*
X23500Y4527D01*
X23481Y4529D01*
X23464Y4530D01*
X23450D01*
X23438Y4531D01*
X23429D01*
X23422D01*
X23421D01*
X23390D01*
X23360Y4529D01*
X23333Y4526D01*
X23309Y4523D01*
X23287Y4519D01*
X23266Y4515D01*
X23247Y4510D01*
X23232Y4505D01*
X23218Y4499D01*
X23205Y4495D01*
X23195Y4491D01*
X23187Y4486D01*
X23181Y4482D01*
X23175Y4481D01*
X23174Y4478D01*
X23173D01*
X23159Y4467D01*
X23147Y4455D01*
X23137Y4444D01*
X23129Y4433D01*
X23115Y4409D01*
X23106Y4386D01*
X23101Y4367D01*
X23098Y4351D01*
X23096Y4345D01*
Y4337D01*
X23098Y4314D01*
X23104Y4295D01*
X23109Y4278D01*
X23118Y4262D01*
X23125Y4250D01*
X23132Y4240D01*
X23137Y4234D01*
X23139Y4233D01*
X23156Y4217D01*
X23174Y4204D01*
X23194Y4193D01*
X23213Y4185D01*
X23230Y4179D01*
X23244Y4175D01*
X23250Y4173D01*
X23254D01*
X23256Y4172D01*
X23257D01*
X23212Y4016D01*
X23190Y4021D01*
X23168Y4028D01*
X23149Y4035D01*
X23129Y4042D01*
X23112Y4051D01*
X23096Y4058D01*
X23084Y4066D01*
X23071Y4073D01*
X23060Y4080D01*
X23050Y4087D01*
X23041Y4093D01*
X23034Y4099D01*
X23030Y4103D01*
X23026Y4106D01*
X23023Y4107D01*
Y4109D01*
X23008Y4125D01*
X22994Y4144D01*
X22981Y4162D01*
X22970Y4180D01*
X22961Y4199D01*
X22954Y4217D01*
X22943Y4252D01*
X22939Y4268D01*
X22936Y4282D01*
X22934Y4295D01*
X22933Y4306D01*
X22932Y4316D01*
Y4328D01*
X22933Y4358D01*
X22937Y4386D01*
X22943Y4412D01*
X22950Y4437D01*
X22960Y4460D01*
X22970Y4481D01*
X22981Y4500D01*
X22991Y4517D01*
X23002Y4533D01*
X23013Y4547D01*
X23023Y4558D01*
X23033Y4568D01*
X23040Y4575D01*
X23046Y4581D01*
X23050Y4584D01*
X23051Y4585D01*
X23078Y4605D01*
X23108Y4622D01*
X23137Y4636D01*
X23168Y4648D01*
X23201Y4660D01*
X23232Y4668D01*
X23263Y4675D01*
X23294Y4681D01*
X23322Y4685D01*
X23347Y4689D01*
X23371Y4692D01*
X23393Y4694D01*
X23408D01*
X23421Y4695D01*
X23429D01*
X23431D01*
X23432D01*
X23474Y4694D01*
D02*
G37*
G36*
X23330Y3834D02*
X23309Y3796D01*
X23285Y3763D01*
X23263Y3735D01*
X23253Y3722D01*
X23243Y3711D01*
X23233Y3701D01*
X23226Y3694D01*
X23219Y3687D01*
X23215Y3683D01*
X23212Y3680D01*
X23211Y3679D01*
X23900D01*
Y3528D01*
X22944D01*
Y3650D01*
X22975Y3662D01*
X23003Y3676D01*
X23029Y3691D01*
X23050Y3707D01*
X23068Y3721D01*
X23082Y3732D01*
X23091Y3741D01*
X23092Y3742D01*
X23094Y3743D01*
X23116Y3769D01*
X23135Y3793D01*
X23150Y3814D01*
X23163Y3834D01*
X23171Y3851D01*
X23178Y3862D01*
X23181Y3870D01*
X23182Y3872D01*
Y3873D01*
X23349D01*
X23330Y3834D01*
D02*
G37*
G36*
X23650Y3304D02*
X23673Y3302D01*
X23715Y3294D01*
X23734Y3288D01*
X23752Y3282D01*
X23767Y3275D01*
X23782Y3268D01*
X23794Y3261D01*
X23806Y3254D01*
X23815Y3249D01*
X23824Y3243D01*
X23830Y3239D01*
X23834Y3235D01*
X23837Y3233D01*
X23838Y3232D01*
X23852Y3218D01*
X23863Y3202D01*
X23873Y3187D01*
X23883Y3171D01*
X23897Y3140D01*
X23906Y3110D01*
X23911Y3085D01*
X23913Y3074D01*
X23914Y3064D01*
X23916Y3057D01*
Y3046D01*
X23914Y3019D01*
X23910Y2995D01*
X23904Y2972D01*
X23897Y2954D01*
X23892Y2938D01*
X23886Y2926D01*
X23882Y2919D01*
X23880Y2916D01*
X23866Y2895D01*
X23849Y2878D01*
X23832Y2862D01*
X23815Y2850D01*
X23800Y2838D01*
X23789Y2831D01*
X23780Y2827D01*
X23779Y2826D01*
X23777D01*
X23751Y2814D01*
X23724Y2806D01*
X23698Y2800D01*
X23673Y2796D01*
X23652Y2793D01*
X23643D01*
X23636Y2792D01*
X23629D01*
X23625D01*
X23622D01*
X23621D01*
X23590Y2793D01*
X23562Y2798D01*
X23538Y2803D01*
X23517Y2809D01*
X23500Y2814D01*
X23487Y2820D01*
X23480Y2824D01*
X23477Y2826D01*
X23456Y2840D01*
X23438Y2855D01*
X23422Y2872D01*
X23409Y2888D01*
X23398Y2903D01*
X23391Y2915D01*
X23387Y2923D01*
X23385Y2924D01*
Y2926D01*
X23374Y2909D01*
X23361Y2892D01*
X23349Y2879D01*
X23336Y2868D01*
X23325Y2858D01*
X23316Y2853D01*
X23311Y2848D01*
X23308Y2847D01*
X23288Y2837D01*
X23267Y2830D01*
X23247Y2824D01*
X23229Y2822D01*
X23212Y2819D01*
X23199Y2817D01*
X23191D01*
X23190D01*
X23188D01*
X23170D01*
X23151Y2820D01*
X23119Y2827D01*
X23089Y2837D01*
X23064Y2847D01*
X23044Y2858D01*
X23036Y2864D01*
X23029Y2868D01*
X23023Y2872D01*
X23019Y2875D01*
X23018Y2876D01*
X23016Y2878D01*
X23003Y2889D01*
X22992Y2902D01*
X22982Y2916D01*
X22974Y2930D01*
X22961Y2958D01*
X22953Y2986D01*
X22948Y3012D01*
X22947Y3023D01*
X22946Y3033D01*
X22944Y3040D01*
Y3051D01*
X22946Y3071D01*
X22947Y3089D01*
X22954Y3123D01*
X22965Y3153D01*
X22978Y3177D01*
X22991Y3196D01*
X23001Y3211D01*
X23006Y3215D01*
X23009Y3219D01*
X23010Y3220D01*
X23012Y3222D01*
X23025Y3233D01*
X23039Y3243D01*
X23067Y3259D01*
X23096Y3270D01*
X23126Y3277D01*
X23150Y3282D01*
X23161Y3284D01*
X23171D01*
X23178Y3285D01*
X23184D01*
X23188D01*
X23190D01*
X23215Y3284D01*
X23237Y3281D01*
X23257Y3277D01*
X23274Y3271D01*
X23288Y3267D01*
X23299Y3263D01*
X23305Y3260D01*
X23308Y3259D01*
X23325Y3247D01*
X23340Y3233D01*
X23354Y3220D01*
X23366Y3206D01*
X23374Y3194D01*
X23380Y3184D01*
X23384Y3178D01*
X23385Y3175D01*
X23398Y3198D01*
X23414Y3218D01*
X23429Y3235D01*
X23445Y3247D01*
X23459Y3259D01*
X23470Y3267D01*
X23477Y3271D01*
X23479Y3273D01*
X23480D01*
X23504Y3284D01*
X23529Y3291D01*
X23553Y3297D01*
X23576Y3301D01*
X23597Y3304D01*
X23612Y3305D01*
X23618D01*
X23622D01*
X23625D01*
X23627D01*
X23650Y3304D01*
D02*
G37*
G36*
X17344Y1403D02*
X17375Y1396D01*
X17403Y1386D01*
X17425Y1376D01*
X17444Y1365D01*
X17458Y1355D01*
X17466Y1348D01*
X17468Y1347D01*
X17469Y1345D01*
X17480Y1334D01*
X17490Y1320D01*
X17508Y1290D01*
X17523Y1259D01*
X17534Y1228D01*
X17542Y1200D01*
X17545Y1189D01*
X17548Y1177D01*
X17549Y1169D01*
X17551Y1162D01*
X17552Y1158D01*
Y1156D01*
X17414Y1128D01*
X17411Y1151D01*
X17407Y1169D01*
X17401Y1186D01*
X17396Y1199D01*
X17390Y1208D01*
X17386Y1217D01*
X17383Y1221D01*
X17382Y1223D01*
X17370Y1234D01*
X17359Y1241D01*
X17348Y1246D01*
X17338Y1251D01*
X17329Y1254D01*
X17321Y1255D01*
X17315D01*
X17301Y1254D01*
X17289Y1251D01*
X17277Y1246D01*
X17269Y1241D01*
X17262Y1235D01*
X17256Y1231D01*
X17253Y1228D01*
X17252Y1227D01*
X17243Y1215D01*
X17238Y1203D01*
X17232Y1190D01*
X17229Y1179D01*
X17228Y1168D01*
X17227Y1159D01*
Y1153D01*
Y1151D01*
X17228Y1129D01*
X17232Y1111D01*
X17238Y1096D01*
X17243Y1083D01*
X17249Y1073D01*
X17255Y1065D01*
X17259Y1060D01*
X17260Y1059D01*
X17274Y1049D01*
X17289Y1041D01*
X17304Y1036D01*
X17320Y1032D01*
X17332Y1031D01*
X17344Y1029D01*
X17353D01*
X17369Y880D01*
X17355Y884D01*
X17342Y888D01*
X17329Y891D01*
X17320Y893D01*
X17313Y894D01*
X17301D01*
X17286Y893D01*
X17272Y888D01*
X17259Y881D01*
X17248Y874D01*
X17239Y866D01*
X17232Y860D01*
X17228Y855D01*
X17227Y853D01*
X17217Y838D01*
X17208Y819D01*
X17203Y801D01*
X17200Y784D01*
X17197Y769D01*
X17195Y756D01*
Y747D01*
Y746D01*
Y745D01*
X17197Y718D01*
X17201Y695D01*
X17205Y674D01*
X17211Y659D01*
X17218Y645D01*
X17222Y636D01*
X17227Y629D01*
X17228Y628D01*
X17241Y614D01*
X17253Y604D01*
X17267Y597D01*
X17280Y592D01*
X17290Y590D01*
X17298Y587D01*
X17307D01*
X17322Y588D01*
X17336Y592D01*
X17349Y598D01*
X17359Y605D01*
X17367Y611D01*
X17375Y616D01*
X17379Y621D01*
X17380Y622D01*
X17390Y636D01*
X17399Y653D01*
X17406Y670D01*
X17410Y687D01*
X17414Y702D01*
X17415Y714D01*
X17417Y722D01*
Y723D01*
Y725D01*
X17562Y704D01*
X17555Y659D01*
X17545Y621D01*
X17538Y602D01*
X17531Y587D01*
X17524Y571D01*
X17517Y559D01*
X17510Y546D01*
X17503Y536D01*
X17497Y528D01*
X17492Y519D01*
X17487Y513D01*
X17483Y509D01*
X17482Y508D01*
X17480Y506D01*
X17466Y494D01*
X17452Y482D01*
X17438Y473D01*
X17422Y466D01*
X17393Y451D01*
X17366Y443D01*
X17342Y439D01*
X17331Y437D01*
X17322Y436D01*
X17315Y434D01*
X17305D01*
X17286Y436D01*
X17267Y439D01*
X17249Y443D01*
X17231Y447D01*
X17200Y461D01*
X17173Y477D01*
X17150Y492D01*
X17142Y499D01*
X17135Y506D01*
X17129Y511D01*
X17124Y515D01*
X17122Y518D01*
X17121Y519D01*
X17107Y536D01*
X17094Y553D01*
X17084Y571D01*
X17076Y590D01*
X17062Y625D01*
X17052Y659D01*
X17049Y676D01*
X17046Y690D01*
X17045Y702D01*
X17043Y714D01*
X17042Y722D01*
Y729D01*
Y733D01*
Y735D01*
X17043Y767D01*
X17049Y797D01*
X17055Y822D01*
X17063Y843D01*
X17070Y860D01*
X17077Y873D01*
X17083Y881D01*
X17084Y884D01*
X17101Y905D01*
X17118Y922D01*
X17135Y935D01*
X17152Y946D01*
X17167Y953D01*
X17179Y957D01*
X17187Y960D01*
X17188Y962D01*
X17190D01*
X17170Y976D01*
X17153Y991D01*
X17138Y1007D01*
X17126Y1020D01*
X17117Y1032D01*
X17111Y1041D01*
X17107Y1046D01*
X17105Y1049D01*
X17095Y1069D01*
X17088Y1089D01*
X17083Y1107D01*
X17080Y1125D01*
X17077Y1139D01*
X17076Y1152D01*
Y1159D01*
Y1162D01*
Y1179D01*
X17079Y1196D01*
X17086Y1227D01*
X17095Y1255D01*
X17107Y1280D01*
X17119Y1301D01*
X17125Y1310D01*
X17129Y1317D01*
X17133Y1323D01*
X17136Y1327D01*
X17138Y1328D01*
X17139Y1330D01*
X17152Y1344D01*
X17164Y1355D01*
X17179Y1365D01*
X17193Y1373D01*
X17221Y1387D01*
X17248Y1396D01*
X17273Y1402D01*
X17283Y1403D01*
X17291Y1404D01*
X17300Y1406D01*
X17327D01*
X17344Y1403D01*
D02*
G37*
G36*
X19100Y450D02*
X18804D01*
X18770Y451D01*
X18739Y454D01*
X18712Y458D01*
X18690Y464D01*
X18671Y468D01*
X18659Y473D01*
X18650Y475D01*
X18647Y477D01*
X18625Y488D01*
X18605Y501D01*
X18588Y513D01*
X18573Y526D01*
X18562Y537D01*
X18552Y547D01*
X18546Y553D01*
X18545Y556D01*
X18529Y577D01*
X18515Y601D01*
X18502Y625D01*
X18492Y649D01*
X18484Y669D01*
X18478Y685D01*
X18476Y692D01*
X18474Y697D01*
X18473Y700D01*
Y701D01*
X18463Y736D01*
X18456Y773D01*
X18452Y809D01*
X18447Y843D01*
Y859D01*
X18446Y873D01*
Y886D01*
X18444Y895D01*
Y904D01*
Y911D01*
Y915D01*
Y917D01*
X18446Y966D01*
X18449Y1010D01*
X18450Y1031D01*
X18453Y1049D01*
X18456Y1066D01*
X18457Y1082D01*
X18460Y1096D01*
X18463Y1108D01*
X18466Y1120D01*
X18467Y1128D01*
X18468Y1135D01*
X18470Y1141D01*
X18471Y1144D01*
Y1145D01*
X18483Y1179D01*
X18494Y1208D01*
X18507Y1234D01*
X18519Y1255D01*
X18529Y1273D01*
X18538Y1286D01*
X18543Y1293D01*
X18546Y1296D01*
X18564Y1316D01*
X18581Y1332D01*
X18600Y1347D01*
X18615Y1358D01*
X18629Y1366D01*
X18639Y1373D01*
X18646Y1376D01*
X18649Y1378D01*
X18671Y1386D01*
X18698Y1392D01*
X18725Y1397D01*
X18752Y1400D01*
X18776Y1402D01*
X18786D01*
X18794Y1403D01*
X19100D01*
Y450D01*
D02*
G37*
G36*
X18391D02*
X18223D01*
X18160Y666D01*
X17844D01*
X17776Y450D01*
X17606D01*
X17920Y1403D01*
X18088D01*
X18391Y450D01*
D02*
G37*
G36*
X10937Y1349D02*
X10815Y1328D01*
X10806Y1341D01*
X10796Y1350D01*
X10786Y1360D01*
X10776Y1367D01*
X10756Y1380D01*
X10738Y1389D01*
X10722Y1393D01*
X10711Y1396D01*
X10703Y1397D01*
X10700D01*
X10681Y1396D01*
X10666Y1390D01*
X10650Y1383D01*
X10639Y1376D01*
X10629Y1367D01*
X10622Y1360D01*
X10618Y1355D01*
X10617Y1353D01*
X10605Y1335D01*
X10597Y1315D01*
X10591Y1293D01*
X10587Y1272D01*
X10584Y1252D01*
X10583Y1236D01*
Y1229D01*
Y1225D01*
Y1222D01*
Y1221D01*
X10584Y1188D01*
X10588Y1159D01*
X10594Y1135D01*
X10600Y1115D01*
X10605Y1101D01*
X10611Y1090D01*
X10615Y1084D01*
X10617Y1081D01*
X10629Y1066D01*
X10642Y1056D01*
X10656Y1047D01*
X10669Y1042D01*
X10679Y1039D01*
X10687Y1038D01*
X10694Y1036D01*
X10696D01*
X10710Y1038D01*
X10722Y1042D01*
X10735Y1047D01*
X10745Y1054D01*
X10753Y1060D01*
X10760Y1066D01*
X10765Y1070D01*
X10766Y1071D01*
X10777Y1085D01*
X10786Y1102D01*
X10793Y1118D01*
X10797Y1133D01*
X10800Y1147D01*
X10803Y1160D01*
X10804Y1167D01*
Y1170D01*
X10954Y1150D01*
X10947Y1107D01*
X10941Y1085D01*
X10935Y1067D01*
X10928Y1050D01*
X10921Y1035D01*
X10914Y1019D01*
X10907Y1007D01*
X10900Y995D01*
X10893Y985D01*
X10887Y977D01*
X10882Y970D01*
X10877Y964D01*
X10873Y960D01*
X10872Y959D01*
X10870Y957D01*
X10856Y946D01*
X10842Y935D01*
X10814Y918D01*
X10784Y906D01*
X10758Y898D01*
X10734Y894D01*
X10722Y891D01*
X10714D01*
X10707Y890D01*
X10697D01*
X10673Y891D01*
X10652Y894D01*
X10631Y899D01*
X10612Y906D01*
X10594Y913D01*
X10579Y922D01*
X10563Y932D01*
X10550Y942D01*
X10539Y952D01*
X10528Y961D01*
X10519Y970D01*
X10512Y977D01*
X10507Y984D01*
X10502Y990D01*
X10501Y992D01*
X10500Y994D01*
X10487Y1014D01*
X10476Y1035D01*
X10467Y1054D01*
X10459Y1074D01*
X10446Y1114D01*
X10438Y1149D01*
X10435Y1166D01*
X10433Y1180D01*
X10431Y1193D01*
Y1204D01*
X10429Y1212D01*
Y1219D01*
Y1224D01*
Y1225D01*
X10431Y1253D01*
X10432Y1280D01*
X10436Y1304D01*
X10442Y1328D01*
X10447Y1349D01*
X10455Y1370D01*
X10463Y1389D01*
X10470Y1405D01*
X10477Y1420D01*
X10486Y1432D01*
X10493Y1444D01*
X10498Y1453D01*
X10504Y1460D01*
X10507Y1466D01*
X10510Y1469D01*
X10511Y1470D01*
X10524Y1483D01*
X10536Y1494D01*
X10549Y1504D01*
X10563Y1513D01*
X10590Y1525D01*
X10614Y1535D01*
X10636Y1539D01*
X10645Y1541D01*
X10653Y1542D01*
X10660Y1544D01*
X10669D01*
X10689Y1542D01*
X10707Y1538D01*
X10724Y1534D01*
X10739Y1528D01*
X10753Y1521D01*
X10763Y1517D01*
X10769Y1513D01*
X10772Y1511D01*
X10746Y1675D01*
X10464D01*
Y1845D01*
X10861D01*
X10937Y1349D01*
D02*
G37*
G36*
X12500Y905D02*
X12204D01*
X12170Y906D01*
X12139Y909D01*
X12112Y913D01*
X12090Y919D01*
X12071Y923D01*
X12059Y928D01*
X12050Y930D01*
X12047Y932D01*
X12025Y943D01*
X12005Y956D01*
X11988Y968D01*
X11973Y981D01*
X11962Y992D01*
X11952Y1002D01*
X11946Y1008D01*
X11945Y1011D01*
X11929Y1032D01*
X11915Y1056D01*
X11902Y1080D01*
X11892Y1104D01*
X11884Y1124D01*
X11878Y1140D01*
X11876Y1147D01*
X11874Y1152D01*
X11873Y1155D01*
Y1156D01*
X11863Y1191D01*
X11856Y1228D01*
X11852Y1264D01*
X11847Y1298D01*
Y1314D01*
X11846Y1328D01*
Y1341D01*
X11844Y1350D01*
Y1359D01*
Y1366D01*
Y1370D01*
Y1372D01*
X11846Y1421D01*
X11849Y1465D01*
X11850Y1486D01*
X11853Y1504D01*
X11856Y1521D01*
X11857Y1537D01*
X11860Y1551D01*
X11863Y1563D01*
X11866Y1575D01*
X11867Y1583D01*
X11868Y1590D01*
X11870Y1596D01*
X11871Y1599D01*
Y1600D01*
X11883Y1634D01*
X11894Y1663D01*
X11907Y1689D01*
X11919Y1710D01*
X11929Y1728D01*
X11938Y1741D01*
X11943Y1748D01*
X11946Y1751D01*
X11964Y1771D01*
X11981Y1787D01*
X12000Y1802D01*
X12015Y1813D01*
X12029Y1821D01*
X12039Y1828D01*
X12046Y1831D01*
X12049Y1833D01*
X12071Y1841D01*
X12098Y1847D01*
X12125Y1852D01*
X12152Y1855D01*
X12176Y1857D01*
X12186D01*
X12194Y1858D01*
X12500D01*
Y905D01*
D02*
G37*
G36*
X11791D02*
X11623D01*
X11560Y1121D01*
X11244D01*
X11176Y905D01*
X11006D01*
X11320Y1858D01*
X11488D01*
X11791Y905D01*
D02*
G37*
G36*
X14345Y7603D02*
X14376Y7596D01*
X14405Y7586D01*
X14427Y7576D01*
X14446Y7565D01*
X14460Y7555D01*
X14468Y7548D01*
X14470Y7547D01*
X14471Y7545D01*
X14482Y7534D01*
X14492Y7520D01*
X14510Y7490D01*
X14524Y7459D01*
X14536Y7428D01*
X14544Y7400D01*
X14547Y7389D01*
X14550Y7377D01*
X14551Y7369D01*
X14553Y7362D01*
X14554Y7358D01*
Y7356D01*
X14416Y7328D01*
X14413Y7351D01*
X14409Y7369D01*
X14403Y7386D01*
X14398Y7399D01*
X14392Y7408D01*
X14388Y7417D01*
X14385Y7421D01*
X14384Y7423D01*
X14372Y7434D01*
X14361Y7441D01*
X14350Y7446D01*
X14340Y7451D01*
X14331Y7454D01*
X14323Y7455D01*
X14317D01*
X14303Y7454D01*
X14290Y7451D01*
X14279Y7446D01*
X14271Y7441D01*
X14264Y7435D01*
X14258Y7431D01*
X14255Y7428D01*
X14254Y7427D01*
X14245Y7415D01*
X14240Y7403D01*
X14234Y7390D01*
X14231Y7379D01*
X14230Y7368D01*
X14228Y7359D01*
Y7353D01*
Y7351D01*
X14230Y7329D01*
X14234Y7311D01*
X14240Y7296D01*
X14245Y7283D01*
X14251Y7273D01*
X14257Y7265D01*
X14261Y7260D01*
X14262Y7259D01*
X14276Y7249D01*
X14290Y7241D01*
X14306Y7236D01*
X14321Y7232D01*
X14334Y7231D01*
X14345Y7229D01*
X14355D01*
X14371Y7080D01*
X14357Y7084D01*
X14344Y7088D01*
X14331Y7091D01*
X14321Y7093D01*
X14314Y7094D01*
X14303D01*
X14288Y7093D01*
X14274Y7088D01*
X14261Y7081D01*
X14250Y7074D01*
X14241Y7066D01*
X14234Y7060D01*
X14230Y7055D01*
X14228Y7053D01*
X14219Y7038D01*
X14210Y7019D01*
X14204Y7001D01*
X14202Y6984D01*
X14199Y6969D01*
X14197Y6956D01*
Y6947D01*
Y6946D01*
Y6945D01*
X14199Y6918D01*
X14203Y6895D01*
X14207Y6874D01*
X14213Y6859D01*
X14220Y6845D01*
X14224Y6836D01*
X14228Y6829D01*
X14230Y6828D01*
X14243Y6814D01*
X14255Y6804D01*
X14269Y6797D01*
X14282Y6792D01*
X14292Y6790D01*
X14300Y6787D01*
X14309D01*
X14324Y6788D01*
X14338Y6792D01*
X14351Y6798D01*
X14361Y6805D01*
X14369Y6811D01*
X14376Y6816D01*
X14381Y6821D01*
X14382Y6822D01*
X14392Y6836D01*
X14400Y6853D01*
X14407Y6870D01*
X14412Y6887D01*
X14416Y6902D01*
X14417Y6914D01*
X14419Y6922D01*
Y6923D01*
Y6925D01*
X14564Y6904D01*
X14557Y6859D01*
X14547Y6821D01*
X14540Y6802D01*
X14533Y6787D01*
X14526Y6771D01*
X14519Y6759D01*
X14512Y6746D01*
X14505Y6736D01*
X14499Y6728D01*
X14493Y6719D01*
X14489Y6713D01*
X14485Y6709D01*
X14484Y6708D01*
X14482Y6706D01*
X14468Y6694D01*
X14454Y6682D01*
X14440Y6673D01*
X14424Y6666D01*
X14395Y6651D01*
X14368Y6643D01*
X14344Y6639D01*
X14333Y6637D01*
X14324Y6636D01*
X14317Y6634D01*
X14307D01*
X14288Y6636D01*
X14269Y6639D01*
X14251Y6643D01*
X14233Y6647D01*
X14202Y6661D01*
X14175Y6677D01*
X14152Y6692D01*
X14144Y6699D01*
X14137Y6706D01*
X14131Y6711D01*
X14126Y6715D01*
X14124Y6718D01*
X14123Y6719D01*
X14109Y6736D01*
X14096Y6753D01*
X14086Y6771D01*
X14078Y6790D01*
X14064Y6825D01*
X14054Y6859D01*
X14051Y6876D01*
X14048Y6890D01*
X14047Y6902D01*
X14045Y6914D01*
X14044Y6922D01*
Y6929D01*
Y6933D01*
Y6935D01*
X14045Y6967D01*
X14051Y6997D01*
X14056Y7022D01*
X14065Y7043D01*
X14072Y7060D01*
X14079Y7073D01*
X14085Y7081D01*
X14086Y7084D01*
X14103Y7105D01*
X14120Y7122D01*
X14137Y7135D01*
X14154Y7146D01*
X14169Y7153D01*
X14181Y7157D01*
X14189Y7160D01*
X14190Y7162D01*
X14192D01*
X14172Y7176D01*
X14155Y7191D01*
X14140Y7207D01*
X14128Y7220D01*
X14118Y7232D01*
X14113Y7241D01*
X14109Y7246D01*
X14107Y7249D01*
X14097Y7269D01*
X14090Y7289D01*
X14085Y7307D01*
X14082Y7325D01*
X14079Y7339D01*
X14078Y7352D01*
Y7359D01*
Y7362D01*
Y7379D01*
X14080Y7396D01*
X14087Y7427D01*
X14097Y7455D01*
X14109Y7480D01*
X14121Y7501D01*
X14127Y7510D01*
X14131Y7517D01*
X14135Y7523D01*
X14138Y7527D01*
X14140Y7528D01*
X14141Y7530D01*
X14154Y7544D01*
X14166Y7555D01*
X14181Y7565D01*
X14195Y7573D01*
X14223Y7587D01*
X14250Y7596D01*
X14275Y7602D01*
X14285Y7603D01*
X14293Y7604D01*
X14302Y7606D01*
X14329D01*
X14345Y7603D01*
D02*
G37*
G36*
X15313Y6650D02*
X15155D01*
Y7048D01*
X15104D01*
X15088Y7046D01*
X15074Y7045D01*
X15063Y7042D01*
X15055Y7040D01*
X15049Y7038D01*
X15046Y7036D01*
X15045D01*
X15035Y7032D01*
X15026Y7025D01*
X15012Y7012D01*
X15007Y7007D01*
X15002Y7001D01*
X15000Y6998D01*
X14998Y6997D01*
X14994Y6991D01*
X14988Y6983D01*
X14981Y6974D01*
X14976Y6964D01*
X14961Y6940D01*
X14947Y6916D01*
X14935Y6894D01*
X14929Y6884D01*
X14923Y6876D01*
X14919Y6869D01*
X14916Y6863D01*
X14914Y6859D01*
Y6857D01*
X14801Y6650D01*
X14610D01*
X14706Y6835D01*
X14716Y6854D01*
X14726Y6874D01*
X14736Y6891D01*
X14744Y6907D01*
X14753Y6921D01*
X14760Y6933D01*
X14773Y6954D01*
X14782Y6970D01*
X14791Y6981D01*
X14795Y6988D01*
X14797Y6990D01*
X14809Y7005D01*
X14823Y7021D01*
X14837Y7035D01*
X14850Y7046D01*
X14861Y7056D01*
X14871Y7063D01*
X14877Y7069D01*
X14880Y7070D01*
X14844Y7079D01*
X14815Y7090D01*
X14788Y7104D01*
X14767Y7119D01*
X14750Y7132D01*
X14737Y7143D01*
X14730Y7152D01*
X14727Y7153D01*
Y7155D01*
X14709Y7183D01*
X14695Y7212D01*
X14685Y7242D01*
X14680Y7270D01*
X14675Y7296D01*
X14674Y7307D01*
Y7317D01*
X14672Y7324D01*
Y7331D01*
Y7334D01*
Y7335D01*
X14674Y7368D01*
X14678Y7396D01*
X14684Y7423D01*
X14689Y7445D01*
X14696Y7462D01*
X14702Y7476D01*
X14706Y7485D01*
X14708Y7487D01*
X14722Y7510D01*
X14737Y7528D01*
X14751Y7544D01*
X14766Y7555D01*
X14778Y7565D01*
X14788Y7572D01*
X14795Y7575D01*
X14798Y7576D01*
X14809Y7580D01*
X14822Y7585D01*
X14850Y7592D01*
X14880Y7596D01*
X14909Y7600D01*
X14936Y7602D01*
X14949D01*
X14959Y7603D01*
X15313D01*
Y6650D01*
D02*
G37*
G36*
X15200Y9042D02*
X14802D01*
Y8991D01*
X14804Y8976D01*
X14805Y8962D01*
X14808Y8950D01*
X14810Y8942D01*
X14812Y8936D01*
X14814Y8934D01*
Y8932D01*
X14818Y8922D01*
X14825Y8914D01*
X14838Y8900D01*
X14843Y8894D01*
X14849Y8890D01*
X14852Y8887D01*
X14853Y8886D01*
X14859Y8881D01*
X14867Y8876D01*
X14876Y8869D01*
X14886Y8863D01*
X14910Y8849D01*
X14934Y8835D01*
X14956Y8822D01*
X14966Y8817D01*
X14974Y8811D01*
X14981Y8807D01*
X14987Y8804D01*
X14991Y8801D01*
X14993D01*
X15200Y8688D01*
Y8498D01*
X15015Y8594D01*
X14996Y8604D01*
X14976Y8614D01*
X14959Y8623D01*
X14943Y8632D01*
X14929Y8640D01*
X14917Y8647D01*
X14896Y8660D01*
X14880Y8670D01*
X14869Y8678D01*
X14862Y8683D01*
X14860Y8684D01*
X14845Y8697D01*
X14829Y8711D01*
X14815Y8725D01*
X14804Y8738D01*
X14794Y8749D01*
X14787Y8759D01*
X14781Y8764D01*
X14780Y8767D01*
X14771Y8732D01*
X14760Y8702D01*
X14746Y8676D01*
X14731Y8654D01*
X14718Y8638D01*
X14707Y8625D01*
X14698Y8618D01*
X14697Y8615D01*
X14695D01*
X14667Y8597D01*
X14638Y8583D01*
X14608Y8573D01*
X14580Y8567D01*
X14554Y8563D01*
X14543Y8561D01*
X14533D01*
X14526Y8560D01*
X14519D01*
X14516D01*
X14515D01*
X14482Y8561D01*
X14454Y8566D01*
X14427Y8571D01*
X14405Y8577D01*
X14388Y8584D01*
X14374Y8590D01*
X14365Y8594D01*
X14363Y8595D01*
X14340Y8609D01*
X14322Y8625D01*
X14306Y8639D01*
X14295Y8653D01*
X14285Y8666D01*
X14278Y8676D01*
X14275Y8683D01*
X14274Y8685D01*
X14270Y8697D01*
X14265Y8709D01*
X14258Y8738D01*
X14254Y8767D01*
X14250Y8797D01*
X14248Y8824D01*
Y8836D01*
X14247Y8846D01*
Y9200D01*
X15200D01*
Y9042D01*
D02*
G37*
G36*
X15008Y8153D02*
X15200D01*
Y8007D01*
X15008D01*
Y7910D01*
X14848D01*
Y8007D01*
X14244D01*
Y8134D01*
X14849Y8473D01*
X15008D01*
Y8153D01*
D02*
G37*
G36*
X14300Y2542D02*
X13902D01*
Y2491D01*
X13904Y2476D01*
X13905Y2462D01*
X13908Y2450D01*
X13910Y2442D01*
X13912Y2436D01*
X13914Y2434D01*
Y2432D01*
X13918Y2422D01*
X13925Y2414D01*
X13938Y2400D01*
X13943Y2394D01*
X13949Y2390D01*
X13952Y2387D01*
X13953Y2386D01*
X13959Y2381D01*
X13967Y2376D01*
X13976Y2369D01*
X13986Y2363D01*
X14010Y2349D01*
X14034Y2335D01*
X14056Y2322D01*
X14066Y2317D01*
X14074Y2311D01*
X14082Y2307D01*
X14087Y2304D01*
X14091Y2301D01*
X14093D01*
X14300Y2188D01*
Y1998D01*
X14115Y2094D01*
X14096Y2104D01*
X14076Y2114D01*
X14059Y2123D01*
X14043Y2132D01*
X14029Y2140D01*
X14017Y2147D01*
X13995Y2160D01*
X13980Y2170D01*
X13969Y2178D01*
X13962Y2183D01*
X13960Y2184D01*
X13945Y2197D01*
X13929Y2211D01*
X13915Y2225D01*
X13904Y2238D01*
X13894Y2249D01*
X13887Y2259D01*
X13881Y2264D01*
X13880Y2267D01*
X13871Y2232D01*
X13860Y2202D01*
X13846Y2176D01*
X13831Y2154D01*
X13818Y2138D01*
X13807Y2125D01*
X13798Y2118D01*
X13797Y2115D01*
X13795D01*
X13767Y2097D01*
X13738Y2083D01*
X13708Y2073D01*
X13680Y2067D01*
X13654Y2063D01*
X13643Y2061D01*
X13633D01*
X13626Y2060D01*
X13619D01*
X13616D01*
X13615D01*
X13582Y2061D01*
X13554Y2066D01*
X13527Y2071D01*
X13505Y2077D01*
X13488Y2084D01*
X13474Y2090D01*
X13465Y2094D01*
X13463Y2095D01*
X13440Y2109D01*
X13422Y2125D01*
X13406Y2139D01*
X13395Y2153D01*
X13385Y2166D01*
X13378Y2176D01*
X13375Y2183D01*
X13374Y2185D01*
X13370Y2197D01*
X13365Y2209D01*
X13358Y2238D01*
X13354Y2267D01*
X13350Y2297D01*
X13348Y2324D01*
Y2336D01*
X13347Y2346D01*
Y2700D01*
X14300D01*
Y2542D01*
D02*
G37*
G36*
X14098Y1936D02*
X14120Y1930D01*
X14138Y1925D01*
X14155Y1918D01*
X14170Y1911D01*
X14186Y1904D01*
X14198Y1896D01*
X14210Y1889D01*
X14220Y1882D01*
X14228Y1877D01*
X14235Y1871D01*
X14241Y1867D01*
X14245Y1863D01*
X14246Y1861D01*
X14248Y1860D01*
X14259Y1846D01*
X14270Y1832D01*
X14287Y1803D01*
X14299Y1774D01*
X14307Y1747D01*
X14311Y1723D01*
X14314Y1712D01*
Y1703D01*
X14316Y1696D01*
Y1686D01*
X14314Y1662D01*
X14311Y1641D01*
X14306Y1620D01*
X14299Y1602D01*
X14292Y1584D01*
X14283Y1568D01*
X14273Y1553D01*
X14263Y1540D01*
X14253Y1529D01*
X14244Y1517D01*
X14235Y1509D01*
X14228Y1502D01*
X14221Y1496D01*
X14215Y1492D01*
X14213Y1490D01*
X14211Y1489D01*
X14191Y1476D01*
X14170Y1465D01*
X14151Y1457D01*
X14131Y1448D01*
X14091Y1436D01*
X14056Y1427D01*
X14039Y1424D01*
X14025Y1423D01*
X14012Y1420D01*
X14001D01*
X13993Y1419D01*
X13986D01*
X13981D01*
X13980D01*
X13952Y1420D01*
X13925Y1421D01*
X13901Y1426D01*
X13877Y1431D01*
X13856Y1437D01*
X13835Y1444D01*
X13816Y1452D01*
X13800Y1459D01*
X13785Y1467D01*
X13773Y1475D01*
X13761Y1482D01*
X13752Y1488D01*
X13745Y1493D01*
X13739Y1496D01*
X13736Y1499D01*
X13735Y1500D01*
X13722Y1513D01*
X13711Y1526D01*
X13701Y1538D01*
X13692Y1553D01*
X13680Y1579D01*
X13670Y1603D01*
X13666Y1626D01*
X13664Y1634D01*
X13663Y1643D01*
X13661Y1650D01*
Y1658D01*
X13663Y1678D01*
X13667Y1696D01*
X13671Y1713D01*
X13677Y1729D01*
X13684Y1743D01*
X13688Y1753D01*
X13692Y1758D01*
X13694Y1761D01*
X13530Y1736D01*
Y1454D01*
X13360D01*
Y1850D01*
X13856Y1926D01*
X13877Y1805D01*
X13864Y1795D01*
X13855Y1785D01*
X13845Y1775D01*
X13838Y1765D01*
X13825Y1746D01*
X13816Y1727D01*
X13812Y1712D01*
X13809Y1701D01*
X13808Y1692D01*
Y1689D01*
X13809Y1671D01*
X13815Y1655D01*
X13822Y1640D01*
X13829Y1629D01*
X13838Y1619D01*
X13845Y1612D01*
X13850Y1607D01*
X13852Y1606D01*
X13870Y1595D01*
X13890Y1586D01*
X13912Y1581D01*
X13933Y1576D01*
X13953Y1574D01*
X13969Y1572D01*
X13976D01*
X13980D01*
X13983D01*
X13984D01*
X14017Y1574D01*
X14046Y1578D01*
X14070Y1584D01*
X14090Y1589D01*
X14104Y1595D01*
X14115Y1600D01*
X14121Y1605D01*
X14124Y1606D01*
X14139Y1619D01*
X14149Y1631D01*
X14158Y1646D01*
X14163Y1658D01*
X14166Y1668D01*
X14167Y1677D01*
X14169Y1684D01*
Y1685D01*
X14167Y1699D01*
X14163Y1712D01*
X14158Y1724D01*
X14151Y1734D01*
X14145Y1743D01*
X14139Y1750D01*
X14135Y1754D01*
X14134Y1755D01*
X14120Y1767D01*
X14103Y1775D01*
X14087Y1782D01*
X14072Y1787D01*
X14058Y1789D01*
X14045Y1792D01*
X14038Y1794D01*
X14035D01*
X14055Y1943D01*
X14098Y1936D01*
D02*
G37*
%LPC*%
G36*
X15600Y540D02*
X15323Y386D01*
X15600D01*
Y540D01*
D02*
G37*
G36*
X23545Y7452D02*
X23538D01*
X23522Y7451D01*
X23508Y7445D01*
X23496Y7438D01*
X23484Y7431D01*
X23476Y7423D01*
X23470Y7416D01*
X23466Y7410D01*
X23465Y7409D01*
X23455Y7390D01*
X23446Y7371D01*
X23441Y7348D01*
X23438Y7325D01*
X23435Y7306D01*
X23434Y7290D01*
Y7283D01*
Y7279D01*
Y7276D01*
Y7275D01*
X23435Y7244D01*
X23438Y7217D01*
X23442Y7194D01*
X23448Y7176D01*
X23453Y7162D01*
X23458Y7152D01*
X23460Y7146D01*
X23462Y7145D01*
X23473Y7132D01*
X23484Y7122D01*
X23496Y7117D01*
X23507Y7111D01*
X23517Y7108D01*
X23524Y7107D01*
X23531D01*
X23546Y7108D01*
X23562Y7114D01*
X23575Y7121D01*
X23586Y7131D01*
X23596Y7139D01*
X23603Y7146D01*
X23607Y7152D01*
X23608Y7153D01*
X23620Y7173D01*
X23627Y7196D01*
X23632Y7218D01*
X23637Y7239D01*
X23639Y7259D01*
X23641Y7276D01*
Y7282D01*
Y7286D01*
Y7289D01*
Y7290D01*
X23639Y7318D01*
X23637Y7344D01*
X23631Y7364D01*
X23625Y7380D01*
X23621Y7395D01*
X23615Y7404D01*
X23613Y7410D01*
X23611Y7411D01*
X23600Y7426D01*
X23587Y7435D01*
X23575Y7442D01*
X23563Y7447D01*
X23553Y7451D01*
X23545Y7452D01*
D02*
G37*
G36*
X23212Y3143D02*
X23205D01*
X23202D01*
X23184Y3141D01*
X23167Y3139D01*
X23153Y3134D01*
X23142Y3130D01*
X23133Y3126D01*
X23126Y3122D01*
X23122Y3119D01*
X23120Y3118D01*
X23111Y3106D01*
X23102Y3095D01*
X23096Y3084D01*
X23094Y3074D01*
X23091Y3064D01*
X23089Y3057D01*
Y3050D01*
X23091Y3036D01*
X23094Y3023D01*
X23099Y3012D01*
X23104Y3002D01*
X23109Y2995D01*
X23115Y2989D01*
X23118Y2986D01*
X23119Y2985D01*
X23132Y2977D01*
X23144Y2970D01*
X23159Y2965D01*
X23171Y2961D01*
X23184Y2960D01*
X23194Y2958D01*
X23199D01*
X23202D01*
X23222Y2960D01*
X23239Y2962D01*
X23254Y2967D01*
X23266Y2971D01*
X23275Y2977D01*
X23283Y2981D01*
X23287Y2984D01*
X23288Y2985D01*
X23298Y2995D01*
X23305Y3006D01*
X23309Y3017D01*
X23312Y3029D01*
X23315Y3037D01*
X23316Y3044D01*
Y3051D01*
X23315Y3065D01*
X23312Y3079D01*
X23308Y3091D01*
X23302Y3099D01*
X23297Y3108D01*
X23292Y3113D01*
X23290Y3116D01*
X23288Y3118D01*
X23275Y3126D01*
X23263Y3132D01*
X23247Y3137D01*
X23235Y3140D01*
X23222Y3141D01*
X23212Y3143D01*
D02*
G37*
G36*
X23622Y3158D02*
X23617D01*
X23612D01*
X23611D01*
X23610D01*
X23586Y3157D01*
X23564Y3154D01*
X23548Y3149D01*
X23532Y3143D01*
X23519Y3137D01*
X23511Y3132D01*
X23505Y3129D01*
X23504Y3127D01*
X23490Y3115D01*
X23480Y3102D01*
X23473Y3089D01*
X23469Y3078D01*
X23464Y3067D01*
X23463Y3058D01*
Y3051D01*
X23464Y3034D01*
X23469Y3019D01*
X23476Y3006D01*
X23483Y2995D01*
X23491Y2986D01*
X23497Y2979D01*
X23502Y2975D01*
X23504Y2974D01*
X23519Y2962D01*
X23538Y2955D01*
X23555Y2950D01*
X23572Y2946D01*
X23587Y2943D01*
X23600Y2941D01*
X23608D01*
X23610D01*
X23611D01*
X23639Y2943D01*
X23663Y2946D01*
X23683Y2951D01*
X23700Y2957D01*
X23713Y2962D01*
X23722Y2968D01*
X23728Y2971D01*
X23729Y2972D01*
X23742Y2985D01*
X23752Y2998D01*
X23759Y3010D01*
X23763Y3022D01*
X23766Y3033D01*
X23769Y3041D01*
Y3048D01*
X23767Y3065D01*
X23762Y3081D01*
X23756Y3094D01*
X23748Y3105D01*
X23741Y3115D01*
X23734Y3122D01*
X23729Y3126D01*
X23728Y3127D01*
X23711Y3137D01*
X23693Y3146D01*
X23673Y3151D01*
X23653Y3154D01*
X23636Y3157D01*
X23622Y3158D01*
D02*
G37*
G36*
X18942Y1242D02*
X18839D01*
X18811Y1241D01*
X18790Y1239D01*
X18772Y1238D01*
X18759Y1237D01*
X18750Y1235D01*
X18745Y1234D01*
X18743D01*
X18728Y1228D01*
X18714Y1223D01*
X18701Y1214D01*
X18690Y1207D01*
X18681Y1199D01*
X18674Y1193D01*
X18670Y1189D01*
X18669Y1187D01*
X18657Y1173D01*
X18649Y1158D01*
X18640Y1141D01*
X18635Y1125D01*
X18629Y1111D01*
X18626Y1100D01*
X18624Y1093D01*
Y1091D01*
Y1090D01*
X18618Y1066D01*
X18615Y1038D01*
X18612Y1011D01*
X18609Y984D01*
Y960D01*
X18608Y950D01*
Y941D01*
Y934D01*
Y928D01*
Y925D01*
Y924D01*
Y887D01*
X18611Y855D01*
X18612Y826D01*
X18615Y802D01*
X18618Y784D01*
X18621Y770D01*
X18622Y762D01*
X18624Y760D01*
Y759D01*
X18629Y738D01*
X18635Y718D01*
X18642Y702D01*
X18647Y690D01*
X18652Y680D01*
X18656Y673D01*
X18659Y669D01*
X18660Y667D01*
X18677Y649D01*
X18695Y636D01*
X18704Y630D01*
X18710Y628D01*
X18714Y626D01*
X18715Y625D01*
X18729Y621D01*
X18746Y616D01*
X18764Y614D01*
X18783Y612D01*
X18800D01*
X18812Y611D01*
X18942D01*
Y1242D01*
D02*
G37*
G36*
X18005Y1180D02*
X17896Y826D01*
X18110D01*
X18005Y1180D01*
D02*
G37*
G36*
X12342Y1697D02*
X12239D01*
X12211Y1696D01*
X12190Y1694D01*
X12172Y1693D01*
X12159Y1692D01*
X12150Y1690D01*
X12145Y1689D01*
X12143D01*
X12128Y1683D01*
X12114Y1678D01*
X12101Y1669D01*
X12090Y1662D01*
X12081Y1654D01*
X12074Y1648D01*
X12070Y1644D01*
X12069Y1642D01*
X12057Y1628D01*
X12049Y1613D01*
X12040Y1596D01*
X12035Y1580D01*
X12029Y1566D01*
X12026Y1555D01*
X12024Y1548D01*
Y1546D01*
Y1545D01*
X12018Y1521D01*
X12015Y1493D01*
X12012Y1466D01*
X12009Y1439D01*
Y1415D01*
X12008Y1405D01*
Y1396D01*
Y1389D01*
Y1383D01*
Y1380D01*
Y1379D01*
Y1342D01*
X12011Y1310D01*
X12012Y1281D01*
X12015Y1257D01*
X12018Y1239D01*
X12021Y1225D01*
X12022Y1217D01*
X12024Y1215D01*
Y1214D01*
X12029Y1193D01*
X12035Y1173D01*
X12042Y1157D01*
X12047Y1145D01*
X12052Y1135D01*
X12056Y1128D01*
X12059Y1124D01*
X12060Y1122D01*
X12077Y1104D01*
X12095Y1091D01*
X12104Y1085D01*
X12110Y1083D01*
X12114Y1081D01*
X12115Y1080D01*
X12129Y1076D01*
X12146Y1071D01*
X12165Y1069D01*
X12183Y1067D01*
X12200D01*
X12212Y1066D01*
X12342D01*
Y1697D01*
D02*
G37*
G36*
X11405Y1635D02*
X11296Y1281D01*
X11510D01*
X11405Y1635D01*
D02*
G37*
G36*
X15155Y7442D02*
X14997D01*
X14981Y7441D01*
X14956D01*
X14945Y7439D01*
X14936D01*
X14928Y7438D01*
X14916Y7437D01*
X14909Y7435D01*
X14905Y7434D01*
X14904D01*
X14892Y7430D01*
X14883Y7424D01*
X14874Y7417D01*
X14867Y7411D01*
X14861Y7406D01*
X14857Y7400D01*
X14856Y7397D01*
X14854Y7396D01*
X14849Y7384D01*
X14843Y7373D01*
X14839Y7349D01*
X14837Y7338D01*
X14836Y7329D01*
Y7324D01*
Y7322D01*
X14837Y7306D01*
X14839Y7291D01*
X14842Y7277D01*
X14844Y7267D01*
X14849Y7258D01*
X14852Y7252D01*
X14853Y7248D01*
X14854Y7246D01*
X14861Y7236D01*
X14870Y7228D01*
X14877Y7222D01*
X14885Y7217D01*
X14892Y7212D01*
X14897Y7210D01*
X14901Y7208D01*
X14902D01*
X14909Y7207D01*
X14916Y7205D01*
X14936Y7204D01*
X14959Y7201D01*
X14981D01*
X15004Y7200D01*
X15155D01*
Y7442D01*
D02*
G37*
G36*
X14650Y9042D02*
X14408D01*
Y8884D01*
X14409Y8869D01*
Y8843D01*
X14411Y8832D01*
Y8824D01*
X14412Y8815D01*
X14413Y8804D01*
X14415Y8797D01*
X14416Y8793D01*
Y8791D01*
X14420Y8780D01*
X14426Y8770D01*
X14433Y8762D01*
X14439Y8755D01*
X14444Y8749D01*
X14450Y8745D01*
X14453Y8743D01*
X14454Y8742D01*
X14466Y8736D01*
X14477Y8731D01*
X14501Y8726D01*
X14512Y8725D01*
X14521Y8724D01*
X14526D01*
X14528D01*
X14544Y8725D01*
X14559Y8726D01*
X14573Y8729D01*
X14583Y8732D01*
X14592Y8736D01*
X14598Y8739D01*
X14602Y8740D01*
X14604Y8742D01*
X14614Y8749D01*
X14622Y8757D01*
X14628Y8764D01*
X14633Y8773D01*
X14638Y8780D01*
X14640Y8784D01*
X14642Y8788D01*
Y8790D01*
X14643Y8797D01*
X14645Y8804D01*
X14646Y8824D01*
X14649Y8846D01*
Y8869D01*
X14650Y8891D01*
Y9042D01*
D02*
G37*
G36*
X14848Y8333D02*
X14523Y8153D01*
X14848D01*
Y8333D01*
D02*
G37*
G36*
X13750Y2542D02*
X13508D01*
Y2384D01*
X13509Y2369D01*
Y2343D01*
X13511Y2332D01*
Y2324D01*
X13512Y2315D01*
X13513Y2304D01*
X13515Y2297D01*
X13516Y2293D01*
Y2291D01*
X13520Y2280D01*
X13526Y2270D01*
X13533Y2262D01*
X13539Y2255D01*
X13544Y2249D01*
X13550Y2245D01*
X13553Y2243D01*
X13554Y2242D01*
X13566Y2236D01*
X13577Y2231D01*
X13601Y2226D01*
X13612Y2225D01*
X13621Y2224D01*
X13626D01*
X13628D01*
X13644Y2225D01*
X13659Y2226D01*
X13673Y2229D01*
X13683Y2232D01*
X13692Y2236D01*
X13698Y2239D01*
X13702Y2240D01*
X13704Y2242D01*
X13714Y2249D01*
X13722Y2257D01*
X13728Y2264D01*
X13733Y2273D01*
X13738Y2280D01*
X13740Y2284D01*
X13742Y2288D01*
Y2290D01*
X13743Y2297D01*
X13745Y2304D01*
X13746Y2324D01*
X13749Y2346D01*
Y2369D01*
X13750Y2391D01*
Y2542D01*
D02*
G37*
%LPD*%
D10*
X19915Y2355D02*
G03*
X19915Y2355I-100J0D01*
G01*
X13240Y2805D02*
G03*
X13240Y2805I-100J0D01*
G01*
X8325Y2920D02*
X8325Y6380D01*
X6325Y2920D02*
X8325Y2920D01*
X6325Y6380D02*
X8325Y6380D01*
X6325Y2920D02*
X6325Y6380D01*
X6075Y2920D02*
X6075Y6380D01*
X4075Y2920D02*
X6075Y2920D01*
X4075Y6380D02*
X6075Y6380D01*
X4075Y2920D02*
X4075Y6380D01*
X23055Y9375D02*
Y12800D01*
X18095Y12800D02*
X18095Y9375D01*
X18095Y12800D02*
X23055Y12800D01*
X18095Y9375D02*
X23055Y9375D01*
X23055Y5720D02*
X23055Y9145D01*
X18095Y5720D02*
X18095Y9145D01*
X23055Y9145D01*
X18095Y5720D02*
X23055Y5720D01*
X15375Y12800D02*
X15375Y7975D01*
X17825Y7975D02*
X17825Y12800D01*
X15375Y7975D02*
X17825Y7975D01*
X15375Y12800D02*
X17825Y12800D01*
X15512Y6450D02*
X17688Y6450D01*
X15512Y7650D02*
X17687Y7650D01*
X17688Y6450D01*
X15512Y7650D02*
X15512Y6450D01*
X22725Y1505D02*
X22725Y4580D01*
X21175Y1505D02*
X21175Y4580D01*
X22725D01*
X21175Y1505D02*
X22725Y1505D01*
X19595Y4305D02*
X19595Y2805D01*
X16555Y4305D02*
X16555Y2805D01*
X17695Y4305D02*
X18455Y4305D01*
X14425Y2905D02*
Y5080D01*
X13225Y2905D02*
Y5080D01*
X14425D01*
X13225Y2905D02*
X14425D01*
X16225Y2005D02*
Y5080D01*
X14675Y5080D02*
X14675Y2005D01*
X14675Y5080D02*
X16225Y5080D01*
X14675Y2005D02*
X16225Y2005D01*
D11*
X19850Y2645D02*
X20910Y2645D01*
X19850Y4605D02*
X20910Y4605D01*
X19850Y2645D02*
X19850Y4605D01*
X20910Y2645D02*
X20910Y4605D01*
X12920Y4755D02*
X12920Y3255D01*
X9880Y4755D02*
X9880Y3255D01*
X11020Y4755D02*
X11780Y4755D01*
X8590Y6405D02*
X9650Y6405D01*
X8590Y4445D02*
X9650Y4445D01*
X9650Y6405D02*
X9650Y4445D01*
X8590Y4445D02*
X8590Y6405D01*
M02*
