G04*
G04 #@! TF.GenerationSoftware,Altium Limited,Altium Designer,22.7.1 (60)*
G04*
G04 Layer_Color=16711935*
%FSLAX43Y43*%
%MOMM*%
G71*
G04*
G04 #@! TF.SameCoordinates,DF1E0758-EE3D-4B36-99E4-D52E4057D36D*
G04*
G04*
G04 #@! TF.FilePolarity,Negative*
G04*
G01*
G75*
G04:AMPARAMS|DCode=14|XSize=0.89mm|YSize=0.9mm|CornerRadius=0.224mm|HoleSize=0mm|Usage=FLASHONLY|Rotation=270.000|XOffset=0mm|YOffset=0mm|HoleType=Round|Shape=RoundedRectangle|*
%AMROUNDEDRECTD14*
21,1,0.890,0.453,0,0,270.0*
21,1,0.443,0.900,0,0,270.0*
1,1,0.447,-0.226,-0.221*
1,1,0.447,-0.226,0.221*
1,1,0.447,0.226,0.221*
1,1,0.447,0.226,-0.221*
%
%ADD14ROUNDEDRECTD14*%
G04:AMPARAMS|DCode=18|XSize=1.24mm|YSize=1.33mm|CornerRadius=0.268mm|HoleSize=0mm|Usage=FLASHONLY|Rotation=90.000|XOffset=0mm|YOffset=0mm|HoleType=Round|Shape=RoundedRectangle|*
%AMROUNDEDRECTD18*
21,1,1.240,0.795,0,0,90.0*
21,1,0.705,1.330,0,0,90.0*
1,1,0.535,0.398,0.353*
1,1,0.535,0.398,-0.353*
1,1,0.535,-0.398,-0.353*
1,1,0.535,-0.398,0.353*
%
%ADD18ROUNDEDRECTD18*%
G04:AMPARAMS|DCode=20|XSize=0.91mm|YSize=0.9mm|CornerRadius=0.225mm|HoleSize=0mm|Usage=FLASHONLY|Rotation=180.000|XOffset=0mm|YOffset=0mm|HoleType=Round|Shape=RoundedRectangle|*
%AMROUNDEDRECTD20*
21,1,0.910,0.450,0,0,180.0*
21,1,0.460,0.900,0,0,180.0*
1,1,0.450,-0.230,0.225*
1,1,0.450,0.230,0.225*
1,1,0.450,0.230,-0.225*
1,1,0.450,-0.230,-0.225*
%
%ADD20ROUNDEDRECTD20*%
G04:AMPARAMS|DCode=21|XSize=0.91mm|YSize=1.56mm|CornerRadius=0.226mm|HoleSize=0mm|Usage=FLASHONLY|Rotation=180.000|XOffset=0mm|YOffset=0mm|HoleType=Round|Shape=RoundedRectangle|*
%AMROUNDEDRECTD21*
21,1,0.910,1.108,0,0,180.0*
21,1,0.458,1.560,0,0,180.0*
1,1,0.453,-0.229,0.554*
1,1,0.453,0.229,0.554*
1,1,0.453,0.229,-0.554*
1,1,0.453,-0.229,-0.554*
%
%ADD21ROUNDEDRECTD21*%
G04:AMPARAMS|DCode=48|XSize=1.51mm|YSize=1.76mm|CornerRadius=0.301mm|HoleSize=0mm|Usage=FLASHONLY|Rotation=270.000|XOffset=0mm|YOffset=0mm|HoleType=Round|Shape=RoundedRectangle|*
%AMROUNDEDRECTD48*
21,1,1.510,1.158,0,0,270.0*
21,1,0.907,1.760,0,0,270.0*
1,1,0.603,-0.579,-0.454*
1,1,0.603,-0.579,0.454*
1,1,0.603,0.579,0.454*
1,1,0.603,0.579,-0.454*
%
%ADD48ROUNDEDRECTD48*%
G04:AMPARAMS|DCode=49|XSize=2.06mm|YSize=3.12mm|CornerRadius=0.37mm|HoleSize=0mm|Usage=FLASHONLY|Rotation=180.000|XOffset=0mm|YOffset=0mm|HoleType=Round|Shape=RoundedRectangle|*
%AMROUNDEDRECTD49*
21,1,2.060,2.380,0,0,180.0*
21,1,1.320,3.120,0,0,180.0*
1,1,0.740,-0.660,1.190*
1,1,0.740,0.660,1.190*
1,1,0.740,0.660,-1.190*
1,1,0.740,-0.660,-1.190*
%
%ADD49ROUNDEDRECTD49*%
G04:AMPARAMS|DCode=50|XSize=1.5mm|YSize=2.13mm|CornerRadius=0.3mm|HoleSize=0mm|Usage=FLASHONLY|Rotation=270.000|XOffset=0mm|YOffset=0mm|HoleType=Round|Shape=RoundedRectangle|*
%AMROUNDEDRECTD50*
21,1,1.500,1.530,0,0,270.0*
21,1,0.900,2.130,0,0,270.0*
1,1,0.600,-0.765,-0.450*
1,1,0.600,-0.765,0.450*
1,1,0.600,0.765,0.450*
1,1,0.600,0.765,-0.450*
%
%ADD50ROUNDEDRECTD50*%
G04:AMPARAMS|DCode=51|XSize=0.91mm|YSize=0.9mm|CornerRadius=0.225mm|HoleSize=0mm|Usage=FLASHONLY|Rotation=90.000|XOffset=0mm|YOffset=0mm|HoleType=Round|Shape=RoundedRectangle|*
%AMROUNDEDRECTD51*
21,1,0.910,0.450,0,0,90.0*
21,1,0.460,0.900,0,0,90.0*
1,1,0.450,0.225,0.230*
1,1,0.450,0.225,-0.230*
1,1,0.450,-0.225,-0.230*
1,1,0.450,-0.225,0.230*
%
%ADD51ROUNDEDRECTD51*%
D14*
X20380Y4150D02*
D03*
X20380Y3125D02*
D03*
X9120Y4900D02*
D03*
X9120Y5925D02*
D03*
D18*
X21950Y2255D02*
D03*
X21950Y3855D02*
D03*
X15450Y2755D02*
D03*
Y4355D02*
D03*
D20*
X16113Y7050D02*
D03*
X17112Y7050D02*
D03*
D21*
X19025Y4780D02*
D03*
X17125Y4780D02*
D03*
X17125Y2330D02*
D03*
X18075Y2330D02*
D03*
X19025Y2330D02*
D03*
X12350Y5230D02*
D03*
X10450Y5230D02*
D03*
X10450Y2780D02*
D03*
X11400Y2780D02*
D03*
X12350Y2780D02*
D03*
D48*
X7325Y3805D02*
D03*
X7325Y5495D02*
D03*
X5075Y3805D02*
D03*
X5075Y5495D02*
D03*
D49*
X19305Y11100D02*
D03*
X21895Y11100D02*
D03*
X19305Y7445D02*
D03*
X21895Y7445D02*
D03*
D50*
X16600Y8900D02*
D03*
X16600Y11900D02*
D03*
D51*
X13825Y3505D02*
D03*
Y4505D02*
D03*
M02*
