G04*
G04 #@! TF.GenerationSoftware,Altium Limited,Altium Designer,22.7.1 (60)*
G04*
G04 Layer_Color=65535*
%FSLAX43Y43*%
%MOMM*%
G71*
G04*
G04 #@! TF.SameCoordinates,DF1E0758-EE3D-4B36-99E4-D52E4057D36D*
G04*
G04*
G04 #@! TF.FilePolarity,Positive*
G04*
G01*
G75*
%ADD10C,0.200*%
%ADD11C,0.150*%
%ADD12C,0.127*%
G36*
X25371Y9405D02*
X25384Y9403D01*
X25400Y9399D01*
X25416Y9395D01*
X25433Y9388D01*
X25450Y9378D01*
X25452Y9377D01*
X25457Y9372D01*
X25464Y9367D01*
X25474Y9357D01*
X25484Y9346D01*
X25495Y9333D01*
X25505Y9316D01*
X25514Y9298D01*
X25515Y9295D01*
X25518Y9288D01*
X25521Y9277D01*
X25525Y9260D01*
X25529Y9237D01*
X25533Y9210D01*
X25535Y9178D01*
X25536Y9141D01*
Y8700D01*
X25385D01*
Y9095D01*
Y9096D01*
Y9099D01*
Y9105D01*
Y9112D01*
X25384Y9129D01*
X25383Y9151D01*
X25381Y9174D01*
X25378Y9196D01*
X25373Y9216D01*
X25370Y9224D01*
X25367Y9231D01*
X25366Y9233D01*
X25364Y9237D01*
X25359Y9243D01*
X25353Y9250D01*
X25345Y9255D01*
X25333Y9261D01*
X25321Y9265D01*
X25305Y9267D01*
X25297D01*
X25287Y9264D01*
X25275Y9261D01*
X25263Y9255D01*
X25249Y9247D01*
X25236Y9234D01*
X25223Y9219D01*
X25222Y9216D01*
X25219Y9209D01*
X25216Y9203D01*
X25213Y9196D01*
X25211Y9188D01*
X25209Y9178D01*
X25206Y9165D01*
X25204Y9153D01*
X25201Y9137D01*
X25198Y9120D01*
X25197Y9100D01*
X25195Y9079D01*
X25194Y9057D01*
Y9031D01*
Y8700D01*
X25043D01*
Y9078D01*
Y9079D01*
Y9083D01*
Y9089D01*
Y9096D01*
Y9105D01*
Y9116D01*
X25041Y9138D01*
X25040Y9162D01*
X25037Y9186D01*
X25034Y9207D01*
X25033Y9216D01*
X25030Y9223D01*
X25029Y9224D01*
X25027Y9230D01*
X25022Y9237D01*
X25016Y9246D01*
X25006Y9253D01*
X24995Y9260D01*
X24981Y9265D01*
X24964Y9267D01*
X24958D01*
X24953Y9265D01*
X24944Y9264D01*
X24934Y9261D01*
X24924Y9257D01*
X24915Y9251D01*
X24903Y9244D01*
X24902Y9243D01*
X24899Y9240D01*
X24893Y9234D01*
X24888Y9227D01*
X24881Y9219D01*
X24874Y9207D01*
X24868Y9195D01*
X24862Y9179D01*
Y9178D01*
X24861Y9171D01*
X24860Y9161D01*
X24857Y9145D01*
X24855Y9126D01*
X24853Y9100D01*
X24851Y9071D01*
Y9036D01*
Y8700D01*
X24700D01*
Y9391D01*
X24840D01*
Y9296D01*
X24841Y9299D01*
X24847Y9305D01*
X24854Y9315D01*
X24864Y9327D01*
X24875Y9340D01*
X24889Y9354D01*
X24905Y9367D01*
X24920Y9378D01*
X24922Y9379D01*
X24929Y9382D01*
X24937Y9387D01*
X24950Y9392D01*
X24964Y9398D01*
X24979Y9402D01*
X24998Y9405D01*
X25016Y9406D01*
X25026D01*
X25036Y9405D01*
X25049Y9403D01*
X25064Y9399D01*
X25080Y9395D01*
X25095Y9388D01*
X25111Y9378D01*
X25112Y9377D01*
X25118Y9372D01*
X25125Y9367D01*
X25135Y9358D01*
X25144Y9347D01*
X25156Y9333D01*
X25167Y9316D01*
X25177Y9296D01*
X25178Y9299D01*
X25184Y9305D01*
X25191Y9315D01*
X25201Y9327D01*
X25213Y9340D01*
X25226Y9354D01*
X25242Y9367D01*
X25257Y9378D01*
X25259Y9379D01*
X25264Y9382D01*
X25274Y9387D01*
X25285Y9392D01*
X25299Y9398D01*
X25315Y9402D01*
X25332Y9405D01*
X25350Y9406D01*
X25360D01*
X25371Y9405D01*
D02*
G37*
G36*
X24289Y9652D02*
X24301D01*
X24328Y9650D01*
X24358Y9646D01*
X24387Y9642D01*
X24416Y9635D01*
X24428Y9630D01*
X24440Y9626D01*
X24442Y9625D01*
X24449Y9622D01*
X24459Y9615D01*
X24472Y9605D01*
X24486Y9594D01*
X24500Y9578D01*
X24516Y9560D01*
X24530Y9537D01*
X24531Y9535D01*
X24535Y9526D01*
X24541Y9512D01*
X24548Y9495D01*
X24554Y9473D01*
X24559Y9446D01*
X24564Y9418D01*
X24565Y9385D01*
Y9384D01*
Y9381D01*
Y9374D01*
X24564Y9367D01*
Y9357D01*
X24562Y9346D01*
X24558Y9320D01*
X24552Y9292D01*
X24542Y9262D01*
X24528Y9233D01*
X24510Y9205D01*
Y9203D01*
X24507Y9202D01*
X24500Y9193D01*
X24487Y9182D01*
X24471Y9169D01*
X24449Y9154D01*
X24423Y9140D01*
X24393Y9129D01*
X24358Y9120D01*
X24361Y9119D01*
X24366Y9113D01*
X24376Y9106D01*
X24387Y9096D01*
X24400Y9085D01*
X24414Y9071D01*
X24428Y9055D01*
X24441Y9040D01*
X24442Y9038D01*
X24447Y9031D01*
X24455Y9020D01*
X24465Y9005D01*
X24478Y8983D01*
X24485Y8971D01*
X24493Y8957D01*
X24502Y8941D01*
X24511Y8924D01*
X24521Y8904D01*
X24531Y8885D01*
X24627Y8700D01*
X24437D01*
X24324Y8907D01*
Y8909D01*
X24321Y8913D01*
X24318Y8918D01*
X24314Y8926D01*
X24308Y8934D01*
X24303Y8944D01*
X24290Y8966D01*
X24276Y8990D01*
X24262Y9014D01*
X24256Y9024D01*
X24249Y9033D01*
X24244Y9041D01*
X24239Y9047D01*
X24238Y9048D01*
X24235Y9051D01*
X24231Y9057D01*
X24225Y9062D01*
X24211Y9075D01*
X24203Y9082D01*
X24193Y9086D01*
X24191D01*
X24189Y9088D01*
X24183Y9090D01*
X24175Y9092D01*
X24163Y9095D01*
X24149Y9096D01*
X24134Y9098D01*
X24083D01*
Y8700D01*
X23925D01*
Y9653D01*
X24279D01*
X24289Y9652D01*
D02*
G37*
G36*
X14675Y12484D02*
X14177D01*
X14178Y12483D01*
X14180Y12481D01*
X14183Y12478D01*
X14188Y12473D01*
X14193Y12468D01*
X14200Y12461D01*
X14207Y12453D01*
X14215Y12444D01*
X14231Y12423D01*
X14248Y12400D01*
X14264Y12372D01*
X14277Y12344D01*
X14157D01*
Y12345D01*
X14156Y12346D01*
X14154Y12352D01*
X14148Y12360D01*
X14142Y12372D01*
X14133Y12387D01*
X14122Y12402D01*
X14109Y12419D01*
X14092Y12438D01*
X14091Y12439D01*
X14090Y12440D01*
X14084Y12446D01*
X14074Y12454D01*
X14061Y12464D01*
X14046Y12475D01*
X14027Y12486D01*
X14007Y12497D01*
X13984Y12505D01*
Y12593D01*
X14675D01*
Y12484D01*
D02*
G37*
G36*
X14468Y12241D02*
X14474Y12239D01*
X14483Y12237D01*
X14492Y12234D01*
X14503Y12231D01*
X14515Y12227D01*
X14528Y12222D01*
X14556Y12209D01*
X14584Y12194D01*
X14611Y12177D01*
X14622Y12167D01*
X14633Y12155D01*
X14634Y12154D01*
X14635Y12152D01*
X14638Y12149D01*
X14641Y12144D01*
X14645Y12139D01*
X14650Y12132D01*
X14655Y12124D01*
X14660Y12115D01*
X14665Y12104D01*
X14670Y12093D01*
X14678Y12068D01*
X14684Y12039D01*
X14685Y12024D01*
X14686Y12008D01*
Y12003D01*
X14685Y11998D01*
Y11989D01*
X14683Y11980D01*
X14682Y11969D01*
X14679Y11957D01*
X14676Y11944D01*
X14671Y11929D01*
X14666Y11915D01*
X14659Y11901D01*
X14651Y11885D01*
X14640Y11870D01*
X14629Y11856D01*
X14617Y11842D01*
X14602Y11828D01*
X14601Y11827D01*
X14598Y11825D01*
X14591Y11821D01*
X14583Y11816D01*
X14574Y11810D01*
X14562Y11804D01*
X14548Y11797D01*
X14531Y11790D01*
X14514Y11782D01*
X14494Y11774D01*
X14472Y11768D01*
X14449Y11762D01*
X14423Y11757D01*
X14396Y11753D01*
X14367Y11751D01*
X14337Y11750D01*
X14336D01*
X14335D01*
X14329D01*
X14320Y11751D01*
X14308D01*
X14293Y11752D01*
X14276Y11754D01*
X14257Y11757D01*
X14237Y11760D01*
X14215Y11764D01*
X14192Y11769D01*
X14170Y11775D01*
X14146Y11784D01*
X14124Y11793D01*
X14103Y11803D01*
X14081Y11815D01*
X14062Y11829D01*
X14061Y11830D01*
X14058Y11833D01*
X14054Y11837D01*
X14049Y11842D01*
X14041Y11849D01*
X14034Y11857D01*
X14026Y11867D01*
X14018Y11878D01*
X14011Y11891D01*
X14003Y11905D01*
X13996Y11920D01*
X13988Y11936D01*
X13983Y11955D01*
X13979Y11973D01*
X13976Y11993D01*
X13975Y12015D01*
Y12024D01*
X13976Y12031D01*
X13977Y12039D01*
X13978Y12048D01*
X13980Y12059D01*
X13983Y12070D01*
X13992Y12095D01*
X13997Y12109D01*
X14003Y12122D01*
X14011Y12135D01*
X14020Y12148D01*
X14030Y12161D01*
X14041Y12174D01*
Y12175D01*
X14044Y12176D01*
X14047Y12178D01*
X14050Y12181D01*
X14055Y12185D01*
X14061Y12189D01*
X14068Y12194D01*
X14076Y12199D01*
X14085Y12204D01*
X14094Y12210D01*
X14106Y12215D01*
X14118Y12222D01*
X14132Y12227D01*
X14146Y12232D01*
X14162Y12237D01*
X14178Y12241D01*
X14211Y12128D01*
X14210D01*
X14209Y12127D01*
X14205D01*
X14201Y12126D01*
X14191Y12123D01*
X14179Y12119D01*
X14165Y12113D01*
X14150Y12104D01*
X14137Y12095D01*
X14125Y12084D01*
X14124Y12083D01*
X14120Y12079D01*
X14115Y12072D01*
X14110Y12063D01*
X14104Y12051D01*
X14100Y12039D01*
X14095Y12025D01*
X14094Y12009D01*
Y12003D01*
X14095Y11999D01*
X14097Y11987D01*
X14102Y11973D01*
X14108Y11957D01*
X14118Y11939D01*
X14124Y11931D01*
X14131Y11923D01*
X14139Y11915D01*
X14149Y11907D01*
X14150D01*
X14151Y11905D01*
X14156Y11904D01*
X14160Y11901D01*
X14166Y11898D01*
X14173Y11895D01*
X14182Y11892D01*
X14192Y11887D01*
X14203Y11883D01*
X14217Y11880D01*
X14232Y11877D01*
X14248Y11874D01*
X14266Y11872D01*
X14285Y11870D01*
X14306Y11868D01*
X14329D01*
X14330D01*
X14335D01*
X14341D01*
X14350Y11869D01*
X14360D01*
X14372Y11870D01*
X14386Y11871D01*
X14400Y11873D01*
X14431Y11877D01*
X14461Y11884D01*
X14475Y11889D01*
X14490Y11894D01*
X14502Y11900D01*
X14513Y11906D01*
X14514D01*
X14515Y11908D01*
X14521Y11913D01*
X14530Y11921D01*
X14540Y11933D01*
X14550Y11948D01*
X14559Y11964D01*
X14565Y11984D01*
X14566Y11994D01*
X14567Y12006D01*
Y12008D01*
X14566Y12013D01*
X14565Y12022D01*
X14563Y12032D01*
X14559Y12044D01*
X14553Y12058D01*
X14544Y12071D01*
X14532Y12083D01*
X14530Y12084D01*
X14525Y12088D01*
X14517Y12094D01*
X14505Y12101D01*
X14490Y12110D01*
X14470Y12117D01*
X14448Y12125D01*
X14420Y12131D01*
X14463Y12242D01*
X14464D01*
X14468Y12241D01*
D02*
G37*
G36*
X19375Y8593D02*
X19374D01*
X19371D01*
X19365Y8595D01*
X19358D01*
X19350Y8596D01*
X19340Y8599D01*
X19316Y8603D01*
X19289Y8609D01*
X19258Y8619D01*
X19226Y8630D01*
X19193Y8644D01*
X19192D01*
X19189Y8647D01*
X19185Y8648D01*
X19178Y8653D01*
X19169Y8658D01*
X19158Y8664D01*
X19147Y8672D01*
X19133Y8682D01*
X19117Y8692D01*
X19100Y8705D01*
X19082Y8717D01*
X19061Y8733D01*
X19039Y8750D01*
X19017Y8769D01*
X18992Y8789D01*
X18966Y8812D01*
X18965Y8813D01*
X18961Y8816D01*
X18955Y8822D01*
X18948Y8827D01*
X18939Y8836D01*
X18928Y8844D01*
X18904Y8864D01*
X18879Y8885D01*
X18855Y8905D01*
X18832Y8922D01*
X18822Y8929D01*
X18814Y8934D01*
X18811Y8936D01*
X18804Y8940D01*
X18793Y8946D01*
X18777Y8951D01*
X18760Y8957D01*
X18741Y8963D01*
X18719Y8967D01*
X18698Y8968D01*
X18697D01*
X18696D01*
X18688D01*
X18677Y8967D01*
X18663Y8965D01*
X18648Y8961D01*
X18632Y8957D01*
X18617Y8950D01*
X18604Y8940D01*
X18602Y8939D01*
X18598Y8934D01*
X18594Y8929D01*
X18587Y8920D01*
X18581Y8910D01*
X18577Y8898D01*
X18573Y8882D01*
X18571Y8867D01*
Y8863D01*
X18573Y8857D01*
X18574Y8851D01*
X18580Y8834D01*
X18584Y8826D01*
X18590Y8816D01*
X18598Y8806D01*
X18608Y8796D01*
X18619Y8788D01*
X18635Y8779D01*
X18652Y8772D01*
X18672Y8767D01*
X18694Y8762D01*
X18721Y8760D01*
X18701Y8610D01*
X18700D01*
X18694Y8612D01*
X18687D01*
X18677Y8613D01*
X18666Y8616D01*
X18652Y8617D01*
X18636Y8621D01*
X18619Y8626D01*
X18586Y8636D01*
X18550Y8650D01*
X18516Y8668D01*
X18502Y8678D01*
X18488Y8691D01*
X18487Y8692D01*
X18485Y8693D01*
X18481Y8698D01*
X18477Y8703D01*
X18473Y8710D01*
X18466Y8717D01*
X18453Y8738D01*
X18440Y8764D01*
X18431Y8795D01*
X18422Y8830D01*
X18421Y8850D01*
X18419Y8870D01*
Y8881D01*
X18421Y8889D01*
X18422Y8901D01*
X18423Y8912D01*
X18429Y8940D01*
X18439Y8970D01*
X18445Y8985D01*
X18453Y9001D01*
X18463Y9016D01*
X18473Y9030D01*
X18485Y9043D01*
X18500Y9056D01*
X18501Y9057D01*
X18504Y9058D01*
X18508Y9061D01*
X18514Y9066D01*
X18521Y9070D01*
X18531Y9075D01*
X18553Y9088D01*
X18580Y9099D01*
X18611Y9109D01*
X18645Y9116D01*
X18663Y9119D01*
X18683D01*
X18686D01*
X18693D01*
X18704Y9118D01*
X18719D01*
X18736Y9115D01*
X18756Y9112D01*
X18776Y9108D01*
X18797Y9102D01*
X18800D01*
X18807Y9099D01*
X18817Y9095D01*
X18831Y9091D01*
X18848Y9084D01*
X18866Y9075D01*
X18886Y9064D01*
X18907Y9053D01*
X18910Y9051D01*
X18917Y9047D01*
X18930Y9039D01*
X18945Y9027D01*
X18966Y9012D01*
X18990Y8992D01*
X19018Y8970D01*
X19049Y8943D01*
X19051Y8941D01*
X19052Y8940D01*
X19056Y8936D01*
X19062Y8932D01*
X19076Y8919D01*
X19093Y8905D01*
X19111Y8889D01*
X19128Y8874D01*
X19144Y8861D01*
X19156Y8851D01*
X19158Y8850D01*
X19161Y8848D01*
X19166Y8844D01*
X19172Y8840D01*
X19188Y8830D01*
X19206Y8820D01*
Y9119D01*
X19375D01*
Y8593D01*
D02*
G37*
G36*
X19089Y8510D02*
X19097Y8507D01*
X19109Y8504D01*
X19121Y8500D01*
X19137Y8496D01*
X19154Y8490D01*
X19172Y8483D01*
X19210Y8466D01*
X19250Y8445D01*
X19286Y8421D01*
X19302Y8407D01*
X19317Y8392D01*
X19319Y8390D01*
X19320Y8387D01*
X19324Y8383D01*
X19328Y8376D01*
X19334Y8369D01*
X19340Y8359D01*
X19347Y8348D01*
X19354Y8335D01*
X19361Y8321D01*
X19368Y8306D01*
X19379Y8270D01*
X19388Y8231D01*
X19389Y8210D01*
X19391Y8187D01*
Y8180D01*
X19389Y8173D01*
Y8162D01*
X19386Y8149D01*
X19385Y8134D01*
X19381Y8117D01*
X19376Y8098D01*
X19369Y8079D01*
X19362Y8059D01*
X19352Y8039D01*
X19341Y8018D01*
X19327Y7997D01*
X19312Y7977D01*
X19295Y7958D01*
X19274Y7939D01*
X19272Y7938D01*
X19268Y7935D01*
X19259Y7929D01*
X19248Y7922D01*
X19235Y7914D01*
X19219Y7905D01*
X19199Y7895D01*
X19176Y7886D01*
X19152Y7874D01*
X19124Y7864D01*
X19094Y7856D01*
X19062Y7848D01*
X19027Y7841D01*
X18989Y7835D01*
X18949Y7832D01*
X18907Y7831D01*
X18906D01*
X18904D01*
X18896D01*
X18883Y7832D01*
X18868D01*
X18846Y7833D01*
X18822Y7836D01*
X18797Y7841D01*
X18769Y7845D01*
X18738Y7850D01*
X18707Y7857D01*
X18676Y7866D01*
X18643Y7877D01*
X18612Y7890D01*
X18583Y7904D01*
X18553Y7921D01*
X18526Y7941D01*
X18525Y7942D01*
X18521Y7945D01*
X18515Y7950D01*
X18508Y7958D01*
X18498Y7967D01*
X18488Y7979D01*
X18477Y7993D01*
X18466Y8008D01*
X18456Y8025D01*
X18445Y8045D01*
X18435Y8066D01*
X18425Y8089D01*
X18418Y8114D01*
X18412Y8139D01*
X18408Y8168D01*
X18407Y8197D01*
Y8210D01*
X18408Y8220D01*
X18409Y8231D01*
X18411Y8244D01*
X18414Y8258D01*
X18418Y8273D01*
X18429Y8309D01*
X18436Y8327D01*
X18445Y8345D01*
X18456Y8364D01*
X18469Y8382D01*
X18483Y8400D01*
X18498Y8417D01*
Y8418D01*
X18501Y8420D01*
X18505Y8423D01*
X18509Y8427D01*
X18516Y8433D01*
X18525Y8438D01*
X18535Y8445D01*
X18546Y8452D01*
X18559Y8459D01*
X18571Y8468D01*
X18587Y8475D01*
X18604Y8483D01*
X18624Y8490D01*
X18643Y8497D01*
X18665Y8504D01*
X18687Y8510D01*
X18732Y8354D01*
X18731D01*
X18729Y8352D01*
X18725D01*
X18719Y8351D01*
X18705Y8347D01*
X18688Y8341D01*
X18669Y8333D01*
X18649Y8321D01*
X18631Y8309D01*
X18614Y8293D01*
X18612Y8292D01*
X18607Y8286D01*
X18600Y8276D01*
X18593Y8263D01*
X18584Y8248D01*
X18579Y8231D01*
X18573Y8211D01*
X18571Y8189D01*
Y8180D01*
X18573Y8175D01*
X18576Y8159D01*
X18581Y8139D01*
X18590Y8117D01*
X18604Y8093D01*
X18612Y8082D01*
X18622Y8070D01*
X18633Y8059D01*
X18648Y8048D01*
X18649D01*
X18650Y8045D01*
X18656Y8044D01*
X18662Y8039D01*
X18670Y8035D01*
X18680Y8031D01*
X18693Y8027D01*
X18707Y8021D01*
X18722Y8015D01*
X18741Y8011D01*
X18762Y8007D01*
X18784Y8003D01*
X18808Y8000D01*
X18835Y7997D01*
X18865Y7994D01*
X18896D01*
X18897D01*
X18904D01*
X18913D01*
X18925Y7996D01*
X18939D01*
X18956Y7997D01*
X18975Y7998D01*
X18994Y8001D01*
X19037Y8007D01*
X19079Y8017D01*
X19099Y8022D01*
X19118Y8029D01*
X19135Y8038D01*
X19151Y8046D01*
X19152D01*
X19154Y8049D01*
X19162Y8056D01*
X19175Y8067D01*
X19188Y8084D01*
X19202Y8104D01*
X19214Y8127D01*
X19223Y8155D01*
X19224Y8169D01*
X19226Y8184D01*
Y8187D01*
X19224Y8194D01*
X19223Y8207D01*
X19220Y8221D01*
X19214Y8238D01*
X19206Y8256D01*
X19193Y8275D01*
X19178Y8292D01*
X19175Y8293D01*
X19168Y8299D01*
X19156Y8307D01*
X19140Y8317D01*
X19118Y8328D01*
X19092Y8338D01*
X19061Y8349D01*
X19023Y8358D01*
X19082Y8512D01*
X19083D01*
X19089Y8510D01*
D02*
G37*
G36*
X19136Y7321D02*
X19148Y7319D01*
X19160Y7318D01*
X19174Y7315D01*
X19191Y7312D01*
X19225Y7302D01*
X19260Y7288D01*
X19279Y7280D01*
X19297Y7270D01*
X19314Y7257D01*
X19331Y7243D01*
X19332Y7242D01*
X19335Y7240D01*
X19339Y7235D01*
X19344Y7229D01*
X19351Y7222D01*
X19358Y7213D01*
X19373Y7191D01*
X19389Y7164D01*
X19403Y7133D01*
X19407Y7115D01*
X19411Y7096D01*
X19414Y7078D01*
X19416Y7058D01*
Y7048D01*
X19414Y7041D01*
X19413Y7033D01*
X19411Y7022D01*
X19407Y6998D01*
X19399Y6971D01*
X19384Y6941D01*
X19377Y6926D01*
X19368Y6912D01*
X19356Y6898D01*
X19344Y6884D01*
X19342Y6882D01*
X19341Y6881D01*
X19337Y6876D01*
X19331Y6872D01*
X19322Y6867D01*
X19314Y6861D01*
X19304Y6854D01*
X19291Y6847D01*
X19279Y6840D01*
X19263Y6833D01*
X19248Y6826D01*
X19229Y6819D01*
X19191Y6809D01*
X19146Y6802D01*
X19125Y6947D01*
X19127D01*
X19128D01*
X19136Y6948D01*
X19148Y6950D01*
X19163Y6954D01*
X19180Y6958D01*
X19197Y6965D01*
X19214Y6974D01*
X19228Y6984D01*
X19229Y6985D01*
X19234Y6989D01*
X19239Y6996D01*
X19245Y7005D01*
X19252Y7015D01*
X19258Y7027D01*
X19262Y7041D01*
X19263Y7057D01*
Y7065D01*
X19260Y7074D01*
X19258Y7084D01*
X19253Y7096D01*
X19246Y7110D01*
X19236Y7123D01*
X19222Y7136D01*
X19221Y7137D01*
X19214Y7141D01*
X19205Y7146D01*
X19191Y7153D01*
X19176Y7158D01*
X19155Y7163D01*
X19132Y7167D01*
X19105Y7168D01*
X19104D01*
X19103D01*
X19094D01*
X19081Y7167D01*
X19066Y7164D01*
X19049Y7161D01*
X19031Y7156D01*
X19012Y7147D01*
X18997Y7137D01*
X18995Y7136D01*
X18990Y7132D01*
X18984Y7125D01*
X18976Y7116D01*
X18969Y7105D01*
X18962Y7092D01*
X18957Y7078D01*
X18956Y7063D01*
Y7051D01*
X18957Y7044D01*
X18959Y7034D01*
X18962Y7022D01*
X18966Y7009D01*
X18970Y6995D01*
X18821Y7010D01*
Y7020D01*
X18819Y7032D01*
X18818Y7044D01*
X18814Y7060D01*
X18809Y7075D01*
X18801Y7089D01*
X18791Y7103D01*
X18790Y7105D01*
X18785Y7109D01*
X18777Y7115D01*
X18767Y7120D01*
X18754Y7126D01*
X18739Y7132D01*
X18721Y7136D01*
X18699Y7137D01*
X18697D01*
X18691D01*
X18682Y7136D01*
X18671Y7134D01*
X18660Y7132D01*
X18647Y7126D01*
X18635Y7120D01*
X18623Y7112D01*
X18622Y7110D01*
X18619Y7108D01*
X18615Y7102D01*
X18609Y7095D01*
X18604Y7087D01*
X18599Y7075D01*
X18596Y7063D01*
X18595Y7048D01*
Y7043D01*
X18596Y7034D01*
X18599Y7026D01*
X18604Y7016D01*
X18609Y7005D01*
X18616Y6993D01*
X18627Y6982D01*
X18629Y6981D01*
X18633Y6978D01*
X18642Y6974D01*
X18651Y6968D01*
X18664Y6962D01*
X18681Y6957D01*
X18699Y6953D01*
X18722Y6950D01*
X18694Y6812D01*
X18692D01*
X18688Y6813D01*
X18681Y6814D01*
X18673Y6816D01*
X18661Y6819D01*
X18650Y6821D01*
X18622Y6830D01*
X18591Y6841D01*
X18560Y6855D01*
X18530Y6874D01*
X18516Y6884D01*
X18505Y6895D01*
X18503Y6896D01*
X18502Y6898D01*
X18495Y6906D01*
X18485Y6920D01*
X18474Y6938D01*
X18464Y6961D01*
X18454Y6989D01*
X18447Y7020D01*
X18444Y7037D01*
Y7064D01*
X18446Y7072D01*
X18447Y7081D01*
X18448Y7091D01*
X18454Y7116D01*
X18463Y7143D01*
X18477Y7171D01*
X18485Y7185D01*
X18495Y7199D01*
X18506Y7212D01*
X18520Y7225D01*
X18522Y7226D01*
X18523Y7227D01*
X18527Y7230D01*
X18533Y7235D01*
X18540Y7239D01*
X18549Y7244D01*
X18570Y7257D01*
X18595Y7268D01*
X18623Y7278D01*
X18654Y7285D01*
X18671Y7288D01*
X18688D01*
X18691D01*
X18698D01*
X18711Y7287D01*
X18725Y7284D01*
X18743Y7281D01*
X18761Y7275D01*
X18781Y7268D01*
X18801Y7258D01*
X18804Y7257D01*
X18809Y7253D01*
X18818Y7247D01*
X18830Y7237D01*
X18843Y7226D01*
X18859Y7211D01*
X18874Y7194D01*
X18888Y7174D01*
Y7175D01*
X18890Y7177D01*
X18893Y7185D01*
X18897Y7196D01*
X18904Y7212D01*
X18915Y7229D01*
X18928Y7246D01*
X18945Y7263D01*
X18966Y7280D01*
X18969Y7281D01*
X18977Y7287D01*
X18990Y7294D01*
X19007Y7301D01*
X19028Y7309D01*
X19053Y7315D01*
X19083Y7321D01*
X19115Y7322D01*
X19117D01*
X19121D01*
X19128D01*
X19136Y7321D01*
D02*
G37*
G36*
X19114Y6704D02*
X19122Y6702D01*
X19134Y6699D01*
X19146Y6695D01*
X19162Y6690D01*
X19179Y6685D01*
X19197Y6678D01*
X19235Y6661D01*
X19275Y6640D01*
X19311Y6616D01*
X19327Y6602D01*
X19342Y6586D01*
X19344Y6585D01*
X19345Y6582D01*
X19349Y6578D01*
X19353Y6571D01*
X19359Y6563D01*
X19365Y6554D01*
X19372Y6542D01*
X19379Y6530D01*
X19386Y6516D01*
X19393Y6500D01*
X19404Y6465D01*
X19413Y6425D01*
X19414Y6404D01*
X19416Y6382D01*
Y6375D01*
X19414Y6368D01*
Y6356D01*
X19411Y6344D01*
X19410Y6328D01*
X19406Y6311D01*
X19401Y6293D01*
X19394Y6273D01*
X19387Y6253D01*
X19377Y6234D01*
X19366Y6212D01*
X19352Y6191D01*
X19337Y6172D01*
X19320Y6152D01*
X19299Y6134D01*
X19297Y6132D01*
X19293Y6129D01*
X19284Y6124D01*
X19273Y6117D01*
X19260Y6108D01*
X19244Y6100D01*
X19224Y6090D01*
X19201Y6080D01*
X19177Y6069D01*
X19149Y6059D01*
X19119Y6050D01*
X19087Y6042D01*
X19052Y6035D01*
X19014Y6029D01*
X18974Y6026D01*
X18932Y6025D01*
X18931D01*
X18929D01*
X18921D01*
X18908Y6026D01*
X18893D01*
X18871Y6028D01*
X18847Y6031D01*
X18822Y6035D01*
X18794Y6039D01*
X18763Y6045D01*
X18732Y6052D01*
X18701Y6060D01*
X18668Y6072D01*
X18637Y6084D01*
X18608Y6098D01*
X18578Y6115D01*
X18551Y6135D01*
X18550Y6136D01*
X18546Y6139D01*
X18540Y6145D01*
X18533Y6152D01*
X18523Y6162D01*
X18513Y6173D01*
X18502Y6187D01*
X18491Y6203D01*
X18481Y6220D01*
X18470Y6239D01*
X18460Y6260D01*
X18450Y6283D01*
X18443Y6308D01*
X18437Y6334D01*
X18433Y6362D01*
X18432Y6392D01*
Y6404D01*
X18433Y6414D01*
X18434Y6425D01*
X18436Y6438D01*
X18439Y6452D01*
X18443Y6468D01*
X18454Y6503D01*
X18461Y6521D01*
X18470Y6540D01*
X18481Y6558D01*
X18494Y6576D01*
X18508Y6595D01*
X18523Y6611D01*
Y6613D01*
X18526Y6614D01*
X18530Y6617D01*
X18534Y6621D01*
X18541Y6627D01*
X18550Y6633D01*
X18560Y6640D01*
X18571Y6647D01*
X18584Y6654D01*
X18596Y6662D01*
X18612Y6669D01*
X18629Y6678D01*
X18649Y6685D01*
X18668Y6692D01*
X18690Y6699D01*
X18712Y6704D01*
X18757Y6548D01*
X18756D01*
X18754Y6547D01*
X18750D01*
X18744Y6545D01*
X18730Y6541D01*
X18713Y6535D01*
X18694Y6527D01*
X18674Y6516D01*
X18656Y6503D01*
X18639Y6487D01*
X18637Y6486D01*
X18632Y6480D01*
X18625Y6470D01*
X18618Y6458D01*
X18609Y6442D01*
X18604Y6425D01*
X18598Y6406D01*
X18596Y6383D01*
Y6375D01*
X18598Y6369D01*
X18601Y6353D01*
X18606Y6334D01*
X18615Y6311D01*
X18629Y6287D01*
X18637Y6276D01*
X18647Y6265D01*
X18659Y6253D01*
X18673Y6242D01*
X18674D01*
X18675Y6239D01*
X18681Y6238D01*
X18687Y6234D01*
X18695Y6229D01*
X18705Y6225D01*
X18718Y6221D01*
X18732Y6215D01*
X18747Y6210D01*
X18766Y6205D01*
X18787Y6201D01*
X18809Y6197D01*
X18833Y6194D01*
X18860Y6191D01*
X18890Y6189D01*
X18921D01*
X18922D01*
X18929D01*
X18938D01*
X18950Y6190D01*
X18964D01*
X18981Y6191D01*
X19000Y6193D01*
X19019Y6196D01*
X19062Y6201D01*
X19104Y6211D01*
X19124Y6217D01*
X19143Y6224D01*
X19160Y6232D01*
X19176Y6241D01*
X19177D01*
X19179Y6244D01*
X19187Y6251D01*
X19200Y6262D01*
X19213Y6279D01*
X19227Y6298D01*
X19239Y6321D01*
X19248Y6349D01*
X19249Y6363D01*
X19251Y6379D01*
Y6382D01*
X19249Y6389D01*
X19248Y6401D01*
X19245Y6415D01*
X19239Y6432D01*
X19231Y6451D01*
X19218Y6469D01*
X19203Y6486D01*
X19200Y6487D01*
X19193Y6493D01*
X19181Y6501D01*
X19165Y6511D01*
X19143Y6523D01*
X19117Y6532D01*
X19086Y6544D01*
X19048Y6552D01*
X19107Y6706D01*
X19108D01*
X19114Y6704D01*
D02*
G37*
G36*
X8143Y7851D02*
X8154Y7850D01*
X8166Y7849D01*
X8180Y7846D01*
X8196Y7842D01*
X8230Y7831D01*
X8248Y7824D01*
X8266Y7815D01*
X8284Y7804D01*
X8302Y7792D01*
X8320Y7778D01*
X8337Y7763D01*
X8338D01*
X8340Y7760D01*
X8343Y7756D01*
X8347Y7752D01*
X8352Y7745D01*
X8358Y7736D01*
X8365Y7727D01*
X8372Y7715D01*
X8379Y7703D01*
X8387Y7690D01*
X8394Y7675D01*
X8402Y7659D01*
X8409Y7639D01*
X8416Y7620D01*
X8423Y7599D01*
X8429Y7577D01*
X8275Y7532D01*
Y7534D01*
X8273Y7535D01*
Y7539D01*
X8272Y7545D01*
X8268Y7559D01*
X8262Y7575D01*
X8254Y7595D01*
X8243Y7614D01*
X8230Y7632D01*
X8215Y7649D01*
X8214Y7650D01*
X8208Y7656D01*
X8198Y7663D01*
X8186Y7670D01*
X8171Y7678D01*
X8154Y7684D01*
X8134Y7689D01*
X8112Y7690D01*
X8104D01*
X8098Y7689D01*
X8083Y7686D01*
X8064Y7681D01*
X8042Y7672D01*
X8018Y7659D01*
X8007Y7650D01*
X7996Y7641D01*
X7985Y7629D01*
X7974Y7616D01*
Y7614D01*
X7971Y7613D01*
X7969Y7607D01*
X7965Y7602D01*
X7961Y7593D01*
X7957Y7584D01*
X7953Y7571D01*
X7947Y7557D01*
X7942Y7542D01*
X7938Y7524D01*
X7933Y7503D01*
X7929Y7481D01*
X7926Y7458D01*
X7924Y7431D01*
X7921Y7402D01*
Y7372D01*
Y7370D01*
Y7363D01*
Y7355D01*
X7922Y7342D01*
Y7329D01*
X7924Y7312D01*
X7925Y7294D01*
X7928Y7274D01*
X7933Y7233D01*
X7943Y7191D01*
X7949Y7172D01*
X7956Y7152D01*
X7964Y7136D01*
X7972Y7121D01*
Y7119D01*
X7975Y7118D01*
X7982Y7109D01*
X7993Y7097D01*
X8010Y7084D01*
X8029Y7071D01*
X8051Y7058D01*
X8079Y7050D01*
X8093Y7048D01*
X8108Y7047D01*
X8111D01*
X8118Y7048D01*
X8130Y7050D01*
X8144Y7053D01*
X8161Y7058D01*
X8179Y7066D01*
X8197Y7079D01*
X8214Y7094D01*
X8215Y7097D01*
X8220Y7104D01*
X8229Y7115D01*
X8239Y7132D01*
X8250Y7152D01*
X8259Y7179D01*
X8270Y7209D01*
X8279Y7247D01*
X8430Y7188D01*
Y7187D01*
X8429Y7182D01*
X8426Y7173D01*
X8423Y7162D01*
X8419Y7150D01*
X8415Y7134D01*
X8409Y7118D01*
X8402Y7100D01*
X8386Y7062D01*
X8365Y7023D01*
X8341Y6987D01*
X8327Y6972D01*
X8312Y6957D01*
X8311Y6955D01*
X8308Y6954D01*
X8304Y6950D01*
X8297Y6946D01*
X8290Y6940D01*
X8280Y6935D01*
X8269Y6928D01*
X8257Y6921D01*
X8243Y6914D01*
X8227Y6907D01*
X8193Y6896D01*
X8154Y6888D01*
X8133Y6886D01*
X8111Y6885D01*
X8104D01*
X8097Y6886D01*
X8086D01*
X8073Y6889D01*
X8058Y6890D01*
X8042Y6894D01*
X8024Y6899D01*
X8004Y6906D01*
X7985Y6912D01*
X7965Y6922D01*
X7944Y6933D01*
X7924Y6947D01*
X7904Y6962D01*
X7885Y6979D01*
X7867Y7000D01*
X7865Y7001D01*
X7863Y7005D01*
X7857Y7014D01*
X7850Y7025D01*
X7842Y7037D01*
X7834Y7054D01*
X7824Y7073D01*
X7814Y7096D01*
X7803Y7119D01*
X7793Y7147D01*
X7785Y7176D01*
X7777Y7208D01*
X7770Y7243D01*
X7764Y7280D01*
X7761Y7319D01*
X7760Y7360D01*
Y7362D01*
Y7363D01*
Y7372D01*
X7761Y7384D01*
Y7399D01*
X7763Y7420D01*
X7766Y7444D01*
X7770Y7469D01*
X7774Y7496D01*
X7779Y7527D01*
X7786Y7557D01*
X7795Y7588D01*
X7806Y7620D01*
X7818Y7650D01*
X7832Y7679D01*
X7849Y7709D01*
X7868Y7735D01*
X7870Y7736D01*
X7872Y7740D01*
X7878Y7746D01*
X7885Y7753D01*
X7895Y7763D01*
X7906Y7772D01*
X7920Y7783D01*
X7935Y7795D01*
X7951Y7804D01*
X7971Y7815D01*
X7992Y7825D01*
X8014Y7835D01*
X8039Y7842D01*
X8064Y7847D01*
X8092Y7851D01*
X8121Y7853D01*
X8133D01*
X8143Y7851D01*
D02*
G37*
G36*
X8961Y7247D02*
X9057D01*
Y7089D01*
X8961D01*
Y6900D01*
X8818D01*
Y7089D01*
X8503D01*
Y7245D01*
X8836Y7840D01*
X8961D01*
Y7247D01*
D02*
G37*
G36*
X10623Y7326D02*
X10634Y7325D01*
X10647Y7324D01*
X10661Y7321D01*
X10676Y7317D01*
X10711Y7306D01*
X10729Y7299D01*
X10747Y7290D01*
X10765Y7279D01*
X10783Y7267D01*
X10801Y7253D01*
X10818Y7238D01*
X10819D01*
X10820Y7235D01*
X10823Y7231D01*
X10827Y7227D01*
X10833Y7220D01*
X10838Y7211D01*
X10845Y7202D01*
X10852Y7190D01*
X10859Y7178D01*
X10867Y7166D01*
X10874Y7150D01*
X10883Y7134D01*
X10890Y7114D01*
X10897Y7095D01*
X10903Y7074D01*
X10909Y7052D01*
X10755Y7007D01*
Y7009D01*
X10754Y7010D01*
Y7014D01*
X10752Y7020D01*
X10748Y7034D01*
X10743Y7050D01*
X10734Y7070D01*
X10723Y7089D01*
X10711Y7107D01*
X10695Y7124D01*
X10694Y7125D01*
X10689Y7131D01*
X10679Y7138D01*
X10666Y7145D01*
X10651Y7153D01*
X10634Y7159D01*
X10615Y7164D01*
X10593Y7166D01*
X10585D01*
X10579Y7164D01*
X10564Y7161D01*
X10544Y7156D01*
X10522Y7147D01*
X10499Y7134D01*
X10487Y7125D01*
X10476Y7116D01*
X10465Y7104D01*
X10454Y7091D01*
Y7089D01*
X10451Y7088D01*
X10450Y7082D01*
X10446Y7077D01*
X10442Y7068D01*
X10438Y7059D01*
X10433Y7046D01*
X10428Y7032D01*
X10422Y7017D01*
X10418Y6999D01*
X10414Y6978D01*
X10410Y6956D01*
X10407Y6933D01*
X10404Y6906D01*
X10401Y6877D01*
Y6847D01*
Y6845D01*
Y6838D01*
Y6830D01*
X10403Y6817D01*
Y6804D01*
X10404Y6787D01*
X10406Y6769D01*
X10408Y6749D01*
X10414Y6708D01*
X10424Y6666D01*
X10429Y6647D01*
X10436Y6627D01*
X10444Y6611D01*
X10453Y6596D01*
Y6594D01*
X10456Y6593D01*
X10462Y6584D01*
X10474Y6572D01*
X10490Y6559D01*
X10510Y6546D01*
X10532Y6533D01*
X10560Y6525D01*
X10573Y6523D01*
X10589Y6522D01*
X10591D01*
X10598Y6523D01*
X10611Y6525D01*
X10625Y6528D01*
X10641Y6533D01*
X10659Y6541D01*
X10677Y6554D01*
X10694Y6569D01*
X10695Y6572D01*
X10701Y6579D01*
X10709Y6590D01*
X10719Y6607D01*
X10730Y6627D01*
X10740Y6654D01*
X10751Y6684D01*
X10759Y6722D01*
X10910Y6663D01*
Y6662D01*
X10909Y6657D01*
X10906Y6648D01*
X10903Y6637D01*
X10899Y6625D01*
X10895Y6609D01*
X10890Y6593D01*
X10883Y6575D01*
X10866Y6537D01*
X10845Y6498D01*
X10822Y6462D01*
X10808Y6447D01*
X10793Y6432D01*
X10791Y6430D01*
X10788Y6429D01*
X10784Y6425D01*
X10777Y6421D01*
X10770Y6415D01*
X10761Y6410D01*
X10750Y6403D01*
X10737Y6396D01*
X10723Y6389D01*
X10708Y6382D01*
X10673Y6371D01*
X10634Y6363D01*
X10614Y6361D01*
X10591Y6360D01*
X10585D01*
X10578Y6361D01*
X10566D01*
X10554Y6364D01*
X10539Y6365D01*
X10522Y6369D01*
X10504Y6374D01*
X10485Y6381D01*
X10465Y6387D01*
X10446Y6397D01*
X10425Y6408D01*
X10404Y6422D01*
X10385Y6437D01*
X10365Y6454D01*
X10347Y6475D01*
X10346Y6476D01*
X10343Y6480D01*
X10338Y6489D01*
X10331Y6500D01*
X10322Y6512D01*
X10314Y6529D01*
X10304Y6548D01*
X10295Y6571D01*
X10284Y6594D01*
X10274Y6622D01*
X10266Y6651D01*
X10257Y6683D01*
X10250Y6718D01*
X10245Y6755D01*
X10242Y6794D01*
X10241Y6835D01*
Y6837D01*
Y6838D01*
Y6847D01*
X10242Y6859D01*
Y6874D01*
X10243Y6895D01*
X10246Y6919D01*
X10250Y6944D01*
X10254Y6971D01*
X10260Y7002D01*
X10267Y7032D01*
X10275Y7063D01*
X10286Y7095D01*
X10299Y7125D01*
X10313Y7154D01*
X10329Y7184D01*
X10349Y7210D01*
X10350Y7211D01*
X10353Y7215D01*
X10358Y7221D01*
X10365Y7228D01*
X10375Y7238D01*
X10386Y7247D01*
X10400Y7258D01*
X10415Y7270D01*
X10432Y7279D01*
X10451Y7290D01*
X10472Y7300D01*
X10494Y7310D01*
X10519Y7317D01*
X10544Y7322D01*
X10572Y7326D01*
X10601Y7328D01*
X10614D01*
X10623Y7326D01*
D02*
G37*
G36*
X11494Y7132D02*
X11217D01*
X11192Y6971D01*
X11195Y6973D01*
X11200Y6977D01*
X11210Y6981D01*
X11224Y6988D01*
X11239Y6994D01*
X11256Y6998D01*
X11274Y7002D01*
X11293Y7003D01*
X11302D01*
X11308Y7002D01*
X11317Y7000D01*
X11325Y6999D01*
X11347Y6995D01*
X11371Y6985D01*
X11397Y6973D01*
X11411Y6964D01*
X11424Y6955D01*
X11436Y6944D01*
X11449Y6931D01*
X11450Y6930D01*
X11453Y6927D01*
X11455Y6921D01*
X11461Y6914D01*
X11467Y6905D01*
X11473Y6894D01*
X11482Y6881D01*
X11489Y6867D01*
X11496Y6851D01*
X11504Y6833D01*
X11511Y6812D01*
X11516Y6791D01*
X11522Y6767D01*
X11526Y6744D01*
X11528Y6718D01*
X11529Y6690D01*
Y6688D01*
Y6684D01*
Y6677D01*
X11528Y6669D01*
Y6658D01*
X11525Y6645D01*
X11523Y6632D01*
X11521Y6615D01*
X11512Y6580D01*
X11500Y6541D01*
X11491Y6522D01*
X11483Y6503D01*
X11472Y6482D01*
X11460Y6462D01*
X11458Y6461D01*
X11457Y6458D01*
X11453Y6453D01*
X11447Y6446D01*
X11440Y6439D01*
X11432Y6430D01*
X11421Y6421D01*
X11410Y6411D01*
X11397Y6401D01*
X11382Y6392D01*
X11367Y6383D01*
X11349Y6376D01*
X11331Y6369D01*
X11310Y6364D01*
X11289Y6361D01*
X11265Y6360D01*
X11256D01*
X11249Y6361D01*
X11240D01*
X11229Y6364D01*
X11206Y6368D01*
X11179Y6376D01*
X11150Y6387D01*
X11123Y6404D01*
X11109Y6415D01*
X11095Y6426D01*
X11093Y6428D01*
X11092Y6429D01*
X11088Y6433D01*
X11084Y6439D01*
X11078Y6446D01*
X11073Y6454D01*
X11066Y6464D01*
X11059Y6475D01*
X11052Y6487D01*
X11045Y6503D01*
X11038Y6518D01*
X11031Y6534D01*
X11026Y6553D01*
X11020Y6573D01*
X11013Y6616D01*
X11160Y6636D01*
Y6633D01*
X11161Y6626D01*
X11164Y6614D01*
X11167Y6600D01*
X11171Y6584D01*
X11178Y6569D01*
X11186Y6553D01*
X11197Y6539D01*
X11199Y6537D01*
X11203Y6533D01*
X11210Y6528D01*
X11218Y6522D01*
X11228Y6515D01*
X11240Y6510D01*
X11253Y6505D01*
X11267Y6504D01*
X11268D01*
X11275Y6505D01*
X11283Y6507D01*
X11293Y6510D01*
X11306Y6515D01*
X11320Y6523D01*
X11332Y6533D01*
X11344Y6548D01*
X11346Y6551D01*
X11350Y6557D01*
X11356Y6568D01*
X11361Y6582D01*
X11367Y6601D01*
X11372Y6625D01*
X11376Y6654D01*
X11378Y6686D01*
Y6687D01*
Y6690D01*
Y6694D01*
Y6701D01*
X11376Y6716D01*
X11374Y6736D01*
X11369Y6756D01*
X11364Y6779D01*
X11356Y6798D01*
X11344Y6816D01*
X11343Y6817D01*
X11339Y6823D01*
X11332Y6830D01*
X11322Y6838D01*
X11311Y6845D01*
X11296Y6852D01*
X11281Y6858D01*
X11263Y6859D01*
X11260D01*
X11252Y6858D01*
X11240Y6855D01*
X11225Y6851D01*
X11207Y6842D01*
X11188Y6830D01*
X11178Y6823D01*
X11168Y6813D01*
X11159Y6804D01*
X11149Y6791D01*
X11030Y6812D01*
X11105Y7300D01*
X11494D01*
Y7132D01*
D02*
G37*
G36*
X14044Y7299D02*
X14057Y7298D01*
X14073Y7296D01*
X14088Y7295D01*
X14106Y7292D01*
X14143Y7282D01*
X14183Y7269D01*
X14202Y7261D01*
X14221Y7251D01*
X14239Y7240D01*
X14256Y7227D01*
X14257Y7226D01*
X14260Y7224D01*
X14264Y7220D01*
X14269Y7214D01*
X14276Y7207D01*
X14283Y7199D01*
X14298Y7178D01*
X14314Y7152D01*
X14328Y7121D01*
X14332Y7104D01*
X14336Y7086D01*
X14339Y7068D01*
X14340Y7048D01*
Y7042D01*
X14339Y7037D01*
Y7028D01*
X14338Y7018D01*
X14335Y7007D01*
X14326Y6980D01*
X14321Y6965D01*
X14314Y6949D01*
X14305Y6932D01*
X14294Y6917D01*
X14281Y6900D01*
X14267Y6885D01*
X14250Y6869D01*
X14231Y6853D01*
X14229Y6852D01*
X14225Y6851D01*
X14218Y6846D01*
X14209Y6842D01*
X14197Y6837D01*
X14181Y6830D01*
X14164Y6822D01*
X14143Y6815D01*
X14119Y6808D01*
X14091Y6801D01*
X14061Y6796D01*
X14028Y6789D01*
X13991Y6784D01*
X13951Y6780D01*
X13908Y6779D01*
X13861Y6777D01*
X13860D01*
X13858D01*
X13850D01*
X13836D01*
X13819Y6779D01*
X13796Y6780D01*
X13772Y6782D01*
X13746Y6784D01*
X13716Y6787D01*
X13654Y6797D01*
X13592Y6811D01*
X13562Y6820D01*
X13534Y6831D01*
X13507Y6842D01*
X13485Y6856D01*
X13483Y6858D01*
X13479Y6861D01*
X13474Y6865D01*
X13466Y6870D01*
X13458Y6879D01*
X13448Y6889D01*
X13438Y6900D01*
X13427Y6913D01*
X13416Y6927D01*
X13406Y6942D01*
X13388Y6978D01*
X13380Y6997D01*
X13373Y7017D01*
X13371Y7040D01*
X13369Y7062D01*
Y7071D01*
X13371Y7076D01*
X13372Y7093D01*
X13376Y7113D01*
X13383Y7137D01*
X13395Y7161D01*
X13409Y7186D01*
X13428Y7209D01*
X13431Y7212D01*
X13440Y7219D01*
X13454Y7228D01*
X13472Y7241D01*
X13498Y7254D01*
X13529Y7267D01*
X13564Y7276D01*
X13606Y7285D01*
X13626Y7140D01*
X13624D01*
X13622D01*
X13616Y7138D01*
X13609Y7137D01*
X13592Y7133D01*
X13572Y7124D01*
X13554Y7114D01*
X13537Y7099D01*
X13530Y7089D01*
X13524Y7079D01*
X13521Y7066D01*
X13520Y7054D01*
Y7052D01*
X13521Y7045D01*
X13523Y7037D01*
X13527Y7025D01*
X13533Y7013D01*
X13543Y7000D01*
X13555Y6986D01*
X13574Y6973D01*
X13576Y6972D01*
X13579Y6971D01*
X13585Y6968D01*
X13591Y6966D01*
X13599Y6962D01*
X13609Y6959D01*
X13620Y6956D01*
X13634Y6952D01*
X13650Y6949D01*
X13668Y6945D01*
X13688Y6942D01*
X13709Y6939D01*
X13733Y6937D01*
X13760Y6934D01*
X13789Y6932D01*
X13788Y6934D01*
X13782Y6938D01*
X13775Y6944D01*
X13767Y6951D01*
X13757Y6961D01*
X13747Y6971D01*
X13737Y6982D01*
X13729Y6994D01*
X13727Y6996D01*
X13726Y7000D01*
X13722Y7009D01*
X13717Y7017D01*
X13715Y7028D01*
X13710Y7042D01*
X13709Y7056D01*
X13708Y7072D01*
Y7080D01*
X13709Y7088D01*
X13710Y7096D01*
X13712Y7104D01*
X13719Y7127D01*
X13729Y7151D01*
X13736Y7165D01*
X13744Y7178D01*
X13754Y7192D01*
X13765Y7205D01*
X13778Y7219D01*
X13794Y7231D01*
X13795Y7233D01*
X13798Y7234D01*
X13802Y7238D01*
X13809Y7243D01*
X13818Y7247D01*
X13827Y7254D01*
X13840Y7260D01*
X13854Y7267D01*
X13870Y7272D01*
X13887Y7279D01*
X13905Y7285D01*
X13925Y7289D01*
X13947Y7295D01*
X13970Y7298D01*
X13995Y7299D01*
X14021Y7300D01*
X14022D01*
X14028D01*
X14035D01*
X14044Y7299D01*
D02*
G37*
G36*
X14039Y6674D02*
X14047Y6672D01*
X14059Y6669D01*
X14071Y6665D01*
X14087Y6660D01*
X14104Y6655D01*
X14122Y6648D01*
X14160Y6631D01*
X14200Y6610D01*
X14236Y6586D01*
X14252Y6572D01*
X14267Y6556D01*
X14269Y6555D01*
X14270Y6552D01*
X14274Y6548D01*
X14278Y6541D01*
X14284Y6534D01*
X14290Y6524D01*
X14297Y6512D01*
X14304Y6500D01*
X14311Y6486D01*
X14318Y6470D01*
X14329Y6435D01*
X14338Y6395D01*
X14339Y6374D01*
X14340Y6352D01*
Y6345D01*
X14339Y6338D01*
Y6326D01*
X14336Y6314D01*
X14335Y6298D01*
X14331Y6281D01*
X14326Y6263D01*
X14319Y6243D01*
X14312Y6223D01*
X14302Y6204D01*
X14291Y6182D01*
X14277Y6161D01*
X14262Y6142D01*
X14245Y6122D01*
X14224Y6104D01*
X14222Y6102D01*
X14218Y6099D01*
X14209Y6094D01*
X14198Y6087D01*
X14185Y6078D01*
X14169Y6070D01*
X14149Y6060D01*
X14126Y6050D01*
X14102Y6039D01*
X14074Y6029D01*
X14044Y6020D01*
X14012Y6012D01*
X13977Y6005D01*
X13939Y5999D01*
X13899Y5996D01*
X13857Y5995D01*
X13856D01*
X13854D01*
X13846D01*
X13833Y5996D01*
X13818D01*
X13796Y5998D01*
X13772Y6001D01*
X13747Y6005D01*
X13719Y6009D01*
X13688Y6015D01*
X13657Y6022D01*
X13626Y6030D01*
X13593Y6042D01*
X13562Y6054D01*
X13533Y6068D01*
X13503Y6085D01*
X13476Y6105D01*
X13475Y6106D01*
X13471Y6109D01*
X13465Y6115D01*
X13458Y6122D01*
X13448Y6132D01*
X13438Y6143D01*
X13427Y6157D01*
X13416Y6173D01*
X13406Y6190D01*
X13395Y6209D01*
X13385Y6230D01*
X13375Y6253D01*
X13368Y6278D01*
X13362Y6304D01*
X13358Y6332D01*
X13357Y6362D01*
Y6374D01*
X13358Y6384D01*
X13359Y6395D01*
X13361Y6408D01*
X13364Y6422D01*
X13368Y6438D01*
X13379Y6473D01*
X13386Y6491D01*
X13395Y6510D01*
X13406Y6528D01*
X13419Y6546D01*
X13433Y6565D01*
X13448Y6581D01*
Y6583D01*
X13451Y6584D01*
X13455Y6587D01*
X13459Y6591D01*
X13466Y6597D01*
X13475Y6603D01*
X13485Y6610D01*
X13496Y6617D01*
X13509Y6624D01*
X13521Y6632D01*
X13537Y6639D01*
X13554Y6648D01*
X13574Y6655D01*
X13593Y6662D01*
X13615Y6669D01*
X13637Y6674D01*
X13682Y6518D01*
X13681D01*
X13679Y6517D01*
X13675D01*
X13669Y6515D01*
X13655Y6511D01*
X13638Y6505D01*
X13619Y6497D01*
X13599Y6486D01*
X13581Y6473D01*
X13564Y6457D01*
X13562Y6456D01*
X13557Y6450D01*
X13550Y6440D01*
X13543Y6428D01*
X13534Y6412D01*
X13529Y6395D01*
X13523Y6376D01*
X13521Y6353D01*
Y6345D01*
X13523Y6339D01*
X13526Y6323D01*
X13531Y6304D01*
X13540Y6281D01*
X13554Y6257D01*
X13562Y6246D01*
X13572Y6235D01*
X13583Y6223D01*
X13598Y6212D01*
X13599D01*
X13600Y6209D01*
X13606Y6208D01*
X13612Y6204D01*
X13620Y6199D01*
X13630Y6195D01*
X13643Y6191D01*
X13657Y6185D01*
X13672Y6180D01*
X13691Y6175D01*
X13712Y6171D01*
X13734Y6167D01*
X13758Y6164D01*
X13785Y6161D01*
X13815Y6159D01*
X13846D01*
X13847D01*
X13854D01*
X13863D01*
X13875Y6160D01*
X13889D01*
X13906Y6161D01*
X13925Y6163D01*
X13944Y6166D01*
X13987Y6171D01*
X14029Y6181D01*
X14049Y6187D01*
X14068Y6194D01*
X14085Y6202D01*
X14101Y6211D01*
X14102D01*
X14104Y6214D01*
X14112Y6221D01*
X14125Y6232D01*
X14138Y6249D01*
X14152Y6268D01*
X14164Y6291D01*
X14173Y6319D01*
X14174Y6333D01*
X14176Y6349D01*
Y6352D01*
X14174Y6359D01*
X14173Y6371D01*
X14170Y6385D01*
X14164Y6402D01*
X14156Y6421D01*
X14143Y6439D01*
X14128Y6456D01*
X14125Y6457D01*
X14118Y6463D01*
X14106Y6471D01*
X14090Y6481D01*
X14068Y6493D01*
X14042Y6502D01*
X14011Y6514D01*
X13973Y6522D01*
X14032Y6676D01*
X14033D01*
X14039Y6674D01*
D02*
G37*
G36*
X13546Y9116D02*
X13552Y9113D01*
X13558Y9108D01*
X13566Y9102D01*
X13575Y9095D01*
X13586Y9088D01*
X13599Y9080D01*
X13614Y9070D01*
X13630Y9060D01*
X13648Y9050D01*
X13666Y9039D01*
X13687Y9027D01*
X13710Y9015D01*
X13734Y9004D01*
X13759Y8991D01*
X13761D01*
X13765Y8988D01*
X13773Y8985D01*
X13783Y8980D01*
X13796Y8975D01*
X13811Y8968D01*
X13830Y8961D01*
X13850Y8954D01*
X13871Y8946D01*
X13893Y8937D01*
X13919Y8930D01*
X13945Y8922D01*
X14000Y8905D01*
X14060Y8891D01*
X14061D01*
X14067Y8889D01*
X14075Y8888D01*
X14086Y8885D01*
X14100Y8882D01*
X14117Y8879D01*
X14136Y8877D01*
X14155Y8874D01*
X14178Y8870D01*
X14201Y8867D01*
X14250Y8861D01*
X14301Y8857D01*
X14350Y8855D01*
Y8712D01*
X14347D01*
X14342D01*
X14330Y8713D01*
X14315D01*
X14296Y8715D01*
X14275Y8716D01*
X14250Y8719D01*
X14223Y8722D01*
X14194Y8726D01*
X14163Y8730D01*
X14129Y8736D01*
X14093Y8741D01*
X14020Y8757D01*
X13945Y8778D01*
X13943Y8779D01*
X13937Y8781D01*
X13926Y8785D01*
X13912Y8789D01*
X13893Y8796D01*
X13872Y8803D01*
X13850Y8813D01*
X13823Y8823D01*
X13796Y8834D01*
X13766Y8847D01*
X13706Y8877D01*
X13641Y8909D01*
X13579Y8947D01*
Y8607D01*
X13410D01*
Y9119D01*
X13544D01*
X13545D01*
X13546Y9116D01*
D02*
G37*
G36*
X14064Y8504D02*
X14072Y8502D01*
X14084Y8499D01*
X14096Y8495D01*
X14112Y8490D01*
X14129Y8485D01*
X14147Y8478D01*
X14185Y8461D01*
X14225Y8440D01*
X14261Y8416D01*
X14277Y8402D01*
X14292Y8386D01*
X14294Y8385D01*
X14295Y8382D01*
X14299Y8378D01*
X14303Y8371D01*
X14309Y8364D01*
X14315Y8354D01*
X14322Y8342D01*
X14329Y8330D01*
X14336Y8316D01*
X14343Y8300D01*
X14354Y8265D01*
X14363Y8225D01*
X14364Y8204D01*
X14366Y8182D01*
Y8175D01*
X14364Y8168D01*
Y8156D01*
X14361Y8144D01*
X14360Y8128D01*
X14356Y8111D01*
X14351Y8093D01*
X14344Y8073D01*
X14337Y8053D01*
X14327Y8034D01*
X14316Y8012D01*
X14302Y7991D01*
X14287Y7972D01*
X14270Y7952D01*
X14248Y7934D01*
X14247Y7932D01*
X14243Y7929D01*
X14234Y7924D01*
X14223Y7917D01*
X14210Y7908D01*
X14194Y7900D01*
X14174Y7890D01*
X14151Y7880D01*
X14127Y7869D01*
X14099Y7859D01*
X14069Y7850D01*
X14037Y7842D01*
X14002Y7835D01*
X13964Y7829D01*
X13924Y7826D01*
X13882Y7825D01*
X13881D01*
X13879D01*
X13871D01*
X13858Y7826D01*
X13843D01*
X13821Y7828D01*
X13797Y7831D01*
X13772Y7835D01*
X13744Y7839D01*
X13713Y7845D01*
X13682Y7852D01*
X13651Y7860D01*
X13618Y7872D01*
X13587Y7884D01*
X13558Y7898D01*
X13528Y7915D01*
X13501Y7935D01*
X13500Y7936D01*
X13496Y7939D01*
X13490Y7945D01*
X13483Y7952D01*
X13473Y7962D01*
X13463Y7973D01*
X13452Y7987D01*
X13441Y8003D01*
X13431Y8020D01*
X13420Y8039D01*
X13410Y8060D01*
X13400Y8083D01*
X13393Y8108D01*
X13387Y8134D01*
X13383Y8162D01*
X13382Y8192D01*
Y8204D01*
X13383Y8214D01*
X13384Y8225D01*
X13386Y8238D01*
X13389Y8252D01*
X13393Y8268D01*
X13404Y8303D01*
X13411Y8321D01*
X13420Y8340D01*
X13431Y8358D01*
X13444Y8376D01*
X13458Y8395D01*
X13473Y8411D01*
Y8413D01*
X13476Y8414D01*
X13480Y8417D01*
X13484Y8421D01*
X13491Y8427D01*
X13500Y8433D01*
X13510Y8440D01*
X13521Y8447D01*
X13534Y8454D01*
X13546Y8462D01*
X13562Y8469D01*
X13579Y8478D01*
X13599Y8485D01*
X13618Y8492D01*
X13640Y8499D01*
X13662Y8504D01*
X13707Y8348D01*
X13706D01*
X13704Y8347D01*
X13700D01*
X13694Y8345D01*
X13680Y8341D01*
X13663Y8335D01*
X13644Y8327D01*
X13624Y8316D01*
X13606Y8303D01*
X13589Y8287D01*
X13587Y8286D01*
X13582Y8280D01*
X13575Y8270D01*
X13568Y8258D01*
X13559Y8242D01*
X13554Y8225D01*
X13548Y8206D01*
X13546Y8183D01*
Y8175D01*
X13548Y8169D01*
X13551Y8153D01*
X13556Y8134D01*
X13565Y8111D01*
X13579Y8087D01*
X13587Y8076D01*
X13597Y8065D01*
X13608Y8053D01*
X13623Y8042D01*
X13624D01*
X13625Y8039D01*
X13631Y8038D01*
X13637Y8034D01*
X13645Y8029D01*
X13655Y8025D01*
X13668Y8021D01*
X13682Y8015D01*
X13697Y8010D01*
X13716Y8005D01*
X13737Y8001D01*
X13759Y7997D01*
X13783Y7994D01*
X13810Y7991D01*
X13840Y7989D01*
X13871D01*
X13872D01*
X13879D01*
X13888D01*
X13900Y7990D01*
X13914D01*
X13931Y7991D01*
X13950Y7993D01*
X13969Y7996D01*
X14012Y8001D01*
X14054Y8011D01*
X14074Y8017D01*
X14093Y8024D01*
X14110Y8032D01*
X14126Y8041D01*
X14127D01*
X14129Y8043D01*
X14137Y8051D01*
X14150Y8062D01*
X14163Y8079D01*
X14177Y8098D01*
X14189Y8121D01*
X14198Y8149D01*
X14199Y8163D01*
X14201Y8179D01*
Y8182D01*
X14199Y8189D01*
X14198Y8201D01*
X14195Y8215D01*
X14189Y8232D01*
X14181Y8251D01*
X14168Y8269D01*
X14153Y8286D01*
X14150Y8287D01*
X14143Y8293D01*
X14132Y8301D01*
X14115Y8311D01*
X14093Y8323D01*
X14067Y8332D01*
X14036Y8344D01*
X13998Y8352D01*
X14057Y8506D01*
X14058D01*
X14064Y8504D01*
D02*
G37*
G36*
X16293Y4219D02*
X16302D01*
X16323Y4216D01*
X16348Y4212D01*
X16374Y4206D01*
X16401Y4198D01*
X16427Y4187D01*
X16429D01*
X16430Y4185D01*
X16439Y4181D01*
X16450Y4174D01*
X16465Y4163D01*
X16482Y4150D01*
X16499Y4135D01*
X16516Y4118D01*
X16530Y4096D01*
X16532Y4094D01*
X16536Y4087D01*
X16542Y4074D01*
X16547Y4058D01*
X16554Y4040D01*
X16560Y4018D01*
X16564Y3994D01*
X16566Y3967D01*
Y3955D01*
X16564Y3948D01*
X16563Y3939D01*
X16561Y3927D01*
X16556Y3902D01*
X16547Y3872D01*
X16533Y3841D01*
X16523Y3826D01*
X16513Y3810D01*
X16502Y3795D01*
X16488Y3781D01*
X16487Y3779D01*
X16484Y3778D01*
X16480Y3774D01*
X16474Y3769D01*
X16465Y3764D01*
X16456Y3758D01*
X16444Y3751D01*
X16432Y3744D01*
X16418Y3737D01*
X16402Y3730D01*
X16384Y3724D01*
X16365Y3719D01*
X16323Y3710D01*
X16301Y3709D01*
X16277Y3707D01*
X16275D01*
X16272D01*
X16268D01*
X16262D01*
X16247Y3709D01*
X16226Y3712D01*
X16203Y3716D01*
X16179Y3721D01*
X16154Y3729D01*
X16130Y3740D01*
X16129D01*
X16127Y3741D01*
X16120Y3745D01*
X16109Y3754D01*
X16095Y3765D01*
X16079Y3778D01*
X16064Y3795D01*
X16048Y3815D01*
X16035Y3837D01*
X16034Y3834D01*
X16030Y3829D01*
X16024Y3819D01*
X16016Y3806D01*
X16004Y3792D01*
X15990Y3779D01*
X15975Y3765D01*
X15958Y3754D01*
X15955Y3753D01*
X15950Y3750D01*
X15938Y3745D01*
X15924Y3741D01*
X15907Y3736D01*
X15887Y3731D01*
X15865Y3729D01*
X15840Y3727D01*
X15838D01*
X15834D01*
X15828D01*
X15821Y3729D01*
X15811D01*
X15800Y3730D01*
X15776Y3736D01*
X15747Y3743D01*
X15717Y3754D01*
X15689Y3769D01*
X15675Y3779D01*
X15662Y3791D01*
X15661Y3792D01*
X15659Y3793D01*
X15656Y3798D01*
X15651Y3802D01*
X15641Y3816D01*
X15628Y3836D01*
X15615Y3860D01*
X15604Y3889D01*
X15597Y3923D01*
X15596Y3941D01*
X15594Y3961D01*
Y3972D01*
X15596Y3979D01*
X15597Y3989D01*
X15598Y4001D01*
X15603Y4026D01*
X15611Y4054D01*
X15624Y4082D01*
X15632Y4096D01*
X15642Y4111D01*
X15653Y4123D01*
X15666Y4135D01*
X15668Y4136D01*
X15669Y4137D01*
X15673Y4140D01*
X15679Y4144D01*
X15686Y4149D01*
X15694Y4154D01*
X15714Y4166D01*
X15739Y4175D01*
X15769Y4185D01*
X15801Y4192D01*
X15820Y4195D01*
X15838D01*
X15840D01*
X15841D01*
X15849D01*
X15862Y4194D01*
X15879Y4191D01*
X15897Y4188D01*
X15917Y4182D01*
X15938Y4175D01*
X15958Y4166D01*
X15961Y4164D01*
X15966Y4160D01*
X15975Y4154D01*
X15986Y4144D01*
X15999Y4133D01*
X16012Y4120D01*
X16024Y4104D01*
X16035Y4087D01*
Y4088D01*
X16037Y4089D01*
X16041Y4098D01*
X16048Y4109D01*
X16059Y4125D01*
X16072Y4140D01*
X16088Y4157D01*
X16106Y4173D01*
X16127Y4187D01*
X16130Y4188D01*
X16137Y4192D01*
X16150Y4198D01*
X16167Y4204D01*
X16188Y4209D01*
X16212Y4215D01*
X16240Y4219D01*
X16271Y4221D01*
X16272D01*
X16275D01*
X16279D01*
X16286D01*
X16293Y4219D01*
D02*
G37*
G36*
X16264Y3604D02*
X16272Y3602D01*
X16284Y3599D01*
X16296Y3595D01*
X16312Y3590D01*
X16329Y3585D01*
X16347Y3578D01*
X16385Y3561D01*
X16425Y3540D01*
X16461Y3516D01*
X16477Y3502D01*
X16492Y3486D01*
X16494Y3485D01*
X16495Y3482D01*
X16499Y3478D01*
X16504Y3471D01*
X16509Y3464D01*
X16515Y3454D01*
X16522Y3442D01*
X16529Y3430D01*
X16536Y3416D01*
X16543Y3400D01*
X16554Y3365D01*
X16563Y3325D01*
X16564Y3304D01*
X16566Y3282D01*
Y3275D01*
X16564Y3268D01*
Y3256D01*
X16561Y3244D01*
X16560Y3228D01*
X16556Y3211D01*
X16551Y3193D01*
X16544Y3173D01*
X16537Y3153D01*
X16527Y3134D01*
X16516Y3112D01*
X16502Y3091D01*
X16487Y3072D01*
X16470Y3052D01*
X16449Y3034D01*
X16447Y3032D01*
X16443Y3029D01*
X16434Y3024D01*
X16423Y3017D01*
X16410Y3008D01*
X16394Y3000D01*
X16374Y2990D01*
X16351Y2980D01*
X16327Y2969D01*
X16299Y2959D01*
X16270Y2950D01*
X16237Y2942D01*
X16202Y2935D01*
X16164Y2929D01*
X16124Y2926D01*
X16082Y2925D01*
X16081D01*
X16079D01*
X16071D01*
X16058Y2926D01*
X16043D01*
X16021Y2928D01*
X15997Y2931D01*
X15972Y2935D01*
X15944Y2939D01*
X15913Y2945D01*
X15882Y2952D01*
X15851Y2960D01*
X15818Y2972D01*
X15787Y2984D01*
X15758Y2998D01*
X15728Y3015D01*
X15701Y3035D01*
X15700Y3036D01*
X15696Y3039D01*
X15690Y3045D01*
X15683Y3052D01*
X15673Y3062D01*
X15663Y3073D01*
X15652Y3087D01*
X15641Y3103D01*
X15631Y3120D01*
X15620Y3139D01*
X15610Y3160D01*
X15600Y3183D01*
X15593Y3208D01*
X15587Y3234D01*
X15583Y3262D01*
X15582Y3292D01*
Y3304D01*
X15583Y3314D01*
X15584Y3325D01*
X15586Y3338D01*
X15589Y3352D01*
X15593Y3368D01*
X15604Y3403D01*
X15611Y3421D01*
X15620Y3440D01*
X15631Y3458D01*
X15644Y3476D01*
X15658Y3495D01*
X15673Y3511D01*
Y3513D01*
X15676Y3514D01*
X15680Y3517D01*
X15684Y3521D01*
X15692Y3527D01*
X15700Y3533D01*
X15710Y3540D01*
X15721Y3547D01*
X15734Y3554D01*
X15747Y3562D01*
X15762Y3569D01*
X15779Y3578D01*
X15799Y3585D01*
X15818Y3592D01*
X15840Y3599D01*
X15862Y3604D01*
X15907Y3448D01*
X15906D01*
X15904Y3447D01*
X15900D01*
X15895Y3445D01*
X15880Y3441D01*
X15864Y3435D01*
X15844Y3427D01*
X15824Y3416D01*
X15806Y3403D01*
X15789Y3387D01*
X15787Y3386D01*
X15782Y3380D01*
X15775Y3370D01*
X15768Y3358D01*
X15759Y3342D01*
X15754Y3325D01*
X15748Y3306D01*
X15747Y3283D01*
Y3275D01*
X15748Y3269D01*
X15751Y3253D01*
X15756Y3234D01*
X15765Y3211D01*
X15779Y3187D01*
X15787Y3176D01*
X15797Y3165D01*
X15809Y3153D01*
X15823Y3142D01*
X15824D01*
X15825Y3139D01*
X15831Y3138D01*
X15837Y3134D01*
X15845Y3129D01*
X15855Y3125D01*
X15868Y3121D01*
X15882Y3115D01*
X15897Y3110D01*
X15916Y3105D01*
X15937Y3101D01*
X15959Y3097D01*
X15983Y3094D01*
X16010Y3091D01*
X16040Y3089D01*
X16071D01*
X16072D01*
X16079D01*
X16088D01*
X16100Y3090D01*
X16114D01*
X16131Y3091D01*
X16150Y3093D01*
X16169Y3096D01*
X16212Y3101D01*
X16254Y3111D01*
X16274Y3117D01*
X16293Y3124D01*
X16310Y3132D01*
X16326Y3141D01*
X16327D01*
X16329Y3144D01*
X16337Y3151D01*
X16350Y3162D01*
X16363Y3179D01*
X16377Y3198D01*
X16389Y3221D01*
X16398Y3249D01*
X16399Y3263D01*
X16401Y3279D01*
Y3282D01*
X16399Y3289D01*
X16398Y3301D01*
X16395Y3315D01*
X16389Y3332D01*
X16381Y3351D01*
X16368Y3369D01*
X16353Y3386D01*
X16350Y3387D01*
X16343Y3393D01*
X16332Y3401D01*
X16315Y3411D01*
X16293Y3423D01*
X16267Y3432D01*
X16236Y3444D01*
X16198Y3452D01*
X16257Y3606D01*
X16258D01*
X16264Y3604D01*
D02*
G37*
G36*
X13589Y1287D02*
X13600Y1286D01*
X13613Y1284D01*
X13627Y1281D01*
X13643Y1277D01*
X13678Y1266D01*
X13696Y1259D01*
X13715Y1250D01*
X13733Y1239D01*
X13751Y1226D01*
X13770Y1212D01*
X13786Y1197D01*
X13788D01*
X13789Y1194D01*
X13792Y1190D01*
X13796Y1186D01*
X13802Y1179D01*
X13808Y1170D01*
X13815Y1160D01*
X13822Y1149D01*
X13829Y1136D01*
X13837Y1124D01*
X13844Y1108D01*
X13853Y1091D01*
X13860Y1071D01*
X13867Y1052D01*
X13874Y1031D01*
X13879Y1008D01*
X13723Y963D01*
Y964D01*
X13722Y966D01*
Y970D01*
X13720Y976D01*
X13716Y990D01*
X13710Y1007D01*
X13702Y1026D01*
X13691Y1046D01*
X13678Y1064D01*
X13662Y1081D01*
X13661Y1083D01*
X13655Y1088D01*
X13645Y1095D01*
X13633Y1102D01*
X13617Y1111D01*
X13600Y1117D01*
X13581Y1122D01*
X13558Y1124D01*
X13550D01*
X13544Y1122D01*
X13528Y1119D01*
X13509Y1114D01*
X13486Y1105D01*
X13462Y1091D01*
X13451Y1083D01*
X13440Y1073D01*
X13428Y1062D01*
X13417Y1047D01*
Y1046D01*
X13414Y1045D01*
X13413Y1039D01*
X13409Y1033D01*
X13404Y1025D01*
X13400Y1015D01*
X13396Y1002D01*
X13390Y988D01*
X13385Y973D01*
X13380Y954D01*
X13376Y933D01*
X13372Y911D01*
X13369Y887D01*
X13366Y860D01*
X13364Y830D01*
Y799D01*
Y798D01*
Y791D01*
Y782D01*
X13365Y770D01*
Y756D01*
X13366Y739D01*
X13368Y720D01*
X13371Y701D01*
X13376Y658D01*
X13386Y616D01*
X13392Y596D01*
X13399Y577D01*
X13407Y560D01*
X13416Y544D01*
Y543D01*
X13418Y541D01*
X13426Y533D01*
X13437Y520D01*
X13454Y508D01*
X13473Y493D01*
X13496Y481D01*
X13524Y472D01*
X13538Y471D01*
X13554Y469D01*
X13557D01*
X13564Y471D01*
X13576Y472D01*
X13590Y475D01*
X13607Y481D01*
X13626Y489D01*
X13644Y502D01*
X13661Y517D01*
X13662Y520D01*
X13668Y527D01*
X13676Y539D01*
X13686Y555D01*
X13698Y577D01*
X13707Y603D01*
X13719Y634D01*
X13727Y672D01*
X13881Y613D01*
Y612D01*
X13879Y606D01*
X13877Y598D01*
X13874Y586D01*
X13870Y574D01*
X13865Y558D01*
X13860Y541D01*
X13853Y523D01*
X13836Y485D01*
X13815Y445D01*
X13791Y409D01*
X13777Y393D01*
X13761Y378D01*
X13760Y376D01*
X13757Y375D01*
X13753Y371D01*
X13746Y367D01*
X13738Y361D01*
X13729Y355D01*
X13717Y348D01*
X13705Y341D01*
X13691Y334D01*
X13675Y327D01*
X13640Y316D01*
X13600Y307D01*
X13579Y306D01*
X13557Y305D01*
X13550D01*
X13543Y306D01*
X13531D01*
X13519Y309D01*
X13503Y310D01*
X13486Y314D01*
X13468Y319D01*
X13448Y326D01*
X13428Y333D01*
X13409Y343D01*
X13387Y354D01*
X13366Y368D01*
X13347Y383D01*
X13327Y400D01*
X13309Y422D01*
X13307Y423D01*
X13304Y427D01*
X13299Y436D01*
X13292Y447D01*
X13283Y460D01*
X13275Y477D01*
X13265Y496D01*
X13255Y519D01*
X13244Y543D01*
X13234Y571D01*
X13225Y601D01*
X13217Y633D01*
X13210Y668D01*
X13204Y706D01*
X13201Y746D01*
X13200Y788D01*
Y789D01*
Y791D01*
Y799D01*
X13201Y812D01*
Y828D01*
X13203Y849D01*
X13206Y873D01*
X13210Y898D01*
X13214Y926D01*
X13220Y957D01*
X13227Y988D01*
X13235Y1019D01*
X13247Y1052D01*
X13259Y1083D01*
X13273Y1112D01*
X13290Y1142D01*
X13310Y1169D01*
X13311Y1170D01*
X13314Y1174D01*
X13320Y1180D01*
X13327Y1187D01*
X13337Y1197D01*
X13348Y1207D01*
X13362Y1218D01*
X13378Y1229D01*
X13395Y1239D01*
X13414Y1250D01*
X13435Y1260D01*
X13458Y1270D01*
X13483Y1277D01*
X13509Y1283D01*
X13537Y1287D01*
X13567Y1288D01*
X13579D01*
X13589Y1287D01*
D02*
G37*
G36*
X14367Y320D02*
X14216D01*
Y1009D01*
X14215Y1008D01*
X14212Y1005D01*
X14208Y1001D01*
X14201Y994D01*
X14194Y987D01*
X14184Y977D01*
X14173Y967D01*
X14160Y957D01*
X14132Y935D01*
X14099Y911D01*
X14061Y890D01*
X14022Y871D01*
Y1038D01*
X14023D01*
X14025Y1039D01*
X14033Y1042D01*
X14044Y1049D01*
X14061Y1057D01*
X14081Y1070D01*
X14102Y1085D01*
X14126Y1104D01*
X14152Y1126D01*
X14153Y1128D01*
X14154Y1129D01*
X14163Y1138D01*
X14174Y1152D01*
X14188Y1170D01*
X14204Y1191D01*
X14219Y1217D01*
X14233Y1245D01*
X14245Y1276D01*
X14367D01*
Y320D01*
D02*
G37*
G36*
X14861Y1274D02*
X14870Y1273D01*
X14882Y1270D01*
X14909Y1262D01*
X14923Y1256D01*
X14938Y1249D01*
X14952Y1241D01*
X14968Y1231D01*
X14983Y1218D01*
X14999Y1202D01*
X15013Y1187D01*
X15027Y1167D01*
X15028Y1166D01*
X15030Y1162D01*
X15034Y1156D01*
X15038Y1146D01*
X15044Y1133D01*
X15050Y1119D01*
X15055Y1101D01*
X15062Y1080D01*
X15069Y1054D01*
X15075Y1028D01*
X15081Y997D01*
X15086Y961D01*
X15090Y925D01*
X15095Y882D01*
X15096Y839D01*
X15097Y789D01*
Y788D01*
Y787D01*
Y782D01*
Y778D01*
Y764D01*
X15096Y746D01*
Y723D01*
X15093Y699D01*
X15092Y671D01*
X15089Y641D01*
X15081Y579D01*
X15068Y516D01*
X15059Y486D01*
X15051Y460D01*
X15040Y434D01*
X15027Y412D01*
X15026Y410D01*
X15024Y407D01*
X15020Y402D01*
X15014Y395D01*
X15007Y386D01*
X14999Y378D01*
X14978Y358D01*
X14951Y338D01*
X14920Y321D01*
X14903Y314D01*
X14885Y309D01*
X14865Y306D01*
X14844Y305D01*
X14838D01*
X14832Y306D01*
X14825D01*
X14816Y307D01*
X14804Y310D01*
X14777Y317D01*
X14763Y323D01*
X14748Y330D01*
X14734Y338D01*
X14718Y350D01*
X14703Y361D01*
X14687Y375D01*
X14673Y392D01*
X14659Y410D01*
X14658Y412D01*
X14656Y416D01*
X14653Y422D01*
X14648Y431D01*
X14644Y444D01*
X14638Y458D01*
X14631Y477D01*
X14625Y498D01*
X14618Y523D01*
X14613Y550D01*
X14605Y581D01*
X14601Y616D01*
X14597Y654D01*
X14593Y696D01*
X14591Y742D01*
X14590Y791D01*
Y792D01*
Y794D01*
Y798D01*
Y802D01*
Y816D01*
X14591Y835D01*
X14593Y856D01*
X14594Y881D01*
X14596Y909D01*
X14598Y939D01*
X14607Y1001D01*
X14620Y1063D01*
X14627Y1093D01*
X14636Y1119D01*
X14646Y1145D01*
X14659Y1167D01*
X14660Y1169D01*
X14662Y1171D01*
X14666Y1177D01*
X14672Y1184D01*
X14679Y1193D01*
X14687Y1201D01*
X14708Y1222D01*
X14735Y1242D01*
X14766Y1259D01*
X14783Y1266D01*
X14801Y1272D01*
X14821Y1274D01*
X14842Y1276D01*
X14854D01*
X14861Y1274D01*
D02*
G37*
G36*
X11619Y10750D02*
X11490D01*
Y11337D01*
X11489Y11336D01*
X11486Y11334D01*
X11483Y11330D01*
X11477Y11324D01*
X11471Y11318D01*
X11462Y11310D01*
X11453Y11301D01*
X11442Y11293D01*
X11418Y11274D01*
X11390Y11253D01*
X11358Y11235D01*
X11324Y11220D01*
Y11362D01*
X11325D01*
X11327Y11363D01*
X11334Y11365D01*
X11343Y11371D01*
X11358Y11378D01*
X11375Y11389D01*
X11393Y11402D01*
X11413Y11418D01*
X11435Y11437D01*
X11436Y11438D01*
X11437Y11440D01*
X11444Y11447D01*
X11454Y11459D01*
X11466Y11474D01*
X11479Y11492D01*
X11492Y11514D01*
X11504Y11538D01*
X11514Y11565D01*
X11619D01*
Y10750D01*
D02*
G37*
G36*
X11248D02*
X11103D01*
X11045Y10934D01*
X10776D01*
X10722Y10750D01*
X10579D01*
X10838Y11562D01*
X10981D01*
X11248Y10750D01*
D02*
G37*
G36*
X10243Y11561D02*
X10251D01*
X10272Y11560D01*
X10295Y11557D01*
X10317Y11553D01*
X10340Y11548D01*
X10359Y11541D01*
X10362Y11539D01*
X10368Y11537D01*
X10376Y11531D01*
X10388Y11524D01*
X10401Y11514D01*
X10417Y11502D01*
X10432Y11488D01*
X10447Y11471D01*
X10450Y11468D01*
X10454Y11462D01*
X10462Y11452D01*
X10470Y11436D01*
X10481Y11418D01*
X10492Y11396D01*
X10501Y11371D01*
X10511Y11342D01*
Y11341D01*
X10512Y11339D01*
X10513Y11334D01*
X10514Y11328D01*
X10516Y11321D01*
X10518Y11311D01*
X10520Y11300D01*
X10523Y11288D01*
X10524Y11275D01*
X10526Y11261D01*
X10529Y11245D01*
X10530Y11227D01*
X10532Y11190D01*
X10534Y11148D01*
Y11146D01*
Y11143D01*
Y11137D01*
Y11130D01*
X10532Y11121D01*
Y11110D01*
X10531Y11098D01*
Y11085D01*
X10528Y11056D01*
X10524Y11025D01*
X10518Y10994D01*
X10510Y10964D01*
Y10963D01*
X10508Y10960D01*
X10507Y10957D01*
X10505Y10951D01*
X10500Y10936D01*
X10493Y10919D01*
X10484Y10899D01*
X10474Y10879D01*
X10462Y10858D01*
X10448Y10840D01*
X10447Y10838D01*
X10442Y10833D01*
X10434Y10824D01*
X10424Y10815D01*
X10411Y10804D01*
X10397Y10793D01*
X10380Y10782D01*
X10361Y10773D01*
X10358Y10772D01*
X10351Y10769D01*
X10340Y10766D01*
X10325Y10762D01*
X10305Y10757D01*
X10283Y10754D01*
X10256Y10751D01*
X10227Y10750D01*
X9975D01*
Y11562D01*
X10236D01*
X10243Y11561D01*
D02*
G37*
G36*
X21075Y11074D02*
X21074D01*
X21071D01*
X21066Y11075D01*
X21060D01*
X21053Y11076D01*
X21045Y11079D01*
X21024Y11082D01*
X21002Y11087D01*
X20975Y11095D01*
X20948Y11105D01*
X20920Y11117D01*
X20919D01*
X20916Y11119D01*
X20913Y11121D01*
X20907Y11124D01*
X20899Y11129D01*
X20890Y11134D01*
X20880Y11141D01*
X20868Y11149D01*
X20855Y11158D01*
X20841Y11169D01*
X20825Y11179D01*
X20807Y11193D01*
X20789Y11207D01*
X20770Y11224D01*
X20748Y11241D01*
X20726Y11260D01*
X20725Y11261D01*
X20722Y11264D01*
X20717Y11268D01*
X20711Y11273D01*
X20704Y11280D01*
X20694Y11288D01*
X20674Y11304D01*
X20652Y11322D01*
X20632Y11339D01*
X20612Y11354D01*
X20604Y11360D01*
X20597Y11364D01*
X20594Y11366D01*
X20588Y11369D01*
X20579Y11374D01*
X20565Y11379D01*
X20551Y11384D01*
X20534Y11388D01*
X20516Y11392D01*
X20498Y11393D01*
X20497D01*
X20496D01*
X20490D01*
X20480Y11392D01*
X20468Y11391D01*
X20455Y11387D01*
X20442Y11384D01*
X20428Y11378D01*
X20418Y11369D01*
X20416Y11368D01*
X20413Y11364D01*
X20409Y11360D01*
X20403Y11352D01*
X20398Y11344D01*
X20395Y11333D01*
X20391Y11320D01*
X20390Y11307D01*
Y11303D01*
X20391Y11298D01*
X20392Y11294D01*
X20397Y11279D01*
X20401Y11272D01*
X20406Y11264D01*
X20413Y11255D01*
X20421Y11247D01*
X20431Y11240D01*
X20444Y11232D01*
X20459Y11226D01*
X20475Y11221D01*
X20495Y11218D01*
X20517Y11215D01*
X20501Y11088D01*
X20499D01*
X20495Y11089D01*
X20489D01*
X20480Y11091D01*
X20471Y11093D01*
X20459Y11094D01*
X20445Y11098D01*
X20431Y11101D01*
X20402Y11110D01*
X20372Y11122D01*
X20343Y11137D01*
X20331Y11146D01*
X20319Y11157D01*
X20318Y11158D01*
X20317Y11159D01*
X20313Y11163D01*
X20310Y11167D01*
X20306Y11173D01*
X20300Y11179D01*
X20289Y11197D01*
X20278Y11219D01*
X20270Y11246D01*
X20263Y11276D01*
X20261Y11292D01*
X20260Y11309D01*
Y11319D01*
X20261Y11326D01*
X20263Y11336D01*
X20264Y11345D01*
X20269Y11369D01*
X20277Y11394D01*
X20282Y11408D01*
X20289Y11421D01*
X20298Y11434D01*
X20306Y11446D01*
X20317Y11457D01*
X20329Y11468D01*
X20330Y11469D01*
X20332Y11470D01*
X20336Y11473D01*
X20341Y11476D01*
X20347Y11480D01*
X20355Y11485D01*
X20374Y11495D01*
X20397Y11505D01*
X20424Y11513D01*
X20453Y11519D01*
X20468Y11522D01*
X20485D01*
X20487D01*
X20493D01*
X20503Y11521D01*
X20516D01*
X20531Y11518D01*
X20547Y11516D01*
X20564Y11512D01*
X20582Y11507D01*
X20585D01*
X20591Y11505D01*
X20599Y11501D01*
X20611Y11498D01*
X20626Y11492D01*
X20641Y11485D01*
X20658Y11475D01*
X20676Y11465D01*
X20678Y11464D01*
X20684Y11461D01*
X20695Y11453D01*
X20708Y11444D01*
X20726Y11431D01*
X20747Y11414D01*
X20771Y11394D01*
X20797Y11372D01*
X20799Y11370D01*
X20800Y11369D01*
X20803Y11366D01*
X20808Y11362D01*
X20820Y11351D01*
X20835Y11339D01*
X20850Y11326D01*
X20865Y11313D01*
X20878Y11302D01*
X20889Y11294D01*
X20890Y11292D01*
X20892Y11291D01*
X20897Y11288D01*
X20902Y11284D01*
X20915Y11276D01*
X20931Y11267D01*
Y11522D01*
X21075D01*
Y11074D01*
D02*
G37*
G36*
Y10903D02*
X20891Y10845D01*
Y10576D01*
X21075Y10522D01*
Y10379D01*
X20263Y10638D01*
Y10781D01*
X21075Y11048D01*
Y10903D01*
D02*
G37*
G36*
X20704Y10332D02*
X20714D01*
X20726Y10331D01*
X20740D01*
X20768Y10328D01*
X20800Y10324D01*
X20831Y10318D01*
X20861Y10310D01*
X20862D01*
X20865Y10308D01*
X20868Y10307D01*
X20874Y10305D01*
X20889Y10300D01*
X20905Y10293D01*
X20926Y10284D01*
X20946Y10274D01*
X20967Y10262D01*
X20985Y10248D01*
X20987Y10247D01*
X20992Y10242D01*
X21000Y10234D01*
X21010Y10224D01*
X21021Y10211D01*
X21032Y10197D01*
X21042Y10180D01*
X21052Y10161D01*
X21053Y10158D01*
X21056Y10151D01*
X21059Y10140D01*
X21063Y10125D01*
X21068Y10105D01*
X21071Y10083D01*
X21074Y10056D01*
X21075Y10027D01*
Y9775D01*
X20263D01*
Y10036D01*
X20264Y10043D01*
Y10051D01*
X20265Y10072D01*
X20267Y10095D01*
X20272Y10117D01*
X20277Y10140D01*
X20284Y10159D01*
X20286Y10162D01*
X20288Y10168D01*
X20294Y10176D01*
X20301Y10188D01*
X20311Y10201D01*
X20323Y10217D01*
X20337Y10232D01*
X20354Y10247D01*
X20356Y10250D01*
X20362Y10254D01*
X20373Y10262D01*
X20389Y10270D01*
X20407Y10281D01*
X20428Y10292D01*
X20454Y10301D01*
X20483Y10311D01*
X20484D01*
X20486Y10312D01*
X20491Y10313D01*
X20497Y10314D01*
X20504Y10316D01*
X20514Y10318D01*
X20525Y10320D01*
X20537Y10323D01*
X20550Y10324D01*
X20564Y10326D01*
X20580Y10329D01*
X20598Y10330D01*
X20635Y10332D01*
X20677Y10334D01*
X20678D01*
X20682D01*
X20688D01*
X20695D01*
X20704Y10332D01*
D02*
G37*
G36*
X13214Y3885D02*
X13297D01*
Y3748D01*
X13214D01*
Y3585D01*
X13091D01*
Y3748D01*
X12818D01*
Y3884D01*
X13106Y4400D01*
X13214D01*
Y3885D01*
D02*
G37*
G36*
X12799Y3585D02*
X12653D01*
X12596Y3769D01*
X12326D01*
X12272Y3585D01*
X12129D01*
X12388Y4397D01*
X12531D01*
X12799Y3585D01*
D02*
G37*
G36*
X11793Y4396D02*
X11801D01*
X11822Y4395D01*
X11845Y4392D01*
X11868Y4388D01*
X11890Y4383D01*
X11910Y4376D01*
X11912Y4374D01*
X11918Y4372D01*
X11926Y4366D01*
X11938Y4359D01*
X11952Y4349D01*
X11967Y4337D01*
X11982Y4323D01*
X11997Y4306D01*
X12000Y4304D01*
X12005Y4297D01*
X12012Y4287D01*
X12020Y4271D01*
X12031Y4253D01*
X12042Y4231D01*
X12051Y4206D01*
X12061Y4177D01*
Y4176D01*
X12062Y4174D01*
X12063Y4169D01*
X12065Y4163D01*
X12066Y4156D01*
X12068Y4146D01*
X12071Y4135D01*
X12073Y4123D01*
X12074Y4110D01*
X12077Y4096D01*
X12079Y4080D01*
X12080Y4062D01*
X12083Y4025D01*
X12084Y3983D01*
Y3982D01*
Y3978D01*
Y3972D01*
Y3965D01*
X12083Y3956D01*
Y3945D01*
X12081Y3933D01*
Y3920D01*
X12078Y3891D01*
X12074Y3860D01*
X12068Y3829D01*
X12060Y3799D01*
Y3798D01*
X12059Y3795D01*
X12057Y3792D01*
X12055Y3786D01*
X12050Y3771D01*
X12043Y3754D01*
X12035Y3734D01*
X12024Y3714D01*
X12012Y3693D01*
X11999Y3675D01*
X11997Y3673D01*
X11993Y3668D01*
X11984Y3660D01*
X11974Y3650D01*
X11961Y3639D01*
X11947Y3628D01*
X11930Y3617D01*
X11911Y3608D01*
X11908Y3607D01*
X11901Y3604D01*
X11890Y3601D01*
X11875Y3597D01*
X11856Y3592D01*
X11833Y3589D01*
X11806Y3586D01*
X11777Y3585D01*
X11525D01*
Y4397D01*
X11786D01*
X11793Y4396D01*
D02*
G37*
G36*
X19747Y10300D02*
X19608D01*
Y10933D01*
X19607Y10932D01*
X19604Y10930D01*
X19600Y10926D01*
X19594Y10919D01*
X19587Y10913D01*
X19578Y10904D01*
X19568Y10895D01*
X19556Y10886D01*
X19530Y10865D01*
X19501Y10843D01*
X19466Y10823D01*
X19429Y10807D01*
Y10959D01*
X19431D01*
X19432Y10961D01*
X19440Y10963D01*
X19450Y10970D01*
X19466Y10977D01*
X19484Y10989D01*
X19503Y11003D01*
X19525Y11020D01*
X19548Y11041D01*
X19550Y11042D01*
X19551Y11044D01*
X19559Y11051D01*
X19569Y11064D01*
X19582Y11081D01*
X19596Y11101D01*
X19611Y11124D01*
X19624Y11150D01*
X19634Y11178D01*
X19747D01*
Y10300D01*
D02*
G37*
G36*
X19034Y11174D02*
X19046D01*
X19070Y11173D01*
X19098Y11169D01*
X19125Y11165D01*
X19151Y11159D01*
X19162Y11155D01*
X19173Y11151D01*
X19175Y11150D01*
X19182Y11147D01*
X19191Y11141D01*
X19203Y11132D01*
X19216Y11121D01*
X19229Y11107D01*
X19243Y11090D01*
X19256Y11069D01*
X19257Y11067D01*
X19261Y11059D01*
X19266Y11046D01*
X19273Y11031D01*
X19278Y11010D01*
X19283Y10985D01*
X19287Y10959D01*
X19288Y10930D01*
Y10928D01*
Y10926D01*
Y10919D01*
X19287Y10913D01*
Y10904D01*
X19286Y10893D01*
X19282Y10870D01*
X19276Y10844D01*
X19267Y10817D01*
X19254Y10790D01*
X19238Y10764D01*
Y10762D01*
X19235Y10761D01*
X19229Y10753D01*
X19217Y10743D01*
X19201Y10731D01*
X19182Y10717D01*
X19157Y10704D01*
X19130Y10694D01*
X19098Y10686D01*
X19100Y10685D01*
X19105Y10680D01*
X19115Y10673D01*
X19125Y10664D01*
X19137Y10654D01*
X19149Y10641D01*
X19162Y10626D01*
X19174Y10612D01*
X19175Y10611D01*
X19179Y10604D01*
X19187Y10594D01*
X19196Y10580D01*
X19208Y10560D01*
X19214Y10549D01*
X19222Y10536D01*
X19230Y10522D01*
X19239Y10506D01*
X19248Y10488D01*
X19257Y10470D01*
X19345Y10300D01*
X19170D01*
X19067Y10490D01*
Y10492D01*
X19064Y10496D01*
X19061Y10501D01*
X19058Y10507D01*
X19052Y10515D01*
X19047Y10524D01*
X19036Y10545D01*
X19023Y10567D01*
X19010Y10589D01*
X19004Y10598D01*
X18998Y10606D01*
X18993Y10613D01*
X18989Y10619D01*
X18988Y10620D01*
X18985Y10623D01*
X18981Y10628D01*
X18976Y10633D01*
X18963Y10645D01*
X18955Y10651D01*
X18946Y10655D01*
X18945D01*
X18942Y10656D01*
X18937Y10659D01*
X18929Y10660D01*
X18919Y10663D01*
X18906Y10664D01*
X18892Y10665D01*
X18845D01*
Y10300D01*
X18700D01*
Y11176D01*
X19025D01*
X19034Y11174D01*
D02*
G37*
G36*
X24955Y10679D02*
X24967Y10678D01*
X24978Y10677D01*
X25006Y10671D01*
X25036Y10661D01*
X25051Y10655D01*
X25067Y10647D01*
X25082Y10637D01*
X25096Y10627D01*
X25109Y10615D01*
X25122Y10600D01*
X25123Y10599D01*
X25125Y10596D01*
X25127Y10592D01*
X25132Y10586D01*
X25136Y10579D01*
X25142Y10569D01*
X25154Y10547D01*
X25166Y10520D01*
X25175Y10489D01*
X25182Y10455D01*
X25185Y10437D01*
Y10417D01*
Y10414D01*
Y10407D01*
X25184Y10396D01*
Y10381D01*
X25181Y10364D01*
X25178Y10344D01*
X25174Y10324D01*
X25168Y10303D01*
Y10300D01*
X25166Y10293D01*
X25161Y10283D01*
X25157Y10269D01*
X25150Y10252D01*
X25142Y10234D01*
X25130Y10214D01*
X25119Y10193D01*
X25118Y10190D01*
X25113Y10183D01*
X25105Y10170D01*
X25094Y10155D01*
X25078Y10134D01*
X25058Y10110D01*
X25036Y10082D01*
X25009Y10051D01*
X25008Y10049D01*
X25006Y10048D01*
X25002Y10044D01*
X24998Y10038D01*
X24985Y10024D01*
X24971Y10007D01*
X24955Y9989D01*
X24940Y9972D01*
X24927Y9956D01*
X24917Y9943D01*
X24916Y9942D01*
X24915Y9939D01*
X24910Y9934D01*
X24906Y9928D01*
X24896Y9912D01*
X24886Y9894D01*
X25185D01*
Y9725D01*
X24659D01*
Y9726D01*
Y9729D01*
X24661Y9735D01*
Y9742D01*
X24662Y9750D01*
X24665Y9760D01*
X24669Y9784D01*
X24675Y9811D01*
X24685Y9842D01*
X24696Y9874D01*
X24710Y9907D01*
Y9908D01*
X24713Y9911D01*
X24714Y9915D01*
X24719Y9922D01*
X24724Y9931D01*
X24730Y9942D01*
X24738Y9953D01*
X24748Y9967D01*
X24758Y9983D01*
X24771Y10000D01*
X24784Y10018D01*
X24799Y10039D01*
X24816Y10061D01*
X24836Y10083D01*
X24855Y10108D01*
X24878Y10134D01*
X24879Y10135D01*
X24882Y10139D01*
X24888Y10145D01*
X24893Y10152D01*
X24902Y10161D01*
X24910Y10172D01*
X24930Y10196D01*
X24951Y10221D01*
X24971Y10245D01*
X24988Y10268D01*
X24995Y10278D01*
X25001Y10286D01*
X25002Y10289D01*
X25006Y10296D01*
X25012Y10307D01*
X25018Y10323D01*
X25023Y10340D01*
X25029Y10359D01*
X25033Y10381D01*
X25034Y10402D01*
Y10403D01*
Y10404D01*
Y10412D01*
X25033Y10423D01*
X25032Y10437D01*
X25027Y10452D01*
X25023Y10468D01*
X25016Y10483D01*
X25006Y10496D01*
X25005Y10498D01*
X25001Y10502D01*
X24995Y10506D01*
X24986Y10513D01*
X24977Y10519D01*
X24964Y10523D01*
X24948Y10527D01*
X24933Y10529D01*
X24929D01*
X24923Y10527D01*
X24917Y10526D01*
X24901Y10520D01*
X24892Y10516D01*
X24882Y10510D01*
X24872Y10502D01*
X24862Y10492D01*
X24854Y10481D01*
X24846Y10465D01*
X24838Y10448D01*
X24833Y10428D01*
X24829Y10406D01*
X24826Y10379D01*
X24676Y10399D01*
Y10400D01*
X24678Y10406D01*
Y10413D01*
X24679Y10423D01*
X24682Y10434D01*
X24683Y10448D01*
X24688Y10464D01*
X24692Y10481D01*
X24702Y10514D01*
X24716Y10550D01*
X24734Y10584D01*
X24744Y10598D01*
X24757Y10612D01*
X24758Y10613D01*
X24760Y10615D01*
X24764Y10619D01*
X24769Y10623D01*
X24776Y10627D01*
X24784Y10634D01*
X24805Y10647D01*
X24830Y10660D01*
X24861Y10670D01*
X24896Y10678D01*
X24916Y10679D01*
X24936Y10681D01*
X24947D01*
X24955Y10679D01*
D02*
G37*
G36*
X24289Y10677D02*
X24301D01*
X24328Y10675D01*
X24358Y10671D01*
X24387Y10667D01*
X24416Y10660D01*
X24428Y10655D01*
X24440Y10651D01*
X24442Y10650D01*
X24449Y10647D01*
X24459Y10640D01*
X24472Y10630D01*
X24486Y10619D01*
X24500Y10603D01*
X24516Y10585D01*
X24530Y10562D01*
X24531Y10560D01*
X24535Y10551D01*
X24541Y10537D01*
X24548Y10520D01*
X24554Y10498D01*
X24559Y10471D01*
X24564Y10443D01*
X24565Y10410D01*
Y10409D01*
Y10406D01*
Y10399D01*
X24564Y10392D01*
Y10382D01*
X24562Y10371D01*
X24558Y10345D01*
X24552Y10317D01*
X24542Y10287D01*
X24528Y10258D01*
X24510Y10230D01*
Y10228D01*
X24507Y10227D01*
X24500Y10218D01*
X24487Y10207D01*
X24471Y10194D01*
X24449Y10179D01*
X24423Y10165D01*
X24393Y10154D01*
X24358Y10145D01*
X24361Y10144D01*
X24366Y10138D01*
X24376Y10131D01*
X24387Y10121D01*
X24400Y10110D01*
X24414Y10096D01*
X24428Y10080D01*
X24441Y10065D01*
X24442Y10063D01*
X24447Y10056D01*
X24455Y10045D01*
X24465Y10029D01*
X24478Y10008D01*
X24485Y9996D01*
X24493Y9982D01*
X24502Y9966D01*
X24511Y9949D01*
X24521Y9929D01*
X24531Y9910D01*
X24627Y9725D01*
X24437D01*
X24324Y9932D01*
Y9934D01*
X24321Y9938D01*
X24318Y9943D01*
X24314Y9951D01*
X24308Y9959D01*
X24303Y9969D01*
X24290Y9991D01*
X24276Y10015D01*
X24262Y10039D01*
X24256Y10049D01*
X24249Y10058D01*
X24244Y10066D01*
X24239Y10072D01*
X24238Y10073D01*
X24235Y10076D01*
X24231Y10082D01*
X24225Y10087D01*
X24211Y10100D01*
X24203Y10107D01*
X24193Y10111D01*
X24191D01*
X24189Y10113D01*
X24183Y10115D01*
X24175Y10117D01*
X24163Y10120D01*
X24149Y10121D01*
X24134Y10123D01*
X24083D01*
Y9725D01*
X23925D01*
Y10678D01*
X24279D01*
X24289Y10677D01*
D02*
G37*
G36*
X6267Y1611D02*
X6290Y1610D01*
X6314Y1608D01*
X6341Y1606D01*
X6370Y1603D01*
X6432Y1593D01*
X6463Y1587D01*
X6494Y1579D01*
X6524Y1569D01*
X6552Y1559D01*
X6579Y1546D01*
X6601Y1532D01*
X6603Y1531D01*
X6606Y1528D01*
X6611Y1524D01*
X6620Y1518D01*
X6628Y1510D01*
X6638Y1500D01*
X6648Y1489D01*
X6658Y1476D01*
X6669Y1462D01*
X6679Y1446D01*
X6697Y1411D01*
X6704Y1391D01*
X6710Y1370D01*
X6714Y1349D01*
X6716Y1325D01*
Y1317D01*
X6714Y1311D01*
X6713Y1294D01*
X6708Y1273D01*
X6701Y1250D01*
X6692Y1226D01*
X6677Y1201D01*
X6658Y1179D01*
X6655Y1176D01*
X6646Y1169D01*
X6632Y1159D01*
X6624Y1153D01*
X6614Y1148D01*
X6601Y1142D01*
X6589Y1135D01*
X6575Y1129D01*
X6558Y1124D01*
X6541Y1118D01*
X6521Y1112D01*
X6501Y1108D01*
X6479Y1105D01*
X6459Y1250D01*
X6460D01*
X6463D01*
X6469Y1252D01*
X6476Y1253D01*
X6493Y1257D01*
X6511Y1265D01*
X6531Y1276D01*
X6548Y1290D01*
X6555Y1300D01*
X6560Y1310D01*
X6563Y1322D01*
X6565Y1335D01*
Y1338D01*
X6563Y1343D01*
X6562Y1352D01*
X6558Y1363D01*
X6552Y1376D01*
X6542Y1390D01*
X6529Y1403D01*
X6513Y1415D01*
X6510Y1417D01*
X6507Y1418D01*
X6501Y1421D01*
X6496Y1424D01*
X6487Y1427D01*
X6477Y1429D01*
X6466Y1432D01*
X6452Y1436D01*
X6436Y1439D01*
X6419Y1444D01*
X6400Y1446D01*
X6377Y1451D01*
X6353Y1453D01*
X6326Y1456D01*
X6298Y1458D01*
X6300Y1456D01*
X6305Y1453D01*
X6312Y1446D01*
X6321Y1439D01*
X6331Y1429D01*
X6339Y1420D01*
X6349Y1407D01*
X6357Y1394D01*
X6359Y1393D01*
X6360Y1389D01*
X6363Y1380D01*
X6367Y1372D01*
X6372Y1359D01*
X6374Y1346D01*
X6376Y1331D01*
X6377Y1315D01*
Y1307D01*
X6376Y1300D01*
X6374Y1293D01*
X6373Y1284D01*
X6366Y1262D01*
X6356Y1238D01*
X6349Y1225D01*
X6342Y1211D01*
X6332Y1198D01*
X6321Y1184D01*
X6308Y1170D01*
X6293Y1157D01*
X6291Y1156D01*
X6288Y1155D01*
X6284Y1152D01*
X6277Y1148D01*
X6269Y1142D01*
X6259Y1136D01*
X6246Y1131D01*
X6232Y1124D01*
X6218Y1118D01*
X6201Y1111D01*
X6181Y1105D01*
X6161Y1101D01*
X6140Y1095D01*
X6118Y1093D01*
X6092Y1091D01*
X6067Y1090D01*
X6066D01*
X6060D01*
X6053D01*
X6042Y1091D01*
X6030Y1093D01*
X6015Y1094D01*
X5999Y1095D01*
X5981Y1098D01*
X5944Y1107D01*
X5905Y1121D01*
X5885Y1128D01*
X5867Y1138D01*
X5849Y1149D01*
X5832Y1162D01*
X5830Y1163D01*
X5827Y1164D01*
X5823Y1169D01*
X5818Y1174D01*
X5812Y1181D01*
X5803Y1190D01*
X5788Y1211D01*
X5772Y1236D01*
X5758Y1267D01*
X5753Y1284D01*
X5748Y1301D01*
X5746Y1319D01*
X5744Y1339D01*
Y1350D01*
X5746Y1359D01*
X5747Y1369D01*
X5750Y1382D01*
X5758Y1408D01*
X5764Y1424D01*
X5771Y1439D01*
X5781Y1455D01*
X5791Y1472D01*
X5803Y1489D01*
X5819Y1504D01*
X5836Y1520D01*
X5856Y1535D01*
X5857Y1537D01*
X5861Y1538D01*
X5867Y1542D01*
X5877Y1548D01*
X5889Y1554D01*
X5905Y1559D01*
X5922Y1566D01*
X5943Y1575D01*
X5967Y1582D01*
X5995Y1589D01*
X6025Y1594D01*
X6059Y1600D01*
X6095Y1606D01*
X6135Y1610D01*
X6178Y1611D01*
X6225Y1613D01*
X6226D01*
X6228D01*
X6236D01*
X6250D01*
X6267Y1611D01*
D02*
G37*
G36*
X6414Y999D02*
X6422Y997D01*
X6434Y994D01*
X6446Y990D01*
X6462Y985D01*
X6479Y980D01*
X6497Y973D01*
X6535Y956D01*
X6575Y935D01*
X6611Y911D01*
X6627Y897D01*
X6642Y881D01*
X6644Y880D01*
X6645Y877D01*
X6649Y873D01*
X6653Y866D01*
X6659Y859D01*
X6665Y849D01*
X6672Y837D01*
X6679Y825D01*
X6686Y811D01*
X6693Y795D01*
X6704Y760D01*
X6713Y720D01*
X6714Y699D01*
X6716Y677D01*
Y670D01*
X6714Y663D01*
Y651D01*
X6711Y639D01*
X6710Y623D01*
X6706Y606D01*
X6701Y588D01*
X6694Y568D01*
X6687Y548D01*
X6677Y529D01*
X6666Y507D01*
X6652Y486D01*
X6637Y467D01*
X6620Y447D01*
X6598Y429D01*
X6597Y427D01*
X6593Y424D01*
X6584Y419D01*
X6573Y412D01*
X6560Y403D01*
X6544Y395D01*
X6524Y385D01*
X6501Y375D01*
X6477Y364D01*
X6449Y354D01*
X6419Y345D01*
X6387Y337D01*
X6352Y330D01*
X6314Y324D01*
X6274Y321D01*
X6232Y320D01*
X6231D01*
X6229D01*
X6221D01*
X6208Y321D01*
X6193D01*
X6171Y323D01*
X6147Y326D01*
X6122Y330D01*
X6094Y334D01*
X6063Y340D01*
X6032Y347D01*
X6001Y355D01*
X5968Y367D01*
X5937Y379D01*
X5908Y393D01*
X5878Y410D01*
X5851Y430D01*
X5850Y431D01*
X5846Y434D01*
X5840Y440D01*
X5833Y447D01*
X5823Y457D01*
X5813Y468D01*
X5802Y482D01*
X5791Y498D01*
X5781Y515D01*
X5770Y534D01*
X5760Y555D01*
X5750Y578D01*
X5743Y603D01*
X5737Y629D01*
X5733Y657D01*
X5732Y687D01*
Y699D01*
X5733Y709D01*
X5734Y720D01*
X5736Y733D01*
X5739Y747D01*
X5743Y763D01*
X5754Y798D01*
X5761Y816D01*
X5770Y835D01*
X5781Y853D01*
X5794Y871D01*
X5808Y890D01*
X5823Y906D01*
Y908D01*
X5826Y909D01*
X5830Y912D01*
X5834Y916D01*
X5841Y922D01*
X5850Y928D01*
X5860Y935D01*
X5871Y942D01*
X5884Y949D01*
X5896Y957D01*
X5912Y964D01*
X5929Y973D01*
X5949Y980D01*
X5968Y987D01*
X5990Y994D01*
X6012Y999D01*
X6057Y843D01*
X6056D01*
X6054Y842D01*
X6050D01*
X6044Y840D01*
X6030Y836D01*
X6013Y830D01*
X5994Y822D01*
X5974Y811D01*
X5956Y798D01*
X5939Y782D01*
X5937Y781D01*
X5932Y775D01*
X5925Y765D01*
X5918Y753D01*
X5909Y737D01*
X5904Y720D01*
X5898Y701D01*
X5896Y678D01*
Y670D01*
X5898Y664D01*
X5901Y648D01*
X5906Y629D01*
X5915Y606D01*
X5929Y582D01*
X5937Y571D01*
X5947Y560D01*
X5958Y548D01*
X5973Y537D01*
X5974D01*
X5975Y534D01*
X5981Y533D01*
X5987Y529D01*
X5995Y524D01*
X6005Y520D01*
X6018Y516D01*
X6032Y510D01*
X6047Y505D01*
X6066Y500D01*
X6087Y496D01*
X6109Y492D01*
X6133Y489D01*
X6160Y486D01*
X6190Y484D01*
X6221D01*
X6222D01*
X6229D01*
X6238D01*
X6250Y485D01*
X6264D01*
X6281Y486D01*
X6300Y488D01*
X6319Y491D01*
X6362Y496D01*
X6404Y506D01*
X6424Y512D01*
X6443Y519D01*
X6460Y527D01*
X6476Y536D01*
X6477D01*
X6479Y539D01*
X6487Y546D01*
X6500Y557D01*
X6513Y574D01*
X6527Y593D01*
X6539Y616D01*
X6548Y644D01*
X6549Y658D01*
X6551Y674D01*
Y677D01*
X6549Y684D01*
X6548Y696D01*
X6545Y711D01*
X6539Y727D01*
X6531Y746D01*
X6518Y764D01*
X6503Y781D01*
X6500Y782D01*
X6493Y788D01*
X6482Y796D01*
X6465Y806D01*
X6443Y818D01*
X6417Y827D01*
X6386Y839D01*
X6348Y847D01*
X6407Y1001D01*
X6408D01*
X6414Y999D01*
D02*
G37*
%LPC*%
G36*
X24241Y9492D02*
X24083D01*
Y9250D01*
X24234D01*
X24256Y9251D01*
X24279D01*
X24301Y9254D01*
X24321Y9255D01*
X24328Y9257D01*
X24335Y9258D01*
X24337D01*
X24341Y9260D01*
X24345Y9262D01*
X24352Y9267D01*
X24361Y9272D01*
X24368Y9278D01*
X24376Y9286D01*
X24383Y9296D01*
X24385Y9298D01*
X24386Y9302D01*
X24389Y9308D01*
X24393Y9317D01*
X24396Y9327D01*
X24399Y9341D01*
X24400Y9356D01*
X24401Y9372D01*
Y9374D01*
Y9379D01*
X24400Y9388D01*
X24399Y9399D01*
X24394Y9423D01*
X24389Y9434D01*
X24383Y9446D01*
X24382Y9447D01*
X24380Y9450D01*
X24376Y9456D01*
X24370Y9461D01*
X24363Y9467D01*
X24355Y9474D01*
X24345Y9480D01*
X24334Y9484D01*
X24332D01*
X24328Y9485D01*
X24321Y9487D01*
X24310Y9488D01*
X24301Y9489D01*
X24293D01*
X24282Y9491D01*
X24256D01*
X24241Y9492D01*
D02*
G37*
G36*
X8818Y7566D02*
X8641Y7247D01*
X8818D01*
Y7566D01*
D02*
G37*
G36*
X14021Y7154D02*
X14019D01*
X14016D01*
X14012D01*
X14005D01*
X13989Y7152D01*
X13970Y7150D01*
X13947Y7147D01*
X13925Y7141D01*
X13905Y7133D01*
X13887Y7123D01*
X13885Y7121D01*
X13880Y7117D01*
X13872Y7111D01*
X13864Y7103D01*
X13857Y7092D01*
X13850Y7079D01*
X13844Y7065D01*
X13843Y7049D01*
Y7042D01*
X13844Y7034D01*
X13849Y7024D01*
X13853Y7013D01*
X13860Y7000D01*
X13870Y6987D01*
X13884Y6976D01*
X13885Y6975D01*
X13891Y6972D01*
X13901Y6966D01*
X13915Y6962D01*
X13932Y6956D01*
X13951Y6951D01*
X13977Y6948D01*
X14005Y6947D01*
X14006D01*
X14009D01*
X14013D01*
X14019D01*
X14036Y6948D01*
X14056Y6951D01*
X14077Y6955D01*
X14099Y6961D01*
X14122Y6968D01*
X14142Y6979D01*
X14143Y6980D01*
X14149Y6985D01*
X14156Y6992D01*
X14164Y7002D01*
X14174Y7013D01*
X14181Y7025D01*
X14187Y7041D01*
X14188Y7056D01*
Y7064D01*
X14187Y7071D01*
X14184Y7080D01*
X14178Y7092D01*
X14173Y7103D01*
X14163Y7114D01*
X14150Y7126D01*
X14149Y7127D01*
X14143Y7130D01*
X14133Y7134D01*
X14119Y7140D01*
X14101Y7145D01*
X14078Y7150D01*
X14052Y7152D01*
X14021Y7154D01*
D02*
G37*
G36*
X15852Y4054D02*
X15849D01*
X15844D01*
X15834Y4053D01*
X15821Y4051D01*
X15809Y4047D01*
X15794Y4043D01*
X15782Y4036D01*
X15769Y4027D01*
X15768Y4026D01*
X15765Y4023D01*
X15759Y4018D01*
X15754Y4010D01*
X15749Y4001D01*
X15744Y3989D01*
X15741Y3977D01*
X15739Y3963D01*
Y3955D01*
X15741Y3948D01*
X15744Y3939D01*
X15747Y3929D01*
X15752Y3917D01*
X15761Y3906D01*
X15770Y3895D01*
X15772Y3893D01*
X15776Y3891D01*
X15783Y3886D01*
X15792Y3882D01*
X15803Y3878D01*
X15817Y3874D01*
X15834Y3871D01*
X15852Y3869D01*
X15855D01*
X15862D01*
X15872Y3871D01*
X15885Y3872D01*
X15897Y3875D01*
X15913Y3881D01*
X15926Y3886D01*
X15938Y3895D01*
X15940Y3896D01*
X15942Y3899D01*
X15947Y3905D01*
X15952Y3913D01*
X15958Y3922D01*
X15962Y3933D01*
X15965Y3947D01*
X15966Y3961D01*
Y3968D01*
X15965Y3975D01*
X15962Y3984D01*
X15959Y3995D01*
X15955Y4006D01*
X15948Y4018D01*
X15938Y4027D01*
X15937Y4029D01*
X15933Y4032D01*
X15926Y4036D01*
X15916Y4041D01*
X15904Y4046D01*
X15889Y4050D01*
X15872Y4053D01*
X15852Y4054D01*
D02*
G37*
G36*
X16261Y4071D02*
X16260D01*
X16258D01*
X16250D01*
X16237Y4070D01*
X16222Y4067D01*
X16205Y4063D01*
X16188Y4057D01*
X16169Y4050D01*
X16154Y4039D01*
X16153Y4037D01*
X16147Y4033D01*
X16141Y4026D01*
X16133Y4018D01*
X16126Y4006D01*
X16119Y3994D01*
X16114Y3978D01*
X16113Y3961D01*
Y3954D01*
X16114Y3946D01*
X16119Y3934D01*
X16123Y3923D01*
X16130Y3910D01*
X16140Y3898D01*
X16154Y3885D01*
X16155Y3884D01*
X16161Y3881D01*
X16169Y3875D01*
X16182Y3869D01*
X16198Y3864D01*
X16215Y3858D01*
X16236Y3855D01*
X16260Y3854D01*
X16261D01*
X16262D01*
X16267D01*
X16272D01*
X16286Y3855D01*
X16303Y3858D01*
X16323Y3861D01*
X16343Y3867D01*
X16361Y3875D01*
X16378Y3885D01*
X16379Y3886D01*
X16384Y3891D01*
X16391Y3898D01*
X16398Y3908D01*
X16406Y3919D01*
X16412Y3932D01*
X16418Y3947D01*
X16419Y3964D01*
Y3971D01*
X16416Y3979D01*
X16413Y3991D01*
X16409Y4002D01*
X16402Y4015D01*
X16392Y4027D01*
X16379Y4040D01*
X16378Y4041D01*
X16372Y4044D01*
X16363Y4050D01*
X16350Y4056D01*
X16333Y4061D01*
X16313Y4067D01*
X16289Y4070D01*
X16261Y4071D01*
D02*
G37*
G36*
X14844Y1124D02*
X14842D01*
X14837Y1122D01*
X14828Y1121D01*
X14818Y1117D01*
X14807Y1109D01*
X14794Y1098D01*
X14783Y1084D01*
X14773Y1064D01*
X14772Y1062D01*
X14770Y1057D01*
X14769Y1052D01*
X14768Y1045D01*
X14765Y1035D01*
X14763Y1022D01*
X14761Y1008D01*
X14758Y991D01*
X14756Y971D01*
X14753Y949D01*
X14752Y923D01*
X14751Y895D01*
X14749Y864D01*
X14748Y829D01*
Y789D01*
Y787D01*
Y780D01*
Y770D01*
Y754D01*
X14749Y737D01*
Y718D01*
X14751Y696D01*
Y674D01*
X14753Y627D01*
X14756Y603D01*
X14759Y582D01*
X14762Y561D01*
X14765Y543D01*
X14769Y527D01*
X14773Y515D01*
X14775Y512D01*
X14777Y506D01*
X14783Y496D01*
X14792Y486D01*
X14801Y475D01*
X14814Y465D01*
X14828Y460D01*
X14844Y457D01*
X14845D01*
X14851Y458D01*
X14859Y460D01*
X14869Y464D01*
X14880Y471D01*
X14892Y481D01*
X14903Y495D01*
X14913Y515D01*
Y516D01*
X14914Y517D01*
X14916Y522D01*
X14917Y527D01*
X14918Y534D01*
X14921Y544D01*
X14924Y557D01*
X14927Y571D01*
X14928Y588D01*
X14931Y608D01*
X14934Y630D01*
X14935Y656D01*
X14937Y684D01*
X14938Y715D01*
X14940Y750D01*
Y789D01*
Y792D01*
Y799D01*
Y811D01*
Y825D01*
X14938Y842D01*
Y861D01*
X14937Y882D01*
Y905D01*
X14933Y952D01*
X14931Y976D01*
X14928Y997D01*
X14925Y1018D01*
X14921Y1036D01*
X14917Y1052D01*
X14913Y1064D01*
X14911Y1067D01*
X14909Y1074D01*
X14903Y1083D01*
X14894Y1094D01*
X14885Y1105D01*
X14873Y1114D01*
X14859Y1121D01*
X14844Y1124D01*
D02*
G37*
G36*
X10908Y11372D02*
X10818Y11071D01*
X11001D01*
X10908Y11372D01*
D02*
G37*
G36*
X10197Y11425D02*
X10110D01*
Y10887D01*
X10220D01*
X10231Y10888D01*
X10245D01*
X10261Y10889D01*
X10277Y10892D01*
X10291Y10895D01*
X10303Y10899D01*
X10304Y10900D01*
X10308Y10901D01*
X10313Y10904D01*
X10320Y10909D01*
X10335Y10919D01*
X10350Y10935D01*
X10351Y10936D01*
X10353Y10940D01*
X10357Y10946D01*
X10361Y10954D01*
X10365Y10965D01*
X10371Y10978D01*
X10376Y10995D01*
X10381Y11013D01*
Y11014D01*
X10382Y11016D01*
X10383Y11023D01*
X10386Y11035D01*
X10388Y11050D01*
X10391Y11071D01*
X10392Y11095D01*
X10394Y11122D01*
Y11154D01*
Y11155D01*
Y11157D01*
Y11162D01*
Y11168D01*
Y11177D01*
X10393Y11185D01*
Y11205D01*
X10391Y11228D01*
X10388Y11251D01*
X10386Y11275D01*
X10381Y11295D01*
Y11297D01*
Y11298D01*
X10379Y11304D01*
X10376Y11313D01*
X10371Y11325D01*
X10367Y11339D01*
X10359Y11353D01*
X10352Y11366D01*
X10343Y11378D01*
X10341Y11380D01*
X10338Y11383D01*
X10332Y11388D01*
X10325Y11395D01*
X10315Y11401D01*
X10304Y11408D01*
X10292Y11413D01*
X10279Y11418D01*
X10278D01*
X10273Y11419D01*
X10266Y11420D01*
X10255Y11422D01*
X10239Y11423D01*
X10221Y11424D01*
X10197Y11425D01*
D02*
G37*
G36*
X20754Y10801D02*
X20453Y10708D01*
X20754Y10618D01*
Y10801D01*
D02*
G37*
G36*
X20702Y10194D02*
X20671D01*
X20670D01*
X20668D01*
X20663D01*
X20657D01*
X20648D01*
X20640Y10193D01*
X20620D01*
X20597Y10191D01*
X20574Y10188D01*
X20550Y10186D01*
X20529Y10181D01*
X20528D01*
X20527D01*
X20521Y10179D01*
X20511Y10176D01*
X20499Y10171D01*
X20486Y10167D01*
X20472Y10159D01*
X20459Y10152D01*
X20447Y10143D01*
X20445Y10141D01*
X20442Y10138D01*
X20437Y10132D01*
X20430Y10125D01*
X20424Y10115D01*
X20416Y10104D01*
X20412Y10092D01*
X20407Y10079D01*
Y10078D01*
X20406Y10073D01*
X20404Y10066D01*
X20403Y10055D01*
X20402Y10039D01*
X20401Y10021D01*
X20400Y9997D01*
Y9910D01*
X20938D01*
Y10020D01*
X20937Y10031D01*
Y10045D01*
X20935Y10061D01*
X20933Y10077D01*
X20929Y10091D01*
X20926Y10103D01*
X20925Y10104D01*
X20923Y10108D01*
X20921Y10113D01*
X20916Y10120D01*
X20905Y10135D01*
X20890Y10150D01*
X20889Y10151D01*
X20885Y10153D01*
X20879Y10157D01*
X20871Y10161D01*
X20860Y10165D01*
X20847Y10171D01*
X20830Y10176D01*
X20812Y10181D01*
X20811D01*
X20809Y10182D01*
X20802Y10183D01*
X20790Y10186D01*
X20774Y10188D01*
X20754Y10191D01*
X20730Y10192D01*
X20702Y10194D01*
D02*
G37*
G36*
X13091Y4162D02*
X12937Y3885D01*
X13091D01*
Y4162D01*
D02*
G37*
G36*
X12459Y4207D02*
X12369Y3906D01*
X12551D01*
X12459Y4207D01*
D02*
G37*
G36*
X11747Y4260D02*
X11660D01*
Y3722D01*
X11770D01*
X11781Y3723D01*
X11795D01*
X11811Y3724D01*
X11827Y3727D01*
X11841Y3730D01*
X11853Y3734D01*
X11854Y3735D01*
X11858Y3736D01*
X11863Y3739D01*
X11870Y3744D01*
X11886Y3754D01*
X11900Y3770D01*
X11901Y3771D01*
X11904Y3775D01*
X11907Y3781D01*
X11911Y3789D01*
X11916Y3800D01*
X11922Y3813D01*
X11926Y3830D01*
X11931Y3848D01*
Y3849D01*
X11932Y3851D01*
X11934Y3858D01*
X11936Y3870D01*
X11938Y3885D01*
X11941Y3906D01*
X11942Y3930D01*
X11944Y3957D01*
Y3989D01*
Y3990D01*
Y3992D01*
Y3997D01*
Y4003D01*
Y4012D01*
X11943Y4020D01*
Y4040D01*
X11941Y4063D01*
X11938Y4086D01*
X11936Y4110D01*
X11931Y4130D01*
Y4132D01*
Y4133D01*
X11929Y4139D01*
X11926Y4149D01*
X11922Y4161D01*
X11917Y4174D01*
X11910Y4188D01*
X11902Y4201D01*
X11893Y4213D01*
X11892Y4215D01*
X11888Y4218D01*
X11882Y4223D01*
X11875Y4230D01*
X11865Y4236D01*
X11854Y4243D01*
X11842Y4248D01*
X11829Y4253D01*
X11828D01*
X11823Y4254D01*
X11816Y4255D01*
X11805Y4257D01*
X11789Y4258D01*
X11771Y4259D01*
X11747Y4260D01*
D02*
G37*
G36*
X18990Y11028D02*
X18845D01*
Y10805D01*
X18984D01*
X19004Y10807D01*
X19025D01*
X19046Y10809D01*
X19064Y10810D01*
X19070Y10812D01*
X19077Y10813D01*
X19078D01*
X19082Y10814D01*
X19086Y10817D01*
X19093Y10821D01*
X19100Y10826D01*
X19107Y10831D01*
X19115Y10839D01*
X19121Y10848D01*
X19122Y10849D01*
X19124Y10853D01*
X19126Y10858D01*
X19130Y10867D01*
X19133Y10876D01*
X19135Y10889D01*
X19137Y10902D01*
X19138Y10918D01*
Y10919D01*
Y10924D01*
X19137Y10932D01*
X19135Y10943D01*
X19131Y10965D01*
X19126Y10975D01*
X19121Y10985D01*
X19120Y10987D01*
X19118Y10989D01*
X19115Y10994D01*
X19109Y11000D01*
X19103Y11005D01*
X19095Y11011D01*
X19086Y11016D01*
X19076Y11020D01*
X19074D01*
X19070Y11022D01*
X19064Y11023D01*
X19054Y11024D01*
X19046Y11025D01*
X19038D01*
X19028Y11027D01*
X19004D01*
X18990Y11028D01*
D02*
G37*
G36*
X24241Y10517D02*
X24083D01*
Y10275D01*
X24234D01*
X24256Y10276D01*
X24279D01*
X24301Y10279D01*
X24321Y10280D01*
X24328Y10282D01*
X24335Y10283D01*
X24337D01*
X24341Y10285D01*
X24345Y10287D01*
X24352Y10292D01*
X24361Y10297D01*
X24368Y10303D01*
X24376Y10311D01*
X24383Y10321D01*
X24385Y10323D01*
X24386Y10327D01*
X24389Y10333D01*
X24393Y10342D01*
X24396Y10352D01*
X24399Y10366D01*
X24400Y10381D01*
X24401Y10397D01*
Y10399D01*
Y10404D01*
X24400Y10413D01*
X24399Y10424D01*
X24394Y10448D01*
X24389Y10459D01*
X24383Y10471D01*
X24382Y10472D01*
X24380Y10475D01*
X24376Y10481D01*
X24370Y10486D01*
X24363Y10492D01*
X24355Y10499D01*
X24345Y10505D01*
X24334Y10509D01*
X24332D01*
X24328Y10510D01*
X24321Y10512D01*
X24310Y10513D01*
X24301Y10514D01*
X24293D01*
X24282Y10516D01*
X24256D01*
X24241Y10517D01*
D02*
G37*
G36*
X6081Y1445D02*
X6080D01*
X6077D01*
X6073D01*
X6067D01*
X6050Y1444D01*
X6030Y1441D01*
X6009Y1436D01*
X5985Y1429D01*
X5964Y1421D01*
X5944Y1410D01*
X5943Y1408D01*
X5937Y1404D01*
X5929Y1397D01*
X5920Y1387D01*
X5912Y1376D01*
X5904Y1363D01*
X5898Y1349D01*
X5896Y1334D01*
Y1327D01*
X5898Y1318D01*
X5901Y1310D01*
X5906Y1298D01*
X5913Y1286D01*
X5923Y1274D01*
X5936Y1263D01*
X5937Y1262D01*
X5943Y1259D01*
X5953Y1255D01*
X5967Y1250D01*
X5985Y1245D01*
X6008Y1241D01*
X6035Y1238D01*
X6067Y1236D01*
X6068D01*
X6071D01*
X6076D01*
X6083D01*
X6098Y1238D01*
X6118Y1241D01*
X6140Y1243D01*
X6161Y1249D01*
X6183Y1256D01*
X6201Y1266D01*
X6202Y1267D01*
X6208Y1272D01*
X6214Y1279D01*
X6222Y1287D01*
X6229Y1298D01*
X6236Y1311D01*
X6242Y1325D01*
X6243Y1341D01*
Y1348D01*
X6240Y1356D01*
X6238Y1366D01*
X6233Y1377D01*
X6226Y1390D01*
X6216Y1401D01*
X6204Y1414D01*
X6202Y1415D01*
X6197Y1418D01*
X6187Y1424D01*
X6173Y1429D01*
X6156Y1435D01*
X6135Y1441D01*
X6109Y1444D01*
X6081Y1445D01*
D02*
G37*
%LPD*%
D10*
X11400Y9475D02*
G03*
X10400Y9475I-500J0D01*
G01*
X13100Y9150D02*
G03*
X13100Y9150I-100J0D01*
G01*
X21970Y8985D02*
G03*
X21970Y8985I-100J0D01*
G01*
X10835Y2775D02*
G03*
X10835Y2775I-100J0D01*
G01*
X5100Y3600D02*
G03*
X5100Y3600I-100J0D01*
G01*
X10250Y7530D02*
X13325Y7530D01*
X10250Y9080D02*
X13325Y9080D01*
X10250Y7530D02*
Y9080D01*
X13325Y9080D02*
X13325Y7530D01*
X9350Y12650D02*
X12400D01*
X9350Y9450D02*
X12400D01*
X14555Y9070D02*
X14555Y5995D01*
X16105Y5995D02*
Y9070D01*
X14555Y9070D02*
X16105Y9070D01*
X14555Y5995D02*
X16105Y5995D01*
X19920Y9205D02*
X21420Y9205D01*
X19920Y12245D02*
X21420Y12245D01*
X19920Y11105D02*
X19920Y10345D01*
X16675Y5995D02*
X16675Y9070D01*
X18225D02*
X18225Y5995D01*
X16675Y9070D02*
X18225D01*
X16675Y5995D02*
X18225Y5995D01*
X22950Y10875D02*
X25125Y10875D01*
X22950Y12075D02*
X25125Y12075D01*
X22950Y10875D02*
X22950Y12075D01*
X25125Y12075D02*
X25125Y10875D01*
X16350Y12530D02*
X18525Y12530D01*
X16350Y11330D02*
X18525Y11330D01*
X18525Y12530D01*
X16350Y12530D02*
X16350Y11330D01*
X12095Y4725D02*
X12855Y4725D01*
X13995Y4725D02*
X13995Y3225D01*
X10955Y4725D02*
X10955Y3225D01*
X6895Y5280D02*
X10320Y5280D01*
X6895Y320D02*
X10320Y320D01*
X10320Y5280D02*
X10320Y320D01*
X6895Y320D02*
X6895Y5280D01*
D11*
X18525Y10975D02*
X18750Y10800D01*
X18430Y9325D02*
X18892Y8965D01*
X13773Y8992D02*
X14295Y9800D01*
X14780Y12555D02*
X15840Y12555D01*
X14780Y10595D02*
X15840D01*
X14780Y12555D02*
X14780Y10595D01*
X15840Y12555D02*
X15840Y10595D01*
X7760Y8045D02*
Y9105D01*
X9720Y8045D02*
Y9105D01*
X7760Y8045D02*
X9720D01*
X7760Y9105D02*
X9720D01*
X16255Y9320D02*
X16255Y10380D01*
X14295Y10380D02*
X14295Y9320D01*
X14295Y10380D02*
X16255Y10380D01*
X14295Y9320D02*
X16255Y9320D01*
X16470Y9325D02*
X16470Y10385D01*
X18430Y9325D02*
X18430Y10385D01*
X16470Y9325D02*
X18430Y9325D01*
X16470Y10385D02*
X18430Y10385D01*
X14345Y2995D02*
X15405Y2995D01*
X14345Y4955D02*
X15405D01*
X15405Y2995D01*
X14345Y2995D02*
X14345Y4955D01*
X13030Y270D02*
X13030Y1330D01*
X11070Y270D02*
Y1330D01*
X13030Y1330D01*
X11070Y270D02*
X13030D01*
D12*
X5100Y4400D02*
X5100Y4200D01*
X4400Y3500D02*
X5100Y4200D01*
X4100Y3500D02*
X4400D01*
X700Y3500D02*
X2500Y3500D01*
X5100Y9500D02*
X5100Y8600D01*
X4100Y9500D02*
X5100Y9500D01*
X700Y4400D02*
X700Y3500D01*
X700Y8600D02*
X700Y9500D01*
X2500Y9500D01*
M02*
