G04*
G04 #@! TF.GenerationSoftware,Altium Limited,Altium Designer,22.7.1 (60)*
G04*
G04 Layer_Physical_Order=2*
G04 Layer_Color=1930808*
%FSLAX43Y43*%
%MOMM*%
G71*
G04*
G04 #@! TF.SameCoordinates,DF1E0758-EE3D-4B36-99E4-D52E4057D36D*
G04*
G04*
G04 #@! TF.FilePolarity,Positive*
G04*
G01*
G75*
%ADD42C,0.700*%
G36*
X5705Y12745D02*
X5773Y12618D01*
X5704Y12515D01*
X5661Y12300D01*
X5704Y12085D01*
X5826Y11903D01*
X6008Y11782D01*
X6222Y11739D01*
X6437Y11782D01*
X6619Y11903D01*
X6740Y12085D01*
X6783Y12300D01*
X6740Y12515D01*
X6671Y12618D01*
X6739Y12745D01*
X25173Y12745D01*
X25300Y12745D01*
X25418Y12722D01*
X25471Y12712D01*
X25615Y12615D01*
X25712Y12471D01*
X25745Y12302D01*
X25745Y12300D01*
Y700D01*
X25745Y698D01*
X25712Y529D01*
X25615Y385D01*
X25471Y288D01*
X25418Y278D01*
X25300Y255D01*
X25300Y255D01*
X25176Y255D01*
X700Y255D01*
X698Y255D01*
X529Y288D01*
X385Y385D01*
X288Y529D01*
X255Y698D01*
X255Y700D01*
Y12300D01*
X255Y12302D01*
X288Y12471D01*
X385Y12615D01*
X529Y12712D01*
X582Y12722D01*
X700Y12745D01*
Y12745D01*
X700Y12745D01*
X5705D01*
D02*
G37*
%LPC*%
G36*
X6222Y10361D02*
X6008Y10318D01*
X5826Y10197D01*
X5704Y10015D01*
X5661Y9800D01*
X5704Y9585D01*
X5826Y9403D01*
X6008Y9282D01*
X6222Y9239D01*
X6437Y9282D01*
X6619Y9403D01*
X6740Y9585D01*
X6783Y9800D01*
X6740Y10015D01*
X6619Y10197D01*
X6437Y10318D01*
X6222Y10361D01*
D02*
G37*
G36*
X13700Y9761D02*
X13485Y9718D01*
X13303Y9597D01*
X13182Y9415D01*
X13139Y9200D01*
X13182Y8985D01*
X13303Y8803D01*
X13485Y8682D01*
X13700Y8639D01*
X13915Y8682D01*
X14097Y8803D01*
X14218Y8985D01*
X14261Y9200D01*
X14218Y9415D01*
X14097Y9597D01*
X13915Y9718D01*
X13700Y9761D01*
D02*
G37*
G36*
X13825Y8111D02*
X13610Y8068D01*
X13428Y7947D01*
X13307Y7765D01*
X13273Y7596D01*
X13200Y7611D01*
X12985Y7568D01*
X12803Y7447D01*
X12794Y7432D01*
X12665Y7518D01*
X12450Y7561D01*
X12235Y7518D01*
X12075Y7411D01*
X11915Y7518D01*
X11700Y7561D01*
X11485Y7518D01*
X11325Y7411D01*
X11165Y7518D01*
X10950Y7561D01*
X10735Y7518D01*
X10553Y7397D01*
X10432Y7215D01*
X10389Y7000D01*
X10432Y6785D01*
X10553Y6603D01*
X10735Y6482D01*
X10950Y6439D01*
X11165Y6482D01*
X11325Y6589D01*
X11485Y6482D01*
X11700Y6439D01*
X11915Y6482D01*
X12075Y6589D01*
X12235Y6482D01*
X12450Y6439D01*
X12665Y6482D01*
X12847Y6603D01*
X12856Y6618D01*
X12985Y6532D01*
X13200Y6489D01*
X13415Y6532D01*
X13597Y6653D01*
X13718Y6835D01*
X13752Y7004D01*
X13825Y6989D01*
X14040Y7032D01*
X14222Y7153D01*
X14343Y7335D01*
X14386Y7550D01*
X14343Y7765D01*
X14222Y7947D01*
X14040Y8068D01*
X13825Y8111D01*
D02*
G37*
G36*
X24750Y3461D02*
X24535Y3418D01*
X24375Y3311D01*
X24215Y3418D01*
X24000Y3461D01*
X23785Y3418D01*
X23625Y3311D01*
X23465Y3418D01*
X23250Y3461D01*
X23035Y3418D01*
X22853Y3297D01*
X22732Y3115D01*
X22689Y2900D01*
X22732Y2685D01*
X22853Y2503D01*
Y2397D01*
X22732Y2215D01*
X22689Y2000D01*
X22732Y1785D01*
X22853Y1603D01*
X23035Y1482D01*
X23250Y1439D01*
X23465Y1482D01*
X23625Y1589D01*
X23785Y1482D01*
X24000Y1439D01*
X24215Y1482D01*
X24375Y1589D01*
X24535Y1482D01*
X24750Y1439D01*
X24965Y1482D01*
X25147Y1603D01*
X25268Y1785D01*
X25311Y2000D01*
X25268Y2215D01*
X25147Y2397D01*
Y2503D01*
X25268Y2685D01*
X25311Y2900D01*
X25268Y3115D01*
X25147Y3297D01*
X24965Y3418D01*
X24750Y3461D01*
D02*
G37*
G36*
X6500Y2561D02*
X6285Y2518D01*
X6170Y2441D01*
X6075Y2407D01*
X5980Y2441D01*
X5865Y2518D01*
X5650Y2561D01*
X5435Y2518D01*
X5320Y2441D01*
X5225Y2407D01*
X5130Y2441D01*
X5015Y2518D01*
X4800Y2561D01*
X4585Y2518D01*
X4403Y2397D01*
X4282Y2215D01*
X4239Y2000D01*
X4282Y1785D01*
X4403Y1603D01*
Y1497D01*
X4282Y1315D01*
X4239Y1100D01*
X4282Y885D01*
X4403Y703D01*
X4585Y582D01*
X4800Y539D01*
X5015Y582D01*
X5130Y659D01*
X5225Y693D01*
X5320Y659D01*
X5435Y582D01*
X5650Y539D01*
X5865Y582D01*
X5980Y659D01*
X6075Y693D01*
X6170Y659D01*
X6285Y582D01*
X6500Y539D01*
X6715Y582D01*
X6897Y703D01*
X7018Y885D01*
X7061Y1100D01*
X7018Y1315D01*
X6897Y1497D01*
Y1603D01*
X7018Y1785D01*
X7061Y2000D01*
X7018Y2215D01*
X6897Y2397D01*
X6715Y2518D01*
X6500Y2561D01*
D02*
G37*
%LPD*%
D42*
X16200Y5800D02*
D03*
X15330Y5737D02*
D03*
X10950Y4000D02*
D03*
X13600Y800D02*
D03*
X12500Y1600D02*
D03*
X15450Y1400D02*
D03*
X24100Y9200D02*
D03*
X20700Y5330D02*
D03*
X17500Y10750D02*
D03*
X16470Y10700D02*
D03*
X21950Y801D02*
D03*
X20380Y2000D02*
D03*
X24000Y12293D02*
D03*
X23370Y9900D02*
D03*
X11600Y9800D02*
D03*
X14445Y12300D02*
D03*
X11700Y12350D02*
D03*
X11700Y11250D02*
D03*
X14405Y2005D02*
D03*
X18075Y960D02*
D03*
X9900Y7400D02*
D03*
X8140Y6745D02*
D03*
X9120Y6964D02*
D03*
X8240Y7692D02*
D03*
X25279Y10625D02*
D03*
X700Y10145D02*
D03*
X1550D02*
D03*
X2400D02*
D03*
Y7445D02*
D03*
Y8345D02*
D03*
Y9245D02*
D03*
X1550D02*
D03*
X700D02*
D03*
M02*
