G04*
G04 #@! TF.GenerationSoftware,Altium Limited,Altium Designer,22.7.1 (60)*
G04*
G04 Layer_Physical_Order=3*
G04 Layer_Color=255*
%FSLAX43Y43*%
%MOMM*%
G71*
G04*
G04 #@! TF.SameCoordinates,4835CE25-E48C-4DDB-B082-209FFF86AC7D*
G04*
G04*
G04 #@! TF.FilePolarity,Positive*
G04*
G01*
G75*
%ADD33C,0.700*%
G36*
X22206Y12990D02*
X14853Y255D01*
X10298D01*
X10279Y455D01*
X10312Y462D01*
X10415Y482D01*
X10597Y603D01*
X10718Y785D01*
X10761Y1000D01*
X10718Y1215D01*
X10597Y1397D01*
X10415Y1518D01*
X10200Y1561D01*
X9985Y1518D01*
X9803Y1397D01*
X9682Y1215D01*
X9639Y1000D01*
X9682Y785D01*
X9803Y603D01*
X9985Y482D01*
X10088Y462D01*
X10121Y455D01*
X10102Y255D01*
X147D01*
X-7206Y12990D01*
X147Y25726D01*
X14853D01*
X22206Y12990D01*
D02*
G37*
%LPC*%
G36*
X4800Y25511D02*
X4585Y25468D01*
X4403Y25347D01*
X4282Y25165D01*
X4239Y24950D01*
X4282Y24735D01*
X4403Y24553D01*
X4585Y24432D01*
X4800Y24389D01*
X5015Y24432D01*
X5197Y24553D01*
X5318Y24735D01*
X5361Y24950D01*
X5318Y25165D01*
X5197Y25347D01*
X5015Y25468D01*
X4800Y25511D01*
D02*
G37*
G36*
X2021Y23694D02*
X2008Y23691D01*
X1994Y23692D01*
X1733Y23657D01*
X1714Y23651D01*
X1708Y23650D01*
X1701Y23648D01*
X1682Y23644D01*
X1438Y23543D01*
X1422Y23532D01*
X1416Y23529D01*
X1410Y23525D01*
X1392Y23516D01*
X1183Y23356D01*
X1170Y23341D01*
X1165Y23337D01*
X1161Y23332D01*
X1146Y23318D01*
X985Y23109D01*
X977Y23091D01*
X973Y23086D01*
X970Y23080D01*
X959Y23063D01*
X858Y22820D01*
X854Y22800D01*
X852Y22794D01*
X851Y22788D01*
X844Y22769D01*
X810Y22508D01*
X811Y22488D01*
X810Y22481D01*
X811Y22474D01*
X810Y22454D01*
X844Y22193D01*
X851Y22174D01*
X852Y22168D01*
X854Y22162D01*
X858Y22142D01*
X959Y21899D01*
X970Y21882D01*
X973Y21876D01*
X977Y21871D01*
X985Y21853D01*
X1146Y21644D01*
X1161Y21630D01*
X1165Y21625D01*
X1170Y21621D01*
X1183Y21606D01*
X1392Y21446D01*
X1410Y21437D01*
X1416Y21433D01*
X1422Y21430D01*
X1438Y21419D01*
X1682Y21318D01*
X1701Y21314D01*
X1708Y21312D01*
X1714Y21311D01*
X1733Y21305D01*
X1994Y21270D01*
X2008Y21271D01*
X2021Y21268D01*
X2034Y21271D01*
X2047Y21270D01*
X2308Y21305D01*
X2327Y21311D01*
X2334Y21312D01*
X2340Y21314D01*
X2360Y21318D01*
X2603Y21419D01*
X2620Y21430D01*
X2626Y21433D01*
X2631Y21437D01*
X2649Y21446D01*
X2858Y21606D01*
X2871Y21621D01*
X2877Y21625D01*
X2881Y21630D01*
X2896Y21644D01*
X3056Y21853D01*
X3065Y21871D01*
X3069Y21876D01*
X3072Y21882D01*
X3083Y21899D01*
X3183Y22142D01*
X3187Y22162D01*
X3190Y22168D01*
X3191Y22174D01*
X3197Y22193D01*
X3232Y22454D01*
X3230Y22474D01*
X3231Y22481D01*
X3230Y22488D01*
X3232Y22508D01*
X3197Y22769D01*
X3191Y22788D01*
X3190Y22794D01*
X3187Y22800D01*
X3183Y22820D01*
X3083Y23063D01*
X3072Y23080D01*
X3069Y23086D01*
X3065Y23091D01*
X3056Y23109D01*
X2896Y23318D01*
X2881Y23332D01*
X2877Y23337D01*
X2871Y23341D01*
X2858Y23356D01*
X2649Y23516D01*
X2631Y23525D01*
X2626Y23529D01*
X2620Y23532D01*
X2603Y23543D01*
X2360Y23644D01*
X2340Y23648D01*
X2334Y23650D01*
X2327Y23651D01*
X2308Y23657D01*
X2047Y23692D01*
X2034Y23691D01*
X2021Y23694D01*
D02*
G37*
G36*
X13039Y23693D02*
X13025Y23691D01*
X13012Y23692D01*
X12751Y23657D01*
X12732Y23651D01*
X12725Y23650D01*
X12719Y23647D01*
X12700Y23644D01*
X12456Y23543D01*
X12440Y23532D01*
X12433Y23529D01*
X12428Y23525D01*
X12410Y23516D01*
X12201Y23356D01*
X12188Y23341D01*
X12183Y23337D01*
X12179Y23331D01*
X12164Y23318D01*
X12003Y23109D01*
X11994Y23091D01*
X11990Y23086D01*
X11988Y23080D01*
X11977Y23063D01*
X11876Y22820D01*
X11872Y22800D01*
X11870Y22794D01*
X11869Y22788D01*
X11862Y22769D01*
X11828Y22507D01*
X11829Y22487D01*
X11828Y22481D01*
X11829Y22474D01*
X11828Y22454D01*
X11862Y22193D01*
X11869Y22174D01*
X11870Y22168D01*
X11872Y22161D01*
X11876Y22142D01*
X11977Y21899D01*
X11988Y21882D01*
X11990Y21876D01*
X11994Y21870D01*
X12003Y21852D01*
X12164Y21644D01*
X12179Y21630D01*
X12183Y21625D01*
X12188Y21621D01*
X12201Y21606D01*
X12410Y21446D01*
X12428Y21437D01*
X12433Y21433D01*
X12440Y21430D01*
X12456Y21419D01*
X12700Y21318D01*
X12719Y21314D01*
X12725Y21312D01*
X12732Y21311D01*
X12751Y21304D01*
X13012Y21270D01*
X13025Y21271D01*
X13039Y21268D01*
X13052Y21271D01*
X13065Y21270D01*
X13326Y21304D01*
X13345Y21311D01*
X13352Y21312D01*
X13358Y21314D01*
X13378Y21318D01*
X13621Y21419D01*
X13638Y21430D01*
X13644Y21433D01*
X13649Y21437D01*
X13667Y21446D01*
X13876Y21606D01*
X13889Y21621D01*
X13894Y21625D01*
X13899Y21630D01*
X13914Y21644D01*
X14074Y21852D01*
X14083Y21870D01*
X14087Y21876D01*
X14089Y21882D01*
X14101Y21899D01*
X14201Y22142D01*
X14205Y22161D01*
X14208Y22168D01*
X14209Y22174D01*
X14215Y22193D01*
X14249Y22454D01*
X14248Y22474D01*
X14249Y22481D01*
X14248Y22487D01*
X14249Y22507D01*
X14215Y22769D01*
X14209Y22788D01*
X14208Y22794D01*
X14205Y22800D01*
X14201Y22820D01*
X14101Y23063D01*
X14089Y23080D01*
X14087Y23086D01*
X14083Y23091D01*
X14074Y23109D01*
X13914Y23318D01*
X13899Y23331D01*
X13894Y23337D01*
X13889Y23341D01*
X13876Y23356D01*
X13667Y23516D01*
X13649Y23525D01*
X13644Y23529D01*
X13638Y23532D01*
X13621Y23543D01*
X13378Y23644D01*
X13358Y23647D01*
X13352Y23650D01*
X13345Y23651D01*
X13326Y23657D01*
X13065Y23692D01*
X13052Y23691D01*
X13039Y23693D01*
D02*
G37*
G36*
X6400Y24061D02*
X6185Y24018D01*
X6003Y23897D01*
X5882Y23715D01*
X5839Y23500D01*
X5882Y23285D01*
X6003Y23103D01*
X6185Y22982D01*
X6400Y22939D01*
X6615Y22982D01*
X6797Y23103D01*
X6918Y23285D01*
X6961Y23500D01*
X6918Y23715D01*
X6797Y23897D01*
X6615Y24018D01*
X6400Y24061D01*
D02*
G37*
G36*
X16500Y21861D02*
X16285Y21818D01*
X16103Y21697D01*
X15982Y21515D01*
X15939Y21300D01*
X15982Y21085D01*
X16103Y20903D01*
X16285Y20782D01*
X16500Y20739D01*
X16715Y20782D01*
X16897Y20903D01*
X17018Y21085D01*
X17061Y21300D01*
X17018Y21515D01*
X16897Y21697D01*
X16715Y21818D01*
X16500Y21861D01*
D02*
G37*
G36*
X10065Y21661D02*
X9850Y21618D01*
X9668Y21497D01*
X9547Y21315D01*
X9504Y21100D01*
X9547Y20885D01*
X9668Y20703D01*
X9850Y20582D01*
X10065Y20539D01*
X10280Y20582D01*
X10462Y20703D01*
X10583Y20885D01*
X10626Y21100D01*
X10583Y21315D01*
X10462Y21497D01*
X10280Y21618D01*
X10065Y21661D01*
D02*
G37*
G36*
X4500Y21478D02*
X4285Y21436D01*
X4103Y21314D01*
X3982Y21132D01*
X3939Y20918D01*
X3982Y20703D01*
X4103Y20521D01*
X4285Y20400D01*
X4500Y20357D01*
X4715Y20400D01*
X4896Y20521D01*
X5018Y20703D01*
X5061Y20918D01*
X5018Y21132D01*
X4896Y21314D01*
X4715Y21436D01*
X4500Y21478D01*
D02*
G37*
G36*
X13300Y20061D02*
X13086Y20018D01*
X12904Y19897D01*
X12782Y19715D01*
X12740Y19500D01*
X12768Y19356D01*
X12659Y19258D01*
X12604Y19220D01*
X12400Y19261D01*
X12185Y19218D01*
X12003Y19097D01*
X11882Y18915D01*
X11839Y18700D01*
X11882Y18485D01*
X12003Y18303D01*
X12185Y18182D01*
X12400Y18139D01*
X12615Y18182D01*
X12797Y18303D01*
X12918Y18485D01*
X12961Y18700D01*
X12932Y18844D01*
X13042Y18942D01*
X13097Y18980D01*
X13300Y18939D01*
X13515Y18982D01*
X13697Y19103D01*
X13818Y19285D01*
X13861Y19500D01*
X13818Y19715D01*
X13697Y19897D01*
X13515Y20018D01*
X13300Y20061D01*
D02*
G37*
G36*
X15900Y19861D02*
X15685Y19818D01*
X15503Y19697D01*
X15382Y19515D01*
X15339Y19300D01*
X15382Y19085D01*
X15503Y18903D01*
X15685Y18782D01*
X15900Y18739D01*
X16115Y18782D01*
X16297Y18903D01*
X16418Y19085D01*
X16461Y19300D01*
X16418Y19515D01*
X16297Y19697D01*
X16115Y19818D01*
X15900Y19861D01*
D02*
G37*
G36*
X2200Y19561D02*
X1985Y19518D01*
X1803Y19397D01*
X1682Y19215D01*
X1639Y19000D01*
X1682Y18785D01*
X1803Y18603D01*
X1985Y18482D01*
X2200Y18439D01*
X2415Y18482D01*
X2597Y18603D01*
X2718Y18785D01*
X2761Y19000D01*
X2718Y19215D01*
X2597Y19397D01*
X2415Y19518D01*
X2200Y19561D01*
D02*
G37*
G36*
X9956Y18160D02*
X9741Y18117D01*
X9560Y17995D01*
X9438Y17813D01*
X9395Y17599D01*
X9438Y17384D01*
X9560Y17202D01*
X9741Y17081D01*
X9956Y17038D01*
X10171Y17081D01*
X10353Y17202D01*
X10474Y17384D01*
X10517Y17599D01*
X10474Y17813D01*
X10353Y17995D01*
X10171Y18117D01*
X9956Y18160D01*
D02*
G37*
G36*
X-2300Y17761D02*
X-2515Y17718D01*
X-2697Y17597D01*
X-2818Y17415D01*
X-2861Y17200D01*
X-2818Y16985D01*
X-2772Y16916D01*
X-2916Y16772D01*
X-2985Y16818D01*
X-3200Y16861D01*
X-3357Y16830D01*
X-3416Y16819D01*
X-3570Y16954D01*
X-3582Y17012D01*
X-3703Y17194D01*
X-3885Y17316D01*
X-4100Y17358D01*
X-4315Y17316D01*
X-4497Y17194D01*
X-4618Y17012D01*
X-4661Y16798D01*
X-4618Y16583D01*
X-4497Y16401D01*
X-4315Y16279D01*
X-4100Y16237D01*
X-3943Y16268D01*
X-3884Y16278D01*
X-3730Y16143D01*
X-3718Y16085D01*
X-3597Y15903D01*
X-3415Y15782D01*
X-3200Y15739D01*
X-2985Y15782D01*
X-2803Y15903D01*
X-2682Y16085D01*
X-2639Y16300D01*
X-2682Y16515D01*
X-2728Y16584D01*
X-2584Y16728D01*
X-2515Y16682D01*
X-2300Y16639D01*
X-2085Y16682D01*
X-1903Y16803D01*
X-1782Y16985D01*
X-1739Y17200D01*
X-1782Y17415D01*
X-1903Y17597D01*
X-2085Y17718D01*
X-2300Y17761D01*
D02*
G37*
G36*
X9200Y16876D02*
X8985Y16833D01*
X8803Y16712D01*
X8682Y16530D01*
X8639Y16315D01*
X8682Y16101D01*
X8803Y15919D01*
X8985Y15797D01*
X9200Y15754D01*
X9415Y15797D01*
X9597Y15919D01*
X9718Y16101D01*
X9761Y16315D01*
X9718Y16530D01*
X9597Y16712D01*
X9415Y16833D01*
X9200Y16876D01*
D02*
G37*
G36*
X4100Y17461D02*
X3885Y17418D01*
X3703Y17297D01*
X3582Y17115D01*
X3539Y16900D01*
X3582Y16685D01*
X3703Y16503D01*
X3885Y16382D01*
X4100Y16339D01*
X4286Y16376D01*
X4386Y16303D01*
X4451Y16232D01*
X4424Y16100D01*
X4467Y15885D01*
X4588Y15703D01*
X4770Y15582D01*
X4985Y15539D01*
X5200Y15582D01*
X5382Y15703D01*
X5501Y15882D01*
X5545Y15940D01*
X5685Y15999D01*
X5900Y15956D01*
X5973Y15971D01*
X6182Y15885D01*
X6303Y15703D01*
X6485Y15582D01*
X6700Y15539D01*
X6915Y15582D01*
X7097Y15703D01*
X7218Y15885D01*
X7261Y16100D01*
X7218Y16315D01*
X7097Y16497D01*
X6915Y16618D01*
X6700Y16661D01*
X6627Y16646D01*
X6418Y16731D01*
X6297Y16913D01*
X6115Y17035D01*
X5900Y17078D01*
X5685Y17035D01*
X5503Y16913D01*
X5384Y16735D01*
X5340Y16676D01*
X5200Y16618D01*
X4985Y16661D01*
X4799Y16624D01*
X4699Y16697D01*
X4634Y16768D01*
X4661Y16900D01*
X4618Y17115D01*
X4497Y17297D01*
X4315Y17418D01*
X4100Y17461D01*
D02*
G37*
G36*
X12300Y16305D02*
X12085Y16262D01*
X11903Y16140D01*
X11782Y15959D01*
X11739Y15744D01*
X11782Y15529D01*
X11903Y15347D01*
X12085Y15226D01*
X12300Y15183D01*
X12515Y15226D01*
X12697Y15347D01*
X12818Y15529D01*
X12861Y15744D01*
X12818Y15959D01*
X12697Y16140D01*
X12515Y16262D01*
X12300Y16305D01*
D02*
G37*
G36*
X16753Y15861D02*
X16538Y15818D01*
X16356Y15697D01*
X16235Y15515D01*
X16192Y15300D01*
X16235Y15085D01*
X16356Y14903D01*
X16538Y14782D01*
X16753Y14739D01*
X16967Y14782D01*
X17149Y14903D01*
X17271Y15085D01*
X17314Y15300D01*
X17271Y15515D01*
X17149Y15697D01*
X16967Y15818D01*
X16753Y15861D01*
D02*
G37*
G36*
X-3488Y14152D02*
X-3501Y14149D01*
X-3515Y14150D01*
X-3776Y14116D01*
X-3795Y14109D01*
X-3802Y14108D01*
X-3808Y14106D01*
X-3827Y14102D01*
X-4071Y14001D01*
X-4087Y13990D01*
X-4093Y13987D01*
X-4099Y13983D01*
X-4117Y13975D01*
X-4326Y13814D01*
X-4339Y13799D01*
X-4344Y13795D01*
X-4348Y13790D01*
X-4363Y13777D01*
X-4524Y13568D01*
X-4532Y13550D01*
X-4536Y13544D01*
X-4539Y13538D01*
X-4550Y13522D01*
X-4651Y13278D01*
X-4655Y13259D01*
X-4657Y13253D01*
X-4658Y13246D01*
X-4665Y13227D01*
X-4699Y12966D01*
X-4698Y12946D01*
X-4699Y12939D01*
X-4698Y12933D01*
X-4699Y12913D01*
X-4665Y12652D01*
X-4658Y12633D01*
X-4657Y12626D01*
X-4655Y12620D01*
X-4651Y12600D01*
X-4550Y12357D01*
X-4539Y12340D01*
X-4536Y12334D01*
X-4532Y12329D01*
X-4524Y12311D01*
X-4363Y12102D01*
X-4348Y12089D01*
X-4344Y12083D01*
X-4339Y12079D01*
X-4326Y12064D01*
X-4117Y11904D01*
X-4099Y11895D01*
X-4093Y11891D01*
X-4087Y11889D01*
X-4071Y11877D01*
X-3827Y11777D01*
X-3808Y11773D01*
X-3802Y11770D01*
X-3795Y11769D01*
X-3776Y11763D01*
X-3515Y11728D01*
X-3501Y11729D01*
X-3488Y11727D01*
X-3475Y11729D01*
X-3462Y11728D01*
X-3201Y11763D01*
X-3182Y11769D01*
X-3175Y11770D01*
X-3169Y11773D01*
X-3149Y11777D01*
X-2906Y11877D01*
X-2889Y11889D01*
X-2883Y11891D01*
X-2878Y11895D01*
X-2860Y11904D01*
X-2651Y12064D01*
X-2638Y12079D01*
X-2632Y12083D01*
X-2628Y12089D01*
X-2613Y12102D01*
X-2453Y12311D01*
X-2444Y12329D01*
X-2440Y12334D01*
X-2438Y12340D01*
X-2426Y12357D01*
X-2326Y12600D01*
X-2322Y12620D01*
X-2319Y12626D01*
X-2318Y12633D01*
X-2312Y12652D01*
X-2277Y12913D01*
X-2279Y12933D01*
X-2278Y12939D01*
X-2279Y12946D01*
X-2277Y12966D01*
X-2312Y13227D01*
X-2318Y13246D01*
X-2319Y13253D01*
X-2322Y13259D01*
X-2326Y13278D01*
X-2426Y13522D01*
X-2438Y13538D01*
X-2440Y13544D01*
X-2444Y13550D01*
X-2453Y13568D01*
X-2613Y13777D01*
X-2628Y13790D01*
X-2632Y13795D01*
X-2638Y13799D01*
X-2651Y13814D01*
X-2860Y13975D01*
X-2878Y13983D01*
X-2883Y13987D01*
X-2889Y13990D01*
X-2906Y14001D01*
X-3149Y14102D01*
X-3169Y14106D01*
X-3175Y14108D01*
X-3182Y14109D01*
X-3201Y14116D01*
X-3462Y14150D01*
X-3475Y14149D01*
X-3488Y14152D01*
D02*
G37*
G36*
X18547Y14152D02*
X18534Y14149D01*
X18521Y14150D01*
X18260Y14115D01*
X18241Y14109D01*
X18234Y14108D01*
X18228Y14106D01*
X18208Y14102D01*
X17965Y14001D01*
X17948Y13990D01*
X17942Y13987D01*
X17937Y13983D01*
X17919Y13974D01*
X17710Y13814D01*
X17697Y13799D01*
X17692Y13795D01*
X17688Y13790D01*
X17673Y13776D01*
X17512Y13567D01*
X17503Y13549D01*
X17499Y13544D01*
X17497Y13538D01*
X17486Y13521D01*
X17385Y13278D01*
X17381Y13258D01*
X17378Y13252D01*
X17378Y13246D01*
X17371Y13227D01*
X17337Y12966D01*
X17338Y12946D01*
X17337Y12939D01*
X17338Y12932D01*
X17337Y12912D01*
X17371Y12651D01*
X17378Y12632D01*
X17378Y12626D01*
X17381Y12620D01*
X17385Y12600D01*
X17486Y12357D01*
X17497Y12340D01*
X17499Y12334D01*
X17503Y12329D01*
X17512Y12311D01*
X17673Y12102D01*
X17688Y12088D01*
X17692Y12083D01*
X17697Y12079D01*
X17710Y12064D01*
X17919Y11904D01*
X17937Y11895D01*
X17942Y11891D01*
X17948Y11888D01*
X17965Y11877D01*
X18208Y11776D01*
X18228Y11772D01*
X18234Y11770D01*
X18241Y11769D01*
X18260Y11763D01*
X18521Y11728D01*
X18534Y11729D01*
X18547Y11726D01*
X18561Y11729D01*
X18574Y11728D01*
X18835Y11763D01*
X18854Y11769D01*
X18861Y11770D01*
X18867Y11772D01*
X18887Y11776D01*
X19130Y11877D01*
X19147Y11888D01*
X19153Y11891D01*
X19158Y11895D01*
X19176Y11904D01*
X19385Y12064D01*
X19398Y12079D01*
X19403Y12083D01*
X19407Y12088D01*
X19422Y12102D01*
X19583Y12311D01*
X19592Y12329D01*
X19596Y12334D01*
X19598Y12340D01*
X19609Y12357D01*
X19710Y12600D01*
X19714Y12620D01*
X19717Y12626D01*
X19717Y12632D01*
X19724Y12651D01*
X19758Y12912D01*
X19757Y12932D01*
X19758Y12939D01*
X19757Y12946D01*
X19758Y12966D01*
X19724Y13227D01*
X19717Y13246D01*
X19717Y13252D01*
X19714Y13258D01*
X19710Y13278D01*
X19609Y13521D01*
X19598Y13538D01*
X19596Y13544D01*
X19592Y13549D01*
X19583Y13567D01*
X19422Y13776D01*
X19407Y13790D01*
X19403Y13795D01*
X19398Y13799D01*
X19385Y13814D01*
X19176Y13974D01*
X19158Y13983D01*
X19153Y13987D01*
X19147Y13990D01*
X19130Y14001D01*
X18887Y14102D01*
X18867Y14106D01*
X18861Y14108D01*
X18854Y14109D01*
X18835Y14115D01*
X18574Y14150D01*
X18561Y14149D01*
X18547Y14152D01*
D02*
G37*
G36*
X-1600Y14868D02*
X-1815Y14826D01*
X-1997Y14704D01*
X-2118Y14522D01*
X-2161Y14308D01*
X-2118Y14093D01*
X-1997Y13911D01*
X-1815Y13790D01*
X-1600Y13747D01*
X-1385Y13790D01*
X-1203Y13911D01*
X-1082Y14093D01*
X-1039Y14308D01*
X-1082Y14522D01*
X-1203Y14704D01*
X-1385Y14826D01*
X-1600Y14868D01*
D02*
G37*
G36*
X14900Y14861D02*
X14685Y14818D01*
X14503Y14697D01*
X14382Y14515D01*
X14339Y14300D01*
X14382Y14085D01*
X14503Y13903D01*
X14685Y13782D01*
X14900Y13739D01*
X15115Y13782D01*
X15297Y13903D01*
X15418Y14085D01*
X15461Y14300D01*
X15418Y14515D01*
X15297Y14697D01*
X15115Y14818D01*
X14900Y14861D01*
D02*
G37*
G36*
X700Y14161D02*
X485Y14118D01*
X303Y13997D01*
X182Y13815D01*
X139Y13600D01*
X182Y13385D01*
X303Y13203D01*
X485Y13082D01*
X700Y13039D01*
X915Y13082D01*
X1097Y13203D01*
X1218Y13385D01*
X1261Y13600D01*
X1218Y13815D01*
X1097Y13997D01*
X915Y14118D01*
X700Y14161D01*
D02*
G37*
G36*
X10800Y12861D02*
X10585Y12818D01*
X10403Y12697D01*
X10282Y12515D01*
X10239Y12300D01*
X10282Y12085D01*
X10403Y11903D01*
X10585Y11782D01*
X10777Y11744D01*
X10876Y11566D01*
X10804Y11410D01*
X10800Y11411D01*
X10585Y11369D01*
X10403Y11247D01*
X10282Y11065D01*
X10239Y10850D01*
X10282Y10636D01*
X10371Y10502D01*
X10398Y10400D01*
X10379Y10229D01*
X10303Y10115D01*
X10260Y9900D01*
X10303Y9685D01*
X10424Y9503D01*
X10606Y9382D01*
X10821Y9339D01*
X11035Y9382D01*
X11217Y9503D01*
X11339Y9685D01*
X11370Y9844D01*
X11394Y9839D01*
X11609Y9882D01*
X11791Y10003D01*
X11912Y10185D01*
X11955Y10400D01*
X11912Y10615D01*
X11791Y10797D01*
Y10897D01*
X11800Y10903D01*
X11922Y11085D01*
X11965Y11300D01*
X11922Y11515D01*
X11800Y11697D01*
X11619Y11818D01*
X11404Y11861D01*
X11289Y12042D01*
X11318Y12085D01*
X11361Y12300D01*
X11318Y12515D01*
X11197Y12697D01*
X11015Y12818D01*
X10800Y12861D01*
D02*
G37*
G36*
X-1700Y12361D02*
X-1915Y12318D01*
X-2097Y12197D01*
X-2218Y12015D01*
X-2261Y11800D01*
X-2218Y11585D01*
X-2097Y11403D01*
X-1915Y11282D01*
X-1700Y11239D01*
X-1485Y11282D01*
X-1303Y11403D01*
X-1182Y11585D01*
X-1139Y11800D01*
X-1182Y12015D01*
X-1303Y12197D01*
X-1485Y12318D01*
X-1700Y12361D01*
D02*
G37*
G36*
X16100Y11861D02*
X15885Y11818D01*
X15703Y11697D01*
X15582Y11515D01*
X15539Y11300D01*
X15582Y11085D01*
X15703Y10903D01*
X15885Y10782D01*
X16100Y10739D01*
X16315Y10782D01*
X16497Y10903D01*
X16618Y11085D01*
X16661Y11300D01*
X16618Y11515D01*
X16497Y11697D01*
X16315Y11818D01*
X16100Y11861D01*
D02*
G37*
G36*
X12500Y9161D02*
X12285Y9118D01*
X12103Y8997D01*
X12086Y8971D01*
X11954Y8818D01*
X11740Y8861D01*
X11525Y8818D01*
X11343Y8697D01*
X11222Y8515D01*
X11179Y8300D01*
X11222Y8085D01*
X11343Y7903D01*
X11525Y7782D01*
X11740Y7739D01*
X11954Y7782D01*
X12136Y7903D01*
X12154Y7929D01*
X12285Y8082D01*
X12500Y8039D01*
X12715Y8082D01*
X12897Y8203D01*
X13018Y8385D01*
X13061Y8600D01*
X13018Y8815D01*
X12897Y8997D01*
X12715Y9118D01*
X12500Y9161D01*
D02*
G37*
G36*
X19200Y9927D02*
X18985Y9885D01*
X18803Y9763D01*
X18682Y9581D01*
X18639Y9366D01*
X18682Y9152D01*
X18803Y8970D01*
X18985Y8848D01*
X19200Y8806D01*
X19415Y8848D01*
X19597Y8970D01*
X19718Y9152D01*
X19761Y9366D01*
X19718Y9581D01*
X19597Y9763D01*
X19415Y9885D01*
X19200Y9927D01*
D02*
G37*
G36*
X17200Y9511D02*
X16985Y9468D01*
X16803Y9347D01*
X16682Y9165D01*
X16639Y8950D01*
X16682Y8735D01*
X16803Y8553D01*
X16985Y8432D01*
X17200Y8389D01*
X17415Y8432D01*
X17597Y8553D01*
X17718Y8735D01*
X17761Y8950D01*
X17718Y9165D01*
X17597Y9347D01*
X17415Y9468D01*
X17200Y9511D01*
D02*
G37*
G36*
X2100Y7303D02*
X1885Y7260D01*
X1703Y7139D01*
X1582Y6957D01*
X1539Y6742D01*
X1582Y6528D01*
X1703Y6346D01*
X1885Y6224D01*
X2100Y6182D01*
X2315Y6224D01*
X2497Y6346D01*
X2618Y6528D01*
X2661Y6742D01*
X2618Y6957D01*
X2497Y7139D01*
X2315Y7260D01*
X2100Y7303D01*
D02*
G37*
G36*
X12800Y7161D02*
X12585Y7118D01*
X12403Y6997D01*
X12282Y6815D01*
X12239Y6600D01*
X12282Y6385D01*
X12403Y6203D01*
X12585Y6082D01*
X12800Y6039D01*
X13015Y6082D01*
X13197Y6203D01*
X13318Y6385D01*
X13361Y6600D01*
X13318Y6815D01*
X13197Y6997D01*
X13015Y7118D01*
X12800Y7161D01*
D02*
G37*
G36*
X-1141Y7661D02*
X-1356Y7618D01*
X-1538Y7497D01*
X-1659Y7315D01*
X-1702Y7100D01*
X-1659Y6885D01*
X-1538Y6703D01*
X-1356Y6582D01*
X-1141Y6539D01*
X-927Y6582D01*
X-866Y6623D01*
X-836Y6619D01*
X-657Y6521D01*
X-630Y6385D01*
X-508Y6203D01*
X-327Y6082D01*
X-112Y6039D01*
X103Y6082D01*
X285Y6203D01*
X406Y6385D01*
X449Y6600D01*
X406Y6815D01*
X285Y6997D01*
X103Y7118D01*
X-112Y7161D01*
X-327Y7118D01*
X-387Y7077D01*
X-417Y7081D01*
X-596Y7179D01*
X-623Y7315D01*
X-745Y7497D01*
X-927Y7618D01*
X-1141Y7661D01*
D02*
G37*
G36*
X2021Y4610D02*
X2007Y4607D01*
X1994Y4608D01*
X1733Y4574D01*
X1714Y4567D01*
X1707Y4567D01*
X1701Y4564D01*
X1681Y4560D01*
X1438Y4459D01*
X1421Y4448D01*
X1415Y4446D01*
X1410Y4442D01*
X1392Y4433D01*
X1183Y4272D01*
X1170Y4257D01*
X1165Y4253D01*
X1161Y4248D01*
X1146Y4235D01*
X985Y4026D01*
X976Y4008D01*
X972Y4003D01*
X970Y3997D01*
X959Y3980D01*
X858Y3737D01*
X854Y3717D01*
X851Y3711D01*
X851Y3704D01*
X844Y3685D01*
X810Y3424D01*
X811Y3404D01*
X810Y3397D01*
X811Y3391D01*
X810Y3371D01*
X844Y3110D01*
X851Y3091D01*
X851Y3084D01*
X854Y3078D01*
X858Y3058D01*
X959Y2815D01*
X970Y2798D01*
X972Y2792D01*
X976Y2787D01*
X985Y2769D01*
X1146Y2560D01*
X1161Y2547D01*
X1165Y2542D01*
X1170Y2538D01*
X1183Y2522D01*
X1392Y2362D01*
X1410Y2353D01*
X1415Y2349D01*
X1421Y2347D01*
X1438Y2336D01*
X1681Y2235D01*
X1701Y2231D01*
X1707Y2228D01*
X1714Y2227D01*
X1733Y2221D01*
X1994Y2187D01*
X2007Y2188D01*
X2021Y2185D01*
X2034Y2188D01*
X2047Y2187D01*
X2308Y2221D01*
X2327Y2227D01*
X2334Y2228D01*
X2340Y2231D01*
X2360Y2235D01*
X2603Y2336D01*
X2620Y2347D01*
X2626Y2349D01*
X2631Y2353D01*
X2649Y2362D01*
X2858Y2522D01*
X2871Y2538D01*
X2876Y2542D01*
X2880Y2547D01*
X2896Y2560D01*
X3056Y2769D01*
X3065Y2787D01*
X3069Y2792D01*
X3071Y2798D01*
X3082Y2815D01*
X3183Y3058D01*
X3187Y3078D01*
X3190Y3084D01*
X3191Y3091D01*
X3197Y3110D01*
X3231Y3371D01*
X3230Y3391D01*
X3231Y3397D01*
X3230Y3404D01*
X3231Y3424D01*
X3197Y3685D01*
X3191Y3704D01*
X3190Y3711D01*
X3187Y3717D01*
X3183Y3737D01*
X3082Y3980D01*
X3071Y3997D01*
X3069Y4003D01*
X3065Y4008D01*
X3056Y4026D01*
X2896Y4235D01*
X2880Y4248D01*
X2876Y4253D01*
X2871Y4257D01*
X2858Y4272D01*
X2649Y4433D01*
X2631Y4442D01*
X2626Y4446D01*
X2620Y4448D01*
X2603Y4459D01*
X2360Y4560D01*
X2340Y4564D01*
X2334Y4567D01*
X2327Y4567D01*
X2308Y4574D01*
X2047Y4608D01*
X2034Y4607D01*
X2021Y4610D01*
D02*
G37*
G36*
X13038Y4610D02*
X13025Y4607D01*
X13012Y4608D01*
X12751Y4574D01*
X12732Y4567D01*
X12725Y4566D01*
X12719Y4564D01*
X12699Y4560D01*
X12456Y4459D01*
X12439Y4448D01*
X12433Y4446D01*
X12428Y4441D01*
X12410Y4433D01*
X12201Y4272D01*
X12188Y4257D01*
X12183Y4253D01*
X12179Y4248D01*
X12163Y4235D01*
X12003Y4026D01*
X11994Y4008D01*
X11990Y4003D01*
X11988Y3996D01*
X11977Y3980D01*
X11876Y3736D01*
X11872Y3717D01*
X11869Y3711D01*
X11868Y3704D01*
X11862Y3685D01*
X11828Y3424D01*
X11829Y3404D01*
X11828Y3397D01*
X11829Y3391D01*
X11828Y3371D01*
X11862Y3110D01*
X11868Y3091D01*
X11869Y3084D01*
X11872Y3078D01*
X11876Y3058D01*
X11977Y2815D01*
X11988Y2798D01*
X11990Y2792D01*
X11994Y2787D01*
X12003Y2769D01*
X12163Y2560D01*
X12179Y2547D01*
X12183Y2541D01*
X12188Y2537D01*
X12201Y2522D01*
X12410Y2362D01*
X12428Y2353D01*
X12433Y2349D01*
X12439Y2347D01*
X12456Y2335D01*
X12699Y2235D01*
X12719Y2231D01*
X12725Y2228D01*
X12732Y2227D01*
X12751Y2221D01*
X13012Y2187D01*
X13025Y2187D01*
X13038Y2185D01*
X13052Y2187D01*
X13065Y2187D01*
X13326Y2221D01*
X13345Y2227D01*
X13352Y2228D01*
X13358Y2231D01*
X13378Y2235D01*
X13621Y2335D01*
X13637Y2347D01*
X13644Y2349D01*
X13649Y2353D01*
X13667Y2362D01*
X13876Y2522D01*
X13889Y2537D01*
X13894Y2541D01*
X13898Y2547D01*
X13913Y2560D01*
X14074Y2769D01*
X14083Y2787D01*
X14087Y2792D01*
X14089Y2798D01*
X14100Y2815D01*
X14201Y3058D01*
X14205Y3078D01*
X14208Y3084D01*
X14208Y3091D01*
X14215Y3110D01*
X14249Y3371D01*
X14248Y3391D01*
X14249Y3397D01*
X14248Y3404D01*
X14249Y3424D01*
X14215Y3685D01*
X14208Y3704D01*
X14208Y3711D01*
X14205Y3717D01*
X14201Y3736D01*
X14100Y3980D01*
X14089Y3996D01*
X14087Y4003D01*
X14083Y4008D01*
X14074Y4026D01*
X13913Y4235D01*
X13898Y4248D01*
X13894Y4253D01*
X13889Y4257D01*
X13876Y4272D01*
X13667Y4433D01*
X13649Y4441D01*
X13644Y4446D01*
X13637Y4448D01*
X13621Y4459D01*
X13378Y4560D01*
X13358Y4564D01*
X13352Y4566D01*
X13345Y4567D01*
X13326Y4574D01*
X13065Y4608D01*
X13052Y4607D01*
X13038Y4610D01*
D02*
G37*
G36*
X14700Y5361D02*
X14485Y5318D01*
X14303Y5197D01*
X14182Y5015D01*
X14139Y4800D01*
X14182Y4585D01*
X14303Y4403D01*
X14485Y4282D01*
X14700Y4239D01*
X14915Y4282D01*
X15097Y4403D01*
X15218Y4585D01*
X15261Y4800D01*
X15218Y5015D01*
X15097Y5197D01*
X14915Y5318D01*
X14700Y5361D01*
D02*
G37*
G36*
X-1500Y5261D02*
X-1715Y5218D01*
X-1897Y5097D01*
X-2018Y4915D01*
X-2061Y4700D01*
X-2018Y4485D01*
X-1897Y4303D01*
X-1715Y4182D01*
X-1500Y4139D01*
X-1285Y4182D01*
X-1139Y4280D01*
X-995Y4244D01*
X-928Y4206D01*
X-904Y4085D01*
X-782Y3903D01*
X-600Y3782D01*
X-386Y3739D01*
X-171Y3782D01*
X11Y3903D01*
X133Y4085D01*
X175Y4300D01*
X133Y4515D01*
X11Y4697D01*
X-171Y4818D01*
X-386Y4861D01*
X-600Y4818D01*
X-747Y4720D01*
X-891Y4756D01*
X-958Y4794D01*
X-982Y4915D01*
X-1103Y5097D01*
X-1285Y5218D01*
X-1500Y5261D01*
D02*
G37*
G36*
X4300Y3561D02*
X4085Y3518D01*
X3903Y3397D01*
X3782Y3215D01*
X3739Y3000D01*
X3782Y2785D01*
X3903Y2603D01*
X4085Y2482D01*
X4300Y2439D01*
X4515Y2482D01*
X4697Y2603D01*
X4818Y2785D01*
X4861Y3000D01*
X4818Y3215D01*
X4697Y3397D01*
X4515Y3518D01*
X4300Y3561D01*
D02*
G37*
G36*
X9200Y2961D02*
X8985Y2918D01*
X8803Y2797D01*
X8682Y2615D01*
X8639Y2400D01*
X8682Y2185D01*
X8803Y2003D01*
X8985Y1882D01*
X9200Y1839D01*
X9415Y1882D01*
X9597Y2003D01*
X9718Y2185D01*
X9761Y2400D01*
X9718Y2615D01*
X9597Y2797D01*
X9415Y2918D01*
X9200Y2961D01*
D02*
G37*
%LPD*%
D33*
X9414Y11200D02*
D03*
X4500Y1900D02*
D03*
X4700Y12600D02*
D03*
X9756Y10500D02*
D03*
X8983Y10400D02*
D03*
X9756Y9700D02*
D03*
X8983Y9589D02*
D03*
X10400Y16315D02*
D03*
X3865Y4500D02*
D03*
X16000Y14579D02*
D03*
X-600Y11352D02*
D03*
X4800Y1000D02*
D03*
X15800Y6800D02*
D03*
X16400Y4700D02*
D03*
X17200Y17200D02*
D03*
X19300Y16700D02*
D03*
X8800Y23500D02*
D03*
X10200Y24950D02*
D03*
X-1200Y19200D02*
D03*
X-1451Y21200D02*
D03*
X-2300Y8800D02*
D03*
X-4200Y9200D02*
D03*
X11600Y5100D02*
D03*
X10800Y22000D02*
D03*
X-653Y14700D02*
D03*
X700Y20500D02*
D03*
X3943Y11752D02*
D03*
M02*
