G04*
G04 #@! TF.GenerationSoftware,Altium Limited,Altium Designer,22.7.1 (60)*
G04*
G04 Layer_Physical_Order=4*
G04 Layer_Color=16711680*
%FSLAX43Y43*%
%MOMM*%
G71*
G04*
G04 #@! TF.SameCoordinates,4835CE25-E48C-4DDB-B082-209FFF86AC7D*
G04*
G04*
G04 #@! TF.FilePolarity,Positive*
G04*
G01*
G75*
%ADD12C,0.300*%
%ADD23C,0.300*%
G04:AMPARAMS|DCode=28|XSize=0.61mm|YSize=0.6mm|CornerRadius=0.075mm|HoleSize=0mm|Usage=FLASHONLY|Rotation=90.000|XOffset=0mm|YOffset=0mm|HoleType=Round|Shape=RoundedRectangle|*
%AMROUNDEDRECTD28*
21,1,0.610,0.450,0,0,90.0*
21,1,0.460,0.600,0,0,90.0*
1,1,0.150,0.225,0.230*
1,1,0.150,0.225,-0.230*
1,1,0.150,-0.225,-0.230*
1,1,0.150,-0.225,0.230*
%
%ADD28ROUNDEDRECTD28*%
G04:AMPARAMS|DCode=30|XSize=0.61mm|YSize=0.6mm|CornerRadius=0.075mm|HoleSize=0mm|Usage=FLASHONLY|Rotation=210.000|XOffset=0mm|YOffset=0mm|HoleType=Round|Shape=RoundedRectangle|*
%AMROUNDEDRECTD30*
21,1,0.610,0.450,0,0,210.0*
21,1,0.460,0.600,0,0,210.0*
1,1,0.150,-0.312,0.080*
1,1,0.150,0.087,0.310*
1,1,0.150,0.312,-0.080*
1,1,0.150,-0.087,-0.310*
%
%ADD30ROUNDEDRECTD30*%
%ADD32C,2.000*%
%ADD33C,0.700*%
%ADD34C,0.400*%
G04:AMPARAMS|DCode=35|XSize=0.61mm|YSize=0.6mm|CornerRadius=0.075mm|HoleSize=0mm|Usage=FLASHONLY|Rotation=180.000|XOffset=0mm|YOffset=0mm|HoleType=Round|Shape=RoundedRectangle|*
%AMROUNDEDRECTD35*
21,1,0.610,0.450,0,0,180.0*
21,1,0.460,0.600,0,0,180.0*
1,1,0.150,-0.230,0.225*
1,1,0.150,0.230,0.225*
1,1,0.150,0.230,-0.225*
1,1,0.150,-0.230,-0.225*
%
%ADD35ROUNDEDRECTD35*%
G04:AMPARAMS|DCode=36|XSize=0.61mm|YSize=0.6mm|CornerRadius=0.075mm|HoleSize=0mm|Usage=FLASHONLY|Rotation=152.000|XOffset=0mm|YOffset=0mm|HoleType=Round|Shape=RoundedRectangle|*
%AMROUNDEDRECTD36*
21,1,0.610,0.450,0,0,152.0*
21,1,0.460,0.600,0,0,152.0*
1,1,0.150,-0.097,0.307*
1,1,0.150,0.309,0.091*
1,1,0.150,0.097,-0.307*
1,1,0.150,-0.309,-0.091*
%
%ADD36ROUNDEDRECTD36*%
G04:AMPARAMS|DCode=37|XSize=2.1mm|YSize=3mm|CornerRadius=0.263mm|HoleSize=0mm|Usage=FLASHONLY|Rotation=180.000|XOffset=0mm|YOffset=0mm|HoleType=Round|Shape=RoundedRectangle|*
%AMROUNDEDRECTD37*
21,1,2.100,2.475,0,0,180.0*
21,1,1.575,3.000,0,0,180.0*
1,1,0.525,-0.788,1.238*
1,1,0.525,0.788,1.238*
1,1,0.525,0.788,-1.238*
1,1,0.525,-0.788,-1.238*
%
%ADD37ROUNDEDRECTD37*%
G04:AMPARAMS|DCode=38|XSize=0.8mm|YSize=1.3mm|CornerRadius=0.1mm|HoleSize=0mm|Usage=FLASHONLY|Rotation=180.000|XOffset=0mm|YOffset=0mm|HoleType=Round|Shape=RoundedRectangle|*
%AMROUNDEDRECTD38*
21,1,0.800,1.100,0,0,180.0*
21,1,0.600,1.300,0,0,180.0*
1,1,0.200,-0.300,0.550*
1,1,0.200,0.300,0.550*
1,1,0.200,0.300,-0.550*
1,1,0.200,-0.300,-0.550*
%
%ADD38ROUNDEDRECTD38*%
G04:AMPARAMS|DCode=39|XSize=0.61mm|YSize=1.35mm|CornerRadius=0.076mm|HoleSize=0mm|Usage=FLASHONLY|Rotation=180.000|XOffset=0mm|YOffset=0mm|HoleType=Round|Shape=RoundedRectangle|*
%AMROUNDEDRECTD39*
21,1,0.610,1.198,0,0,180.0*
21,1,0.458,1.350,0,0,180.0*
1,1,0.153,-0.229,0.599*
1,1,0.153,0.229,0.599*
1,1,0.153,0.229,-0.599*
1,1,0.153,-0.229,-0.599*
%
%ADD39ROUNDEDRECTD39*%
G04:AMPARAMS|DCode=40|XSize=0.94mm|YSize=1.03mm|CornerRadius=0.118mm|HoleSize=0mm|Usage=FLASHONLY|Rotation=270.000|XOffset=0mm|YOffset=0mm|HoleType=Round|Shape=RoundedRectangle|*
%AMROUNDEDRECTD40*
21,1,0.940,0.795,0,0,270.0*
21,1,0.705,1.030,0,0,270.0*
1,1,0.235,-0.398,-0.353*
1,1,0.235,-0.398,0.353*
1,1,0.235,0.398,0.353*
1,1,0.235,0.398,-0.353*
%
%ADD40ROUNDEDRECTD40*%
G04:AMPARAMS|DCode=41|XSize=0.68mm|YSize=2.17mm|CornerRadius=0.085mm|HoleSize=0mm|Usage=FLASHONLY|Rotation=180.000|XOffset=0mm|YOffset=0mm|HoleType=Round|Shape=RoundedRectangle|*
%AMROUNDEDRECTD41*
21,1,0.680,2.000,0,0,180.0*
21,1,0.510,2.170,0,0,180.0*
1,1,0.170,-0.255,1.000*
1,1,0.170,0.255,1.000*
1,1,0.170,0.255,-1.000*
1,1,0.170,-0.255,-1.000*
%
%ADD41ROUNDEDRECTD41*%
G04:AMPARAMS|DCode=42|XSize=0.59mm|YSize=0.6mm|CornerRadius=0.074mm|HoleSize=0mm|Usage=FLASHONLY|Rotation=90.000|XOffset=0mm|YOffset=0mm|HoleType=Round|Shape=RoundedRectangle|*
%AMROUNDEDRECTD42*
21,1,0.590,0.453,0,0,90.0*
21,1,0.443,0.600,0,0,90.0*
1,1,0.148,0.226,0.221*
1,1,0.148,0.226,-0.221*
1,1,0.148,-0.226,-0.221*
1,1,0.148,-0.226,0.221*
%
%ADD42ROUNDEDRECTD42*%
G36*
X10070Y11654D02*
X10137Y11587D01*
X10200Y11400D01*
X10200Y11202D01*
X10200Y9426D01*
X10200Y9357D01*
X10173Y9221D01*
X10120Y9093D01*
X10113Y9082D01*
X9916Y9016D01*
X9817Y9083D01*
X9700Y9106D01*
X9700D01*
Y8250D01*
X9100D01*
Y9106D01*
X8983Y9083D01*
X8884Y9016D01*
X8722Y9045D01*
X8675Y9064D01*
X8627Y9181D01*
X8600Y9317D01*
X8600Y9386D01*
X8600Y9386D01*
X8600Y10778D01*
X8627Y10914D01*
X8680Y11042D01*
X8757Y11157D01*
X8806Y11206D01*
Y11206D01*
X9158Y11558D01*
X9262Y11628D01*
X9377Y11676D01*
X9500Y11700D01*
X9562Y11700D01*
X9562Y11700D01*
X9900Y11700D01*
X9960Y11700D01*
X10070Y11654D01*
D02*
G37*
G36*
X11569Y11700D02*
X11615Y11700D01*
X11700Y11665D01*
X11765Y11600D01*
X11800Y11515D01*
X11800Y11469D01*
X11800D01*
X11800Y9400D01*
X11806Y9340D01*
X11852Y9230D01*
X11936Y9145D01*
X12047Y9099D01*
X12107Y9093D01*
X12707Y9093D01*
X12765Y9093D01*
X12873Y9049D01*
X12944Y8977D01*
X13000Y8800D01*
Y8800D01*
X13000Y8613D01*
X13000Y8100D01*
X13000Y8040D01*
X12954Y7930D01*
X12890Y7866D01*
X12711Y7803D01*
X12700Y7800D01*
X12700Y7800D01*
X12514D01*
X11800Y7800D01*
X11397Y7800D01*
X11256Y7941D01*
Y7950D01*
X10650D01*
Y8550D01*
X11256D01*
Y8800D01*
X11233Y8917D01*
X11166Y9016D01*
X11067Y9083D01*
X10950Y9106D01*
X10400D01*
X10400Y9317D01*
X10400Y9317D01*
X10400Y9337D01*
X10404Y9357D01*
X10404Y9426D01*
X10404Y11202D01*
X10404Y11202D01*
X10404Y11202D01*
X10404Y11400D01*
X10400Y11420D01*
Y11426D01*
X10452Y11552D01*
X10548Y11648D01*
X10674Y11700D01*
X10742Y11700D01*
X10742Y11700D01*
X11569Y11700D01*
D02*
G37*
D12*
X10150Y4648D02*
G03*
X9583Y6017I-1936J0D01*
G01*
X8900Y6300D02*
G03*
X8617Y6983I-966J-0D01*
G01*
X9583Y6017D02*
G03*
X8900Y6300I-683J-683D01*
G01*
X7900Y6300D02*
G03*
X7657Y6887I-830J-0D01*
G01*
X8250Y5455D02*
G03*
X7900Y6300I-1195J0D01*
G01*
X8150Y7945D02*
G03*
X8500Y7100I1195J0D01*
G01*
X6900Y8250D02*
G03*
X7329Y7215I1463J0D01*
G01*
X6850Y5248D02*
G03*
X6700Y5610I-512J0D01*
G01*
X6500Y6300D02*
G03*
X6288Y6812I-724J0D01*
G01*
X6500Y6093D02*
G03*
X6700Y5610I683J0D01*
G01*
X5500Y6300D02*
G03*
X5359Y6641I-483J0D01*
G01*
X5214Y5610D02*
G03*
X4950Y4972I638J-638D01*
G01*
X5214Y5610D02*
G03*
X5500Y6300I-690J690D01*
G01*
X5650Y8228D02*
G03*
X6200Y6900I1878J0D01*
G01*
X4400Y8250D02*
G03*
X4860Y7140I1569J0D01*
G01*
X6781Y16181D02*
G03*
X7525Y17977I-1796J1796D01*
G01*
X5760Y12440D02*
G03*
X6255Y13635I-1195J1195D01*
G01*
X5104Y11784D02*
G03*
X4360Y9988I1796J-1796D01*
G01*
X7030Y12440D02*
G03*
X7525Y13635I-1195J1195D01*
G01*
X6374Y11784D02*
G03*
X5630Y9988I1796J-1796D01*
G01*
X7644Y11784D02*
G03*
X6900Y9988I1796J-1796D01*
G01*
X8300Y12440D02*
G03*
X8795Y13635I-1195J1195D01*
G01*
X9321Y12383D02*
G03*
X10065Y14179I-1796J1796D01*
G01*
X8538Y11600D02*
G03*
X8150Y10663I937J-937D01*
G01*
X5900Y16517D02*
G03*
X6255Y17374I-857J857D01*
G01*
X3000Y17600D02*
G03*
X3700Y16900I700J0D01*
G01*
X-600Y12440D02*
G03*
X-1385Y12115I0J-1110D01*
G01*
X14900Y14300D02*
G03*
X15006Y14044I362J0D01*
G01*
X15575Y12475D02*
G03*
X16034Y11366I1569J0D01*
G01*
X4772Y21190D02*
G03*
X5100Y21981I-791J791D01*
G01*
X5100Y24226D02*
G03*
X4800Y24950I-1024J0D01*
G01*
X13300Y19500D02*
G03*
X14182Y19865I0J1247D01*
G01*
X16500Y21300D02*
G03*
X15617Y20934I0J-1248D01*
G01*
X8795Y17293D02*
G03*
X9200Y16315I1383J0D01*
G01*
X108Y5491D02*
G03*
X-386Y4300I1191J-1191D01*
G01*
X14158Y6235D02*
G03*
X13277Y6600I-882J-882D01*
G01*
X15041Y5765D02*
G03*
X14700Y4941I824J-824D01*
G01*
X-1600Y14308D02*
G03*
X-733Y13440I867J0D01*
G01*
X1698Y15998D02*
G03*
X-99Y15254I0J-2540D01*
G01*
X-1281Y16798D02*
G03*
X-2000Y16500I0J-1017D01*
G01*
X-2483Y16300D02*
G03*
X-2000Y16500I0J683D01*
G01*
X14406Y16798D02*
G03*
X12610Y16054I0J-2540D01*
G01*
X15800Y16798D02*
G03*
X16185Y15868I1315J0D01*
G01*
X2200Y19000D02*
G03*
X1980Y18469I531J-531D01*
G01*
X3000Y19300D02*
G03*
X2300Y20000I-700J0D01*
G01*
X1900D02*
G03*
X705Y19505I0J-1690D01*
G01*
D02*
G03*
X300Y18527I978J-978D01*
G01*
X4300Y3000D02*
X5900D01*
Y2600D02*
Y3000D01*
X9200Y2400D02*
X9200Y2400D01*
Y4600D01*
X10150Y2600D02*
Y4648D01*
X8250Y2600D02*
Y5455D01*
X8500Y7100D02*
X8617Y6983D01*
X8150Y8250D02*
Y10663D01*
Y7945D02*
Y8250D01*
X7329Y7215D02*
X7657Y6887D01*
X6850Y4600D02*
Y5248D01*
X6500Y6093D02*
Y6300D01*
X4860Y7140D02*
X5359Y6641D01*
X4950Y4600D02*
Y4972D01*
X6288Y6812D02*
X6288Y6812D01*
X6200Y6900D02*
X6288Y6812D01*
X5630Y8250D02*
Y9988D01*
X5650Y8228D02*
Y8250D01*
X4360Y8162D02*
Y9988D01*
X6700Y16100D02*
X6781Y16181D01*
X7525Y17977D02*
Y19223D01*
X5104Y11784D02*
X5760Y12440D01*
X6900Y8250D02*
Y9988D01*
X6255Y13635D02*
Y14373D01*
X7525Y13635D02*
Y14373D01*
X6374Y11784D02*
X7030Y12440D01*
X7644Y11784D02*
X8300Y12440D01*
X8795Y13635D02*
Y14373D01*
X8538Y11600D02*
X9321Y12383D01*
X10065Y14179D02*
Y14373D01*
X6255Y17374D02*
Y19223D01*
X4985Y16100D02*
Y19223D01*
X3700Y16900D02*
X4100D01*
X3000Y17600D02*
Y19300D01*
X4100Y16900D02*
X4300D01*
X-1700Y11800D02*
X-1385Y12115D01*
X15006Y14044D02*
X15575Y13475D01*
X16034Y11366D02*
X16100Y11300D01*
X4500Y20918D02*
X4772Y21190D01*
X5100Y22981D02*
Y24226D01*
X14182Y19865D02*
X14367Y20050D01*
X15233Y20550D02*
X15617Y20934D01*
X8795Y19223D02*
X8800Y19218D01*
X8795Y17293D02*
Y19223D01*
X1980Y14625D02*
Y15998D01*
Y14625D02*
X3463D01*
X1033Y6050D02*
X2100Y6742D01*
X108Y5491D02*
X167Y5550D01*
X12800Y6600D02*
X13277D01*
X14700Y4800D02*
Y4941D01*
X700Y13600D02*
X1980D01*
X10065Y21100D02*
Y21190D01*
X10065Y21190D02*
X10065Y21190D01*
X10065Y19223D02*
Y21100D01*
X10065Y21100D01*
X11335Y18700D02*
Y19223D01*
Y18700D02*
X12400D01*
X-733Y13440D02*
X-600D01*
X1698Y15998D02*
X1980D01*
X-653Y14700D02*
X-99Y15254D01*
X-1281Y16798D02*
X-700D01*
X-3200Y16300D02*
X-2483D01*
X12300Y15744D02*
X12610Y16054D01*
X14406Y16798D02*
X14800D01*
X16185Y15868D02*
X16753Y15300D01*
X1980Y17598D02*
Y18469D01*
X1900Y20000D02*
X2300D01*
X300Y16798D02*
Y18527D01*
D23*
X6288Y6812D02*
D03*
D28*
X15575Y13475D02*
D03*
X15575Y12475D02*
D03*
X5100Y22981D02*
D03*
X5100Y21981D02*
D03*
X-600Y12440D02*
D03*
X-600Y13440D02*
D03*
D30*
X15233Y20550D02*
D03*
X14367Y20050D02*
D03*
X167Y5550D02*
D03*
X1033Y6050D02*
D03*
D32*
X-3488Y12939D02*
D03*
X2021Y3397D02*
D03*
X13038Y3397D02*
D03*
X18547Y12939D02*
D03*
X13039Y22481D02*
D03*
X2021Y22481D02*
D03*
D33*
X11404Y11300D02*
D03*
X10800Y10850D02*
D03*
X9414Y11200D02*
D03*
X4500Y1900D02*
D03*
X4300Y3000D02*
D03*
X9200Y2400D02*
D03*
X4700Y12600D02*
D03*
X12500Y8600D02*
D03*
X11740Y8300D02*
D03*
X11394Y10400D02*
D03*
X9756Y10500D02*
D03*
X8983Y10400D02*
D03*
X9756Y9700D02*
D03*
X8983Y9589D02*
D03*
X6700Y16100D02*
D03*
X5900Y16517D02*
D03*
X4985Y16100D02*
D03*
X-1700Y11800D02*
D03*
X14900Y14300D02*
D03*
X10400Y16315D02*
D03*
X9956Y17599D02*
D03*
X9200Y16315D02*
D03*
X3865Y4500D02*
D03*
X2100Y6742D02*
D03*
X16100Y11300D02*
D03*
X16000Y14579D02*
D03*
X13300Y19500D02*
D03*
X-1600Y14308D02*
D03*
X-600Y11352D02*
D03*
X4800Y1000D02*
D03*
X10200D02*
D03*
X15800Y6800D02*
D03*
X17200Y8950D02*
D03*
X16400Y4700D02*
D03*
X19200Y9366D02*
D03*
X17200Y17200D02*
D03*
X15900Y19300D02*
D03*
X19300Y16700D02*
D03*
X16500Y21300D02*
D03*
X8800Y23500D02*
D03*
X10200Y24950D02*
D03*
X6400Y23500D02*
D03*
X4800Y24950D02*
D03*
X-1200Y19200D02*
D03*
X-1451Y21200D02*
D03*
X-2300Y17200D02*
D03*
X-4100Y16798D02*
D03*
X-2300Y8800D02*
D03*
X-4200Y9200D02*
D03*
X-112Y6600D02*
D03*
X-1500Y4700D02*
D03*
X-1141Y7100D02*
D03*
X4500Y20918D02*
D03*
X12300Y15744D02*
D03*
X10800Y12300D02*
D03*
X-386Y4300D02*
D03*
X12800Y6600D02*
D03*
X14700Y4800D02*
D03*
X11600Y5100D02*
D03*
X10821Y9900D02*
D03*
X700Y13600D02*
D03*
X10800Y22000D02*
D03*
X10065Y21100D02*
D03*
X12400Y18700D02*
D03*
X-653Y14700D02*
D03*
X-3200Y16300D02*
D03*
X16753Y15300D02*
D03*
X4100Y16900D02*
D03*
X700Y20500D02*
D03*
X2200Y19000D02*
D03*
X3943Y11752D02*
D03*
D34*
X10700Y9300D02*
G03*
X10650Y9179I121J-121D01*
G01*
Y8250D02*
Y9179D01*
X3463Y14625D02*
X3715Y14373D01*
D35*
X7900Y6300D02*
D03*
X8900Y6300D02*
D03*
X6500Y6300D02*
D03*
X5500Y6300D02*
D03*
X-700Y16798D02*
D03*
X300Y16798D02*
D03*
X15800Y16798D02*
D03*
X14800Y16798D02*
D03*
D36*
X15041Y5765D02*
D03*
X14158Y6235D02*
D03*
D37*
X13200Y11000D02*
D03*
X1850Y11000D02*
D03*
D38*
X10650Y8250D02*
D03*
X9400Y8250D02*
D03*
X4400D02*
D03*
X5650Y8250D02*
D03*
X8150Y8250D02*
D03*
X6900Y8250D02*
D03*
D39*
X5900Y2600D02*
D03*
X6850Y4600D02*
D03*
X4950D02*
D03*
X9200D02*
D03*
X8250Y2600D02*
D03*
X10150Y2600D02*
D03*
D40*
X1980Y17598D02*
D03*
X1980Y15998D02*
D03*
D41*
X11335Y14373D02*
D03*
X10065Y14373D02*
D03*
X8795Y14373D02*
D03*
X7525D02*
D03*
X6255Y14373D02*
D03*
X4985Y14373D02*
D03*
X3715Y14373D02*
D03*
X11335Y19223D02*
D03*
X10065Y19223D02*
D03*
X8795Y19223D02*
D03*
X7525Y19223D02*
D03*
X6255D02*
D03*
X4985Y19223D02*
D03*
X3715Y19223D02*
D03*
D42*
X1980Y14625D02*
D03*
Y13600D02*
D03*
M02*
