G04*
G04 #@! TF.GenerationSoftware,Altium Limited,Altium Designer,22.7.1 (60)*
G04*
G04 Layer_Physical_Order=2*
G04 Layer_Color=1930808*
%FSLAX43Y43*%
%MOMM*%
G71*
G04*
G04 #@! TF.SameCoordinates,4835CE25-E48C-4DDB-B082-209FFF86AC7D*
G04*
G04*
G04 #@! TF.FilePolarity,Positive*
G04*
G01*
G75*
%ADD33C,0.700*%
G36*
X19696Y17338D02*
X19546Y17197D01*
X19515Y17218D01*
X19300Y17261D01*
X19085Y17218D01*
X18903Y17097D01*
X18782Y16915D01*
X18739Y16700D01*
X18782Y16485D01*
X18903Y16303D01*
X19085Y16182D01*
X19300Y16139D01*
X19515Y16182D01*
X19697Y16303D01*
X19818Y16485D01*
X19854Y16664D01*
X19971Y16711D01*
X20053Y16719D01*
X22206Y12990D01*
X14853Y255D01*
X4898D01*
X4879Y455D01*
X4912Y462D01*
X5015Y482D01*
X5197Y603D01*
X5318Y785D01*
X5361Y1000D01*
X5318Y1215D01*
X5197Y1397D01*
X5106Y1457D01*
X5018Y1685D01*
X5061Y1900D01*
X5018Y2115D01*
X4897Y2297D01*
X4715Y2418D01*
X4500Y2461D01*
X4285Y2418D01*
X4103Y2297D01*
X3982Y2115D01*
X3939Y1900D01*
X3982Y1685D01*
X4103Y1503D01*
X4194Y1443D01*
X4282Y1215D01*
X4239Y1000D01*
X4282Y785D01*
X4403Y603D01*
X4585Y482D01*
X4688Y462D01*
X4721Y455D01*
X4702Y255D01*
X147D01*
X-4683Y8621D01*
X-4533Y8761D01*
X-4415Y8682D01*
X-4200Y8639D01*
X-3985Y8682D01*
X-3803Y8803D01*
X-3682Y8985D01*
X-3639Y9200D01*
X-3682Y9415D01*
X-3803Y9597D01*
X-3985Y9718D01*
X-4200Y9761D01*
X-4415Y9718D01*
X-4597Y9597D01*
X-4718Y9415D01*
X-4761Y9200D01*
X-4747Y9132D01*
X-4937Y9061D01*
X-7206Y12990D01*
X147Y25726D01*
X14853D01*
X19696Y17338D01*
D02*
G37*
%LPC*%
G36*
X10200Y25511D02*
X9985Y25468D01*
X9803Y25347D01*
X9682Y25165D01*
X9639Y24950D01*
X9682Y24735D01*
X9803Y24553D01*
X9985Y24432D01*
X10200Y24389D01*
X10415Y24432D01*
X10597Y24553D01*
X10718Y24735D01*
X10761Y24950D01*
X10718Y25165D01*
X10597Y25347D01*
X10415Y25468D01*
X10200Y25511D01*
D02*
G37*
G36*
X2021Y23694D02*
X2008Y23691D01*
X1994Y23692D01*
X1733Y23657D01*
X1714Y23651D01*
X1708Y23650D01*
X1701Y23648D01*
X1682Y23644D01*
X1438Y23543D01*
X1422Y23532D01*
X1416Y23529D01*
X1410Y23525D01*
X1392Y23516D01*
X1183Y23356D01*
X1170Y23341D01*
X1165Y23337D01*
X1161Y23332D01*
X1146Y23318D01*
X985Y23109D01*
X977Y23091D01*
X973Y23086D01*
X970Y23080D01*
X959Y23063D01*
X858Y22820D01*
X854Y22800D01*
X852Y22794D01*
X851Y22788D01*
X844Y22769D01*
X810Y22508D01*
X811Y22488D01*
X810Y22481D01*
X811Y22474D01*
X810Y22454D01*
X844Y22193D01*
X851Y22174D01*
X852Y22168D01*
X854Y22162D01*
X858Y22142D01*
X959Y21899D01*
X970Y21882D01*
X973Y21876D01*
X977Y21871D01*
X985Y21853D01*
X1146Y21644D01*
X1161Y21630D01*
X1165Y21625D01*
X1170Y21621D01*
X1183Y21606D01*
X1392Y21446D01*
X1410Y21437D01*
X1416Y21433D01*
X1422Y21430D01*
X1438Y21419D01*
X1682Y21318D01*
X1701Y21314D01*
X1708Y21312D01*
X1714Y21311D01*
X1733Y21305D01*
X1994Y21270D01*
X2008Y21271D01*
X2021Y21268D01*
X2034Y21271D01*
X2047Y21270D01*
X2308Y21305D01*
X2327Y21311D01*
X2334Y21312D01*
X2340Y21314D01*
X2360Y21318D01*
X2603Y21419D01*
X2620Y21430D01*
X2626Y21433D01*
X2631Y21437D01*
X2649Y21446D01*
X2858Y21606D01*
X2871Y21621D01*
X2877Y21625D01*
X2881Y21630D01*
X2896Y21644D01*
X3056Y21853D01*
X3065Y21871D01*
X3069Y21876D01*
X3072Y21882D01*
X3083Y21899D01*
X3183Y22142D01*
X3187Y22162D01*
X3190Y22168D01*
X3191Y22174D01*
X3197Y22193D01*
X3232Y22454D01*
X3230Y22474D01*
X3231Y22481D01*
X3230Y22488D01*
X3232Y22508D01*
X3197Y22769D01*
X3191Y22788D01*
X3190Y22794D01*
X3187Y22800D01*
X3183Y22820D01*
X3083Y23063D01*
X3072Y23080D01*
X3069Y23086D01*
X3065Y23091D01*
X3056Y23109D01*
X2896Y23318D01*
X2881Y23332D01*
X2877Y23337D01*
X2871Y23341D01*
X2858Y23356D01*
X2649Y23516D01*
X2631Y23525D01*
X2626Y23529D01*
X2620Y23532D01*
X2603Y23543D01*
X2360Y23644D01*
X2340Y23648D01*
X2334Y23650D01*
X2327Y23651D01*
X2308Y23657D01*
X2047Y23692D01*
X2034Y23691D01*
X2021Y23694D01*
D02*
G37*
G36*
X13039Y23693D02*
X13025Y23691D01*
X13012Y23692D01*
X12751Y23657D01*
X12732Y23651D01*
X12725Y23650D01*
X12719Y23647D01*
X12700Y23644D01*
X12456Y23543D01*
X12440Y23532D01*
X12433Y23529D01*
X12428Y23525D01*
X12410Y23516D01*
X12201Y23356D01*
X12188Y23341D01*
X12183Y23337D01*
X12179Y23331D01*
X12164Y23318D01*
X12003Y23109D01*
X11994Y23091D01*
X11990Y23086D01*
X11988Y23080D01*
X11977Y23063D01*
X11876Y22820D01*
X11872Y22800D01*
X11870Y22794D01*
X11869Y22788D01*
X11862Y22769D01*
X11828Y22507D01*
X11829Y22487D01*
X11828Y22481D01*
X11829Y22474D01*
X11828Y22454D01*
X11862Y22193D01*
X11869Y22174D01*
X11870Y22168D01*
X11872Y22161D01*
X11876Y22142D01*
X11977Y21899D01*
X11988Y21882D01*
X11990Y21876D01*
X11994Y21870D01*
X12003Y21852D01*
X12164Y21644D01*
X12179Y21630D01*
X12183Y21625D01*
X12188Y21621D01*
X12201Y21606D01*
X12410Y21446D01*
X12428Y21437D01*
X12433Y21433D01*
X12440Y21430D01*
X12456Y21419D01*
X12700Y21318D01*
X12719Y21314D01*
X12725Y21312D01*
X12732Y21311D01*
X12751Y21304D01*
X13012Y21270D01*
X13025Y21271D01*
X13039Y21268D01*
X13052Y21271D01*
X13065Y21270D01*
X13326Y21304D01*
X13345Y21311D01*
X13352Y21312D01*
X13358Y21314D01*
X13378Y21318D01*
X13621Y21419D01*
X13638Y21430D01*
X13644Y21433D01*
X13649Y21437D01*
X13667Y21446D01*
X13876Y21606D01*
X13889Y21621D01*
X13894Y21625D01*
X13899Y21630D01*
X13914Y21644D01*
X14074Y21852D01*
X14083Y21870D01*
X14087Y21876D01*
X14089Y21882D01*
X14101Y21899D01*
X14201Y22142D01*
X14205Y22161D01*
X14208Y22168D01*
X14209Y22174D01*
X14215Y22193D01*
X14249Y22454D01*
X14248Y22474D01*
X14249Y22481D01*
X14248Y22487D01*
X14249Y22507D01*
X14215Y22769D01*
X14209Y22788D01*
X14208Y22794D01*
X14205Y22800D01*
X14201Y22820D01*
X14101Y23063D01*
X14089Y23080D01*
X14087Y23086D01*
X14083Y23091D01*
X14074Y23109D01*
X13914Y23318D01*
X13899Y23331D01*
X13894Y23337D01*
X13889Y23341D01*
X13876Y23356D01*
X13667Y23516D01*
X13649Y23525D01*
X13644Y23529D01*
X13638Y23532D01*
X13621Y23543D01*
X13378Y23644D01*
X13358Y23647D01*
X13352Y23650D01*
X13345Y23651D01*
X13326Y23657D01*
X13065Y23692D01*
X13052Y23691D01*
X13039Y23693D01*
D02*
G37*
G36*
X8800Y24061D02*
X8585Y24018D01*
X8403Y23897D01*
X8282Y23715D01*
X8239Y23500D01*
X8282Y23285D01*
X8403Y23103D01*
X8585Y22982D01*
X8800Y22939D01*
X9015Y22982D01*
X9197Y23103D01*
X9318Y23285D01*
X9361Y23500D01*
X9318Y23715D01*
X9197Y23897D01*
X9015Y24018D01*
X8800Y24061D01*
D02*
G37*
G36*
X10800Y22561D02*
X10585Y22518D01*
X10403Y22397D01*
X10282Y22215D01*
X10239Y22000D01*
X10282Y21785D01*
X10403Y21603D01*
X10585Y21482D01*
X10800Y21439D01*
X11015Y21482D01*
X11197Y21603D01*
X11318Y21785D01*
X11361Y22000D01*
X11318Y22215D01*
X11197Y22397D01*
X11015Y22518D01*
X10800Y22561D01*
D02*
G37*
G36*
X-1451Y21761D02*
X-1665Y21718D01*
X-1847Y21597D01*
X-1969Y21415D01*
X-2012Y21200D01*
X-1969Y20985D01*
X-1847Y20803D01*
X-1665Y20682D01*
X-1451Y20639D01*
X-1236Y20682D01*
X-1054Y20803D01*
X-933Y20985D01*
X-890Y21200D01*
X-933Y21415D01*
X-1054Y21597D01*
X-1236Y21718D01*
X-1451Y21761D01*
D02*
G37*
G36*
X4500Y21478D02*
X4285Y21436D01*
X4103Y21314D01*
X3982Y21132D01*
X3939Y20918D01*
X3982Y20703D01*
X4103Y20521D01*
X4285Y20400D01*
X4500Y20357D01*
X4715Y20400D01*
X4896Y20521D01*
X5018Y20703D01*
X5061Y20918D01*
X5018Y21132D01*
X4896Y21314D01*
X4715Y21436D01*
X4500Y21478D01*
D02*
G37*
G36*
X700Y21061D02*
X485Y21018D01*
X303Y20897D01*
X182Y20715D01*
X139Y20500D01*
X182Y20285D01*
X303Y20103D01*
X485Y19982D01*
X700Y19939D01*
X915Y19982D01*
X1097Y20103D01*
X1218Y20285D01*
X1261Y20500D01*
X1218Y20715D01*
X1097Y20897D01*
X915Y21018D01*
X700Y21061D01*
D02*
G37*
G36*
X13300Y20061D02*
X13086Y20018D01*
X12904Y19897D01*
X12782Y19715D01*
X12740Y19500D01*
X12782Y19285D01*
X12904Y19103D01*
X13086Y18982D01*
X13300Y18939D01*
X13515Y18982D01*
X13697Y19103D01*
X13818Y19285D01*
X13861Y19500D01*
X13818Y19715D01*
X13697Y19897D01*
X13515Y20018D01*
X13300Y20061D01*
D02*
G37*
G36*
X-1200Y19761D02*
X-1415Y19718D01*
X-1597Y19597D01*
X-1718Y19415D01*
X-1761Y19200D01*
X-1718Y18985D01*
X-1597Y18803D01*
X-1415Y18682D01*
X-1200Y18639D01*
X-985Y18682D01*
X-803Y18803D01*
X-682Y18985D01*
X-639Y19200D01*
X-682Y19415D01*
X-803Y19597D01*
X-985Y19718D01*
X-1200Y19761D01*
D02*
G37*
G36*
X17200Y17761D02*
X16985Y17718D01*
X16803Y17597D01*
X16682Y17415D01*
X16639Y17200D01*
X16682Y16985D01*
X16803Y16803D01*
X16985Y16682D01*
X17200Y16639D01*
X17415Y16682D01*
X17597Y16803D01*
X17718Y16985D01*
X17761Y17200D01*
X17718Y17415D01*
X17597Y17597D01*
X17415Y17718D01*
X17200Y17761D01*
D02*
G37*
G36*
X9200Y16876D02*
X8985Y16833D01*
X8803Y16712D01*
X8682Y16530D01*
X8639Y16315D01*
X8682Y16101D01*
X8803Y15919D01*
X8985Y15797D01*
X9200Y15754D01*
X9415Y15797D01*
X9597Y15919D01*
X9689Y16057D01*
X9757Y16072D01*
X9843Y16072D01*
X9911Y16057D01*
X10003Y15919D01*
X10185Y15797D01*
X10400Y15754D01*
X10615Y15797D01*
X10797Y15919D01*
X10918Y16101D01*
X10961Y16315D01*
X10918Y16530D01*
X10797Y16712D01*
X10615Y16833D01*
X10400Y16876D01*
X10185Y16833D01*
X10003Y16712D01*
X9911Y16573D01*
X9843Y16558D01*
X9757Y16558D01*
X9689Y16573D01*
X9597Y16712D01*
X9415Y16833D01*
X9200Y16876D01*
D02*
G37*
G36*
X4100Y17461D02*
X3885Y17418D01*
X3703Y17297D01*
X3582Y17115D01*
X3539Y16900D01*
X3582Y16685D01*
X3703Y16503D01*
X3885Y16382D01*
X4100Y16339D01*
X4286Y16376D01*
X4386Y16303D01*
X4451Y16232D01*
X4424Y16100D01*
X4467Y15885D01*
X4588Y15703D01*
X4770Y15582D01*
X4985Y15539D01*
X5200Y15582D01*
X5382Y15703D01*
X5501Y15882D01*
X5545Y15940D01*
X5685Y15999D01*
X5900Y15956D01*
X5973Y15971D01*
X6182Y15885D01*
X6303Y15703D01*
X6485Y15582D01*
X6700Y15539D01*
X6915Y15582D01*
X7097Y15703D01*
X7218Y15885D01*
X7261Y16100D01*
X7218Y16315D01*
X7097Y16497D01*
X6915Y16618D01*
X6700Y16661D01*
X6627Y16646D01*
X6418Y16731D01*
X6297Y16913D01*
X6115Y17035D01*
X5900Y17078D01*
X5685Y17035D01*
X5503Y16913D01*
X5384Y16735D01*
X5340Y16676D01*
X5200Y16618D01*
X4985Y16661D01*
X4799Y16624D01*
X4699Y16697D01*
X4634Y16768D01*
X4661Y16900D01*
X4618Y17115D01*
X4497Y17297D01*
X4315Y17418D01*
X4100Y17461D01*
D02*
G37*
G36*
X12300Y16305D02*
X12085Y16262D01*
X11903Y16140D01*
X11782Y15959D01*
X11739Y15744D01*
X11782Y15529D01*
X11903Y15347D01*
X12085Y15226D01*
X12300Y15183D01*
X12515Y15226D01*
X12697Y15347D01*
X12818Y15529D01*
X12861Y15744D01*
X12818Y15959D01*
X12697Y16140D01*
X12515Y16262D01*
X12300Y16305D01*
D02*
G37*
G36*
X-653Y15261D02*
X-867Y15218D01*
X-1049Y15097D01*
X-1167Y14920D01*
X-1203Y14875D01*
X-1335Y14820D01*
X-1392Y14827D01*
X-1600Y14868D01*
X-1815Y14826D01*
X-1997Y14704D01*
X-2118Y14522D01*
X-2161Y14308D01*
X-2118Y14093D01*
X-1997Y13911D01*
X-1815Y13790D01*
X-1600Y13747D01*
X-1385Y13790D01*
X-1203Y13911D01*
X-1086Y14087D01*
X-1050Y14133D01*
X-918Y14187D01*
X-861Y14181D01*
X-653Y14139D01*
X-438Y14182D01*
X-256Y14303D01*
X-134Y14485D01*
X-92Y14700D01*
X-134Y14915D01*
X-256Y15097D01*
X-438Y15218D01*
X-653Y15261D01*
D02*
G37*
G36*
X-3488Y14152D02*
X-3501Y14149D01*
X-3515Y14150D01*
X-3776Y14116D01*
X-3795Y14109D01*
X-3802Y14108D01*
X-3808Y14106D01*
X-3827Y14102D01*
X-4071Y14001D01*
X-4087Y13990D01*
X-4093Y13987D01*
X-4099Y13983D01*
X-4117Y13975D01*
X-4326Y13814D01*
X-4339Y13799D01*
X-4344Y13795D01*
X-4348Y13790D01*
X-4363Y13777D01*
X-4524Y13568D01*
X-4532Y13550D01*
X-4536Y13544D01*
X-4539Y13538D01*
X-4550Y13522D01*
X-4651Y13278D01*
X-4655Y13259D01*
X-4657Y13253D01*
X-4658Y13246D01*
X-4665Y13227D01*
X-4699Y12966D01*
X-4698Y12946D01*
X-4699Y12939D01*
X-4698Y12933D01*
X-4699Y12913D01*
X-4665Y12652D01*
X-4658Y12633D01*
X-4657Y12626D01*
X-4655Y12620D01*
X-4651Y12600D01*
X-4550Y12357D01*
X-4539Y12340D01*
X-4536Y12334D01*
X-4532Y12329D01*
X-4524Y12311D01*
X-4363Y12102D01*
X-4348Y12089D01*
X-4344Y12083D01*
X-4339Y12079D01*
X-4326Y12064D01*
X-4117Y11904D01*
X-4099Y11895D01*
X-4093Y11891D01*
X-4087Y11889D01*
X-4071Y11877D01*
X-3827Y11777D01*
X-3808Y11773D01*
X-3802Y11770D01*
X-3795Y11769D01*
X-3776Y11763D01*
X-3515Y11728D01*
X-3501Y11729D01*
X-3488Y11727D01*
X-3475Y11729D01*
X-3462Y11728D01*
X-3201Y11763D01*
X-3182Y11769D01*
X-3175Y11770D01*
X-3169Y11773D01*
X-3149Y11777D01*
X-2906Y11877D01*
X-2889Y11889D01*
X-2883Y11891D01*
X-2878Y11895D01*
X-2860Y11904D01*
X-2651Y12064D01*
X-2638Y12079D01*
X-2632Y12083D01*
X-2628Y12089D01*
X-2613Y12102D01*
X-2453Y12311D01*
X-2444Y12329D01*
X-2440Y12334D01*
X-2438Y12340D01*
X-2426Y12357D01*
X-2326Y12600D01*
X-2322Y12620D01*
X-2319Y12626D01*
X-2318Y12633D01*
X-2312Y12652D01*
X-2277Y12913D01*
X-2279Y12933D01*
X-2278Y12939D01*
X-2279Y12946D01*
X-2277Y12966D01*
X-2312Y13227D01*
X-2318Y13246D01*
X-2319Y13253D01*
X-2322Y13259D01*
X-2326Y13278D01*
X-2426Y13522D01*
X-2438Y13538D01*
X-2440Y13544D01*
X-2444Y13550D01*
X-2453Y13568D01*
X-2613Y13777D01*
X-2628Y13790D01*
X-2632Y13795D01*
X-2638Y13799D01*
X-2651Y13814D01*
X-2860Y13975D01*
X-2878Y13983D01*
X-2883Y13987D01*
X-2889Y13990D01*
X-2906Y14001D01*
X-3149Y14102D01*
X-3169Y14106D01*
X-3175Y14108D01*
X-3182Y14109D01*
X-3201Y14116D01*
X-3462Y14150D01*
X-3475Y14149D01*
X-3488Y14152D01*
D02*
G37*
G36*
X18547Y14152D02*
X18534Y14149D01*
X18521Y14150D01*
X18260Y14115D01*
X18241Y14109D01*
X18234Y14108D01*
X18228Y14106D01*
X18208Y14102D01*
X17965Y14001D01*
X17948Y13990D01*
X17942Y13987D01*
X17937Y13983D01*
X17919Y13974D01*
X17710Y13814D01*
X17697Y13799D01*
X17692Y13795D01*
X17688Y13790D01*
X17673Y13776D01*
X17512Y13567D01*
X17503Y13549D01*
X17499Y13544D01*
X17497Y13538D01*
X17486Y13521D01*
X17385Y13278D01*
X17381Y13258D01*
X17378Y13252D01*
X17378Y13246D01*
X17371Y13227D01*
X17337Y12966D01*
X17338Y12946D01*
X17337Y12939D01*
X17338Y12932D01*
X17337Y12912D01*
X17371Y12651D01*
X17378Y12632D01*
X17378Y12626D01*
X17381Y12620D01*
X17385Y12600D01*
X17486Y12357D01*
X17497Y12340D01*
X17499Y12334D01*
X17503Y12329D01*
X17512Y12311D01*
X17673Y12102D01*
X17688Y12088D01*
X17692Y12083D01*
X17697Y12079D01*
X17710Y12064D01*
X17919Y11904D01*
X17937Y11895D01*
X17942Y11891D01*
X17948Y11888D01*
X17965Y11877D01*
X18208Y11776D01*
X18228Y11772D01*
X18234Y11770D01*
X18241Y11769D01*
X18260Y11763D01*
X18521Y11728D01*
X18534Y11729D01*
X18547Y11726D01*
X18561Y11729D01*
X18574Y11728D01*
X18835Y11763D01*
X18854Y11769D01*
X18861Y11770D01*
X18867Y11772D01*
X18887Y11776D01*
X19130Y11877D01*
X19147Y11888D01*
X19153Y11891D01*
X19158Y11895D01*
X19176Y11904D01*
X19385Y12064D01*
X19398Y12079D01*
X19403Y12083D01*
X19407Y12088D01*
X19422Y12102D01*
X19583Y12311D01*
X19592Y12329D01*
X19596Y12334D01*
X19598Y12340D01*
X19609Y12357D01*
X19710Y12600D01*
X19714Y12620D01*
X19717Y12626D01*
X19717Y12632D01*
X19724Y12651D01*
X19758Y12912D01*
X19757Y12932D01*
X19758Y12939D01*
X19757Y12946D01*
X19758Y12966D01*
X19724Y13227D01*
X19717Y13246D01*
X19717Y13252D01*
X19714Y13258D01*
X19710Y13278D01*
X19609Y13521D01*
X19598Y13538D01*
X19596Y13544D01*
X19592Y13549D01*
X19583Y13567D01*
X19422Y13776D01*
X19407Y13790D01*
X19403Y13795D01*
X19398Y13799D01*
X19385Y13814D01*
X19176Y13974D01*
X19158Y13983D01*
X19153Y13987D01*
X19147Y13990D01*
X19130Y14001D01*
X18887Y14102D01*
X18867Y14106D01*
X18861Y14108D01*
X18854Y14109D01*
X18835Y14115D01*
X18574Y14150D01*
X18561Y14149D01*
X18547Y14152D01*
D02*
G37*
G36*
X16000Y15140D02*
X15785Y15097D01*
X15603Y14976D01*
X15482Y14794D01*
X15439Y14579D01*
X15482Y14365D01*
X15603Y14183D01*
X15785Y14061D01*
X16000Y14019D01*
X16215Y14061D01*
X16397Y14183D01*
X16518Y14365D01*
X16561Y14579D01*
X16518Y14794D01*
X16397Y14976D01*
X16215Y15097D01*
X16000Y15140D01*
D02*
G37*
G36*
X4700Y13161D02*
X4485Y13118D01*
X4303Y12997D01*
X4182Y12815D01*
X4139Y12600D01*
X4165Y12473D01*
X4026Y12307D01*
X4011Y12299D01*
X3943Y12313D01*
X3729Y12270D01*
X3547Y12149D01*
X3425Y11967D01*
X3382Y11752D01*
X3425Y11538D01*
X3547Y11356D01*
X3729Y11234D01*
X3943Y11191D01*
X4158Y11234D01*
X4340Y11356D01*
X4461Y11538D01*
X4504Y11752D01*
X4479Y11879D01*
X4618Y12045D01*
X4633Y12053D01*
X4700Y12039D01*
X4915Y12082D01*
X5097Y12203D01*
X5218Y12385D01*
X5261Y12600D01*
X5218Y12815D01*
X5097Y12997D01*
X4915Y13118D01*
X4700Y13161D01*
D02*
G37*
G36*
X-600Y11913D02*
X-814Y11870D01*
X-996Y11749D01*
X-1118Y11567D01*
X-1161Y11352D01*
X-1118Y11137D01*
X-996Y10956D01*
X-814Y10834D01*
X-600Y10791D01*
X-385Y10834D01*
X-203Y10956D01*
X-82Y11137D01*
X-39Y11352D01*
X-82Y11567D01*
X-203Y11749D01*
X-385Y11870D01*
X-600Y11913D01*
D02*
G37*
G36*
X16100Y11861D02*
X15885Y11818D01*
X15703Y11697D01*
X15582Y11515D01*
X15539Y11300D01*
X15582Y11085D01*
X15703Y10903D01*
X15885Y10782D01*
X16100Y10739D01*
X16315Y10782D01*
X16497Y10903D01*
X16618Y11085D01*
X16661Y11300D01*
X16618Y11515D01*
X16497Y11697D01*
X16315Y11818D01*
X16100Y11861D01*
D02*
G37*
G36*
X9414Y11761D02*
X9199Y11718D01*
X9017Y11597D01*
X8896Y11415D01*
X8853Y11200D01*
X8865Y11141D01*
X8768Y10918D01*
X8586Y10797D01*
X8465Y10615D01*
X8422Y10400D01*
X8465Y10185D01*
X8484Y10157D01*
X8581Y9995D01*
X8484Y9832D01*
X8465Y9804D01*
X8422Y9589D01*
X8465Y9375D01*
X8586Y9193D01*
X8768Y9071D01*
X8983Y9028D01*
X9198Y9071D01*
X9379Y9193D01*
X9425Y9260D01*
X9541Y9182D01*
X9756Y9139D01*
X9971Y9182D01*
X10153Y9303D01*
X10274Y9485D01*
X10317Y9700D01*
X10274Y9915D01*
X10153Y10097D01*
Y10103D01*
X10274Y10285D01*
X10317Y10500D01*
X10274Y10715D01*
X10153Y10897D01*
X9971Y11018D01*
X9940Y11024D01*
X9975Y11200D01*
X9932Y11415D01*
X9810Y11597D01*
X9629Y11718D01*
X9414Y11761D01*
D02*
G37*
G36*
X-2300Y9361D02*
X-2515Y9318D01*
X-2697Y9197D01*
X-2818Y9015D01*
X-2861Y8800D01*
X-2818Y8585D01*
X-2697Y8403D01*
X-2515Y8282D01*
X-2300Y8239D01*
X-2085Y8282D01*
X-1903Y8403D01*
X-1782Y8585D01*
X-1739Y8800D01*
X-1782Y9015D01*
X-1903Y9197D01*
X-2085Y9318D01*
X-2300Y9361D01*
D02*
G37*
G36*
X15800Y7361D02*
X15585Y7318D01*
X15403Y7197D01*
X15282Y7015D01*
X15239Y6800D01*
X15282Y6585D01*
X15403Y6403D01*
X15585Y6282D01*
X15800Y6239D01*
X16015Y6282D01*
X16197Y6403D01*
X16318Y6585D01*
X16361Y6800D01*
X16318Y7015D01*
X16197Y7197D01*
X16015Y7318D01*
X15800Y7361D01*
D02*
G37*
G36*
X2100Y7303D02*
X1885Y7260D01*
X1703Y7139D01*
X1582Y6957D01*
X1539Y6742D01*
X1582Y6528D01*
X1703Y6346D01*
X1885Y6224D01*
X2100Y6182D01*
X2315Y6224D01*
X2497Y6346D01*
X2618Y6528D01*
X2661Y6742D01*
X2618Y6957D01*
X2497Y7139D01*
X2315Y7260D01*
X2100Y7303D01*
D02*
G37*
G36*
X12800Y7161D02*
X12585Y7118D01*
X12403Y6997D01*
X12282Y6815D01*
X12239Y6600D01*
X12282Y6385D01*
X12403Y6203D01*
X12585Y6082D01*
X12800Y6039D01*
X13015Y6082D01*
X13197Y6203D01*
X13318Y6385D01*
X13361Y6600D01*
X13318Y6815D01*
X13197Y6997D01*
X13015Y7118D01*
X12800Y7161D01*
D02*
G37*
G36*
X2021Y4610D02*
X2007Y4607D01*
X1994Y4608D01*
X1733Y4574D01*
X1714Y4567D01*
X1707Y4567D01*
X1701Y4564D01*
X1681Y4560D01*
X1438Y4459D01*
X1421Y4448D01*
X1415Y4446D01*
X1410Y4442D01*
X1392Y4433D01*
X1183Y4272D01*
X1170Y4257D01*
X1165Y4253D01*
X1161Y4248D01*
X1146Y4235D01*
X985Y4026D01*
X976Y4008D01*
X972Y4003D01*
X970Y3997D01*
X959Y3980D01*
X858Y3737D01*
X854Y3717D01*
X851Y3711D01*
X851Y3704D01*
X844Y3685D01*
X810Y3424D01*
X811Y3404D01*
X810Y3397D01*
X811Y3391D01*
X810Y3371D01*
X844Y3110D01*
X851Y3091D01*
X851Y3084D01*
X854Y3078D01*
X858Y3058D01*
X959Y2815D01*
X970Y2798D01*
X972Y2792D01*
X976Y2787D01*
X985Y2769D01*
X1146Y2560D01*
X1161Y2547D01*
X1165Y2542D01*
X1170Y2538D01*
X1183Y2522D01*
X1392Y2362D01*
X1410Y2353D01*
X1415Y2349D01*
X1421Y2347D01*
X1438Y2336D01*
X1681Y2235D01*
X1701Y2231D01*
X1707Y2228D01*
X1714Y2227D01*
X1733Y2221D01*
X1994Y2187D01*
X2007Y2188D01*
X2021Y2185D01*
X2034Y2188D01*
X2047Y2187D01*
X2308Y2221D01*
X2327Y2227D01*
X2334Y2228D01*
X2340Y2231D01*
X2360Y2235D01*
X2603Y2336D01*
X2620Y2347D01*
X2626Y2349D01*
X2631Y2353D01*
X2649Y2362D01*
X2858Y2522D01*
X2871Y2538D01*
X2876Y2542D01*
X2880Y2547D01*
X2896Y2560D01*
X3056Y2769D01*
X3065Y2787D01*
X3069Y2792D01*
X3071Y2798D01*
X3082Y2815D01*
X3183Y3058D01*
X3187Y3078D01*
X3190Y3084D01*
X3191Y3091D01*
X3197Y3110D01*
X3231Y3371D01*
X3230Y3391D01*
X3231Y3397D01*
X3230Y3404D01*
X3231Y3424D01*
X3197Y3685D01*
X3191Y3704D01*
X3190Y3711D01*
X3187Y3717D01*
X3183Y3737D01*
X3082Y3980D01*
X3071Y3997D01*
X3069Y4003D01*
X3065Y4008D01*
X3056Y4026D01*
X2896Y4235D01*
X2880Y4248D01*
X2876Y4253D01*
X2871Y4257D01*
X2858Y4272D01*
X2649Y4433D01*
X2631Y4442D01*
X2626Y4446D01*
X2620Y4448D01*
X2603Y4459D01*
X2360Y4560D01*
X2340Y4564D01*
X2334Y4567D01*
X2327Y4567D01*
X2308Y4574D01*
X2047Y4608D01*
X2034Y4607D01*
X2021Y4610D01*
D02*
G37*
G36*
X13038Y4610D02*
X13025Y4607D01*
X13012Y4608D01*
X12751Y4574D01*
X12732Y4567D01*
X12725Y4566D01*
X12719Y4564D01*
X12699Y4560D01*
X12456Y4459D01*
X12439Y4448D01*
X12433Y4446D01*
X12428Y4441D01*
X12410Y4433D01*
X12201Y4272D01*
X12188Y4257D01*
X12183Y4253D01*
X12179Y4248D01*
X12163Y4235D01*
X12003Y4026D01*
X11994Y4008D01*
X11990Y4003D01*
X11988Y3996D01*
X11977Y3980D01*
X11876Y3736D01*
X11872Y3717D01*
X11869Y3711D01*
X11868Y3704D01*
X11862Y3685D01*
X11828Y3424D01*
X11829Y3404D01*
X11828Y3397D01*
X11829Y3391D01*
X11828Y3371D01*
X11862Y3110D01*
X11868Y3091D01*
X11869Y3084D01*
X11872Y3078D01*
X11876Y3058D01*
X11977Y2815D01*
X11988Y2798D01*
X11990Y2792D01*
X11994Y2787D01*
X12003Y2769D01*
X12163Y2560D01*
X12179Y2547D01*
X12183Y2541D01*
X12188Y2537D01*
X12201Y2522D01*
X12410Y2362D01*
X12428Y2353D01*
X12433Y2349D01*
X12439Y2347D01*
X12456Y2335D01*
X12699Y2235D01*
X12719Y2231D01*
X12725Y2228D01*
X12732Y2227D01*
X12751Y2221D01*
X13012Y2187D01*
X13025Y2187D01*
X13038Y2185D01*
X13052Y2187D01*
X13065Y2187D01*
X13326Y2221D01*
X13345Y2227D01*
X13352Y2228D01*
X13358Y2231D01*
X13378Y2235D01*
X13621Y2335D01*
X13637Y2347D01*
X13644Y2349D01*
X13649Y2353D01*
X13667Y2362D01*
X13876Y2522D01*
X13889Y2537D01*
X13894Y2541D01*
X13898Y2547D01*
X13913Y2560D01*
X14074Y2769D01*
X14083Y2787D01*
X14087Y2792D01*
X14089Y2798D01*
X14100Y2815D01*
X14201Y3058D01*
X14205Y3078D01*
X14208Y3084D01*
X14208Y3091D01*
X14215Y3110D01*
X14249Y3371D01*
X14248Y3391D01*
X14249Y3397D01*
X14248Y3404D01*
X14249Y3424D01*
X14215Y3685D01*
X14208Y3704D01*
X14208Y3711D01*
X14205Y3717D01*
X14201Y3736D01*
X14100Y3980D01*
X14089Y3996D01*
X14087Y4003D01*
X14083Y4008D01*
X14074Y4026D01*
X13913Y4235D01*
X13898Y4248D01*
X13894Y4253D01*
X13889Y4257D01*
X13876Y4272D01*
X13667Y4433D01*
X13649Y4441D01*
X13644Y4446D01*
X13637Y4448D01*
X13621Y4459D01*
X13378Y4560D01*
X13358Y4564D01*
X13352Y4566D01*
X13345Y4567D01*
X13326Y4574D01*
X13065Y4608D01*
X13052Y4607D01*
X13038Y4610D01*
D02*
G37*
G36*
X11600Y5661D02*
X11385Y5618D01*
X11203Y5497D01*
X11082Y5315D01*
X11039Y5100D01*
X11082Y4885D01*
X11203Y4703D01*
X11385Y4582D01*
X11600Y4539D01*
X11815Y4582D01*
X11997Y4703D01*
X12118Y4885D01*
X12161Y5100D01*
X12118Y5315D01*
X11997Y5497D01*
X11815Y5618D01*
X11600Y5661D01*
D02*
G37*
G36*
X16400Y5261D02*
X16185Y5218D01*
X16003Y5097D01*
X15882Y4915D01*
X15839Y4700D01*
X15882Y4485D01*
X16003Y4303D01*
X16185Y4182D01*
X16400Y4139D01*
X16615Y4182D01*
X16797Y4303D01*
X16918Y4485D01*
X16961Y4700D01*
X16918Y4915D01*
X16797Y5097D01*
X16615Y5218D01*
X16400Y5261D01*
D02*
G37*
G36*
X3865Y5061D02*
X3650Y5018D01*
X3468Y4897D01*
X3347Y4715D01*
X3304Y4500D01*
X3347Y4285D01*
X3468Y4103D01*
X3650Y3982D01*
X3865Y3939D01*
X4079Y3982D01*
X4261Y4103D01*
X4383Y4285D01*
X4425Y4500D01*
X4383Y4715D01*
X4261Y4897D01*
X4079Y5018D01*
X3865Y5061D01*
D02*
G37*
%LPD*%
D33*
X11404Y11300D02*
D03*
X10800Y10850D02*
D03*
X4300Y3000D02*
D03*
X9200Y2400D02*
D03*
X12500Y8600D02*
D03*
X11740Y8300D02*
D03*
X11394Y10400D02*
D03*
X-1700Y11800D02*
D03*
X14900Y14300D02*
D03*
X9956Y17599D02*
D03*
X10200Y1000D02*
D03*
X17200Y8950D02*
D03*
X19200Y9366D02*
D03*
X15900Y19300D02*
D03*
X16500Y21300D02*
D03*
X6400Y23500D02*
D03*
X4800Y24950D02*
D03*
X-2300Y17200D02*
D03*
X-4100Y16798D02*
D03*
X-112Y6600D02*
D03*
X-1500Y4700D02*
D03*
X-1141Y7100D02*
D03*
X10800Y12300D02*
D03*
X-386Y4300D02*
D03*
X14700Y4800D02*
D03*
X10821Y9900D02*
D03*
X700Y13600D02*
D03*
X10065Y21100D02*
D03*
X12400Y18700D02*
D03*
X-3200Y16300D02*
D03*
X16753Y15300D02*
D03*
X2200Y19000D02*
D03*
M02*
