G04*
G04 #@! TF.GenerationSoftware,Altium Limited,Altium Designer,22.7.1 (60)*
G04*
G04 Layer_Physical_Order=1*
G04 Layer_Color=16776960*
%FSLAX43Y43*%
%MOMM*%
G71*
G04*
G04 #@! TF.SameCoordinates,4835CE25-E48C-4DDB-B082-209FFF86AC7D*
G04*
G04*
G04 #@! TF.FilePolarity,Positive*
G04*
G01*
G75*
%ADD12C,0.300*%
%ADD23C,0.300*%
G04:AMPARAMS|DCode=24|XSize=1.5mm|YSize=0.55mm|CornerRadius=0.069mm|HoleSize=0mm|Usage=FLASHONLY|Rotation=90.000|XOffset=0mm|YOffset=0mm|HoleType=Round|Shape=RoundedRectangle|*
%AMROUNDEDRECTD24*
21,1,1.500,0.413,0,0,90.0*
21,1,1.363,0.550,0,0,90.0*
1,1,0.138,0.206,0.681*
1,1,0.138,0.206,-0.681*
1,1,0.138,-0.206,-0.681*
1,1,0.138,-0.206,0.681*
%
%ADD24ROUNDEDRECTD24*%
G04:AMPARAMS|DCode=25|XSize=1.5mm|YSize=0.55mm|CornerRadius=0.069mm|HoleSize=0mm|Usage=FLASHONLY|Rotation=30.000|XOffset=0mm|YOffset=0mm|HoleType=Round|Shape=RoundedRectangle|*
%AMROUNDEDRECTD25*
21,1,1.500,0.413,0,0,30.0*
21,1,1.363,0.550,0,0,30.0*
1,1,0.138,0.693,0.162*
1,1,0.138,-0.487,-0.519*
1,1,0.138,-0.693,-0.162*
1,1,0.138,0.487,0.519*
%
%ADD25ROUNDEDRECTD25*%
G04:AMPARAMS|DCode=26|XSize=1.5mm|YSize=0.55mm|CornerRadius=0.069mm|HoleSize=0mm|Usage=FLASHONLY|Rotation=330.000|XOffset=0mm|YOffset=0mm|HoleType=Round|Shape=RoundedRectangle|*
%AMROUNDEDRECTD26*
21,1,1.500,0.413,0,0,330.0*
21,1,1.363,0.550,0,0,330.0*
1,1,0.138,0.487,-0.519*
1,1,0.138,-0.693,0.162*
1,1,0.138,-0.487,0.519*
1,1,0.138,0.693,-0.162*
%
%ADD26ROUNDEDRECTD26*%
G04:AMPARAMS|DCode=27|XSize=0.61mm|YSize=0.6mm|CornerRadius=0.075mm|HoleSize=0mm|Usage=FLASHONLY|Rotation=212.000|XOffset=0mm|YOffset=0mm|HoleType=Round|Shape=RoundedRectangle|*
%AMROUNDEDRECTD27*
21,1,0.610,0.450,0,0,212.0*
21,1,0.460,0.600,0,0,212.0*
1,1,0.150,-0.314,0.069*
1,1,0.150,0.076,0.313*
1,1,0.150,0.314,-0.069*
1,1,0.150,-0.076,-0.313*
%
%ADD27ROUNDEDRECTD27*%
G04:AMPARAMS|DCode=28|XSize=0.61mm|YSize=0.6mm|CornerRadius=0.075mm|HoleSize=0mm|Usage=FLASHONLY|Rotation=90.000|XOffset=0mm|YOffset=0mm|HoleType=Round|Shape=RoundedRectangle|*
%AMROUNDEDRECTD28*
21,1,0.610,0.450,0,0,90.0*
21,1,0.460,0.600,0,0,90.0*
1,1,0.150,0.225,0.230*
1,1,0.150,0.225,-0.230*
1,1,0.150,-0.225,-0.230*
1,1,0.150,-0.225,0.230*
%
%ADD28ROUNDEDRECTD28*%
G04:AMPARAMS|DCode=29|XSize=0.61mm|YSize=0.6mm|CornerRadius=0.075mm|HoleSize=0mm|Usage=FLASHONLY|Rotation=150.000|XOffset=0mm|YOffset=0mm|HoleType=Round|Shape=RoundedRectangle|*
%AMROUNDEDRECTD29*
21,1,0.610,0.450,0,0,150.0*
21,1,0.460,0.600,0,0,150.0*
1,1,0.150,-0.087,0.310*
1,1,0.150,0.312,0.080*
1,1,0.150,0.087,-0.310*
1,1,0.150,-0.312,-0.080*
%
%ADD29ROUNDEDRECTD29*%
G04:AMPARAMS|DCode=30|XSize=0.61mm|YSize=0.6mm|CornerRadius=0.075mm|HoleSize=0mm|Usage=FLASHONLY|Rotation=210.000|XOffset=0mm|YOffset=0mm|HoleType=Round|Shape=RoundedRectangle|*
%AMROUNDEDRECTD30*
21,1,0.610,0.450,0,0,210.0*
21,1,0.460,0.600,0,0,210.0*
1,1,0.150,-0.312,0.080*
1,1,0.150,0.087,0.310*
1,1,0.150,0.312,-0.080*
1,1,0.150,-0.087,-0.310*
%
%ADD30ROUNDEDRECTD30*%
G04:AMPARAMS|DCode=31|XSize=0.61mm|YSize=0.6mm|CornerRadius=0.075mm|HoleSize=0mm|Usage=FLASHONLY|Rotation=329.000|XOffset=0mm|YOffset=0mm|HoleType=Round|Shape=RoundedRectangle|*
%AMROUNDEDRECTD31*
21,1,0.610,0.450,0,0,329.0*
21,1,0.460,0.600,0,0,329.0*
1,1,0.150,0.081,-0.311*
1,1,0.150,-0.313,-0.074*
1,1,0.150,-0.081,0.311*
1,1,0.150,0.313,0.074*
%
%ADD31ROUNDEDRECTD31*%
%ADD32C,2.000*%
%ADD33C,0.700*%
D12*
X5466Y2300D02*
G03*
X4500Y1900I0J-1366D01*
G01*
X6700Y1900D02*
G03*
X6300Y2300I-400J0D01*
G01*
X9200Y2400D02*
G03*
X8300Y1500I0J-900D01*
G01*
X4976Y12600D02*
G03*
X5700Y12900I0J1024D01*
G01*
D02*
G03*
X5900Y13383I-483J483D01*
G01*
X12466Y7558D02*
G03*
X10670Y6814I0J-2540D01*
G01*
X9414Y5558D02*
G03*
X9100Y4800I758J-758D01*
G01*
X13000Y11352D02*
G03*
X13744Y9556I2540J0D01*
G01*
X11952Y9300D02*
G03*
X10156Y8556I0J-2540D01*
G01*
X8244Y6644D02*
G03*
X7500Y4848I1796J-1796D01*
G01*
Y4993D02*
G03*
X7083Y6000I-1424J0D01*
G01*
X14038Y9262D02*
G03*
X14099Y9214I232J232D01*
G01*
D02*
G03*
X13653Y9300I-446J-1109D01*
G01*
X14178Y9179D02*
G03*
X14099Y9214I-525J-1074D01*
G01*
X14498Y8950D02*
G03*
X14178Y9179I-845J-845D01*
G01*
X6915Y15315D02*
G03*
X7500Y15900I0J585D01*
G01*
X4985Y16100D02*
G03*
X5770Y15315I785J0D01*
G01*
X3500Y16215D02*
G03*
X4100Y16815I0J600D01*
G01*
X14714Y10586D02*
G03*
X15304Y10342I590J590D01*
G01*
X13800Y12349D02*
G03*
X14400Y10900I2049J0D01*
G01*
X14427Y15067D02*
G03*
X13800Y13553I1514J-1514D01*
G01*
X15386Y15693D02*
G03*
X15077Y15565I0J-437D01*
G01*
X15380Y15699D02*
G03*
X14832Y15472I0J-774D01*
G01*
X1361Y18367D02*
G03*
X2700Y17812I1339J1339D01*
G01*
D02*
G03*
X3403Y18103I0J994D01*
G01*
X11989Y19750D02*
G03*
X12593Y19500I603J603D01*
G01*
X9956Y17599D02*
G03*
X9252Y17890I-704J-704D01*
G01*
X15575Y12475D02*
G03*
X16034Y11366I1569J0D01*
G01*
X16000Y14579D02*
G03*
X15575Y13553I1026J-1026D01*
G01*
X7500Y2500D02*
G03*
X6800Y3200I-700J0D01*
G01*
X7900Y3000D02*
G03*
X7500Y2034I966J-966D01*
G01*
X8383Y3200D02*
G03*
X7900Y3000I0J-683D01*
G01*
X11456Y1744D02*
G03*
X13252Y1000I1796J1796D01*
G01*
X10636Y2564D02*
G03*
X9100Y3200I-1536J-1536D01*
G01*
X16300Y8693D02*
G03*
X16649Y7851I1190J0D01*
G01*
X16953Y7547D02*
G03*
X16357Y7700I-596J-1086D01*
G01*
X17233Y7337D02*
G03*
X17562Y7265I329J718D01*
G01*
X17233Y7337D02*
G03*
X16953Y7547I-876J-876D01*
G01*
X15942Y7700D02*
G03*
X15075Y7341I0J-1226D01*
G01*
D02*
G03*
X14744Y6542I799J-799D01*
G01*
D02*
G03*
X15100Y5683I1216J0D01*
G01*
X15500Y4717D02*
G03*
X15100Y5683I-1366J0D01*
G01*
X13252Y1000D02*
G03*
X14494Y1514I0J1756D01*
G01*
X14756Y1776D02*
G03*
X15500Y3573I-1796J1796D01*
G01*
X16800Y9900D02*
G03*
X16300Y8693I1207J-1207D01*
G01*
X18490Y10600D02*
G03*
X16800Y9900I0J-2390D01*
G01*
X18900Y10600D02*
G03*
X20266Y11166I0J1931D01*
G01*
X17333Y6414D02*
G03*
X16400Y6800I-933J-933D01*
G01*
X17200Y8950D02*
G03*
X17510Y8202I1058J0D01*
G01*
X17813Y7898D02*
G03*
X18189Y7743I376J376D01*
G01*
X17813Y7899D02*
G03*
X17813Y7898I376J376D01*
G01*
X16560Y17855D02*
G03*
X16300Y17227I629J-629D01*
G01*
X17643Y18769D02*
G03*
X17355Y18650I0J-408D01*
G01*
X16674Y18360D02*
G03*
X17070Y18524I0J560D01*
G01*
X14900Y19682D02*
G03*
X15380Y18524I1637J0D01*
G01*
D02*
G03*
X15776Y18360I396J396D01*
G01*
X15100Y20600D02*
G03*
X14900Y20117I483J-483D01*
G01*
X15100Y20600D02*
G03*
X15298Y21078I-478J478D01*
G01*
Y22665D02*
G03*
X14580Y24400I-2454J0D01*
G01*
X16300Y17227D02*
G03*
X16560Y16600I886J0D01*
G01*
D02*
G03*
X18250Y15900I1690J1690D01*
G01*
X19236Y15607D02*
G03*
X18528Y15900I-708J-708D01*
G01*
X17412Y17711D02*
G03*
X17200Y17200I511J-511D01*
G01*
X18270Y18292D02*
G03*
X17796Y18095I0J-672D01*
G01*
X16560Y19300D02*
G03*
X17470Y19677I0J1288D01*
G01*
X6234Y22600D02*
G03*
X7200Y23000I0J1366D01*
G01*
X7500Y24514D02*
G03*
X8146Y22954I2207J0D01*
G01*
X9000Y22600D02*
G03*
X10024Y23024I0J1449D01*
G01*
X8146Y22954D02*
G03*
X9000Y22600I854J854D01*
G01*
X13052Y25000D02*
G03*
X11256Y24256I0J-2540D01*
G01*
X8300Y24424D02*
G03*
X8600Y23700I1024J0D01*
G01*
X-2224Y18524D02*
G03*
X-1896Y18470I328J967D01*
G01*
X-2618Y18769D02*
G03*
X-2224Y18524I722J722D01*
G01*
X-1300Y17300D02*
G03*
X-1512Y17812I-724J0D01*
G01*
X4976Y23024D02*
G03*
X6000Y22600I1024J1025D01*
G01*
X3894Y24106D02*
G03*
X2098Y24850I-1796J-1796D01*
G01*
X7200Y23000D02*
G03*
X7500Y23724I-724J724D01*
G01*
X6400Y23500D02*
G03*
X6700Y24224I-724J724D01*
G01*
X-386Y18769D02*
G03*
X-200Y19217I-448J448D01*
G01*
X-1108Y18470D02*
G03*
X-386Y18769I0J1021D01*
G01*
X1952Y24850D02*
G03*
X156Y24106I0J-2540D01*
G01*
D02*
G03*
X-200Y23247I859J-859D01*
G01*
X-2445Y19677D02*
G03*
X-1293Y19200I1152J1152D01*
G01*
X-1617Y16535D02*
G03*
X-1300Y17300I-765J765D01*
G01*
X-4204Y15000D02*
G03*
X-2408Y15744I0J2540D01*
G01*
X-4500Y15000D02*
G03*
X-5012Y14788I0J-724D01*
G01*
X-2300Y17200D02*
G03*
X-2583Y17883I-966J0D01*
G01*
X-2812Y18112D02*
G03*
X-3245Y18292I-433J-433D01*
G01*
X-2643Y7212D02*
G03*
X-2190Y7399I0J641D01*
G01*
X-2052Y9906D02*
G03*
X-3848Y10650I-1796J-1796D01*
G01*
X-4940Y11040D02*
G03*
X-4000Y10650I940J940D01*
G01*
X-1772Y7817D02*
G03*
X-1389Y8742I-925J925D01*
G01*
D02*
G03*
X-1743Y9598I-1210J0D01*
G01*
X-3270Y7689D02*
G03*
X-2754Y7903I0J730D01*
G01*
X-2613Y8044D02*
G03*
X-2300Y8800I-756J756D01*
G01*
X9100Y21150D02*
G03*
X9489Y20211I1328J0D01*
G01*
X7000Y10600D02*
G03*
X7500Y11807I-1207J1207D01*
G01*
X6644Y10244D02*
G03*
X5900Y8448I1796J-1796D01*
G01*
X5956Y10950D02*
G03*
X6700Y12747I-1796J1796D01*
G01*
X5544Y10538D02*
G03*
X4800Y8742I1796J-1796D01*
G01*
Y4000D02*
G03*
X5600Y3200I800J0D01*
G01*
X5511Y20211D02*
G03*
X5900Y21150I-939J939D01*
G01*
X13463Y16200D02*
G03*
X13000Y15083I1117J-1117D01*
G01*
X11289Y17444D02*
G03*
X13085Y16700I1796J1796D01*
G01*
X13651D02*
G03*
X14148Y16798I0J1313D01*
G01*
D02*
G03*
X14580Y17084I-497J1215D01*
G01*
X6400Y19700D02*
G03*
X7083Y19983I0J966D01*
G01*
X6400Y19700D02*
G03*
X5285Y19238I0J-1577D01*
G01*
X9269Y19464D02*
G03*
X8700Y19700I-569J-569D01*
G01*
X7800Y19983D02*
G03*
X8483Y19700I683J683D01*
G01*
X7500Y20707D02*
G03*
X7800Y19983I1024J0D01*
G01*
X7083D02*
G03*
X7500Y20990I-1007J1007D01*
G01*
X20266Y11166D02*
G03*
X21000Y12938I-1773J1773D01*
G01*
D02*
G03*
X20361Y14482I-2183J0D01*
G01*
X14580Y24400D02*
G03*
X13131Y25000I-1449J-1449D01*
G01*
X-5156Y14644D02*
G03*
X-5900Y12848I1796J-1796D01*
G01*
D02*
G03*
X-5300Y11400I2047J0D01*
G01*
X7382Y9582D02*
G03*
X6644Y7800I1782J-1782D01*
G01*
X7800Y10000D02*
G03*
X8300Y11207I-1207J1207D01*
G01*
X6644Y7060D02*
G03*
X7083Y6000I1498J0D01*
G01*
X3888Y20305D02*
G03*
X3865Y20250I56J-56D01*
G01*
X8300Y17215D02*
G03*
X9200Y16315I900J0D01*
G01*
X9100Y13700D02*
G03*
X10800Y12000I1700J0D01*
G01*
X12613Y6600D02*
G03*
X11982Y6338I0J-894D01*
G01*
X907Y16893D02*
G03*
X445Y17084I-461J-461D01*
G01*
X1063Y16737D02*
G03*
X1374Y16700I311J1275D01*
G01*
X2700Y14482D02*
G03*
X2263Y15537I-1492J0D01*
G01*
X1695Y16700D02*
G03*
X3491Y17444I0J2540D01*
G01*
X1956Y9956D02*
G03*
X2700Y11752I-1796J1796D01*
G01*
X800Y9122D02*
G03*
X1440Y9440I-152J1109D01*
G01*
X420Y8896D02*
G03*
X683Y9005I0J372D01*
G01*
X-380Y10282D02*
G03*
X250Y10543I0J891D01*
G01*
X2009Y13119D02*
G03*
X1529Y14278I-1638J-0D01*
G01*
X1277Y11569D02*
G03*
X2009Y13119I-1796J1796D01*
G01*
X11123Y21219D02*
G03*
X10800Y22000I-1104J0D01*
G01*
X11563Y18137D02*
G03*
X12135Y17900I571J571D01*
G01*
X12383D02*
G03*
X13774Y18476I0J1967D01*
G01*
X-1600Y14308D02*
G03*
X-733Y13440I867J0D01*
G01*
X11500Y15315D02*
G03*
X12134Y15578I0J897D01*
G01*
X706Y20494D02*
G03*
X2502Y19750I1796J1796D01*
G01*
X3500Y12822D02*
G03*
X3943Y11752I1513J0D01*
G01*
X5466Y2300D02*
X6300D01*
X6700Y1000D02*
Y1900D01*
X8300Y1000D02*
Y1500D01*
X4700Y12600D02*
X4976D01*
X5900Y13383D02*
Y14090D01*
X12466Y7558D02*
X13692D01*
X9414Y5558D02*
X10670Y6814D01*
X9100Y4800D02*
Y5052D01*
X11952Y9300D02*
X13653D01*
X8244Y6644D02*
X10156Y8556D01*
X7500Y4848D02*
Y4993D01*
Y4800D02*
Y4848D01*
X13744Y9556D02*
X14038Y9262D01*
X6700Y16100D02*
Y17890D01*
X5900Y16517D02*
Y17890D01*
X5770Y15315D02*
X6915D01*
X7500Y17890D02*
X7500D01*
X7500Y15900D02*
Y17890D01*
X3500Y16215D02*
X3615D01*
X4100Y16815D02*
Y16900D01*
X-600Y11352D02*
Y12440D01*
X14400Y10900D02*
X14714Y10586D01*
X13800Y12349D02*
Y13553D01*
X14427Y15067D02*
X14832Y15472D01*
X15077Y15565D02*
X15077Y15565D01*
X1251Y18476D02*
X1361Y18367D01*
X3403Y18103D02*
X5511Y20211D01*
X10400Y16315D02*
X11500D01*
X9100Y17890D02*
X9252D01*
X3865Y4500D02*
X3872Y4507D01*
Y5683D01*
X16034Y11366D02*
X16100Y11300D01*
X15575Y13475D02*
Y13553D01*
X7500Y2034D02*
Y2500D01*
Y1000D02*
Y2034D01*
X8383Y3200D02*
X9100D01*
X10636Y2564D02*
X11456Y1744D01*
X4800Y1000D02*
X5900Y1000D01*
X9100Y1000D02*
X10200Y1000D01*
X16649Y7851D02*
X16953Y7547D01*
X17562Y7265D01*
X15942Y7700D02*
X16357D01*
X15500Y3573D02*
Y4717D01*
X14494Y1514D02*
X14756Y1776D01*
X18490Y10600D02*
X18900D01*
X15800Y6800D02*
X16400D01*
X17333Y6414D02*
X17389Y6357D01*
X17813Y7899D02*
X17813Y7898D01*
X17510Y8202D02*
X17813Y7899D01*
X16400Y4700D02*
X16989Y5664D01*
X18589Y8436D02*
X19200Y9366D01*
X15776Y18360D02*
X16674D01*
X16560Y17855D02*
X17355Y18650D01*
X14900Y19682D02*
Y20117D01*
X15298Y21078D02*
Y22665D01*
X18250Y15900D02*
X18528D01*
X17412Y17711D02*
X17796Y18095D01*
X15900Y19300D02*
X16560D01*
X18670Y17599D02*
X19300Y16700D01*
X16500Y21300D02*
X17070Y20370D01*
X7500Y24514D02*
Y24950D01*
Y23724D02*
Y24514D01*
X10024Y23024D02*
X11256Y24256D01*
X8300Y24424D02*
Y24950D01*
X8600Y23700D02*
X8800Y23500D01*
X9100Y24950D02*
X10200D01*
X-2224Y18524D02*
X-1512Y17812D01*
X-1896Y18470D02*
X-1108D01*
X6000Y22600D02*
X6234D01*
X3894Y24106D02*
X4976Y23024D01*
X6700Y24224D02*
Y24950D01*
X4800D02*
X5900D01*
X-200Y19217D02*
Y23247D01*
X-1293Y19200D02*
X-1200D01*
X-2045Y20370D02*
X-1451Y21200D01*
X-2408Y15744D02*
X-1617Y16535D01*
X-4500Y15000D02*
X-4204D01*
X-2583Y17883D02*
X-2583Y17883D01*
X-2812Y18112D02*
X-2583Y17883D01*
X-4100Y16798D02*
X-3645Y17599D01*
X-2052Y9906D02*
X-1743Y9598D01*
X-4000Y10650D02*
X-3848D01*
X-2190Y7399D02*
X-1772Y7817D01*
X-2754Y7903D02*
X-2613Y8044D01*
X-4200Y9200D02*
X-3670Y8382D01*
X-112Y6600D02*
X1220Y7511D01*
X-2070Y5611D02*
X-1500Y4700D01*
X-2470Y6303D02*
X-1141Y7100D01*
X8300Y11207D02*
Y14090D01*
X7500Y11807D02*
Y14090D01*
X6644Y10244D02*
X7000Y10600D01*
X5900Y4800D02*
Y8448D01*
X6700Y12747D02*
Y14090D01*
X5544Y10538D02*
X5956Y10950D01*
X4800Y4000D02*
Y8742D01*
X5600Y3200D02*
X6800D01*
X3491Y17444D02*
X5285Y19238D01*
X13000Y11352D02*
Y15083D01*
X13463Y16200D02*
X13780Y16517D01*
X9269Y19464D02*
X11289Y17444D01*
X13085Y16700D02*
X13651D01*
X13780Y16517D02*
X14148Y16798D01*
X8483Y19700D02*
X8700D01*
X7500Y20707D02*
Y20990D01*
Y21150D01*
X19236Y15607D02*
X20361Y14482D01*
X13052Y25000D02*
X13131D01*
X1952Y24850D02*
X2098D01*
X-5156Y14644D02*
X-5012Y14788D01*
X-5300Y11400D02*
X-4940Y11040D01*
X7382Y9582D02*
X7800Y10000D01*
X6644Y7060D02*
Y7800D01*
X3888Y20305D02*
X4500Y20918D01*
X12593Y19500D02*
X13300D01*
X8300Y17215D02*
Y17890D01*
X9100Y13700D02*
Y14090D01*
X2100Y6742D02*
X3014Y6198D01*
X12613Y6600D02*
X12800D01*
X11133Y5808D02*
X11600Y5100D01*
X907Y16893D02*
X1063Y16737D01*
X2263Y15537D01*
X1374Y16700D02*
X1695D01*
X2700Y11752D02*
Y14482D01*
X1440Y9440D02*
X1956Y9956D01*
X683Y9005D02*
X800Y9122D01*
X250Y10543D02*
X1277Y11569D01*
X-355Y15699D02*
X907Y14900D01*
X1529Y14278D01*
X11123Y20250D02*
Y21219D01*
X9489Y20211D02*
X11563Y18137D01*
X12135Y17900D02*
X12383D01*
X-733Y13440D02*
X-600D01*
X12134Y15578D02*
X12300Y15744D01*
X700Y20500D02*
X706Y20494D01*
X2502Y19750D02*
X2999D01*
X3500Y12822D02*
Y15215D01*
D23*
X15077Y15565D02*
D03*
X10024Y23024D02*
D03*
X-1617Y16535D02*
D03*
X-2583Y17883D02*
D03*
D24*
X6700Y17890D02*
D03*
X8300Y17890D02*
D03*
X7500Y17890D02*
D03*
X9100Y17890D02*
D03*
X5900Y17890D02*
D03*
X9100Y14090D02*
D03*
X5900Y14090D02*
D03*
X7500Y14090D02*
D03*
X6700Y14090D02*
D03*
X8300Y14090D02*
D03*
X8300Y21150D02*
D03*
X6700D02*
D03*
X7500D02*
D03*
X5900Y21150D02*
D03*
X9100Y21150D02*
D03*
X5900Y24950D02*
D03*
X9100D02*
D03*
X7500D02*
D03*
X8300D02*
D03*
X6700D02*
D03*
X6700Y4800D02*
D03*
X8300Y4800D02*
D03*
X7500Y4800D02*
D03*
X9100D02*
D03*
X5900Y4800D02*
D03*
X9100Y1000D02*
D03*
X5900Y1000D02*
D03*
X7500Y1000D02*
D03*
X6700Y1000D02*
D03*
X8300Y1000D02*
D03*
D25*
X20Y9589D02*
D03*
X820Y8203D02*
D03*
X420Y8896D02*
D03*
X1220Y7511D02*
D03*
X-380Y10282D02*
D03*
X-2070Y5611D02*
D03*
X-3670Y8382D02*
D03*
X-2870Y6996D02*
D03*
X-3270Y7689D02*
D03*
X-2470Y6303D02*
D03*
X14980Y16392D02*
D03*
X14180Y17777D02*
D03*
X14580Y17084D02*
D03*
X13780Y18470D02*
D03*
X15380Y15699D02*
D03*
X17070Y20370D02*
D03*
X18670Y17599D02*
D03*
X17870Y18984D02*
D03*
X18270Y18292D02*
D03*
X17470Y19677D02*
D03*
D26*
X845Y17777D02*
D03*
X45Y16392D02*
D03*
X445Y17084D02*
D03*
X-355Y15699D02*
D03*
X1245Y18470D02*
D03*
X-3645Y17599D02*
D03*
X-2045Y20370D02*
D03*
X-2845Y18984D02*
D03*
X-2445Y19677D02*
D03*
X-3245Y18292D02*
D03*
X14098Y8257D02*
D03*
X14898Y9643D02*
D03*
X14498Y8950D02*
D03*
X15298Y10336D02*
D03*
X13698Y7564D02*
D03*
X18589Y8436D02*
D03*
X16989Y5664D02*
D03*
X17789Y7050D02*
D03*
X17389Y6357D02*
D03*
X18189Y7743D02*
D03*
D27*
X11133Y5808D02*
D03*
X11982Y6338D02*
D03*
D28*
X15575Y13475D02*
D03*
Y12475D02*
D03*
X-600Y12440D02*
D03*
X-600Y13440D02*
D03*
X3500Y15215D02*
D03*
X3500Y16215D02*
D03*
X11500Y16315D02*
D03*
Y15315D02*
D03*
D29*
X11123Y20250D02*
D03*
X11989Y19750D02*
D03*
D30*
X2999Y19750D02*
D03*
X3865Y20250D02*
D03*
D31*
X3872Y5683D02*
D03*
X3014Y6198D02*
D03*
D32*
X-3488Y12939D02*
D03*
X2021Y3397D02*
D03*
X13038Y3397D02*
D03*
X18547Y12939D02*
D03*
X13039Y22481D02*
D03*
X2021Y22481D02*
D03*
D33*
X11404Y11300D02*
D03*
X10800Y10850D02*
D03*
X9414Y11200D02*
D03*
X4500Y1900D02*
D03*
X4300Y3000D02*
D03*
X9200Y2400D02*
D03*
X4700Y12600D02*
D03*
X12500Y8600D02*
D03*
X11740Y8300D02*
D03*
X11394Y10400D02*
D03*
X9756Y10500D02*
D03*
X8983Y10400D02*
D03*
X9756Y9700D02*
D03*
X8983Y9589D02*
D03*
X6700Y16100D02*
D03*
X5900Y16517D02*
D03*
X4985Y16100D02*
D03*
X-1700Y11800D02*
D03*
X14900Y14300D02*
D03*
X10400Y16315D02*
D03*
X9956Y17599D02*
D03*
X9200Y16315D02*
D03*
X3865Y4500D02*
D03*
X2100Y6742D02*
D03*
X16100Y11300D02*
D03*
X16000Y14579D02*
D03*
X13300Y19500D02*
D03*
X-1600Y14308D02*
D03*
X-600Y11352D02*
D03*
X4800Y1000D02*
D03*
X10200D02*
D03*
X15800Y6800D02*
D03*
X17200Y8950D02*
D03*
X16400Y4700D02*
D03*
X19200Y9366D02*
D03*
X17200Y17200D02*
D03*
X15900Y19300D02*
D03*
X19300Y16700D02*
D03*
X16500Y21300D02*
D03*
X8800Y23500D02*
D03*
X10200Y24950D02*
D03*
X6400Y23500D02*
D03*
X4800Y24950D02*
D03*
X-1200Y19200D02*
D03*
X-1451Y21200D02*
D03*
X-2300Y17200D02*
D03*
X-4100Y16798D02*
D03*
X-2300Y8800D02*
D03*
X-4200Y9200D02*
D03*
X-112Y6600D02*
D03*
X-1500Y4700D02*
D03*
X-1141Y7100D02*
D03*
X4500Y20918D02*
D03*
X12300Y15744D02*
D03*
X10800Y12300D02*
D03*
X-386Y4300D02*
D03*
X12800Y6600D02*
D03*
X14700Y4800D02*
D03*
X11600Y5100D02*
D03*
X10821Y9900D02*
D03*
X700Y13600D02*
D03*
X10800Y22000D02*
D03*
X10065Y21100D02*
D03*
X12400Y18700D02*
D03*
X-653Y14700D02*
D03*
X-3200Y16300D02*
D03*
X16753Y15300D02*
D03*
X4100Y16900D02*
D03*
X700Y20500D02*
D03*
X2200Y19000D02*
D03*
X3943Y11752D02*
D03*
M02*
