G04*
G04 #@! TF.GenerationSoftware,Altium Limited,Altium Designer,22.7.1 (60)*
G04*
G04 Layer_Color=32896*
%FSLAX43Y43*%
%MOMM*%
G71*
G04*
G04 #@! TF.SameCoordinates,4835CE25-E48C-4DDB-B082-209FFF86AC7D*
G04*
G04*
G04 #@! TF.FilePolarity,Positive*
G04*
G01*
G75*
%ADD10C,0.200*%
%ADD11C,0.100*%
%ADD51C,0.250*%
%ADD52C,0.150*%
%ADD53R,2.500X1.750*%
G36*
X16659Y8650D02*
X16555Y8632D01*
X16547Y8643D01*
X16538Y8651D01*
X16530Y8660D01*
X16522Y8666D01*
X16505Y8677D01*
X16489Y8684D01*
X16476Y8687D01*
X16466Y8690D01*
X16459Y8691D01*
X16457D01*
X16441Y8690D01*
X16428Y8685D01*
X16415Y8679D01*
X16405Y8673D01*
X16397Y8666D01*
X16391Y8660D01*
X16387Y8655D01*
X16386Y8654D01*
X16376Y8638D01*
X16369Y8621D01*
X16364Y8602D01*
X16361Y8584D01*
X16358Y8567D01*
X16357Y8554D01*
Y8548D01*
Y8544D01*
Y8542D01*
Y8541D01*
X16358Y8513D01*
X16362Y8488D01*
X16367Y8468D01*
X16371Y8451D01*
X16376Y8439D01*
X16381Y8429D01*
X16385Y8424D01*
X16386Y8422D01*
X16397Y8409D01*
X16407Y8400D01*
X16419Y8393D01*
X16430Y8388D01*
X16439Y8386D01*
X16446Y8385D01*
X16452Y8383D01*
X16453D01*
X16465Y8385D01*
X16476Y8388D01*
X16487Y8393D01*
X16495Y8399D01*
X16502Y8404D01*
X16508Y8409D01*
X16512Y8412D01*
X16513Y8413D01*
X16523Y8426D01*
X16530Y8440D01*
X16536Y8453D01*
X16540Y8466D01*
X16542Y8478D01*
X16544Y8489D01*
X16546Y8495D01*
Y8498D01*
X16673Y8481D01*
X16667Y8444D01*
X16662Y8426D01*
X16657Y8410D01*
X16651Y8395D01*
X16645Y8382D01*
X16639Y8369D01*
X16633Y8358D01*
X16627Y8349D01*
X16621Y8340D01*
X16617Y8333D01*
X16612Y8327D01*
X16608Y8322D01*
X16604Y8319D01*
X16603Y8317D01*
X16602Y8316D01*
X16590Y8307D01*
X16578Y8297D01*
X16554Y8283D01*
X16529Y8273D01*
X16506Y8266D01*
X16486Y8262D01*
X16476Y8260D01*
X16469D01*
X16463Y8259D01*
X16454D01*
X16434Y8260D01*
X16416Y8262D01*
X16398Y8267D01*
X16382Y8273D01*
X16367Y8279D01*
X16353Y8286D01*
X16340Y8295D01*
X16329Y8303D01*
X16320Y8311D01*
X16310Y8320D01*
X16303Y8327D01*
X16297Y8333D01*
X16292Y8339D01*
X16289Y8344D01*
X16287Y8346D01*
X16286Y8347D01*
X16275Y8364D01*
X16266Y8382D01*
X16258Y8399D01*
X16251Y8416D01*
X16240Y8450D01*
X16233Y8480D01*
X16231Y8494D01*
X16230Y8506D01*
X16227Y8517D01*
Y8526D01*
X16226Y8534D01*
Y8540D01*
Y8543D01*
Y8544D01*
X16227Y8568D01*
X16228Y8591D01*
X16232Y8612D01*
X16237Y8632D01*
X16242Y8650D01*
X16248Y8668D01*
X16255Y8684D01*
X16261Y8698D01*
X16267Y8710D01*
X16274Y8721D01*
X16280Y8731D01*
X16285Y8739D01*
X16290Y8745D01*
X16292Y8750D01*
X16295Y8752D01*
X16296Y8753D01*
X16307Y8764D01*
X16317Y8774D01*
X16328Y8782D01*
X16340Y8790D01*
X16363Y8800D01*
X16383Y8809D01*
X16403Y8812D01*
X16410Y8814D01*
X16417Y8815D01*
X16423Y8816D01*
X16430D01*
X16447Y8815D01*
X16463Y8811D01*
X16477Y8808D01*
X16490Y8803D01*
X16502Y8797D01*
X16511Y8793D01*
X16516Y8790D01*
X16518Y8788D01*
X16496Y8928D01*
X16256D01*
Y9073D01*
X16594D01*
X16659Y8650D01*
D02*
G37*
G36*
X15261D02*
X15158Y8632D01*
X15150Y8643D01*
X15141Y8651D01*
X15133Y8660D01*
X15124Y8666D01*
X15108Y8677D01*
X15092Y8684D01*
X15079Y8687D01*
X15069Y8690D01*
X15062Y8691D01*
X15059D01*
X15044Y8690D01*
X15031Y8685D01*
X15017Y8679D01*
X15008Y8673D01*
X14999Y8666D01*
X14993Y8660D01*
X14990Y8655D01*
X14989Y8654D01*
X14979Y8638D01*
X14972Y8621D01*
X14967Y8602D01*
X14963Y8584D01*
X14961Y8567D01*
X14960Y8554D01*
Y8548D01*
Y8544D01*
Y8542D01*
Y8541D01*
X14961Y8513D01*
X14965Y8488D01*
X14969Y8468D01*
X14974Y8451D01*
X14979Y8439D01*
X14984Y8429D01*
X14987Y8424D01*
X14989Y8422D01*
X14999Y8409D01*
X15010Y8400D01*
X15022Y8393D01*
X15033Y8388D01*
X15041Y8386D01*
X15049Y8385D01*
X15055Y8383D01*
X15056D01*
X15068Y8385D01*
X15079Y8388D01*
X15090Y8393D01*
X15098Y8399D01*
X15105Y8404D01*
X15111Y8409D01*
X15115Y8412D01*
X15116Y8413D01*
X15126Y8426D01*
X15133Y8440D01*
X15139Y8453D01*
X15142Y8466D01*
X15145Y8478D01*
X15147Y8489D01*
X15148Y8495D01*
Y8498D01*
X15276Y8481D01*
X15270Y8444D01*
X15265Y8426D01*
X15260Y8410D01*
X15254Y8395D01*
X15248Y8382D01*
X15242Y8369D01*
X15236Y8358D01*
X15230Y8349D01*
X15224Y8340D01*
X15219Y8333D01*
X15214Y8327D01*
X15211Y8322D01*
X15207Y8319D01*
X15206Y8317D01*
X15205Y8316D01*
X15193Y8307D01*
X15181Y8297D01*
X15157Y8283D01*
X15132Y8273D01*
X15109Y8266D01*
X15088Y8262D01*
X15079Y8260D01*
X15071D01*
X15065Y8259D01*
X15057D01*
X15037Y8260D01*
X15019Y8262D01*
X15001Y8267D01*
X14985Y8273D01*
X14969Y8279D01*
X14956Y8286D01*
X14943Y8295D01*
X14932Y8303D01*
X14923Y8311D01*
X14913Y8320D01*
X14906Y8327D01*
X14900Y8333D01*
X14895Y8339D01*
X14891Y8344D01*
X14890Y8346D01*
X14889Y8347D01*
X14878Y8364D01*
X14868Y8382D01*
X14861Y8399D01*
X14854Y8416D01*
X14843Y8450D01*
X14836Y8480D01*
X14834Y8494D01*
X14832Y8506D01*
X14830Y8517D01*
Y8526D01*
X14829Y8534D01*
Y8540D01*
Y8543D01*
Y8544D01*
X14830Y8568D01*
X14831Y8591D01*
X14835Y8612D01*
X14840Y8632D01*
X14844Y8650D01*
X14850Y8668D01*
X14858Y8684D01*
X14864Y8698D01*
X14870Y8710D01*
X14877Y8721D01*
X14883Y8731D01*
X14888Y8739D01*
X14892Y8745D01*
X14895Y8750D01*
X14897Y8752D01*
X14898Y8753D01*
X14909Y8764D01*
X14920Y8774D01*
X14931Y8782D01*
X14943Y8790D01*
X14966Y8800D01*
X14986Y8809D01*
X15005Y8812D01*
X15013Y8814D01*
X15020Y8815D01*
X15026Y8816D01*
X15033D01*
X15050Y8815D01*
X15065Y8811D01*
X15080Y8808D01*
X15093Y8803D01*
X15105Y8797D01*
X15114Y8793D01*
X15118Y8790D01*
X15121Y8788D01*
X15099Y8928D01*
X14859D01*
Y9073D01*
X15196D01*
X15261Y8650D01*
D02*
G37*
G36*
X15961Y8272D02*
X15814D01*
X15577Y9084D01*
X15721D01*
X15884Y8482D01*
X16052Y9084D01*
X16197D01*
X15961Y8272D01*
D02*
G37*
G36*
X17047Y8745D02*
X17221D01*
Y8600D01*
X17047D01*
Y8388D01*
X16930D01*
Y8600D01*
X16755D01*
Y8745D01*
X16930D01*
Y8957D01*
X17047D01*
Y8745D01*
D02*
G37*
G36*
X15051Y8005D02*
X15070Y8003D01*
X15087Y7997D01*
X15104Y7991D01*
X15134Y7975D01*
X15147Y7967D01*
X15159Y7957D01*
X15170Y7948D01*
X15180Y7939D01*
X15188Y7931D01*
X15195Y7924D01*
X15200Y7918D01*
X15204Y7913D01*
X15206Y7909D01*
X15207Y7908D01*
X15219Y7889D01*
X15229Y7866D01*
X15238Y7842D01*
X15246Y7817D01*
X15258Y7764D01*
X15266Y7711D01*
X15269Y7686D01*
X15271Y7663D01*
X15272Y7643D01*
X15273Y7623D01*
X15275Y7609D01*
Y7597D01*
Y7590D01*
Y7589D01*
Y7587D01*
X15273Y7548D01*
X15272Y7510D01*
X15269Y7477D01*
X15265Y7446D01*
X15259Y7417D01*
X15254Y7392D01*
X15248Y7368D01*
X15242Y7347D01*
X15236Y7329D01*
X15230Y7315D01*
X15224Y7301D01*
X15219Y7291D01*
X15216Y7283D01*
X15212Y7277D01*
X15211Y7274D01*
X15210Y7273D01*
X15196Y7256D01*
X15183Y7241D01*
X15170Y7229D01*
X15156Y7219D01*
X15142Y7209D01*
X15128Y7202D01*
X15115Y7196D01*
X15102Y7191D01*
X15079Y7184D01*
X15069Y7181D01*
X15061Y7180D01*
X15053D01*
X15049Y7179D01*
X15044D01*
X15027Y7180D01*
X15011Y7182D01*
X14996Y7186D01*
X14981Y7190D01*
X14955Y7202D01*
X14933Y7215D01*
X14915Y7228D01*
X14908Y7234D01*
X14902Y7240D01*
X14897Y7244D01*
X14894Y7247D01*
X14892Y7250D01*
X14891Y7251D01*
X14880Y7265D01*
X14871Y7281D01*
X14862Y7297D01*
X14855Y7313D01*
X14844Y7347D01*
X14836Y7378D01*
X14834Y7394D01*
X14832Y7407D01*
X14831Y7420D01*
X14830Y7431D01*
X14829Y7440D01*
Y7446D01*
Y7450D01*
Y7452D01*
X14830Y7473D01*
X14831Y7495D01*
X14834Y7514D01*
X14838Y7533D01*
X14842Y7550D01*
X14847Y7566D01*
X14853Y7580D01*
X14858Y7593D01*
X14864Y7605D01*
X14868Y7616D01*
X14874Y7625D01*
X14878Y7632D01*
X14882Y7638D01*
X14885Y7641D01*
X14886Y7644D01*
X14888Y7645D01*
X14898Y7658D01*
X14910Y7669D01*
X14921Y7679D01*
X14933Y7687D01*
X14944Y7694D01*
X14956Y7700D01*
X14977Y7709D01*
X14996Y7715D01*
X15003Y7716D01*
X15010Y7717D01*
X15016Y7718D01*
X15023D01*
X15037Y7717D01*
X15049Y7716D01*
X15061Y7712D01*
X15070Y7710D01*
X15077Y7706D01*
X15085Y7703D01*
X15088Y7701D01*
X15090Y7700D01*
X15100Y7693D01*
X15110Y7685D01*
X15118Y7676D01*
X15127Y7668D01*
X15133Y7661D01*
X15138Y7655D01*
X15141Y7650D01*
X15142Y7649D01*
X15141Y7674D01*
X15139Y7697D01*
X15136Y7717D01*
X15134Y7735D01*
X15132Y7752D01*
X15128Y7768D01*
X15126Y7781D01*
X15122Y7793D01*
X15120Y7802D01*
X15117Y7811D01*
X15114Y7818D01*
X15112Y7823D01*
X15110Y7828D01*
X15109Y7830D01*
X15108Y7832D01*
X15097Y7848D01*
X15085Y7859D01*
X15074Y7867D01*
X15063Y7872D01*
X15053Y7876D01*
X15046Y7877D01*
X15040Y7878D01*
X15039D01*
X15028Y7877D01*
X15017Y7875D01*
X15009Y7870D01*
X15001Y7864D01*
X14987Y7849D01*
X14979Y7834D01*
X14972Y7817D01*
X14968Y7802D01*
X14967Y7796D01*
X14966Y7792D01*
Y7789D01*
Y7788D01*
X14842Y7805D01*
X14849Y7841D01*
X14858Y7871D01*
X14868Y7897D01*
X14879Y7919D01*
X14890Y7935D01*
X14898Y7947D01*
X14904Y7954D01*
X14907Y7956D01*
X14926Y7973D01*
X14948Y7985D01*
X14968Y7995D01*
X14989Y8001D01*
X15005Y8004D01*
X15020Y8005D01*
X15025Y8007D01*
X15032D01*
X15051Y8005D01*
D02*
G37*
G36*
X16845Y7192D02*
X16720D01*
Y7721D01*
X16452Y7192D01*
X16316D01*
Y8004D01*
X16441D01*
Y7461D01*
X16715Y8004D01*
X16845D01*
Y7192D01*
D02*
G37*
G36*
X17301Y8015D02*
X17334Y8010D01*
X17363Y8002D01*
X17388Y7993D01*
X17399Y7989D01*
X17408Y7985D01*
X17417Y7980D01*
X17423Y7977D01*
X17429Y7974D01*
X17432Y7972D01*
X17435Y7969D01*
X17436D01*
X17461Y7950D01*
X17484Y7927D01*
X17503Y7905D01*
X17520Y7881D01*
X17533Y7860D01*
X17539Y7852D01*
X17543Y7843D01*
X17546Y7837D01*
X17549Y7832D01*
X17551Y7829D01*
Y7828D01*
X17566Y7790D01*
X17576Y7752D01*
X17585Y7714D01*
X17590Y7677D01*
X17592Y7661D01*
X17593Y7646D01*
X17594Y7632D01*
Y7621D01*
X17596Y7611D01*
Y7604D01*
Y7599D01*
Y7598D01*
X17593Y7551D01*
X17588Y7508D01*
X17586Y7488D01*
X17582Y7470D01*
X17578Y7452D01*
X17574Y7436D01*
X17570Y7422D01*
X17566Y7408D01*
X17562Y7398D01*
X17560Y7388D01*
X17556Y7381D01*
X17555Y7376D01*
X17552Y7372D01*
Y7371D01*
X17534Y7337D01*
X17515Y7309D01*
X17495Y7283D01*
X17476Y7263D01*
X17459Y7247D01*
X17444Y7237D01*
X17439Y7232D01*
X17436Y7229D01*
X17433Y7228D01*
X17432Y7227D01*
X17403Y7211D01*
X17373Y7199D01*
X17343Y7191D01*
X17317Y7185D01*
X17305Y7182D01*
X17293Y7181D01*
X17283Y7180D01*
X17275D01*
X17268Y7179D01*
X17258D01*
X17228Y7180D01*
X17199Y7185D01*
X17172Y7191D01*
X17148Y7197D01*
X17127Y7204D01*
X17119Y7207D01*
X17110Y7209D01*
X17105Y7211D01*
X17101Y7214D01*
X17098Y7215D01*
X17097D01*
X17068Y7229D01*
X17043Y7245D01*
X17023Y7259D01*
X17005Y7274D01*
X16990Y7286D01*
X16981Y7295D01*
X16975Y7301D01*
X16972Y7304D01*
Y7627D01*
X17262D01*
Y7490D01*
X17108D01*
Y7388D01*
X17121Y7376D01*
X17134Y7366D01*
X17148Y7358D01*
X17158Y7351D01*
X17169Y7345D01*
X17178Y7341D01*
X17182Y7339D01*
X17185Y7337D01*
X17200Y7331D01*
X17215Y7327D01*
X17229Y7324D01*
X17241Y7322D01*
X17251Y7321D01*
X17258Y7319D01*
X17265D01*
X17281Y7321D01*
X17295Y7322D01*
X17322Y7329D01*
X17346Y7340D01*
X17365Y7352D01*
X17379Y7364D01*
X17390Y7375D01*
X17397Y7382D01*
X17399Y7383D01*
X17400Y7384D01*
X17409Y7400D01*
X17418Y7416D01*
X17432Y7452D01*
X17442Y7489D01*
X17449Y7525D01*
X17451Y7541D01*
X17453Y7556D01*
X17455Y7571D01*
Y7583D01*
X17456Y7592D01*
Y7601D01*
Y7605D01*
Y7607D01*
X17455Y7632D01*
X17454Y7655D01*
X17451Y7676D01*
X17448Y7697D01*
X17444Y7715D01*
X17439Y7732D01*
X17435Y7746D01*
X17430Y7759D01*
X17425Y7771D01*
X17420Y7782D01*
X17415Y7790D01*
X17412Y7798D01*
X17408Y7802D01*
X17406Y7806D01*
X17403Y7808D01*
Y7810D01*
X17393Y7822D01*
X17382Y7832D01*
X17371Y7841D01*
X17359Y7848D01*
X17336Y7860D01*
X17313Y7869D01*
X17294Y7873D01*
X17286Y7875D01*
X17278Y7876D01*
X17272Y7877D01*
X17264D01*
X17244Y7876D01*
X17226Y7872D01*
X17210Y7866D01*
X17196Y7860D01*
X17185Y7854D01*
X17176Y7848D01*
X17170Y7844D01*
X17169Y7843D01*
X17156Y7830D01*
X17144Y7814D01*
X17134Y7798D01*
X17127Y7783D01*
X17121Y7769D01*
X17118Y7758D01*
X17115Y7750D01*
X17114Y7748D01*
Y7747D01*
X16981Y7777D01*
X16985Y7799D01*
X16990Y7819D01*
X16997Y7837D01*
X17005Y7855D01*
X17012Y7871D01*
X17020Y7885D01*
X17027Y7899D01*
X17036Y7911D01*
X17043Y7921D01*
X17050Y7931D01*
X17057Y7938D01*
X17062Y7945D01*
X17067Y7950D01*
X17071Y7954D01*
X17073Y7955D01*
X17074Y7956D01*
X17087Y7967D01*
X17103Y7977D01*
X17119Y7985D01*
X17134Y7992D01*
X17166Y8003D01*
X17197Y8010D01*
X17210Y8013D01*
X17223Y8014D01*
X17235Y8015D01*
X17245Y8016D01*
X17253Y8017D01*
X17265D01*
X17301Y8015D01*
D02*
G37*
G36*
X16177Y7192D02*
X15924D01*
X15896Y7193D01*
X15869Y7196D01*
X15846Y7199D01*
X15827Y7204D01*
X15812Y7208D01*
X15801Y7211D01*
X15794Y7214D01*
X15791Y7215D01*
X15772Y7225D01*
X15755Y7235D01*
X15741Y7246D01*
X15727Y7257D01*
X15718Y7267D01*
X15709Y7275D01*
X15705Y7280D01*
X15703Y7282D01*
X15690Y7300D01*
X15678Y7321D01*
X15667Y7341D01*
X15659Y7361D01*
X15652Y7378D01*
X15647Y7393D01*
X15645Y7399D01*
X15643Y7402D01*
X15642Y7405D01*
Y7406D01*
X15634Y7436D01*
X15628Y7467D01*
X15624Y7498D01*
X15621Y7527D01*
Y7541D01*
X15619Y7553D01*
Y7563D01*
X15618Y7572D01*
Y7579D01*
Y7585D01*
Y7589D01*
Y7590D01*
X15619Y7632D01*
X15622Y7669D01*
X15623Y7687D01*
X15625Y7703D01*
X15628Y7717D01*
X15629Y7730D01*
X15631Y7742D01*
X15634Y7753D01*
X15636Y7763D01*
X15637Y7770D01*
X15639Y7776D01*
X15640Y7781D01*
X15641Y7783D01*
Y7784D01*
X15651Y7813D01*
X15660Y7838D01*
X15671Y7860D01*
X15682Y7878D01*
X15690Y7894D01*
X15697Y7905D01*
X15702Y7911D01*
X15705Y7913D01*
X15720Y7930D01*
X15735Y7944D01*
X15750Y7956D01*
X15764Y7966D01*
X15776Y7973D01*
X15784Y7979D01*
X15790Y7981D01*
X15792Y7983D01*
X15812Y7990D01*
X15834Y7995D01*
X15857Y7999D01*
X15880Y8002D01*
X15900Y8003D01*
X15909D01*
X15916Y8004D01*
X16177D01*
Y7192D01*
D02*
G37*
G36*
X-3259Y7652D02*
X-3085D01*
Y7507D01*
X-3259D01*
Y7295D01*
X-3376D01*
Y7507D01*
X-3551D01*
Y7652D01*
X-3376D01*
Y7864D01*
X-3259D01*
Y7652D01*
D02*
G37*
G36*
X296Y7478D02*
Y7342D01*
X23D01*
Y7179D01*
X-101D01*
Y7342D01*
X-184D01*
Y7479D01*
X-101D01*
Y7993D01*
X7D01*
X296Y7478D01*
D02*
G37*
G36*
X-531Y7179D02*
X-783D01*
X-812Y7180D01*
X-838Y7182D01*
X-861Y7186D01*
X-881Y7191D01*
X-896Y7194D01*
X-907Y7198D01*
X-914Y7201D01*
X-917Y7202D01*
X-936Y7211D01*
X-953Y7222D01*
X-967Y7233D01*
X-980Y7244D01*
X-990Y7253D01*
X-998Y7262D01*
X-1003Y7267D01*
X-1004Y7269D01*
X-1017Y7287D01*
X-1030Y7307D01*
X-1040Y7328D01*
X-1049Y7348D01*
X-1056Y7365D01*
X-1061Y7380D01*
X-1063Y7386D01*
X-1064Y7389D01*
X-1066Y7392D01*
Y7393D01*
X-1074Y7423D01*
X-1080Y7454D01*
X-1084Y7485D01*
X-1087Y7514D01*
Y7527D01*
X-1088Y7539D01*
Y7550D01*
X-1090Y7559D01*
Y7566D01*
Y7572D01*
Y7575D01*
Y7577D01*
X-1088Y7619D01*
X-1086Y7656D01*
X-1085Y7674D01*
X-1082Y7689D01*
X-1080Y7704D01*
X-1079Y7717D01*
X-1076Y7729D01*
X-1074Y7740D01*
X-1072Y7750D01*
X-1070Y7757D01*
X-1069Y7763D01*
X-1068Y7768D01*
X-1067Y7770D01*
Y7771D01*
X-1057Y7800D01*
X-1048Y7825D01*
X-1037Y7847D01*
X-1026Y7865D01*
X-1017Y7881D01*
X-1010Y7891D01*
X-1005Y7897D01*
X-1003Y7900D01*
X-987Y7917D01*
X-973Y7931D01*
X-957Y7943D01*
X-944Y7953D01*
X-932Y7960D01*
X-924Y7966D01*
X-918Y7968D01*
X-915Y7969D01*
X-896Y7977D01*
X-873Y7981D01*
X-850Y7986D01*
X-828Y7989D01*
X-807Y7990D01*
X-799D01*
X-792Y7991D01*
X-531D01*
Y7179D01*
D02*
G37*
G36*
X-1135D02*
X-1278D01*
X-1332Y7363D01*
X-1601D01*
X-1659Y7179D01*
X-1804D01*
X-1536Y7991D01*
X-1394D01*
X-1135Y7179D01*
D02*
G37*
G36*
X-1827Y7854D02*
X-2025D01*
Y7179D01*
X-2160D01*
Y7854D01*
X-2357D01*
Y7991D01*
X-1827D01*
Y7854D01*
D02*
G37*
G36*
X-2375Y7179D02*
X-2518D01*
X-2572Y7363D01*
X-2841D01*
X-2899Y7179D01*
X-3044D01*
X-2776Y7991D01*
X-2633D01*
X-2375Y7179D01*
D02*
G37*
G36*
X109Y9084D02*
X136Y9078D01*
X160Y9069D01*
X179Y9061D01*
X195Y9051D01*
X207Y9043D01*
X214Y9037D01*
X215Y9036D01*
X216Y9035D01*
X226Y9025D01*
X234Y9013D01*
X250Y8988D01*
X262Y8961D01*
X272Y8935D01*
X279Y8911D01*
X281Y8901D01*
X284Y8892D01*
X285Y8884D01*
X286Y8878D01*
X287Y8875D01*
Y8874D01*
X170Y8850D01*
X167Y8869D01*
X164Y8884D01*
X159Y8899D01*
X154Y8910D01*
X149Y8918D01*
X145Y8925D01*
X143Y8929D01*
X142Y8930D01*
X132Y8940D01*
X123Y8946D01*
X113Y8951D01*
X105Y8954D01*
X97Y8957D01*
X90Y8958D01*
X85D01*
X73Y8957D01*
X63Y8954D01*
X53Y8951D01*
X46Y8946D01*
X40Y8941D01*
X35Y8937D01*
X33Y8935D01*
X31Y8934D01*
X24Y8924D01*
X19Y8913D01*
X15Y8902D01*
X12Y8893D01*
X11Y8883D01*
X10Y8876D01*
Y8871D01*
Y8869D01*
X11Y8851D01*
X15Y8835D01*
X19Y8822D01*
X24Y8811D01*
X29Y8803D01*
X34Y8796D01*
X37Y8792D01*
X39Y8791D01*
X51Y8782D01*
X63Y8775D01*
X76Y8772D01*
X89Y8768D01*
X100Y8767D01*
X109Y8766D01*
X118D01*
X131Y8638D01*
X119Y8642D01*
X108Y8645D01*
X97Y8648D01*
X89Y8649D01*
X83Y8650D01*
X73D01*
X60Y8649D01*
X48Y8645D01*
X37Y8639D01*
X28Y8633D01*
X21Y8626D01*
X15Y8621D01*
X11Y8617D01*
X10Y8615D01*
X1Y8602D01*
X-6Y8587D01*
X-11Y8571D01*
X-13Y8556D01*
X-15Y8543D01*
X-17Y8532D01*
Y8525D01*
Y8524D01*
Y8523D01*
X-15Y8500D01*
X-12Y8481D01*
X-8Y8463D01*
X-3Y8450D01*
X3Y8438D01*
X6Y8430D01*
X10Y8424D01*
X11Y8423D01*
X22Y8411D01*
X33Y8403D01*
X45Y8397D01*
X55Y8393D01*
X64Y8391D01*
X71Y8388D01*
X78D01*
X91Y8389D01*
X103Y8393D01*
X114Y8398D01*
X123Y8404D01*
X130Y8409D01*
X136Y8413D01*
X139Y8417D01*
X141Y8418D01*
X149Y8430D01*
X156Y8445D01*
X162Y8459D01*
X166Y8474D01*
X170Y8487D01*
X171Y8496D01*
X172Y8504D01*
Y8505D01*
Y8506D01*
X296Y8488D01*
X290Y8450D01*
X281Y8417D01*
X275Y8401D01*
X269Y8388D01*
X263Y8375D01*
X257Y8364D01*
X251Y8353D01*
X245Y8345D01*
X240Y8338D01*
X236Y8331D01*
X232Y8326D01*
X228Y8322D01*
X227Y8321D01*
X226Y8320D01*
X214Y8309D01*
X202Y8299D01*
X190Y8291D01*
X177Y8285D01*
X152Y8273D01*
X129Y8266D01*
X108Y8262D01*
X99Y8261D01*
X91Y8260D01*
X85Y8259D01*
X77D01*
X60Y8260D01*
X45Y8262D01*
X29Y8266D01*
X13Y8269D01*
X-13Y8281D01*
X-36Y8295D01*
X-55Y8308D01*
X-62Y8314D01*
X-68Y8320D01*
X-73Y8323D01*
X-78Y8327D01*
X-79Y8329D01*
X-80Y8331D01*
X-92Y8345D01*
X-103Y8359D01*
X-112Y8375D01*
X-119Y8391D01*
X-131Y8421D01*
X-139Y8450D01*
X-142Y8464D01*
X-144Y8476D01*
X-145Y8487D01*
X-146Y8496D01*
X-148Y8504D01*
Y8510D01*
Y8513D01*
Y8514D01*
X-146Y8542D01*
X-142Y8567D01*
X-137Y8589D01*
X-130Y8607D01*
X-124Y8621D01*
X-118Y8632D01*
X-113Y8639D01*
X-112Y8642D01*
X-97Y8660D01*
X-83Y8674D01*
X-68Y8685D01*
X-54Y8695D01*
X-41Y8701D01*
X-31Y8704D01*
X-24Y8707D01*
X-23Y8708D01*
X-22D01*
X-38Y8720D01*
X-53Y8733D01*
X-66Y8746D01*
X-76Y8757D01*
X-84Y8768D01*
X-89Y8775D01*
X-92Y8780D01*
X-94Y8782D01*
X-102Y8799D01*
X-108Y8816D01*
X-113Y8832D01*
X-115Y8847D01*
X-118Y8859D01*
X-119Y8870D01*
Y8876D01*
Y8878D01*
Y8893D01*
X-116Y8907D01*
X-110Y8934D01*
X-102Y8958D01*
X-92Y8979D01*
X-82Y8997D01*
X-77Y9005D01*
X-73Y9011D01*
X-70Y9015D01*
X-67Y9019D01*
X-66Y9020D01*
X-65Y9021D01*
X-54Y9033D01*
X-43Y9043D01*
X-31Y9051D01*
X-19Y9059D01*
X5Y9071D01*
X28Y9078D01*
X49Y9083D01*
X58Y9084D01*
X65Y9085D01*
X72Y9086D01*
X95D01*
X109Y9084D01*
D02*
G37*
G36*
X-3057Y8488D02*
X-3310D01*
Y8644D01*
X-3057D01*
Y8488D01*
D02*
G37*
G36*
X-513Y8272D02*
X-765D01*
X-794Y8273D01*
X-820Y8275D01*
X-843Y8279D01*
X-863Y8284D01*
X-878Y8287D01*
X-889Y8291D01*
X-896Y8293D01*
X-899Y8295D01*
X-918Y8304D01*
X-935Y8315D01*
X-949Y8326D01*
X-962Y8337D01*
X-972Y8346D01*
X-980Y8355D01*
X-985Y8359D01*
X-986Y8362D01*
X-999Y8380D01*
X-1011Y8400D01*
X-1022Y8421D01*
X-1031Y8441D01*
X-1038Y8458D01*
X-1043Y8472D01*
X-1045Y8478D01*
X-1046Y8482D01*
X-1048Y8484D01*
Y8486D01*
X-1056Y8516D01*
X-1062Y8547D01*
X-1066Y8578D01*
X-1069Y8607D01*
Y8620D01*
X-1070Y8632D01*
Y8643D01*
X-1072Y8651D01*
Y8659D01*
Y8665D01*
Y8668D01*
Y8669D01*
X-1070Y8711D01*
X-1068Y8749D01*
X-1067Y8767D01*
X-1064Y8782D01*
X-1062Y8797D01*
X-1061Y8810D01*
X-1058Y8822D01*
X-1056Y8833D01*
X-1054Y8842D01*
X-1052Y8850D01*
X-1051Y8856D01*
X-1050Y8860D01*
X-1049Y8863D01*
Y8864D01*
X-1039Y8893D01*
X-1030Y8918D01*
X-1019Y8940D01*
X-1008Y8958D01*
X-999Y8973D01*
X-992Y8984D01*
X-987Y8990D01*
X-985Y8993D01*
X-969Y9009D01*
X-955Y9024D01*
X-939Y9036D01*
X-926Y9045D01*
X-914Y9053D01*
X-906Y9059D01*
X-900Y9061D01*
X-897Y9062D01*
X-878Y9069D01*
X-855Y9074D01*
X-832Y9079D01*
X-810Y9081D01*
X-789Y9083D01*
X-781D01*
X-774Y9084D01*
X-513D01*
Y8272D01*
D02*
G37*
G36*
X-1117D02*
X-1260D01*
X-1314Y8456D01*
X-1583D01*
X-1641Y8272D01*
X-1786D01*
X-1518Y9084D01*
X-1376D01*
X-1117Y8272D01*
D02*
G37*
G36*
X-1809Y8947D02*
X-2007D01*
Y8272D01*
X-2142D01*
Y8947D01*
X-2339D01*
Y9084D01*
X-1809D01*
Y8947D01*
D02*
G37*
G36*
X-2357Y8272D02*
X-2500D01*
X-2554Y8456D01*
X-2823D01*
X-2881Y8272D01*
X-3026D01*
X-2758Y9084D01*
X-2615D01*
X-2357Y8272D01*
D02*
G37*
G36*
X77Y10200D02*
X94Y10198D01*
X124Y10191D01*
X150Y10183D01*
X172Y10172D01*
X190Y10161D01*
X196Y10155D01*
X202Y10151D01*
X207Y10148D01*
X210Y10144D01*
X212Y10143D01*
X213Y10142D01*
X224Y10130D01*
X232Y10118D01*
X248Y10089D01*
X260Y10059D01*
X268Y10030D01*
X272Y10016D01*
X275Y10003D01*
X276Y9991D01*
X279Y9981D01*
X280Y9972D01*
Y9966D01*
X281Y9962D01*
Y9960D01*
X154Y9944D01*
X152Y9966D01*
X148Y9986D01*
X143Y10003D01*
X137Y10017D01*
X130Y10030D01*
X123Y10040D01*
X114Y10048D01*
X106Y10055D01*
X97Y10060D01*
X90Y10064D01*
X76Y10069D01*
X71Y10070D01*
X66Y10071D01*
X63D01*
X49Y10070D01*
X36Y10066D01*
X25Y10063D01*
X17Y10058D01*
X10Y10052D01*
X5Y10048D01*
X1Y10045D01*
X0Y10043D01*
X-8Y10033D01*
X-14Y10019D01*
X-18Y10006D01*
X-22Y9993D01*
X-23Y9981D01*
X-24Y9971D01*
Y9965D01*
Y9964D01*
Y9963D01*
X-23Y9945D01*
X-19Y9927D01*
X-14Y9910D01*
X-9Y9896D01*
X-5Y9882D01*
X0Y9873D01*
X4Y9867D01*
X5Y9864D01*
X10Y9857D01*
X16Y9849D01*
X30Y9830D01*
X47Y9809D01*
X65Y9787D01*
X82Y9767D01*
X89Y9757D01*
X96Y9750D01*
X101Y9744D01*
X106Y9739D01*
X108Y9736D01*
X109Y9735D01*
X129Y9713D01*
X145Y9691D01*
X162Y9672D01*
X177Y9654D01*
X190Y9636D01*
X201Y9620D01*
X212Y9606D01*
X220Y9593D01*
X228Y9581D01*
X236Y9571D01*
X240Y9562D01*
X245Y9554D01*
X249Y9548D01*
X250Y9545D01*
X252Y9542D01*
Y9541D01*
X264Y9514D01*
X274Y9486D01*
X282Y9459D01*
X287Y9437D01*
X291Y9416D01*
X293Y9408D01*
X294Y9401D01*
Y9395D01*
X296Y9390D01*
Y9387D01*
Y9386D01*
X-152D01*
Y9530D01*
X102D01*
X94Y9546D01*
X85Y9559D01*
X82Y9564D01*
X78Y9569D01*
X77Y9571D01*
X76Y9572D01*
X67Y9583D01*
X57Y9596D01*
X43Y9611D01*
X30Y9626D01*
X18Y9641D01*
X7Y9653D01*
X4Y9658D01*
X0Y9661D01*
X-1Y9663D01*
X-2Y9664D01*
X-25Y9690D01*
X-44Y9714D01*
X-61Y9735D01*
X-74Y9753D01*
X-84Y9766D01*
X-91Y9777D01*
X-95Y9783D01*
X-96Y9785D01*
X-106Y9803D01*
X-115Y9820D01*
X-122Y9836D01*
X-128Y9850D01*
X-132Y9862D01*
X-136Y9870D01*
X-138Y9876D01*
Y9879D01*
X-143Y9897D01*
X-146Y9914D01*
X-149Y9930D01*
X-151Y9945D01*
Y9958D01*
X-152Y9968D01*
Y9974D01*
Y9976D01*
Y9993D01*
X-150Y10009D01*
X-144Y10037D01*
X-136Y10064D01*
X-126Y10087D01*
X-115Y10106D01*
X-110Y10114D01*
X-107Y10120D01*
X-103Y10125D01*
X-101Y10129D01*
X-100Y10131D01*
X-98Y10132D01*
X-88Y10144D01*
X-77Y10155D01*
X-65Y10164D01*
X-52Y10172D01*
X-38Y10179D01*
X-25Y10184D01*
X0Y10192D01*
X24Y10197D01*
X34Y10198D01*
X43Y10200D01*
X51Y10201D01*
X60D01*
X77Y10200D01*
D02*
G37*
G36*
X-1768Y9386D02*
X-1903D01*
Y9631D01*
X-2012Y9767D01*
X-2194Y9386D01*
X-2369D01*
X-2107Y9884D01*
X-2357Y10198D01*
X-2176D01*
X-1903Y9836D01*
Y10198D01*
X-1768D01*
Y9386D01*
D02*
G37*
G36*
X-2398Y9602D02*
X-2650D01*
Y9759D01*
X-2398D01*
Y9602D01*
D02*
G37*
G36*
X-789Y10210D02*
X-765Y10207D01*
X-744Y10202D01*
X-722Y10196D01*
X-703Y10188D01*
X-685Y10179D01*
X-668Y10170D01*
X-653Y10161D01*
X-640Y10151D01*
X-628Y10142D01*
X-619Y10133D01*
X-610Y10125D01*
X-604Y10119D01*
X-599Y10114D01*
X-597Y10111D01*
X-596Y10109D01*
X-579Y10087D01*
X-565Y10061D01*
X-553Y10036D01*
X-542Y10010D01*
X-532Y9982D01*
X-525Y9956D01*
X-519Y9929D01*
X-514Y9903D01*
X-510Y9879D01*
X-507Y9857D01*
X-504Y9837D01*
X-503Y9819D01*
Y9805D01*
X-502Y9795D01*
Y9787D01*
Y9786D01*
Y9785D01*
X-503Y9749D01*
X-506Y9715D01*
X-510Y9683D01*
X-516Y9653D01*
X-524Y9625D01*
X-531Y9600D01*
X-539Y9576D01*
X-549Y9556D01*
X-557Y9536D01*
X-566Y9520D01*
X-573Y9505D01*
X-580Y9494D01*
X-586Y9485D01*
X-591Y9477D01*
X-593Y9474D01*
X-595Y9473D01*
X-610Y9455D01*
X-627Y9440D01*
X-644Y9427D01*
X-662Y9415D01*
X-680Y9405D01*
X-697Y9397D01*
X-714Y9391D01*
X-730Y9385D01*
X-746Y9381D01*
X-760Y9378D01*
X-774Y9377D01*
X-784Y9374D01*
X-794D01*
X-800Y9373D01*
X-806D01*
X-825Y9374D01*
X-843Y9375D01*
X-877Y9383D01*
X-907Y9392D01*
X-920Y9398D01*
X-932Y9404D01*
X-943Y9410D01*
X-953Y9416D01*
X-961Y9421D01*
X-967Y9426D01*
X-973Y9429D01*
X-977Y9433D01*
X-979Y9434D01*
X-980Y9435D01*
X-993Y9449D01*
X-1005Y9462D01*
X-1026Y9493D01*
X-1044Y9527D01*
X-1058Y9559D01*
X-1064Y9575D01*
X-1069Y9589D01*
X-1073Y9602D01*
X-1076Y9613D01*
X-1079Y9623D01*
X-1081Y9630D01*
X-1082Y9635D01*
Y9636D01*
X-951Y9687D01*
X-944Y9654D01*
X-935Y9628D01*
X-926Y9605D01*
X-917Y9587D01*
X-908Y9572D01*
X-901Y9563D01*
X-896Y9557D01*
X-895Y9554D01*
X-881Y9541D01*
X-865Y9530D01*
X-849Y9523D01*
X-835Y9518D01*
X-823Y9516D01*
X-812Y9515D01*
X-806Y9514D01*
X-804D01*
X-790Y9515D01*
X-778Y9516D01*
X-754Y9523D01*
X-735Y9534D01*
X-718Y9546D01*
X-704Y9557D01*
X-694Y9568D01*
X-688Y9575D01*
X-686Y9576D01*
Y9577D01*
X-679Y9590D01*
X-671Y9605D01*
X-665Y9622D01*
X-661Y9638D01*
X-652Y9675D01*
X-647Y9711D01*
X-645Y9727D01*
X-644Y9743D01*
X-643Y9757D01*
Y9769D01*
X-641Y9780D01*
Y9787D01*
Y9793D01*
Y9795D01*
Y9821D01*
X-644Y9846D01*
X-646Y9869D01*
X-649Y9890D01*
X-652Y9909D01*
X-656Y9927D01*
X-659Y9942D01*
X-664Y9956D01*
X-669Y9968D01*
X-673Y9978D01*
X-676Y9987D01*
X-680Y9994D01*
X-683Y9999D01*
X-685Y10004D01*
X-687Y10005D01*
Y10006D01*
X-697Y10018D01*
X-706Y10028D01*
X-716Y10036D01*
X-726Y10043D01*
X-746Y10055D01*
X-765Y10063D01*
X-782Y10067D01*
X-795Y10070D01*
X-800Y10071D01*
X-807D01*
X-826Y10070D01*
X-843Y10065D01*
X-858Y10060D01*
X-871Y10053D01*
X-882Y10047D01*
X-890Y10041D01*
X-895Y10036D01*
X-896Y10035D01*
X-909Y10021D01*
X-920Y10005D01*
X-930Y9988D01*
X-937Y9971D01*
X-942Y9957D01*
X-945Y9945D01*
X-947Y9940D01*
Y9936D01*
X-948Y9935D01*
Y9934D01*
X-1081Y9972D01*
X-1076Y9992D01*
X-1070Y10010D01*
X-1064Y10027D01*
X-1058Y10043D01*
X-1051Y10058D01*
X-1045Y10071D01*
X-1038Y10082D01*
X-1032Y10093D01*
X-1026Y10102D01*
X-1020Y10111D01*
X-1015Y10118D01*
X-1010Y10124D01*
X-1007Y10127D01*
X-1004Y10131D01*
X-1003Y10133D01*
X-1002D01*
X-987Y10147D01*
X-972Y10159D01*
X-956Y10170D01*
X-941Y10179D01*
X-925Y10186D01*
X-909Y10192D01*
X-879Y10202D01*
X-866Y10206D01*
X-854Y10208D01*
X-843Y10209D01*
X-834Y10210D01*
X-825Y10212D01*
X-814D01*
X-789Y10210D01*
D02*
G37*
G36*
X-1200Y9386D02*
X-1669D01*
Y9523D01*
X-1335D01*
Y10192D01*
X-1200D01*
Y9386D01*
D02*
G37*
G36*
X115Y11358D02*
X127Y11334D01*
X141Y11312D01*
X154Y11294D01*
X166Y11279D01*
X176Y11267D01*
X183Y11260D01*
X184Y11258D01*
X185Y11257D01*
X207Y11238D01*
X227Y11222D01*
X245Y11209D01*
X262Y11198D01*
X276Y11191D01*
X286Y11185D01*
X293Y11183D01*
X294Y11181D01*
X296D01*
Y11040D01*
X262Y11055D01*
X230Y11073D01*
X202Y11094D01*
X178Y11113D01*
X167Y11121D01*
X158Y11130D01*
X149Y11138D01*
X143Y11144D01*
X137Y11150D01*
X133Y11154D01*
X131Y11156D01*
X130Y11157D01*
Y10570D01*
X1D01*
Y11384D01*
X106D01*
X115Y11358D01*
D02*
G37*
G36*
X-1718Y10570D02*
X-1852D01*
Y10815D01*
X-1962Y10951D01*
X-2143Y10570D01*
X-2319D01*
X-2057Y11067D01*
X-2307Y11382D01*
X-2125D01*
X-1852Y11019D01*
Y11382D01*
X-1718D01*
Y10570D01*
D02*
G37*
G36*
X-739Y11394D02*
X-715Y11390D01*
X-693Y11386D01*
X-671Y11380D01*
X-652Y11371D01*
X-634Y11363D01*
X-617Y11353D01*
X-603Y11345D01*
X-590Y11335D01*
X-578Y11326D01*
X-568Y11317D01*
X-560Y11309D01*
X-554Y11303D01*
X-549Y11298D01*
X-547Y11294D01*
X-545Y11293D01*
X-529Y11270D01*
X-514Y11245D01*
X-502Y11220D01*
X-491Y11193D01*
X-482Y11166D01*
X-474Y11139D01*
X-468Y11113D01*
X-464Y11087D01*
X-460Y11062D01*
X-456Y11041D01*
X-454Y11020D01*
X-453Y11002D01*
Y10989D01*
X-452Y10978D01*
Y10971D01*
Y10970D01*
Y10969D01*
X-453Y10933D01*
X-455Y10899D01*
X-460Y10867D01*
X-466Y10837D01*
X-473Y10809D01*
X-480Y10784D01*
X-489Y10760D01*
X-498Y10739D01*
X-507Y10720D01*
X-515Y10703D01*
X-522Y10689D01*
X-530Y10678D01*
X-536Y10668D01*
X-541Y10661D01*
X-543Y10658D01*
X-544Y10656D01*
X-560Y10638D01*
X-577Y10624D01*
X-593Y10611D01*
X-611Y10599D01*
X-629Y10589D01*
X-646Y10581D01*
X-663Y10575D01*
X-680Y10569D01*
X-696Y10565D01*
X-710Y10562D01*
X-723Y10560D01*
X-734Y10558D01*
X-744D01*
X-750Y10557D01*
X-756D01*
X-775Y10558D01*
X-793Y10559D01*
X-826Y10566D01*
X-856Y10576D01*
X-870Y10582D01*
X-882Y10588D01*
X-893Y10594D01*
X-902Y10600D01*
X-911Y10605D01*
X-917Y10610D01*
X-923Y10613D01*
X-926Y10617D01*
X-929Y10618D01*
X-930Y10619D01*
X-943Y10632D01*
X-955Y10646D01*
X-975Y10677D01*
X-993Y10710D01*
X-1008Y10743D01*
X-1014Y10759D01*
X-1019Y10773D01*
X-1022Y10786D01*
X-1026Y10797D01*
X-1028Y10807D01*
X-1031Y10814D01*
X-1032Y10819D01*
Y10820D01*
X-901Y10870D01*
X-894Y10838D01*
X-884Y10811D01*
X-876Y10789D01*
X-866Y10771D01*
X-858Y10756D01*
X-850Y10747D01*
X-846Y10741D01*
X-844Y10738D01*
X-830Y10725D01*
X-814Y10714D01*
X-799Y10707D01*
X-784Y10702D01*
X-772Y10700D01*
X-762Y10698D01*
X-756Y10697D01*
X-753D01*
X-740Y10698D01*
X-728Y10700D01*
X-704Y10707D01*
X-685Y10718D01*
X-668Y10730D01*
X-653Y10741D01*
X-644Y10751D01*
X-638Y10759D01*
X-635Y10760D01*
Y10761D01*
X-628Y10774D01*
X-621Y10789D01*
X-615Y10805D01*
X-610Y10822D01*
X-602Y10858D01*
X-597Y10894D01*
X-595Y10911D01*
X-593Y10927D01*
X-592Y10941D01*
Y10953D01*
X-591Y10964D01*
Y10971D01*
Y10977D01*
Y10978D01*
Y11005D01*
X-593Y11030D01*
X-596Y11053D01*
X-598Y11073D01*
X-602Y11093D01*
X-605Y11111D01*
X-609Y11126D01*
X-614Y11139D01*
X-619Y11151D01*
X-622Y11162D01*
X-626Y11171D01*
X-629Y11178D01*
X-633Y11183D01*
X-634Y11187D01*
X-637Y11189D01*
Y11190D01*
X-646Y11202D01*
X-656Y11211D01*
X-665Y11220D01*
X-675Y11227D01*
X-696Y11239D01*
X-715Y11246D01*
X-732Y11251D01*
X-745Y11254D01*
X-750Y11255D01*
X-757D01*
X-776Y11254D01*
X-793Y11249D01*
X-807Y11244D01*
X-820Y11237D01*
X-831Y11231D01*
X-840Y11225D01*
X-844Y11220D01*
X-846Y11219D01*
X-859Y11204D01*
X-870Y11189D01*
X-879Y11172D01*
X-887Y11155D01*
X-891Y11141D01*
X-895Y11129D01*
X-896Y11124D01*
Y11120D01*
X-897Y11119D01*
Y11118D01*
X-1031Y11156D01*
X-1026Y11175D01*
X-1020Y11193D01*
X-1014Y11210D01*
X-1008Y11227D01*
X-1001Y11242D01*
X-995Y11255D01*
X-987Y11266D01*
X-981Y11276D01*
X-975Y11286D01*
X-969Y11294D01*
X-965Y11302D01*
X-960Y11308D01*
X-956Y11311D01*
X-954Y11315D01*
X-953Y11317D01*
X-951D01*
X-937Y11330D01*
X-921Y11342D01*
X-906Y11353D01*
X-890Y11363D01*
X-875Y11370D01*
X-859Y11376D01*
X-829Y11386D01*
X-816Y11389D01*
X-804Y11392D01*
X-793Y11393D01*
X-783Y11394D01*
X-775Y11395D01*
X-764D01*
X-739Y11394D01*
D02*
G37*
G36*
X-2531Y11043D02*
X-2357D01*
Y10898D01*
X-2531D01*
Y10686D01*
X-2648D01*
Y10898D01*
X-2823D01*
Y11043D01*
X-2648D01*
Y11255D01*
X-2531D01*
Y11043D01*
D02*
G37*
G36*
X-1150Y10570D02*
X-1618D01*
Y10707D01*
X-1284D01*
Y11376D01*
X-1150D01*
Y10570D01*
D02*
G37*
G36*
X10026Y6824D02*
X10046Y6823D01*
X10081Y6814D01*
X10112Y6804D01*
X10137Y6792D01*
X10159Y6779D01*
X10166Y6772D01*
X10173Y6768D01*
X10178Y6763D01*
X10182Y6759D01*
X10184Y6758D01*
X10185Y6756D01*
X10198Y6742D01*
X10208Y6728D01*
X10226Y6694D01*
X10240Y6659D01*
X10250Y6625D01*
X10254Y6608D01*
X10259Y6593D01*
X10260Y6579D01*
X10263Y6567D01*
X10264Y6558D01*
Y6550D01*
X10266Y6545D01*
Y6543D01*
X10116Y6524D01*
X10113Y6550D01*
X10109Y6573D01*
X10104Y6593D01*
X10097Y6610D01*
X10088Y6625D01*
X10080Y6636D01*
X10070Y6646D01*
X10060Y6655D01*
X10050Y6660D01*
X10042Y6665D01*
X10025Y6670D01*
X10019Y6672D01*
X10013Y6673D01*
X10009D01*
X9994Y6672D01*
X9978Y6667D01*
X9965Y6663D01*
X9956Y6658D01*
X9947Y6651D01*
X9941Y6646D01*
X9937Y6642D01*
X9936Y6641D01*
X9926Y6628D01*
X9919Y6612D01*
X9915Y6597D01*
X9910Y6581D01*
X9909Y6567D01*
X9908Y6556D01*
Y6549D01*
Y6548D01*
Y6546D01*
X9909Y6525D01*
X9913Y6504D01*
X9919Y6484D01*
X9925Y6467D01*
X9930Y6452D01*
X9936Y6441D01*
X9940Y6433D01*
X9941Y6431D01*
X9947Y6422D01*
X9954Y6412D01*
X9971Y6390D01*
X9991Y6366D01*
X10012Y6340D01*
X10032Y6316D01*
X10040Y6305D01*
X10049Y6297D01*
X10054Y6290D01*
X10060Y6284D01*
X10063Y6280D01*
X10064Y6278D01*
X10087Y6253D01*
X10106Y6228D01*
X10126Y6205D01*
X10143Y6184D01*
X10159Y6163D01*
X10171Y6144D01*
X10184Y6128D01*
X10194Y6112D01*
X10204Y6098D01*
X10212Y6087D01*
X10218Y6075D01*
X10223Y6067D01*
X10228Y6060D01*
X10229Y6056D01*
X10232Y6053D01*
Y6051D01*
X10246Y6019D01*
X10257Y5987D01*
X10267Y5956D01*
X10273Y5929D01*
X10277Y5905D01*
X10280Y5895D01*
X10281Y5886D01*
Y5879D01*
X10283Y5874D01*
Y5871D01*
Y5870D01*
X9757D01*
Y6039D01*
X10056D01*
X10046Y6057D01*
X10036Y6073D01*
X10032Y6078D01*
X10027Y6084D01*
X10026Y6087D01*
X10025Y6088D01*
X10015Y6101D01*
X10002Y6116D01*
X9987Y6133D01*
X9971Y6152D01*
X9957Y6168D01*
X9944Y6183D01*
X9940Y6188D01*
X9936Y6192D01*
X9934Y6194D01*
X9933Y6195D01*
X9906Y6226D01*
X9884Y6254D01*
X9864Y6278D01*
X9848Y6300D01*
X9837Y6315D01*
X9829Y6328D01*
X9824Y6335D01*
X9823Y6338D01*
X9812Y6359D01*
X9800Y6378D01*
X9792Y6397D01*
X9785Y6414D01*
X9781Y6428D01*
X9777Y6438D01*
X9774Y6445D01*
Y6448D01*
X9768Y6469D01*
X9764Y6488D01*
X9761Y6508D01*
X9758Y6525D01*
Y6541D01*
X9757Y6552D01*
Y6559D01*
Y6562D01*
Y6581D01*
X9760Y6600D01*
X9767Y6634D01*
X9777Y6665D01*
X9788Y6691D01*
X9800Y6714D01*
X9806Y6724D01*
X9810Y6731D01*
X9815Y6737D01*
X9817Y6741D01*
X9819Y6744D01*
X9820Y6745D01*
X9833Y6759D01*
X9846Y6772D01*
X9860Y6782D01*
X9875Y6792D01*
X9891Y6800D01*
X9906Y6806D01*
X9936Y6815D01*
X9964Y6821D01*
X9975Y6823D01*
X9987Y6824D01*
X9995Y6825D01*
X10006D01*
X10026Y6824D01*
D02*
G37*
G36*
X11017Y5870D02*
X10859D01*
Y6267D01*
X10808D01*
X10793Y6266D01*
X10779Y6264D01*
X10768Y6261D01*
X10759Y6260D01*
X10753Y6257D01*
X10751Y6256D01*
X10749D01*
X10739Y6252D01*
X10731Y6245D01*
X10717Y6232D01*
X10711Y6226D01*
X10707Y6221D01*
X10704Y6218D01*
X10703Y6216D01*
X10698Y6211D01*
X10693Y6202D01*
X10686Y6194D01*
X10680Y6184D01*
X10666Y6160D01*
X10652Y6136D01*
X10639Y6113D01*
X10634Y6104D01*
X10628Y6095D01*
X10624Y6088D01*
X10621Y6082D01*
X10618Y6078D01*
Y6077D01*
X10505Y5870D01*
X10315D01*
X10411Y6054D01*
X10421Y6074D01*
X10431Y6094D01*
X10440Y6111D01*
X10449Y6126D01*
X10457Y6140D01*
X10464Y6153D01*
X10477Y6174D01*
X10487Y6190D01*
X10495Y6201D01*
X10500Y6208D01*
X10501Y6209D01*
X10514Y6225D01*
X10528Y6240D01*
X10542Y6254D01*
X10555Y6266D01*
X10566Y6276D01*
X10576Y6283D01*
X10581Y6288D01*
X10584Y6290D01*
X10549Y6298D01*
X10519Y6309D01*
X10493Y6324D01*
X10471Y6339D01*
X10455Y6352D01*
X10442Y6363D01*
X10435Y6371D01*
X10432Y6373D01*
Y6374D01*
X10414Y6402D01*
X10400Y6432D01*
X10390Y6462D01*
X10384Y6490D01*
X10380Y6515D01*
X10378Y6527D01*
Y6536D01*
X10377Y6543D01*
Y6550D01*
Y6553D01*
Y6555D01*
X10378Y6587D01*
X10383Y6615D01*
X10388Y6642D01*
X10394Y6665D01*
X10401Y6682D01*
X10407Y6696D01*
X10411Y6704D01*
X10412Y6707D01*
X10426Y6729D01*
X10442Y6748D01*
X10456Y6763D01*
X10470Y6775D01*
X10483Y6784D01*
X10493Y6792D01*
X10500Y6794D01*
X10503Y6796D01*
X10514Y6800D01*
X10526Y6804D01*
X10555Y6811D01*
X10584Y6815D01*
X10614Y6820D01*
X10641Y6821D01*
X10653D01*
X10663Y6823D01*
X11017D01*
Y5870D01*
D02*
G37*
G36*
X3695Y6760D02*
X3709Y6731D01*
X3724Y6706D01*
X3740Y6685D01*
X3754Y6667D01*
X3765Y6652D01*
X3774Y6644D01*
X3775Y6643D01*
X3777Y6641D01*
X3802Y6619D01*
X3826Y6600D01*
X3847Y6585D01*
X3867Y6572D01*
X3884Y6564D01*
X3895Y6557D01*
X3904Y6554D01*
X3905Y6552D01*
X3906D01*
Y6386D01*
X3867Y6404D01*
X3829Y6425D01*
X3796Y6449D01*
X3768Y6472D01*
X3756Y6482D01*
X3744Y6492D01*
X3734Y6502D01*
X3727Y6509D01*
X3720Y6516D01*
X3716Y6520D01*
X3713Y6523D01*
X3712Y6524D01*
Y5835D01*
X3561D01*
Y6791D01*
X3684D01*
X3695Y6760D01*
D02*
G37*
G36*
X4700Y5835D02*
X4542D01*
Y6232D01*
X4491D01*
X4476Y6231D01*
X4462Y6230D01*
X4450Y6227D01*
X4442Y6225D01*
X4436Y6222D01*
X4434Y6221D01*
X4432D01*
X4422Y6217D01*
X4414Y6210D01*
X4400Y6197D01*
X4394Y6191D01*
X4390Y6186D01*
X4387Y6183D01*
X4386Y6182D01*
X4381Y6176D01*
X4376Y6168D01*
X4369Y6159D01*
X4363Y6149D01*
X4349Y6125D01*
X4335Y6101D01*
X4322Y6079D01*
X4317Y6069D01*
X4311Y6060D01*
X4307Y6053D01*
X4304Y6048D01*
X4301Y6043D01*
Y6042D01*
X4188Y5835D01*
X3998D01*
X4094Y6019D01*
X4104Y6039D01*
X4114Y6059D01*
X4123Y6076D01*
X4132Y6091D01*
X4140Y6105D01*
X4147Y6118D01*
X4160Y6139D01*
X4170Y6155D01*
X4178Y6166D01*
X4183Y6173D01*
X4184Y6175D01*
X4197Y6190D01*
X4211Y6206D01*
X4225Y6220D01*
X4238Y6231D01*
X4249Y6241D01*
X4259Y6248D01*
X4264Y6254D01*
X4267Y6255D01*
X4232Y6263D01*
X4202Y6275D01*
X4176Y6289D01*
X4154Y6304D01*
X4138Y6317D01*
X4125Y6328D01*
X4118Y6337D01*
X4115Y6338D01*
Y6339D01*
X4097Y6368D01*
X4083Y6397D01*
X4073Y6427D01*
X4067Y6455D01*
X4063Y6480D01*
X4061Y6492D01*
Y6502D01*
X4060Y6509D01*
Y6516D01*
Y6519D01*
Y6520D01*
X4061Y6552D01*
X4066Y6581D01*
X4071Y6607D01*
X4077Y6630D01*
X4084Y6647D01*
X4090Y6661D01*
X4094Y6669D01*
X4095Y6672D01*
X4109Y6695D01*
X4125Y6713D01*
X4139Y6729D01*
X4153Y6740D01*
X4166Y6750D01*
X4176Y6757D01*
X4183Y6760D01*
X4185Y6761D01*
X4197Y6765D01*
X4209Y6769D01*
X4238Y6777D01*
X4267Y6781D01*
X4297Y6785D01*
X4324Y6786D01*
X4336D01*
X4346Y6788D01*
X4700D01*
Y5835D01*
D02*
G37*
G36*
X14229Y13596D02*
X14500Y13100D01*
X14311D01*
X14136Y13424D01*
X13962Y13100D01*
X13773D01*
X14043Y13596D01*
X13798Y14053D01*
X13981D01*
X14136Y13767D01*
X14291Y14053D01*
X14475D01*
X14229Y13596D01*
D02*
G37*
G36*
X13488Y14054D02*
X13508Y14053D01*
X13543Y14044D01*
X13574Y14035D01*
X13599Y14022D01*
X13620Y14009D01*
X13627Y14002D01*
X13634Y13998D01*
X13640Y13994D01*
X13644Y13990D01*
X13646Y13988D01*
X13647Y13987D01*
X13660Y13973D01*
X13670Y13958D01*
X13688Y13925D01*
X13702Y13889D01*
X13712Y13856D01*
X13716Y13839D01*
X13720Y13823D01*
X13722Y13809D01*
X13725Y13798D01*
X13726Y13788D01*
Y13781D01*
X13727Y13775D01*
Y13774D01*
X13578Y13754D01*
X13575Y13781D01*
X13571Y13803D01*
X13565Y13823D01*
X13558Y13840D01*
X13550Y13856D01*
X13541Y13867D01*
X13532Y13877D01*
X13522Y13885D01*
X13512Y13891D01*
X13503Y13895D01*
X13486Y13901D01*
X13481Y13902D01*
X13475Y13904D01*
X13471D01*
X13455Y13902D01*
X13440Y13898D01*
X13427Y13894D01*
X13417Y13888D01*
X13409Y13881D01*
X13403Y13877D01*
X13399Y13873D01*
X13398Y13871D01*
X13388Y13858D01*
X13381Y13843D01*
X13376Y13827D01*
X13372Y13812D01*
X13371Y13798D01*
X13369Y13787D01*
Y13779D01*
Y13778D01*
Y13777D01*
X13371Y13755D01*
X13375Y13734D01*
X13381Y13715D01*
X13386Y13698D01*
X13392Y13682D01*
X13398Y13671D01*
X13402Y13664D01*
X13403Y13661D01*
X13409Y13653D01*
X13416Y13643D01*
X13433Y13620D01*
X13453Y13596D01*
X13474Y13571D01*
X13493Y13547D01*
X13502Y13536D01*
X13510Y13527D01*
X13516Y13520D01*
X13522Y13514D01*
X13524Y13510D01*
X13526Y13509D01*
X13548Y13483D01*
X13568Y13458D01*
X13588Y13436D01*
X13605Y13414D01*
X13620Y13393D01*
X13633Y13375D01*
X13646Y13358D01*
X13656Y13342D01*
X13665Y13328D01*
X13674Y13317D01*
X13680Y13306D01*
X13685Y13297D01*
X13689Y13290D01*
X13691Y13286D01*
X13694Y13283D01*
Y13282D01*
X13708Y13249D01*
X13719Y13217D01*
X13729Y13186D01*
X13735Y13159D01*
X13739Y13135D01*
X13742Y13125D01*
X13743Y13117D01*
Y13110D01*
X13744Y13104D01*
Y13101D01*
Y13100D01*
X13219D01*
Y13269D01*
X13517D01*
X13508Y13287D01*
X13498Y13303D01*
X13493Y13309D01*
X13489Y13314D01*
X13488Y13317D01*
X13486Y13318D01*
X13477Y13331D01*
X13464Y13347D01*
X13448Y13364D01*
X13433Y13382D01*
X13419Y13399D01*
X13406Y13413D01*
X13402Y13419D01*
X13398Y13423D01*
X13396Y13424D01*
X13395Y13426D01*
X13368Y13457D01*
X13345Y13485D01*
X13326Y13509D01*
X13310Y13530D01*
X13299Y13545D01*
X13290Y13558D01*
X13286Y13565D01*
X13285Y13568D01*
X13274Y13589D01*
X13262Y13609D01*
X13254Y13627D01*
X13247Y13644D01*
X13243Y13658D01*
X13238Y13668D01*
X13236Y13675D01*
Y13678D01*
X13230Y13699D01*
X13226Y13719D01*
X13223Y13739D01*
X13220Y13755D01*
Y13771D01*
X13219Y13782D01*
Y13789D01*
Y13792D01*
Y13812D01*
X13221Y13830D01*
X13228Y13864D01*
X13238Y13895D01*
X13250Y13922D01*
X13262Y13944D01*
X13268Y13954D01*
X13272Y13961D01*
X13276Y13967D01*
X13279Y13971D01*
X13281Y13974D01*
X13282Y13975D01*
X13295Y13990D01*
X13307Y14002D01*
X13321Y14012D01*
X13337Y14022D01*
X13353Y14030D01*
X13368Y14036D01*
X13398Y14046D01*
X13426Y14052D01*
X13437Y14053D01*
X13448Y14054D01*
X13457Y14056D01*
X13468D01*
X13488Y14054D01*
D02*
G37*
G36*
X6705Y21625D02*
X6720Y21597D01*
X6735Y21571D01*
X6751Y21550D01*
X6765Y21532D01*
X6776Y21518D01*
X6784Y21509D01*
X6786Y21508D01*
X6787Y21506D01*
X6813Y21484D01*
X6837Y21465D01*
X6858Y21450D01*
X6877Y21437D01*
X6894Y21429D01*
X6906Y21422D01*
X6914Y21419D01*
X6916Y21418D01*
X6917D01*
Y21251D01*
X6877Y21270D01*
X6839Y21291D01*
X6807Y21315D01*
X6779Y21337D01*
X6766Y21347D01*
X6755Y21357D01*
X6745Y21367D01*
X6738Y21374D01*
X6731Y21381D01*
X6727Y21385D01*
X6724Y21388D01*
X6722Y21389D01*
Y20700D01*
X6572D01*
Y21656D01*
X6694D01*
X6705Y21625D01*
D02*
G37*
G36*
X8500Y20700D02*
X8204D01*
X8170Y20701D01*
X8139Y20704D01*
X8112Y20708D01*
X8090Y20714D01*
X8071Y20718D01*
X8059Y20723D01*
X8050Y20725D01*
X8047Y20727D01*
X8025Y20738D01*
X8005Y20751D01*
X7988Y20763D01*
X7973Y20776D01*
X7962Y20787D01*
X7952Y20797D01*
X7946Y20803D01*
X7945Y20806D01*
X7929Y20827D01*
X7915Y20851D01*
X7902Y20875D01*
X7892Y20899D01*
X7884Y20919D01*
X7878Y20935D01*
X7876Y20942D01*
X7874Y20947D01*
X7873Y20950D01*
Y20951D01*
X7863Y20986D01*
X7856Y21023D01*
X7852Y21059D01*
X7847Y21093D01*
Y21109D01*
X7846Y21123D01*
Y21136D01*
X7844Y21145D01*
Y21154D01*
Y21161D01*
Y21165D01*
Y21167D01*
X7846Y21216D01*
X7849Y21260D01*
X7850Y21281D01*
X7853Y21299D01*
X7856Y21316D01*
X7857Y21332D01*
X7860Y21346D01*
X7863Y21358D01*
X7866Y21370D01*
X7867Y21378D01*
X7868Y21385D01*
X7870Y21391D01*
X7871Y21394D01*
Y21395D01*
X7883Y21429D01*
X7894Y21458D01*
X7907Y21484D01*
X7919Y21505D01*
X7929Y21523D01*
X7938Y21536D01*
X7943Y21543D01*
X7946Y21546D01*
X7964Y21566D01*
X7981Y21582D01*
X8000Y21597D01*
X8015Y21608D01*
X8029Y21616D01*
X8039Y21623D01*
X8046Y21626D01*
X8049Y21628D01*
X8071Y21636D01*
X8098Y21642D01*
X8125Y21647D01*
X8152Y21650D01*
X8176Y21652D01*
X8186D01*
X8194Y21653D01*
X8500D01*
Y20700D01*
D02*
G37*
G36*
X7712D02*
X7416D01*
X7382Y20701D01*
X7351Y20704D01*
X7324Y20708D01*
X7302Y20714D01*
X7283Y20718D01*
X7271Y20723D01*
X7262Y20725D01*
X7259Y20727D01*
X7237Y20738D01*
X7217Y20751D01*
X7200Y20763D01*
X7185Y20776D01*
X7173Y20787D01*
X7164Y20797D01*
X7158Y20803D01*
X7157Y20806D01*
X7141Y20827D01*
X7127Y20851D01*
X7114Y20875D01*
X7104Y20899D01*
X7096Y20919D01*
X7090Y20935D01*
X7087Y20942D01*
X7086Y20947D01*
X7085Y20950D01*
Y20951D01*
X7075Y20986D01*
X7068Y21023D01*
X7064Y21059D01*
X7059Y21093D01*
Y21109D01*
X7058Y21123D01*
Y21136D01*
X7056Y21145D01*
Y21154D01*
Y21161D01*
Y21165D01*
Y21167D01*
X7058Y21216D01*
X7061Y21260D01*
X7062Y21281D01*
X7065Y21299D01*
X7068Y21316D01*
X7069Y21332D01*
X7072Y21346D01*
X7075Y21358D01*
X7078Y21370D01*
X7079Y21378D01*
X7080Y21385D01*
X7082Y21391D01*
X7083Y21394D01*
Y21395D01*
X7095Y21429D01*
X7106Y21458D01*
X7118Y21484D01*
X7131Y21505D01*
X7141Y21523D01*
X7150Y21536D01*
X7155Y21543D01*
X7158Y21546D01*
X7176Y21566D01*
X7193Y21582D01*
X7212Y21597D01*
X7227Y21608D01*
X7241Y21616D01*
X7251Y21623D01*
X7258Y21626D01*
X7261Y21628D01*
X7283Y21636D01*
X7310Y21642D01*
X7337Y21647D01*
X7364Y21650D01*
X7388Y21652D01*
X7398D01*
X7406Y21653D01*
X7712D01*
Y20700D01*
D02*
G37*
G36*
X2074Y19799D02*
X2114Y19796D01*
X2152Y19790D01*
X2187Y19783D01*
X2219Y19775D01*
X2249Y19766D01*
X2277Y19756D01*
X2301Y19745D01*
X2324Y19735D01*
X2344Y19725D01*
X2360Y19717D01*
X2373Y19708D01*
X2384Y19701D01*
X2393Y19696D01*
X2397Y19693D01*
X2398Y19691D01*
X2420Y19673D01*
X2437Y19653D01*
X2452Y19634D01*
X2466Y19613D01*
X2477Y19591D01*
X2487Y19572D01*
X2494Y19552D01*
X2501Y19532D01*
X2506Y19514D01*
X2510Y19497D01*
X2511Y19481D01*
X2514Y19469D01*
Y19457D01*
X2516Y19450D01*
Y19443D01*
X2514Y19421D01*
X2513Y19400D01*
X2504Y19360D01*
X2493Y19325D01*
X2486Y19309D01*
X2479Y19295D01*
X2472Y19283D01*
X2465Y19271D01*
X2459Y19261D01*
X2453Y19254D01*
X2449Y19247D01*
X2445Y19243D01*
X2444Y19240D01*
X2442Y19239D01*
X2427Y19223D01*
X2411Y19209D01*
X2375Y19185D01*
X2335Y19164D01*
X2297Y19147D01*
X2279Y19140D01*
X2262Y19135D01*
X2246Y19130D01*
X2234Y19126D01*
X2222Y19123D01*
X2214Y19121D01*
X2208Y19119D01*
X2207D01*
X2148Y19273D01*
X2186Y19281D01*
X2217Y19293D01*
X2243Y19302D01*
X2265Y19314D01*
X2282Y19324D01*
X2293Y19332D01*
X2300Y19338D01*
X2303Y19339D01*
X2318Y19356D01*
X2331Y19374D01*
X2339Y19393D01*
X2345Y19410D01*
X2348Y19424D01*
X2349Y19436D01*
X2351Y19443D01*
Y19446D01*
X2349Y19462D01*
X2348Y19476D01*
X2339Y19504D01*
X2327Y19527D01*
X2313Y19546D01*
X2300Y19563D01*
X2287Y19574D01*
X2279Y19581D01*
X2277Y19584D01*
X2276D01*
X2260Y19593D01*
X2243Y19601D01*
X2224Y19608D01*
X2204Y19614D01*
X2162Y19624D01*
X2119Y19629D01*
X2100Y19632D01*
X2081Y19634D01*
X2064Y19635D01*
X2050D01*
X2038Y19636D01*
X2029D01*
X2022D01*
X2021D01*
X1990D01*
X1960Y19634D01*
X1933Y19631D01*
X1909Y19628D01*
X1887Y19624D01*
X1866Y19620D01*
X1847Y19615D01*
X1832Y19610D01*
X1818Y19604D01*
X1805Y19600D01*
X1795Y19596D01*
X1787Y19591D01*
X1781Y19587D01*
X1775Y19586D01*
X1774Y19583D01*
X1773D01*
X1758Y19572D01*
X1747Y19560D01*
X1737Y19549D01*
X1729Y19538D01*
X1715Y19514D01*
X1706Y19491D01*
X1701Y19472D01*
X1698Y19456D01*
X1696Y19450D01*
Y19442D01*
X1698Y19419D01*
X1704Y19400D01*
X1709Y19383D01*
X1718Y19367D01*
X1725Y19355D01*
X1732Y19345D01*
X1737Y19339D01*
X1739Y19338D01*
X1756Y19322D01*
X1774Y19309D01*
X1794Y19298D01*
X1813Y19290D01*
X1830Y19284D01*
X1844Y19280D01*
X1850Y19278D01*
X1854D01*
X1856Y19277D01*
X1857D01*
X1812Y19121D01*
X1790Y19126D01*
X1768Y19133D01*
X1749Y19140D01*
X1729Y19147D01*
X1712Y19156D01*
X1696Y19163D01*
X1684Y19171D01*
X1671Y19178D01*
X1660Y19185D01*
X1650Y19192D01*
X1641Y19198D01*
X1634Y19204D01*
X1630Y19208D01*
X1626Y19211D01*
X1623Y19212D01*
Y19214D01*
X1608Y19230D01*
X1594Y19249D01*
X1581Y19267D01*
X1570Y19285D01*
X1561Y19304D01*
X1554Y19322D01*
X1543Y19357D01*
X1539Y19373D01*
X1536Y19387D01*
X1534Y19400D01*
X1533Y19411D01*
X1532Y19421D01*
Y19433D01*
X1533Y19463D01*
X1537Y19491D01*
X1543Y19517D01*
X1550Y19542D01*
X1560Y19565D01*
X1570Y19586D01*
X1581Y19605D01*
X1591Y19622D01*
X1602Y19638D01*
X1613Y19652D01*
X1623Y19663D01*
X1633Y19673D01*
X1640Y19680D01*
X1646Y19686D01*
X1650Y19689D01*
X1651Y19690D01*
X1678Y19710D01*
X1708Y19727D01*
X1737Y19741D01*
X1768Y19753D01*
X1801Y19765D01*
X1832Y19773D01*
X1863Y19780D01*
X1894Y19786D01*
X1922Y19790D01*
X1947Y19794D01*
X1971Y19797D01*
X1993Y19799D01*
X2008D01*
X2021Y19800D01*
X2029D01*
X2031D01*
X2032D01*
X2074Y19799D01*
D02*
G37*
G36*
X1930Y18939D02*
X1909Y18901D01*
X1885Y18868D01*
X1863Y18840D01*
X1853Y18827D01*
X1843Y18816D01*
X1833Y18806D01*
X1826Y18799D01*
X1819Y18792D01*
X1815Y18788D01*
X1812Y18785D01*
X1811Y18784D01*
X2500D01*
Y18633D01*
X1544D01*
Y18755D01*
X1575Y18767D01*
X1603Y18781D01*
X1629Y18796D01*
X1650Y18812D01*
X1668Y18826D01*
X1682Y18837D01*
X1691Y18846D01*
X1692Y18847D01*
X1694Y18848D01*
X1716Y18874D01*
X1735Y18898D01*
X1750Y18919D01*
X1763Y18939D01*
X1771Y18956D01*
X1778Y18967D01*
X1781Y18975D01*
X1782Y18977D01*
Y18978D01*
X1949D01*
X1930Y18939D01*
D02*
G37*
G36*
X874Y15079D02*
X914Y15076D01*
X952Y15070D01*
X987Y15063D01*
X1019Y15055D01*
X1049Y15046D01*
X1077Y15036D01*
X1101Y15025D01*
X1124Y15015D01*
X1144Y15005D01*
X1160Y14997D01*
X1173Y14988D01*
X1184Y14981D01*
X1193Y14976D01*
X1197Y14973D01*
X1199Y14971D01*
X1220Y14953D01*
X1237Y14933D01*
X1252Y14914D01*
X1266Y14893D01*
X1277Y14871D01*
X1287Y14852D01*
X1294Y14832D01*
X1301Y14812D01*
X1306Y14794D01*
X1310Y14777D01*
X1311Y14761D01*
X1314Y14749D01*
Y14737D01*
X1316Y14730D01*
Y14723D01*
X1314Y14701D01*
X1313Y14680D01*
X1304Y14640D01*
X1293Y14605D01*
X1286Y14589D01*
X1279Y14575D01*
X1272Y14563D01*
X1265Y14551D01*
X1259Y14541D01*
X1253Y14534D01*
X1249Y14527D01*
X1245Y14523D01*
X1244Y14520D01*
X1242Y14519D01*
X1227Y14503D01*
X1211Y14489D01*
X1175Y14465D01*
X1135Y14444D01*
X1097Y14427D01*
X1079Y14420D01*
X1062Y14415D01*
X1046Y14410D01*
X1034Y14406D01*
X1022Y14403D01*
X1014Y14401D01*
X1008Y14399D01*
X1007D01*
X948Y14553D01*
X986Y14561D01*
X1017Y14573D01*
X1043Y14582D01*
X1065Y14594D01*
X1082Y14604D01*
X1093Y14612D01*
X1100Y14618D01*
X1103Y14619D01*
X1118Y14636D01*
X1131Y14654D01*
X1139Y14673D01*
X1145Y14690D01*
X1148Y14704D01*
X1149Y14716D01*
X1151Y14723D01*
Y14726D01*
X1149Y14742D01*
X1148Y14756D01*
X1139Y14784D01*
X1127Y14807D01*
X1113Y14826D01*
X1100Y14843D01*
X1087Y14854D01*
X1079Y14861D01*
X1077Y14864D01*
X1076D01*
X1060Y14873D01*
X1043Y14881D01*
X1024Y14888D01*
X1004Y14894D01*
X962Y14904D01*
X919Y14909D01*
X900Y14912D01*
X881Y14914D01*
X864Y14915D01*
X850D01*
X838Y14916D01*
X829D01*
X822D01*
X821D01*
X790D01*
X760Y14914D01*
X733Y14911D01*
X709Y14908D01*
X687Y14904D01*
X666Y14900D01*
X647Y14895D01*
X632Y14890D01*
X618Y14884D01*
X605Y14880D01*
X595Y14876D01*
X587Y14871D01*
X581Y14867D01*
X575Y14866D01*
X574Y14863D01*
X573D01*
X558Y14852D01*
X547Y14840D01*
X537Y14829D01*
X529Y14818D01*
X515Y14794D01*
X506Y14771D01*
X501Y14752D01*
X498Y14736D01*
X496Y14730D01*
Y14722D01*
X498Y14699D01*
X504Y14680D01*
X509Y14663D01*
X518Y14647D01*
X525Y14635D01*
X532Y14625D01*
X537Y14619D01*
X539Y14618D01*
X556Y14602D01*
X574Y14589D01*
X594Y14578D01*
X613Y14570D01*
X630Y14564D01*
X644Y14560D01*
X650Y14558D01*
X654D01*
X656Y14557D01*
X657D01*
X612Y14401D01*
X590Y14406D01*
X568Y14413D01*
X549Y14420D01*
X529Y14427D01*
X512Y14436D01*
X496Y14443D01*
X484Y14451D01*
X471Y14458D01*
X460Y14465D01*
X450Y14472D01*
X441Y14478D01*
X434Y14484D01*
X430Y14488D01*
X426Y14491D01*
X423Y14492D01*
Y14494D01*
X408Y14510D01*
X394Y14529D01*
X381Y14547D01*
X370Y14565D01*
X361Y14584D01*
X354Y14602D01*
X343Y14637D01*
X339Y14653D01*
X336Y14667D01*
X334Y14680D01*
X333Y14691D01*
X332Y14701D01*
Y14713D01*
X333Y14743D01*
X337Y14771D01*
X343Y14797D01*
X350Y14822D01*
X360Y14845D01*
X370Y14866D01*
X381Y14885D01*
X391Y14902D01*
X402Y14918D01*
X413Y14932D01*
X423Y14943D01*
X433Y14953D01*
X440Y14960D01*
X446Y14966D01*
X450Y14969D01*
X451Y14970D01*
X478Y14990D01*
X508Y15007D01*
X537Y15021D01*
X568Y15033D01*
X601Y15045D01*
X632Y15053D01*
X663Y15060D01*
X694Y15066D01*
X722Y15070D01*
X747Y15074D01*
X771Y15077D01*
X793Y15079D01*
X808D01*
X821Y15080D01*
X829D01*
X831D01*
X832D01*
X874Y15079D01*
D02*
G37*
G36*
X1300Y13792D02*
X1131D01*
Y14090D01*
X1113Y14081D01*
X1097Y14071D01*
X1091Y14066D01*
X1086Y14062D01*
X1083Y14061D01*
X1082Y14059D01*
X1069Y14050D01*
X1053Y14037D01*
X1036Y14021D01*
X1018Y14006D01*
X1001Y13992D01*
X987Y13979D01*
X981Y13975D01*
X977Y13971D01*
X976Y13969D01*
X974Y13968D01*
X943Y13941D01*
X915Y13918D01*
X891Y13899D01*
X870Y13883D01*
X855Y13872D01*
X842Y13863D01*
X835Y13859D01*
X832Y13858D01*
X811Y13847D01*
X791Y13835D01*
X773Y13827D01*
X756Y13820D01*
X742Y13816D01*
X732Y13811D01*
X725Y13808D01*
X722D01*
X701Y13803D01*
X681Y13799D01*
X661Y13796D01*
X644Y13793D01*
X629D01*
X618Y13792D01*
X611D01*
X608D01*
X588D01*
X570Y13794D01*
X536Y13801D01*
X505Y13811D01*
X478Y13823D01*
X456Y13835D01*
X446Y13841D01*
X439Y13845D01*
X433Y13849D01*
X429Y13852D01*
X426Y13854D01*
X425Y13855D01*
X410Y13868D01*
X398Y13880D01*
X388Y13894D01*
X378Y13910D01*
X370Y13925D01*
X364Y13941D01*
X354Y13971D01*
X348Y13999D01*
X347Y14010D01*
X346Y14021D01*
X344Y14030D01*
Y14041D01*
X346Y14061D01*
X347Y14081D01*
X356Y14116D01*
X365Y14147D01*
X378Y14172D01*
X391Y14193D01*
X398Y14200D01*
X402Y14207D01*
X406Y14213D01*
X410Y14217D01*
X412Y14219D01*
X413Y14220D01*
X427Y14233D01*
X441Y14243D01*
X475Y14261D01*
X511Y14275D01*
X544Y14285D01*
X561Y14289D01*
X577Y14293D01*
X591Y14295D01*
X602Y14298D01*
X612Y14299D01*
X619D01*
X625Y14300D01*
X626D01*
X646Y14151D01*
X619Y14148D01*
X597Y14144D01*
X577Y14138D01*
X560Y14131D01*
X544Y14123D01*
X533Y14114D01*
X523Y14104D01*
X515Y14095D01*
X509Y14085D01*
X505Y14076D01*
X499Y14059D01*
X498Y14054D01*
X496Y14048D01*
Y14044D01*
X498Y14028D01*
X502Y14013D01*
X506Y14000D01*
X512Y13990D01*
X519Y13982D01*
X523Y13976D01*
X527Y13972D01*
X529Y13971D01*
X542Y13961D01*
X557Y13954D01*
X573Y13949D01*
X588Y13945D01*
X602Y13944D01*
X613Y13942D01*
X621D01*
X622D01*
X623D01*
X644Y13944D01*
X666Y13948D01*
X685Y13954D01*
X702Y13959D01*
X718Y13965D01*
X729Y13971D01*
X736Y13975D01*
X739Y13976D01*
X747Y13982D01*
X757Y13989D01*
X780Y14006D01*
X804Y14026D01*
X829Y14047D01*
X853Y14066D01*
X864Y14075D01*
X873Y14083D01*
X880Y14089D01*
X886Y14095D01*
X890Y14097D01*
X891Y14099D01*
X917Y14121D01*
X942Y14141D01*
X964Y14161D01*
X986Y14178D01*
X1007Y14193D01*
X1025Y14206D01*
X1042Y14219D01*
X1058Y14229D01*
X1072Y14238D01*
X1083Y14247D01*
X1094Y14253D01*
X1103Y14258D01*
X1110Y14262D01*
X1114Y14264D01*
X1117Y14267D01*
X1118D01*
X1151Y14281D01*
X1183Y14292D01*
X1214Y14302D01*
X1241Y14307D01*
X1265Y14312D01*
X1275Y14315D01*
X1283Y14316D01*
X1290D01*
X1296Y14317D01*
X1299D01*
X1300D01*
Y13792D01*
D02*
G37*
G36*
X9650Y2404D02*
X9649Y2370D01*
X9646Y2339D01*
X9642Y2312D01*
X9636Y2290D01*
X9632Y2271D01*
X9627Y2259D01*
X9625Y2250D01*
X9623Y2247D01*
X9612Y2225D01*
X9599Y2205D01*
X9587Y2188D01*
X9574Y2173D01*
X9563Y2161D01*
X9553Y2152D01*
X9547Y2146D01*
X9544Y2145D01*
X9523Y2129D01*
X9499Y2115D01*
X9475Y2102D01*
X9451Y2092D01*
X9432Y2084D01*
X9415Y2078D01*
X9408Y2076D01*
X9403Y2074D01*
X9400Y2073D01*
X9399D01*
X9364Y2063D01*
X9327Y2056D01*
X9291Y2052D01*
X9257Y2047D01*
X9241D01*
X9227Y2046D01*
X9214D01*
X9205Y2044D01*
X9196D01*
X9189D01*
X9185D01*
X9183D01*
X9134Y2046D01*
X9090Y2049D01*
X9069Y2050D01*
X9051Y2053D01*
X9034Y2056D01*
X9018Y2057D01*
X9004Y2060D01*
X8992Y2063D01*
X8980Y2066D01*
X8972Y2067D01*
X8965Y2068D01*
X8959Y2070D01*
X8956Y2071D01*
X8955D01*
X8921Y2083D01*
X8892Y2094D01*
X8866Y2107D01*
X8845Y2119D01*
X8827Y2129D01*
X8814Y2138D01*
X8807Y2143D01*
X8804Y2146D01*
X8784Y2164D01*
X8768Y2181D01*
X8753Y2200D01*
X8742Y2215D01*
X8734Y2229D01*
X8727Y2239D01*
X8724Y2246D01*
X8722Y2249D01*
X8714Y2271D01*
X8708Y2298D01*
X8703Y2325D01*
X8700Y2352D01*
X8698Y2376D01*
Y2386D01*
X8697Y2394D01*
Y2700D01*
X9650D01*
Y2404D01*
D02*
G37*
G36*
Y1823D02*
X9434Y1760D01*
Y1444D01*
X9650Y1376D01*
Y1206D01*
X8697Y1520D01*
Y1688D01*
X9650Y1991D01*
Y1823D01*
D02*
G37*
G36*
X9080Y1077D02*
X9059Y1039D01*
X9035Y1007D01*
X9013Y979D01*
X9003Y966D01*
X8993Y955D01*
X8983Y945D01*
X8976Y938D01*
X8969Y931D01*
X8965Y927D01*
X8962Y924D01*
X8961Y922D01*
X9650D01*
Y772D01*
X8694D01*
Y894D01*
X8725Y905D01*
X8753Y920D01*
X8779Y935D01*
X8800Y951D01*
X8818Y965D01*
X8832Y976D01*
X8841Y984D01*
X8842Y986D01*
X8844Y987D01*
X8866Y1013D01*
X8885Y1037D01*
X8900Y1058D01*
X8913Y1077D01*
X8921Y1094D01*
X8928Y1106D01*
X8931Y1114D01*
X8932Y1115D01*
Y1117D01*
X9099D01*
X9080Y1077D01*
D02*
G37*
G36*
X5300Y2404D02*
X5299Y2370D01*
X5296Y2339D01*
X5292Y2312D01*
X5286Y2290D01*
X5282Y2271D01*
X5277Y2259D01*
X5275Y2250D01*
X5273Y2247D01*
X5262Y2225D01*
X5249Y2205D01*
X5237Y2188D01*
X5224Y2173D01*
X5213Y2161D01*
X5203Y2152D01*
X5197Y2146D01*
X5194Y2145D01*
X5173Y2129D01*
X5149Y2115D01*
X5125Y2102D01*
X5101Y2092D01*
X5082Y2084D01*
X5065Y2078D01*
X5058Y2076D01*
X5053Y2074D01*
X5050Y2073D01*
X5049D01*
X5014Y2063D01*
X4977Y2056D01*
X4941Y2052D01*
X4907Y2047D01*
X4891D01*
X4877Y2046D01*
X4864D01*
X4855Y2044D01*
X4846D01*
X4839D01*
X4835D01*
X4833D01*
X4784Y2046D01*
X4740Y2049D01*
X4719Y2050D01*
X4701Y2053D01*
X4684Y2056D01*
X4668Y2057D01*
X4654Y2060D01*
X4642Y2063D01*
X4630Y2066D01*
X4622Y2067D01*
X4615Y2068D01*
X4609Y2070D01*
X4606Y2071D01*
X4605D01*
X4571Y2083D01*
X4542Y2094D01*
X4516Y2107D01*
X4495Y2119D01*
X4477Y2129D01*
X4464Y2138D01*
X4457Y2143D01*
X4454Y2146D01*
X4434Y2164D01*
X4418Y2181D01*
X4403Y2200D01*
X4392Y2215D01*
X4384Y2229D01*
X4377Y2239D01*
X4374Y2246D01*
X4372Y2249D01*
X4364Y2271D01*
X4358Y2298D01*
X4353Y2325D01*
X4350Y2352D01*
X4348Y2376D01*
Y2386D01*
X4347Y2394D01*
Y2700D01*
X5300D01*
Y2404D01*
D02*
G37*
G36*
Y1823D02*
X5084Y1760D01*
Y1444D01*
X5300Y1376D01*
Y1206D01*
X4347Y1520D01*
Y1688D01*
X5300Y1991D01*
Y1823D01*
D02*
G37*
G36*
Y650D02*
X5131D01*
Y949D01*
X5113Y939D01*
X5097Y929D01*
X5091Y925D01*
X5086Y921D01*
X5083Y920D01*
X5082Y918D01*
X5069Y908D01*
X5053Y896D01*
X5036Y880D01*
X5018Y865D01*
X5001Y850D01*
X4987Y838D01*
X4981Y834D01*
X4977Y829D01*
X4976Y828D01*
X4974Y827D01*
X4943Y800D01*
X4915Y777D01*
X4891Y757D01*
X4870Y742D01*
X4855Y731D01*
X4842Y722D01*
X4835Y718D01*
X4832Y717D01*
X4811Y705D01*
X4791Y694D01*
X4773Y686D01*
X4756Y678D01*
X4742Y674D01*
X4732Y670D01*
X4725Y667D01*
X4722D01*
X4701Y662D01*
X4681Y657D01*
X4661Y655D01*
X4644Y652D01*
X4629D01*
X4618Y650D01*
X4611D01*
X4608D01*
X4588D01*
X4570Y653D01*
X4536Y660D01*
X4505Y670D01*
X4478Y681D01*
X4456Y694D01*
X4446Y700D01*
X4439Y704D01*
X4433Y708D01*
X4429Y711D01*
X4426Y712D01*
X4425Y714D01*
X4410Y726D01*
X4398Y739D01*
X4388Y753D01*
X4378Y769D01*
X4370Y784D01*
X4364Y800D01*
X4354Y829D01*
X4348Y858D01*
X4347Y869D01*
X4346Y880D01*
X4344Y889D01*
Y900D01*
X4346Y920D01*
X4347Y939D01*
X4356Y975D01*
X4365Y1006D01*
X4378Y1031D01*
X4391Y1052D01*
X4398Y1059D01*
X4402Y1066D01*
X4406Y1072D01*
X4410Y1076D01*
X4412Y1077D01*
X4413Y1079D01*
X4427Y1092D01*
X4441Y1101D01*
X4475Y1120D01*
X4511Y1134D01*
X4544Y1144D01*
X4561Y1148D01*
X4577Y1152D01*
X4591Y1154D01*
X4602Y1156D01*
X4612Y1158D01*
X4619D01*
X4625Y1159D01*
X4626D01*
X4646Y1010D01*
X4619Y1007D01*
X4597Y1003D01*
X4577Y997D01*
X4560Y990D01*
X4544Y982D01*
X4533Y973D01*
X4523Y963D01*
X4515Y953D01*
X4509Y944D01*
X4505Y935D01*
X4499Y918D01*
X4498Y913D01*
X4496Y907D01*
Y903D01*
X4498Y887D01*
X4502Y872D01*
X4506Y859D01*
X4512Y849D01*
X4519Y841D01*
X4523Y835D01*
X4527Y831D01*
X4529Y829D01*
X4542Y819D01*
X4557Y812D01*
X4573Y808D01*
X4588Y804D01*
X4602Y803D01*
X4613Y801D01*
X4621D01*
X4622D01*
X4623D01*
X4644Y803D01*
X4666Y807D01*
X4685Y812D01*
X4702Y818D01*
X4718Y824D01*
X4729Y829D01*
X4736Y834D01*
X4739Y835D01*
X4747Y841D01*
X4757Y848D01*
X4780Y865D01*
X4804Y884D01*
X4829Y905D01*
X4853Y925D01*
X4864Y934D01*
X4873Y942D01*
X4880Y948D01*
X4886Y953D01*
X4890Y956D01*
X4891Y958D01*
X4917Y980D01*
X4942Y1000D01*
X4964Y1020D01*
X4986Y1037D01*
X5007Y1052D01*
X5025Y1065D01*
X5042Y1077D01*
X5058Y1087D01*
X5072Y1097D01*
X5083Y1106D01*
X5094Y1111D01*
X5103Y1117D01*
X5110Y1121D01*
X5114Y1123D01*
X5117Y1125D01*
X5118D01*
X5151Y1139D01*
X5183Y1151D01*
X5214Y1161D01*
X5241Y1166D01*
X5265Y1170D01*
X5275Y1173D01*
X5283Y1175D01*
X5290D01*
X5296Y1176D01*
X5299D01*
X5300D01*
Y650D01*
D02*
G37*
%LPC*%
G36*
X15049Y7603D02*
X15043D01*
X15029Y7602D01*
X15017Y7597D01*
X15007Y7591D01*
X14997Y7585D01*
X14990Y7578D01*
X14985Y7572D01*
X14981Y7567D01*
X14980Y7566D01*
X14972Y7550D01*
X14965Y7533D01*
X14960Y7514D01*
X14957Y7495D01*
X14955Y7478D01*
X14954Y7465D01*
Y7459D01*
Y7455D01*
Y7453D01*
Y7452D01*
X14955Y7425D01*
X14957Y7402D01*
X14961Y7383D01*
X14966Y7368D01*
X14971Y7355D01*
X14974Y7347D01*
X14977Y7342D01*
X14978Y7341D01*
X14987Y7330D01*
X14997Y7322D01*
X15007Y7317D01*
X15016Y7312D01*
X15025Y7310D01*
X15031Y7309D01*
X15037D01*
X15050Y7310D01*
X15063Y7315D01*
X15074Y7321D01*
X15083Y7329D01*
X15092Y7336D01*
X15098Y7342D01*
X15102Y7347D01*
X15103Y7348D01*
X15112Y7365D01*
X15118Y7384D01*
X15123Y7404D01*
X15127Y7422D01*
X15129Y7438D01*
X15130Y7453D01*
Y7458D01*
Y7461D01*
Y7464D01*
Y7465D01*
X15129Y7489D01*
X15127Y7510D01*
X15122Y7527D01*
X15117Y7542D01*
X15114Y7554D01*
X15109Y7562D01*
X15106Y7567D01*
X15105Y7568D01*
X15096Y7580D01*
X15085Y7589D01*
X15074Y7595D01*
X15064Y7598D01*
X15056Y7602D01*
X15049Y7603D01*
D02*
G37*
G36*
X16042Y7867D02*
X15955D01*
X15931Y7866D01*
X15912Y7865D01*
X15897Y7864D01*
X15886Y7862D01*
X15879Y7861D01*
X15874Y7860D01*
X15873D01*
X15860Y7855D01*
X15848Y7850D01*
X15837Y7843D01*
X15827Y7837D01*
X15820Y7830D01*
X15814Y7825D01*
X15810Y7822D01*
X15809Y7820D01*
X15800Y7808D01*
X15792Y7795D01*
X15785Y7781D01*
X15780Y7768D01*
X15776Y7756D01*
X15773Y7746D01*
X15771Y7740D01*
Y7739D01*
Y7738D01*
X15766Y7717D01*
X15764Y7693D01*
X15761Y7670D01*
X15759Y7647D01*
Y7627D01*
X15757Y7619D01*
Y7610D01*
Y7604D01*
Y7599D01*
Y7597D01*
Y7596D01*
Y7565D01*
X15760Y7537D01*
X15761Y7513D01*
X15764Y7492D01*
X15766Y7477D01*
X15768Y7465D01*
X15770Y7458D01*
X15771Y7456D01*
Y7455D01*
X15776Y7437D01*
X15780Y7420D01*
X15786Y7407D01*
X15791Y7396D01*
X15795Y7388D01*
X15798Y7382D01*
X15801Y7378D01*
X15802Y7377D01*
X15816Y7361D01*
X15832Y7351D01*
X15839Y7346D01*
X15844Y7343D01*
X15848Y7342D01*
X15849Y7341D01*
X15861Y7337D01*
X15875Y7334D01*
X15891Y7331D01*
X15906Y7330D01*
X15921D01*
X15932Y7329D01*
X16042D01*
Y7867D01*
D02*
G37*
G36*
X23Y7756D02*
Y7479D01*
X177D01*
X23Y7756D01*
D02*
G37*
G36*
X-665Y7854D02*
X-753D01*
X-777Y7853D01*
X-795Y7852D01*
X-811Y7850D01*
X-822Y7849D01*
X-829Y7848D01*
X-834Y7847D01*
X-835D01*
X-848Y7842D01*
X-860Y7837D01*
X-871Y7830D01*
X-881Y7824D01*
X-888Y7817D01*
X-894Y7812D01*
X-897Y7808D01*
X-899Y7807D01*
X-908Y7795D01*
X-915Y7782D01*
X-923Y7768D01*
X-927Y7754D01*
X-932Y7742D01*
X-935Y7733D01*
X-937Y7727D01*
Y7726D01*
Y7724D01*
X-942Y7704D01*
X-944Y7680D01*
X-947Y7657D01*
X-949Y7634D01*
Y7614D01*
X-950Y7605D01*
Y7597D01*
Y7591D01*
Y7586D01*
Y7584D01*
Y7583D01*
Y7551D01*
X-948Y7524D01*
X-947Y7500D01*
X-944Y7479D01*
X-942Y7464D01*
X-939Y7452D01*
X-938Y7444D01*
X-937Y7443D01*
Y7442D01*
X-932Y7424D01*
X-927Y7407D01*
X-921Y7394D01*
X-917Y7383D01*
X-913Y7375D01*
X-909Y7369D01*
X-907Y7365D01*
X-906Y7364D01*
X-891Y7348D01*
X-876Y7337D01*
X-869Y7333D01*
X-864Y7330D01*
X-860Y7329D01*
X-859Y7328D01*
X-847Y7324D01*
X-832Y7321D01*
X-817Y7318D01*
X-801Y7317D01*
X-787D01*
X-776Y7316D01*
X-665D01*
Y7854D01*
D02*
G37*
G36*
X-1464Y7801D02*
X-1557Y7500D01*
X-1374D01*
X-1464Y7801D01*
D02*
G37*
G36*
X-2704D02*
X-2797Y7500D01*
X-2614D01*
X-2704Y7801D01*
D02*
G37*
G36*
X-647Y8947D02*
X-735D01*
X-759Y8946D01*
X-777Y8945D01*
X-793Y8943D01*
X-804Y8942D01*
X-811Y8941D01*
X-816Y8940D01*
X-817D01*
X-830Y8935D01*
X-842Y8930D01*
X-853Y8923D01*
X-863Y8917D01*
X-870Y8910D01*
X-876Y8905D01*
X-879Y8901D01*
X-881Y8900D01*
X-890Y8888D01*
X-897Y8875D01*
X-905Y8860D01*
X-909Y8847D01*
X-914Y8835D01*
X-917Y8826D01*
X-919Y8820D01*
Y8818D01*
Y8817D01*
X-924Y8797D01*
X-926Y8773D01*
X-929Y8750D01*
X-931Y8727D01*
Y8707D01*
X-932Y8698D01*
Y8690D01*
Y8684D01*
Y8679D01*
Y8677D01*
Y8675D01*
Y8644D01*
X-930Y8617D01*
X-929Y8593D01*
X-926Y8572D01*
X-924Y8556D01*
X-921Y8544D01*
X-920Y8537D01*
X-919Y8536D01*
Y8535D01*
X-914Y8517D01*
X-909Y8500D01*
X-903Y8487D01*
X-899Y8476D01*
X-895Y8468D01*
X-891Y8462D01*
X-889Y8458D01*
X-888Y8457D01*
X-873Y8441D01*
X-858Y8430D01*
X-850Y8426D01*
X-846Y8423D01*
X-842Y8422D01*
X-841Y8421D01*
X-829Y8417D01*
X-814Y8413D01*
X-799Y8411D01*
X-783Y8410D01*
X-769D01*
X-758Y8409D01*
X-647D01*
Y8947D01*
D02*
G37*
G36*
X-1446Y8894D02*
X-1539Y8593D01*
X-1356D01*
X-1446Y8894D01*
D02*
G37*
G36*
X-2686D02*
X-2779Y8593D01*
X-2596D01*
X-2686Y8894D01*
D02*
G37*
G36*
X10859Y6662D02*
X10701D01*
X10686Y6660D01*
X10660D01*
X10649Y6659D01*
X10641D01*
X10632Y6658D01*
X10621Y6656D01*
X10614Y6655D01*
X10610Y6653D01*
X10608D01*
X10597Y6649D01*
X10587Y6643D01*
X10579Y6636D01*
X10572Y6631D01*
X10566Y6625D01*
X10562Y6620D01*
X10560Y6617D01*
X10559Y6615D01*
X10553Y6604D01*
X10548Y6593D01*
X10543Y6569D01*
X10542Y6558D01*
X10541Y6549D01*
Y6543D01*
Y6542D01*
X10542Y6525D01*
X10543Y6511D01*
X10546Y6497D01*
X10549Y6487D01*
X10553Y6477D01*
X10556Y6472D01*
X10557Y6467D01*
X10559Y6466D01*
X10566Y6456D01*
X10574Y6448D01*
X10581Y6442D01*
X10590Y6436D01*
X10597Y6432D01*
X10601Y6429D01*
X10605Y6428D01*
X10607D01*
X10614Y6426D01*
X10621Y6425D01*
X10641Y6424D01*
X10663Y6421D01*
X10686D01*
X10708Y6419D01*
X10859D01*
Y6662D01*
D02*
G37*
G36*
X4542Y6627D02*
X4384D01*
X4369Y6626D01*
X4343D01*
X4332Y6624D01*
X4324D01*
X4315Y6623D01*
X4304Y6621D01*
X4297Y6620D01*
X4293Y6619D01*
X4291D01*
X4280Y6614D01*
X4270Y6609D01*
X4262Y6602D01*
X4255Y6596D01*
X4249Y6590D01*
X4245Y6585D01*
X4243Y6582D01*
X4242Y6581D01*
X4236Y6569D01*
X4231Y6558D01*
X4226Y6534D01*
X4225Y6523D01*
X4224Y6514D01*
Y6509D01*
Y6507D01*
X4225Y6490D01*
X4226Y6476D01*
X4229Y6462D01*
X4232Y6452D01*
X4236Y6442D01*
X4239Y6437D01*
X4240Y6433D01*
X4242Y6431D01*
X4249Y6421D01*
X4257Y6413D01*
X4264Y6407D01*
X4273Y6402D01*
X4280Y6397D01*
X4284Y6394D01*
X4288Y6393D01*
X4290D01*
X4297Y6392D01*
X4304Y6390D01*
X4324Y6389D01*
X4346Y6386D01*
X4369D01*
X4391Y6385D01*
X4542D01*
Y6627D01*
D02*
G37*
G36*
X8342Y21492D02*
X8239D01*
X8211Y21491D01*
X8190Y21489D01*
X8172Y21488D01*
X8159Y21487D01*
X8150Y21485D01*
X8145Y21484D01*
X8143D01*
X8128Y21478D01*
X8114Y21473D01*
X8101Y21464D01*
X8090Y21457D01*
X8081Y21449D01*
X8074Y21443D01*
X8070Y21439D01*
X8069Y21437D01*
X8057Y21423D01*
X8049Y21408D01*
X8040Y21391D01*
X8035Y21375D01*
X8029Y21361D01*
X8026Y21350D01*
X8024Y21343D01*
Y21341D01*
Y21340D01*
X8018Y21316D01*
X8015Y21288D01*
X8012Y21261D01*
X8009Y21234D01*
Y21210D01*
X8008Y21200D01*
Y21191D01*
Y21184D01*
Y21178D01*
Y21175D01*
Y21174D01*
Y21137D01*
X8011Y21105D01*
X8012Y21076D01*
X8015Y21052D01*
X8018Y21034D01*
X8021Y21020D01*
X8022Y21012D01*
X8024Y21010D01*
Y21009D01*
X8029Y20988D01*
X8035Y20968D01*
X8042Y20952D01*
X8047Y20940D01*
X8052Y20930D01*
X8056Y20923D01*
X8059Y20919D01*
X8060Y20917D01*
X8077Y20899D01*
X8095Y20886D01*
X8104Y20880D01*
X8110Y20878D01*
X8114Y20876D01*
X8115Y20875D01*
X8129Y20871D01*
X8146Y20866D01*
X8164Y20864D01*
X8183Y20862D01*
X8200D01*
X8212Y20861D01*
X8342D01*
Y21492D01*
D02*
G37*
G36*
X7554D02*
X7451D01*
X7423Y21491D01*
X7402Y21489D01*
X7384Y21488D01*
X7371Y21487D01*
X7362Y21485D01*
X7357Y21484D01*
X7355D01*
X7340Y21478D01*
X7326Y21473D01*
X7313Y21464D01*
X7302Y21457D01*
X7293Y21449D01*
X7286Y21443D01*
X7282Y21439D01*
X7281Y21437D01*
X7269Y21423D01*
X7261Y21408D01*
X7252Y21391D01*
X7247Y21375D01*
X7241Y21361D01*
X7238Y21350D01*
X7235Y21343D01*
Y21341D01*
Y21340D01*
X7230Y21316D01*
X7227Y21288D01*
X7224Y21261D01*
X7221Y21234D01*
Y21210D01*
X7220Y21200D01*
Y21191D01*
Y21184D01*
Y21178D01*
Y21175D01*
Y21174D01*
Y21137D01*
X7223Y21105D01*
X7224Y21076D01*
X7227Y21052D01*
X7230Y21034D01*
X7233Y21020D01*
X7234Y21012D01*
X7235Y21010D01*
Y21009D01*
X7241Y20988D01*
X7247Y20968D01*
X7254Y20952D01*
X7259Y20940D01*
X7264Y20930D01*
X7268Y20923D01*
X7271Y20919D01*
X7272Y20917D01*
X7289Y20899D01*
X7307Y20886D01*
X7316Y20880D01*
X7321Y20878D01*
X7326Y20876D01*
X7327Y20875D01*
X7341Y20871D01*
X7358Y20866D01*
X7376Y20864D01*
X7395Y20862D01*
X7412D01*
X7424Y20861D01*
X7554D01*
Y21492D01*
D02*
G37*
G36*
X9489Y2542D02*
X8858D01*
Y2439D01*
X8859Y2411D01*
X8861Y2390D01*
X8862Y2372D01*
X8863Y2359D01*
X8865Y2350D01*
X8866Y2345D01*
Y2343D01*
X8872Y2328D01*
X8877Y2314D01*
X8886Y2301D01*
X8893Y2290D01*
X8901Y2281D01*
X8907Y2274D01*
X8911Y2270D01*
X8913Y2269D01*
X8927Y2257D01*
X8942Y2249D01*
X8959Y2240D01*
X8975Y2235D01*
X8989Y2229D01*
X9000Y2226D01*
X9007Y2224D01*
X9009D01*
X9010D01*
X9034Y2218D01*
X9062Y2215D01*
X9089Y2212D01*
X9116Y2209D01*
X9140D01*
X9150Y2208D01*
X9159D01*
X9166D01*
X9172D01*
X9175D01*
X9176D01*
X9213D01*
X9245Y2211D01*
X9274Y2212D01*
X9298Y2215D01*
X9316Y2218D01*
X9330Y2221D01*
X9338Y2222D01*
X9340Y2224D01*
X9341D01*
X9362Y2229D01*
X9382Y2235D01*
X9398Y2242D01*
X9410Y2247D01*
X9420Y2252D01*
X9427Y2256D01*
X9432Y2259D01*
X9433Y2260D01*
X9451Y2277D01*
X9464Y2295D01*
X9470Y2304D01*
X9472Y2310D01*
X9474Y2314D01*
X9475Y2315D01*
X9479Y2329D01*
X9484Y2346D01*
X9486Y2364D01*
X9488Y2383D01*
Y2400D01*
X9489Y2412D01*
Y2542D01*
D02*
G37*
G36*
X9274Y1710D02*
X8920Y1605D01*
X9274Y1496D01*
Y1710D01*
D02*
G37*
G36*
X5139Y2542D02*
X4508D01*
Y2439D01*
X4509Y2411D01*
X4511Y2390D01*
X4512Y2372D01*
X4513Y2359D01*
X4515Y2350D01*
X4516Y2345D01*
Y2343D01*
X4522Y2328D01*
X4527Y2314D01*
X4536Y2301D01*
X4543Y2290D01*
X4551Y2281D01*
X4557Y2274D01*
X4561Y2270D01*
X4563Y2269D01*
X4577Y2257D01*
X4592Y2249D01*
X4609Y2240D01*
X4625Y2235D01*
X4639Y2229D01*
X4650Y2226D01*
X4657Y2224D01*
X4659D01*
X4660D01*
X4684Y2218D01*
X4712Y2215D01*
X4739Y2212D01*
X4766Y2209D01*
X4790D01*
X4800Y2208D01*
X4809D01*
X4816D01*
X4822D01*
X4825D01*
X4826D01*
X4863D01*
X4895Y2211D01*
X4924Y2212D01*
X4948Y2215D01*
X4966Y2218D01*
X4980Y2221D01*
X4988Y2222D01*
X4990Y2224D01*
X4991D01*
X5012Y2229D01*
X5032Y2235D01*
X5048Y2242D01*
X5060Y2247D01*
X5070Y2252D01*
X5077Y2256D01*
X5082Y2259D01*
X5083Y2260D01*
X5101Y2277D01*
X5114Y2295D01*
X5120Y2304D01*
X5122Y2310D01*
X5124Y2314D01*
X5125Y2315D01*
X5129Y2329D01*
X5134Y2346D01*
X5136Y2364D01*
X5138Y2383D01*
Y2400D01*
X5139Y2412D01*
Y2542D01*
D02*
G37*
G36*
X4924Y1710D02*
X4570Y1605D01*
X4924Y1496D01*
Y1710D01*
D02*
G37*
%LPD*%
D10*
X9500Y6900D02*
X9500Y5700D01*
X7325Y5700D02*
X7325Y6900D01*
X7325Y5700D02*
X9500Y5700D01*
X7325Y6900D02*
X9500Y6900D01*
X4900Y6900D02*
X4900Y5700D01*
X7075Y5700D02*
X7075Y6900D01*
X4900Y6900D02*
X7075Y6900D01*
X4900Y5700D02*
X7075Y5700D01*
X13932Y7035D02*
X15853Y6013D01*
X13369Y5975D02*
X15290Y4954D01*
X13369Y5975D02*
X13932Y7035D01*
X15290Y4954D02*
X15853Y6013D01*
X14975Y14075D02*
X14975Y11900D01*
X16175Y14075D02*
X16175Y11900D01*
X14975Y11900D02*
X16175Y11900D01*
X14975Y14075D02*
X16175Y14075D01*
X13569Y20282D02*
X15453Y21370D01*
X14169Y19243D02*
X16053Y20330D01*
X13569Y20282D02*
X14169Y19243D01*
X15453Y21370D02*
X16053Y20330D01*
X4500Y23581D02*
X4500Y21406D01*
X5700Y23581D02*
X5700Y21406D01*
X4500Y21406D02*
X5700Y21406D01*
X4500Y23581D02*
X5700Y23581D01*
X0Y14015D02*
X0Y11840D01*
X-1200Y14015D02*
X-1200Y11840D01*
X-1200Y14015D02*
X0Y14015D01*
X-1200Y11840D02*
X0Y11840D01*
X-53Y4730D02*
X1831Y5818D01*
X-653Y5770D02*
X1231Y6857D01*
X1831Y5818D01*
X-653Y5770D02*
X-53Y4730D01*
X14550Y12850D02*
X14550Y7250D01*
X500Y7250D02*
X500Y12850D01*
X500Y7250D02*
X14550Y7250D01*
X500Y12850D02*
X14550Y12850D01*
X-1300Y16198D02*
X875Y16198D01*
X-1300Y17398D02*
X875Y17398D01*
Y16198D02*
Y17398D01*
X-1300Y17398D02*
X-1300Y16198D01*
X14225Y17398D02*
X16400Y17398D01*
X14225Y16198D02*
X16400Y16198D01*
X14225Y17398D02*
X14225Y16198D01*
X16400Y17398D02*
X16400Y16198D01*
X5470Y4300D02*
X6330D01*
X6560Y2900D02*
X7420D01*
X4380D02*
X5240D01*
X7420D02*
Y3900D01*
X4380Y2900D02*
Y3900D01*
X8770Y2900D02*
X9630Y2900D01*
X7680Y4300D02*
X8540Y4300D01*
X9860Y4300D02*
X10720Y4300D01*
X7680Y4300D02*
X7680Y3300D01*
X10720Y4300D02*
X10720Y3300D01*
X1205Y18348D02*
X1205Y15273D01*
X2755D02*
X2755Y18348D01*
X1205Y15273D02*
X2755D01*
X1205Y18348D02*
X2755Y18348D01*
X11925Y15898D02*
X11925Y17698D01*
X3125Y15898D02*
X3125Y17698D01*
X3125Y15898D02*
X11925D01*
X3125Y17698D02*
X11925D01*
D11*
X3771Y22481D02*
G03*
X3771Y22481I-1750J0D01*
G01*
X14789Y22481D02*
G03*
X14789Y22481I-1750J0D01*
G01*
X-1738Y12939D02*
G03*
X-1738Y12939I-1750J0D01*
G01*
X3771Y3397D02*
G03*
X3771Y3397I-1750J0D01*
G01*
X14788Y3397D02*
G03*
X14788Y3397I-1750J0D01*
G01*
X20297Y12939D02*
G03*
X20297Y12939I-1750J0D01*
G01*
D51*
X2990Y19198D02*
G03*
X2990Y19198I-125J0D01*
G01*
D52*
X1450Y13120D02*
X2510D01*
X1450Y15080D02*
X2510D01*
X1450Y13120D02*
Y15080D01*
X2510Y13120D02*
Y15080D01*
D53*
X1750Y8125D02*
D03*
M02*
