G04*
G04 #@! TF.GenerationSoftware,Altium Limited,Altium Designer,22.7.1 (60)*
G04*
G04 Layer_Color=16711935*
%FSLAX43Y43*%
%MOMM*%
G71*
G04*
G04 #@! TF.SameCoordinates,4835CE25-E48C-4DDB-B082-209FFF86AC7D*
G04*
G04*
G04 #@! TF.FilePolarity,Negative*
G04*
G01*
G75*
G04:AMPARAMS|DCode=18|XSize=0.91mm|YSize=0.9mm|CornerRadius=0.225mm|HoleSize=0mm|Usage=FLASHONLY|Rotation=90.000|XOffset=0mm|YOffset=0mm|HoleType=Round|Shape=RoundedRectangle|*
%AMROUNDEDRECTD18*
21,1,0.910,0.450,0,0,90.0*
21,1,0.460,0.900,0,0,90.0*
1,1,0.450,0.225,0.230*
1,1,0.450,0.225,-0.230*
1,1,0.450,-0.225,-0.230*
1,1,0.450,-0.225,0.230*
%
%ADD18ROUNDEDRECTD18*%
G04:AMPARAMS|DCode=20|XSize=0.91mm|YSize=0.9mm|CornerRadius=0.225mm|HoleSize=0mm|Usage=FLASHONLY|Rotation=210.000|XOffset=0mm|YOffset=0mm|HoleType=Round|Shape=RoundedRectangle|*
%AMROUNDEDRECTD20*
21,1,0.910,0.450,0,0,210.0*
21,1,0.460,0.900,0,0,210.0*
1,1,0.450,-0.312,0.080*
1,1,0.450,0.087,0.310*
1,1,0.450,0.312,-0.080*
1,1,0.450,-0.087,-0.310*
%
%ADD20ROUNDEDRECTD20*%
%ADD22C,2.300*%
G04:AMPARAMS|DCode=43|XSize=0.91mm|YSize=0.9mm|CornerRadius=0.225mm|HoleSize=0mm|Usage=FLASHONLY|Rotation=180.000|XOffset=0mm|YOffset=0mm|HoleType=Round|Shape=RoundedRectangle|*
%AMROUNDEDRECTD43*
21,1,0.910,0.450,0,0,180.0*
21,1,0.460,0.900,0,0,180.0*
1,1,0.450,-0.230,0.225*
1,1,0.450,0.230,0.225*
1,1,0.450,0.230,-0.225*
1,1,0.450,-0.230,-0.225*
%
%ADD43ROUNDEDRECTD43*%
G04:AMPARAMS|DCode=44|XSize=0.91mm|YSize=0.9mm|CornerRadius=0.225mm|HoleSize=0mm|Usage=FLASHONLY|Rotation=152.000|XOffset=0mm|YOffset=0mm|HoleType=Round|Shape=RoundedRectangle|*
%AMROUNDEDRECTD44*
21,1,0.910,0.450,0,0,152.0*
21,1,0.460,0.900,0,0,152.0*
1,1,0.450,-0.097,0.307*
1,1,0.450,0.309,0.091*
1,1,0.450,0.097,-0.307*
1,1,0.450,-0.309,-0.091*
%
%ADD44ROUNDEDRECTD44*%
G04:AMPARAMS|DCode=45|XSize=2.4mm|YSize=3.3mm|CornerRadius=0.413mm|HoleSize=0mm|Usage=FLASHONLY|Rotation=180.000|XOffset=0mm|YOffset=0mm|HoleType=Round|Shape=RoundedRectangle|*
%AMROUNDEDRECTD45*
21,1,2.400,2.475,0,0,180.0*
21,1,1.575,3.300,0,0,180.0*
1,1,0.825,-0.788,1.238*
1,1,0.825,0.788,1.238*
1,1,0.825,0.788,-1.238*
1,1,0.825,-0.788,-1.238*
%
%ADD45ROUNDEDRECTD45*%
G04:AMPARAMS|DCode=46|XSize=1.1mm|YSize=1.6mm|CornerRadius=0.25mm|HoleSize=0mm|Usage=FLASHONLY|Rotation=180.000|XOffset=0mm|YOffset=0mm|HoleType=Round|Shape=RoundedRectangle|*
%AMROUNDEDRECTD46*
21,1,1.100,1.100,0,0,180.0*
21,1,0.600,1.600,0,0,180.0*
1,1,0.500,-0.300,0.550*
1,1,0.500,0.300,0.550*
1,1,0.500,0.300,-0.550*
1,1,0.500,-0.300,-0.550*
%
%ADD46ROUNDEDRECTD46*%
G04:AMPARAMS|DCode=47|XSize=0.91mm|YSize=1.65mm|CornerRadius=0.226mm|HoleSize=0mm|Usage=FLASHONLY|Rotation=180.000|XOffset=0mm|YOffset=0mm|HoleType=Round|Shape=RoundedRectangle|*
%AMROUNDEDRECTD47*
21,1,0.910,1.198,0,0,180.0*
21,1,0.458,1.650,0,0,180.0*
1,1,0.453,-0.229,0.599*
1,1,0.453,0.229,0.599*
1,1,0.453,0.229,-0.599*
1,1,0.453,-0.229,-0.599*
%
%ADD47ROUNDEDRECTD47*%
G04:AMPARAMS|DCode=48|XSize=1.24mm|YSize=1.33mm|CornerRadius=0.268mm|HoleSize=0mm|Usage=FLASHONLY|Rotation=270.000|XOffset=0mm|YOffset=0mm|HoleType=Round|Shape=RoundedRectangle|*
%AMROUNDEDRECTD48*
21,1,1.240,0.795,0,0,270.0*
21,1,0.705,1.330,0,0,270.0*
1,1,0.535,-0.398,-0.353*
1,1,0.535,-0.398,0.353*
1,1,0.535,0.398,0.353*
1,1,0.535,0.398,-0.353*
%
%ADD48ROUNDEDRECTD48*%
G04:AMPARAMS|DCode=49|XSize=0.98mm|YSize=2.47mm|CornerRadius=0.235mm|HoleSize=0mm|Usage=FLASHONLY|Rotation=180.000|XOffset=0mm|YOffset=0mm|HoleType=Round|Shape=RoundedRectangle|*
%AMROUNDEDRECTD49*
21,1,0.980,2.000,0,0,180.0*
21,1,0.510,2.470,0,0,180.0*
1,1,0.470,-0.255,1.000*
1,1,0.470,0.255,1.000*
1,1,0.470,0.255,-1.000*
1,1,0.470,-0.255,-1.000*
%
%ADD49ROUNDEDRECTD49*%
G04:AMPARAMS|DCode=50|XSize=0.89mm|YSize=0.9mm|CornerRadius=0.224mm|HoleSize=0mm|Usage=FLASHONLY|Rotation=90.000|XOffset=0mm|YOffset=0mm|HoleType=Round|Shape=RoundedRectangle|*
%AMROUNDEDRECTD50*
21,1,0.890,0.453,0,0,90.0*
21,1,0.443,0.900,0,0,90.0*
1,1,0.447,0.226,0.221*
1,1,0.447,0.226,-0.221*
1,1,0.447,-0.226,-0.221*
1,1,0.447,-0.226,0.221*
%
%ADD50ROUNDEDRECTD50*%
D18*
X15575Y13475D02*
D03*
X15575Y12475D02*
D03*
X5100Y22981D02*
D03*
X5100Y21981D02*
D03*
X-600Y12440D02*
D03*
X-600Y13440D02*
D03*
D20*
X15233Y20550D02*
D03*
X14367Y20050D02*
D03*
X167Y5550D02*
D03*
X1033Y6050D02*
D03*
D22*
X-3488Y12939D02*
D03*
X2021Y3397D02*
D03*
X13038Y3397D02*
D03*
X18547Y12939D02*
D03*
X13039Y22481D02*
D03*
X2021Y22481D02*
D03*
D43*
X7900Y6300D02*
D03*
X8900Y6300D02*
D03*
X6500Y6300D02*
D03*
X5500Y6300D02*
D03*
X-700Y16798D02*
D03*
X300Y16798D02*
D03*
X15800Y16798D02*
D03*
X14800Y16798D02*
D03*
D44*
X15041Y5765D02*
D03*
X14158Y6235D02*
D03*
D45*
X13200Y11000D02*
D03*
X1850Y11000D02*
D03*
D46*
X10650Y8250D02*
D03*
X9400Y8250D02*
D03*
X4400D02*
D03*
X5650Y8250D02*
D03*
X8150Y8250D02*
D03*
X6900Y8250D02*
D03*
D47*
X5900Y2600D02*
D03*
X6850Y4600D02*
D03*
X4950D02*
D03*
X9200D02*
D03*
X8250Y2600D02*
D03*
X10150Y2600D02*
D03*
D48*
X1980Y17598D02*
D03*
X1980Y15998D02*
D03*
D49*
X11335Y14373D02*
D03*
X10065Y14373D02*
D03*
X8795Y14373D02*
D03*
X7525D02*
D03*
X6255Y14373D02*
D03*
X4985Y14373D02*
D03*
X3715Y14373D02*
D03*
X11335Y19223D02*
D03*
X10065Y19223D02*
D03*
X8795Y19223D02*
D03*
X7525Y19223D02*
D03*
X6255D02*
D03*
X4985Y19223D02*
D03*
X3715Y19223D02*
D03*
D50*
X1980Y14625D02*
D03*
Y13600D02*
D03*
M02*
